<svg width="24" height="24" viewBox="0 0 24 24" fill="none" xmlns="http://www.w3.org/2000/svg">
<path d="M10 21.5C10.5523 21.5 11 21.0523 11 20.5C11 19.9477 10.5523 19.5 10 19.5C9.44772 19.5 9 19.9477 9 20.5C9 21.0523 9.44772 21.5 10 21.5Z" stroke="#2C3038" stroke-width="2" stroke-linecap="round" stroke-linejoin="round"/>
<path d="M18 21.5C18.5523 21.5 19 21.0523 19 20.5C19 19.9477 18.5523 19.5 18 19.5C17.4477 19.5 17 19.9477 17 20.5C17 21.0523 17.4477 21.5 18 21.5Z" stroke="#2C3038" stroke-width="2" stroke-linecap="round" stroke-linejoin="round"/>
<path d="M2.5 2.5H5.5L8.2 14.9C8.2935 15.3586 8.54485 15.7698 8.91028 16.0621C9.27572 16.3545 9.73211 16.5094 10.2 16.5H17.9C18.3679 16.5094 18.8243 16.3545 19.1897 16.0621C19.5552 15.7698 19.8065 15.3586 19.9 14.9L21.5 6.5H7.1" stroke="#2C3038" stroke-width="2" stroke-linecap="round" stroke-linejoin="round"/>
</svg>
