<svg width="48" height="48" viewBox="0 0 48 48" fill="none" xmlns="http://www.w3.org/2000/svg">
<circle cx="24" cy="24" r="24" fill="#563D7C"/>
<path d="M24.6446 33C28.6151 33 31 31.1739 31 28.1816C31 25.9667 29.3241 24.3292 26.8103 24.0936V23.8933C28.6409 23.6105 30.0718 22.0201 30.0718 20.2412C30.0718 17.6258 27.9705 16 24.477 16H17V33H24.6446ZM19.8877 18.2384H23.8066C25.9466 18.2384 27.1971 19.1573 27.1971 20.7242C27.1971 22.3382 25.8692 23.1982 23.3168 23.1982H19.8877V18.2384ZM19.8877 30.7616V25.2834H23.8969C26.6169 25.2834 28.0479 26.2141 28.0479 27.9931C28.0479 29.7956 26.6685 30.7616 24.0645 30.7616H19.8877Z" fill="white"/>
</svg>
