<svg width="48" height="48" viewBox="0 0 48 48" fill="none" xmlns="http://www.w3.org/2000/svg">
<circle cx="24" cy="24" r="24" fill="#81B441"/>
<g clip-path="url(#clip0)">
<path d="M31.4013 12.197C30.6613 11.826 28.6803 11.95 26.2063 12.817C21.9993 15.785 18.5323 19.992 18.1623 26.926C18.1623 27.167 17.6693 26.926 17.5453 26.8C16.4313 24.696 15.9353 22.345 16.9253 18.879C17.1723 18.632 16.5553 18.262 16.5553 18.385C16.3063 18.508 15.4413 19.498 14.8213 20.488C11.9743 25.435 13.8313 31.999 18.7823 34.719C23.7293 37.44 30.1643 35.707 33.0133 30.633C36.3553 24.819 33.3823 13.311 31.4013 12.197" fill="white"/>
</g>
<defs>
<clipPath id="clip0">
<rect width="24" height="24" fill="white" transform="translate(12 12)"/>
</clipPath>
</defs>
</svg>
