<svg width="162" height="48" viewBox="0 0 162 48" fill="none" xmlns="http://www.w3.org/2000/svg">
<g clip-path="url(#clip0)">
<path d="M160.912 42.3318C160.912 42.9359 160.793 43.5341 160.561 44.0921C160.33 44.6501 159.991 45.1571 159.563 45.584C159.136 46.0109 158.628 46.3494 158.07 46.5802C157.512 46.8109 156.913 46.9293 156.309 46.9287H5.67727C4.45639 46.93 3.28499 46.4464 2.42069 45.5844C1.55639 44.7223 1.06995 43.5524 1.06836 42.3318V5.6732C1.06995 4.45209 1.55619 3.28153 2.42032 2.41852C3.28446 1.55552 4.45584 1.07063 5.67727 1.07031H156.308C156.912 1.07031 157.511 1.18938 158.069 1.42071C158.628 1.65204 159.135 1.99111 159.563 2.41854C159.99 2.84597 160.329 3.3534 160.561 3.91184C160.792 4.47028 160.911 5.06879 160.911 5.6732L160.912 42.3318Z" fill="white"/>
<path d="M156.309 47.9979H5.6774C4.17342 47.9976 2.73099 47.4008 1.66661 46.3386C0.602239 45.2763 0.00286166 43.8352 0 42.3317L0 5.67424C0.00222492 4.16991 0.601207 2.72789 1.66555 1.66451C2.72989 0.60113 4.17267 0.00322283 5.6774 0.00195312L156.308 0.00195313C157.812 0.00385639 159.255 0.601967 160.319 1.66521C161.383 2.72846 161.982 4.17011 161.985 5.67424V42.3317C161.988 45.4571 159.436 47.9979 156.309 47.9979Z" fill="#A6A6A6"/>
<path d="M160.912 42.3318C160.912 42.9359 160.793 43.5341 160.561 44.0921C160.33 44.6501 159.991 45.1571 159.563 45.584C159.136 46.0109 158.628 46.3494 158.07 46.5802C157.512 46.8109 156.913 46.9293 156.309 46.9287H5.67727C4.45639 46.93 3.28499 46.4464 2.42069 45.5844C1.55639 44.7223 1.06995 43.5524 1.06836 42.3318V5.6732C1.06995 4.45209 1.55619 3.28153 2.42032 2.41852C3.28446 1.55552 4.45584 1.07063 5.67727 1.07031H156.308C156.912 1.07031 157.511 1.18938 158.069 1.42071C158.628 1.65204 159.135 1.99111 159.563 2.41854C159.99 2.84597 160.329 3.3534 160.561 3.91184C160.792 4.47028 160.911 5.06879 160.911 5.6732L160.912 42.3318Z" fill="black"/>
<path d="M36.1703 23.7474C36.1355 19.879 39.3385 17.9971 39.485 17.9095C37.671 15.2654 34.8593 14.9041 33.8712 14.8753C31.5097 14.6268 29.2191 16.288 28.0161 16.288C26.7892 16.288 24.9367 14.8993 22.9402 14.9401C20.371 14.9797 17.9675 16.4668 16.6493 18.776C13.9289 23.4845 15.9578 30.4039 18.5642 34.2098C19.868 36.0749 21.3915 38.1549 23.3856 38.0817C25.3365 38.0025 26.0652 36.8395 28.4195 36.8395C30.7522 36.8395 31.4365 38.0817 33.4702 38.0349C35.564 38.0025 36.8822 36.1626 38.1404 34.2818C39.6471 32.1466 40.2521 30.0414 40.2761 29.9334C40.2281 29.9166 36.2111 28.3827 36.1703 23.7474ZM32.3285 12.3716C33.3778 11.0598 34.0957 9.27501 33.8964 7.46387C32.3777 7.53108 30.4785 8.51407 29.3848 9.79711C28.4171 10.9277 27.5527 12.7809 27.776 14.5236C29.482 14.6508 31.2336 13.6631 32.3285 12.3716Z" fill="white"/>
<path d="M156.309 0.00195313H75.626L107.228 47.9979H156.309C157.813 47.9967 159.256 47.3991 160.32 46.3362C161.384 45.2734 161.983 43.832 161.986 42.3281V5.67424C161.984 4.17001 161.385 2.72817 160.32 1.66486C159.256 0.601549 157.814 0.00353973 156.309 0.00195312V0.00195313Z" fill="url(#paint0_linear)"/>
<path d="M64.4276 37.8136H61.7012L60.2077 33.1219H55.0165L53.5939 37.8136H50.9395L56.0838 21.8409H59.2605L64.4276 37.8136ZM59.7575 31.1535L58.4069 26.9827C58.264 26.5566 57.9951 25.5532 57.6013 23.9737H57.5533C57.3948 24.6531 57.1415 25.6565 56.7945 26.9827L55.4667 31.1535H59.7575ZM77.6313 31.9133C77.6313 33.872 77.0994 35.4203 76.0345 36.557C75.0813 37.5687 73.8964 38.074 72.4833 38.074C70.9574 38.074 69.8601 37.5303 69.1938 36.4405V42.4837H66.6342V30.0817C66.6342 28.8515 66.6018 27.59 66.5394 26.2962H68.7904L68.9333 28.1217H68.9813C69.8349 26.7463 71.1303 26.0585 72.8687 26.0585C74.2277 26.0585 75.3622 26.595 76.2698 27.6693C77.1763 28.7459 77.6313 30.1597 77.6313 31.9133ZM75.0237 32.0069C75.0237 30.8859 74.7716 29.9617 74.2649 29.2332C73.7115 28.4758 72.9683 28.0965 72.0367 28.0965C71.4052 28.0965 70.8314 28.3078 70.3187 28.7243C69.8049 29.1443 69.4687 29.6928 69.3115 30.3722C69.2413 30.6262 69.2014 30.8877 69.1926 31.1511V33.0727C69.1926 33.9092 69.4495 34.6162 69.9634 35.1947C70.4772 35.7708 71.1447 36.0601 71.9659 36.0601C72.9299 36.0601 73.6803 35.6868 74.2169 34.9462C74.7547 34.2033 75.0237 33.2239 75.0237 32.0069ZM90.8817 31.9133C90.8817 33.872 90.3499 35.4203 89.285 36.557C88.3306 37.5687 87.1468 38.074 85.7326 38.074C84.2067 38.074 83.1094 37.5303 82.4431 36.4405V42.4837H79.8835V30.0817C79.8835 28.8515 79.8511 27.59 79.7887 26.2962H82.0397L82.1826 28.1217H82.2306C83.083 26.7463 84.3784 26.0585 86.118 26.0585C87.4758 26.0585 88.6103 26.595 89.5203 27.6693C90.4255 28.7459 90.8817 30.1597 90.8817 31.9133ZM88.2729 32.0069C88.2729 30.8859 88.0196 29.9617 87.513 29.2332C86.9595 28.4758 86.2188 28.0965 85.2872 28.0965C84.6557 28.0965 84.0818 28.3078 83.5668 28.7243C83.053 29.1443 82.718 29.6928 82.5607 30.3722C82.4827 30.689 82.4407 30.9471 82.4407 31.1511V33.0727C82.4407 33.9092 82.6988 34.6162 83.2102 35.1947C83.7241 35.7696 84.3916 36.0601 85.2151 36.0601C86.1804 36.0601 86.9307 35.6868 87.4662 34.9462C88.004 34.2033 88.2729 33.2239 88.2729 32.0069ZM105.697 33.3331C105.697 34.693 105.221 35.7984 104.276 36.6518C103.237 37.5831 101.785 38.05 99.9243 38.05C98.2051 38.05 96.8269 37.7188 95.7872 37.055L96.379 34.9222C97.5016 35.5872 98.7345 35.9184 100.077 35.9184C101.042 35.9184 101.792 35.7 102.328 35.2667C102.864 34.8322 103.136 34.2513 103.136 33.5264C103.136 32.877 102.911 32.3333 102.471 31.8905C102.028 31.4488 101.295 31.0371 100.266 30.659C97.4691 29.616 96.0693 28.0905 96.0693 26.0837C96.0693 24.7731 96.5639 23.7001 97.5508 22.8611C98.5376 22.0234 99.8462 21.6045 101.474 21.6045C102.928 21.6045 104.139 21.8577 105.101 22.363L104.459 24.449C103.554 23.9593 102.532 23.7145 101.389 23.7145C100.486 23.7145 99.7778 23.9365 99.2712 24.3782C98.845 24.7731 98.6289 25.2544 98.6289 25.8257C98.6289 26.4558 98.875 26.9791 99.3648 27.3896C99.7898 27.7677 100.565 28.1793 101.687 28.621C103.062 29.1755 104.073 29.8213 104.72 30.563C105.372 31.3047 105.697 32.2301 105.697 33.3331ZM114.181 28.2166H111.36V33.8084C111.36 35.2307 111.857 35.94 112.853 35.94C113.31 35.94 113.69 35.9016 113.99 35.8212L114.061 37.7644C113.557 37.9528 112.893 38.0476 112.07 38.0476C111.059 38.0476 110.269 37.7392 109.699 37.1223C109.131 36.5053 108.846 35.4719 108.846 34.0173V28.2118H107.165V26.2914H108.846V24.1826L111.36 23.424V26.2914H114.181V28.2166ZM126.885 31.9601C126.885 33.7304 126.378 35.1839 125.368 36.3205C124.31 37.4907 122.903 38.074 121.149 38.074C119.456 38.074 118.11 37.5135 117.107 36.3937C116.103 35.2715 115.601 33.8576 115.601 32.1521C115.601 30.3674 116.12 28.9055 117.153 27.7689C118.189 26.6311 119.584 26.0621 121.338 26.0621C123.029 26.0621 124.387 26.6239 125.414 27.7449C126.396 28.8323 126.885 30.2365 126.885 31.9601ZM124.232 32.0189C124.232 30.9639 124.004 30.0589 123.546 29.3016C123.01 28.387 122.241 27.9297 121.246 27.9297C120.221 27.9297 119.434 28.387 118.899 29.3016C118.44 30.0589 118.212 30.9795 118.212 32.0669C118.212 33.1231 118.44 34.0305 118.899 34.7854C119.452 35.7 120.224 36.1573 121.224 36.1573C122.203 36.1573 122.97 35.6904 123.525 34.7626C123.995 33.9873 124.232 33.0763 124.232 32.0189ZM135.208 28.5466C134.942 28.4986 134.672 28.4749 134.402 28.4758C133.501 28.4758 132.805 28.8143 132.315 29.496C131.89 30.0961 131.676 30.8547 131.676 31.7704V37.8136H129.117V29.9233C129.119 28.7142 129.094 27.5053 129.042 26.2974H131.272L131.365 28.501H131.436C131.708 27.7437 132.133 27.1328 132.716 26.6755C133.25 26.2759 133.899 26.0595 134.566 26.0585C134.803 26.0585 135.016 26.0753 135.206 26.1054L135.208 28.5466ZM146.656 31.51C146.662 31.899 146.631 32.2877 146.562 32.6706H138.883C138.912 33.8084 139.284 34.6798 139.997 35.2799C140.645 35.8152 141.481 36.0841 142.509 36.0841C143.646 36.0841 144.683 35.904 145.616 35.5404L146.017 37.3155C144.927 37.7908 143.64 38.0272 142.155 38.0272C140.368 38.0272 138.966 37.5015 137.946 36.4525C136.928 35.4023 136.417 33.9909 136.417 32.2229C136.417 30.4874 136.892 29.0411 137.841 27.8877C138.835 26.6563 140.179 26.0405 141.869 26.0405C143.529 26.0405 144.786 26.6563 145.64 27.8877C146.316 28.8635 146.656 30.0733 146.656 31.51ZM144.215 30.8463C144.233 30.0865 144.065 29.4324 143.718 28.8791C143.275 28.1661 142.593 27.8109 141.679 27.8109C140.843 27.8109 140.161 28.1577 139.642 28.8539C139.216 29.4072 138.963 30.0721 138.884 30.8439L144.215 30.8463Z" fill="white"/>
<path d="M54.2779 16.1944C53.566 16.1944 52.9501 16.1596 52.4375 16.1008V8.37849C53.1545 8.26776 53.879 8.21318 54.6045 8.21525C57.5398 8.21525 58.8917 9.65913 58.8917 12.0128C58.8917 14.7277 57.2949 16.1944 54.2779 16.1944ZM54.7077 9.20544C54.3116 9.20544 53.9742 9.22945 53.6945 9.28706V15.1574C53.8457 15.1814 54.1363 15.1922 54.5445 15.1922C56.4677 15.1922 57.5626 14.0976 57.5626 12.0476C57.5626 10.2196 56.5722 9.20544 54.7077 9.20544ZM63.1044 16.2532C61.45 16.2532 60.3779 15.0182 60.3779 13.3414C60.3779 11.5939 61.4728 10.3481 63.198 10.3481C64.8284 10.3481 65.9245 11.5243 65.9245 13.249C65.9245 15.0182 64.7947 16.2532 63.1044 16.2532ZM63.1524 11.2674C62.2436 11.2674 61.6613 12.1172 61.6613 13.3054C61.6613 14.4708 62.2556 15.3206 63.1404 15.3206C64.0252 15.3206 64.6195 14.412 64.6195 13.2814C64.6195 12.1292 64.0372 11.2674 63.1524 11.2674ZM75.3584 10.4645L73.5876 16.1248H72.4338L71.7003 13.6667C71.5179 13.0654 71.3661 12.4553 71.2453 11.8387H71.2213C71.1288 12.4557 70.9536 13.0738 70.7675 13.6667L69.9871 16.1248H68.8214L67.155 10.4645H68.448L69.0891 13.1554C69.2404 13.7963 69.3676 14.4012 69.4733 14.9725H69.4973C69.5897 14.4961 69.741 13.9007 69.9631 13.1674L70.7675 10.4657H71.7927L72.5623 13.1098C72.7484 13.7507 72.8997 14.3796 73.0173 14.9737H73.0509C73.1326 14.3916 73.261 13.7735 73.4351 13.1098L74.123 10.4657L75.3584 10.4645ZM81.8774 16.1248H80.6192V12.8745C80.6192 11.8736 80.235 11.3719 79.4775 11.3719C78.7319 11.3719 78.2193 12.0128 78.2193 12.7581V16.1248H76.9611V12.0824C76.9611 11.5819 76.9491 11.0454 76.9143 10.4633H78.0212L78.08 11.3371H78.1148C78.4534 10.7321 79.1401 10.3481 79.9097 10.3481C81.0982 10.3481 81.8786 11.2566 81.8786 12.7353L81.8774 16.1248ZM85.3469 16.1248H84.0876V7.86719H85.3469V16.1248ZM89.9342 16.2532C88.2811 16.2532 87.2078 15.0182 87.2078 13.3414C87.2078 11.5939 88.3027 10.3481 90.0267 10.3481C91.6582 10.3481 92.7531 11.5243 92.7531 13.249C92.7543 15.0182 91.6234 16.2532 89.9342 16.2532ZM89.9811 11.2674C89.0722 11.2674 88.49 12.1172 88.49 13.3054C88.49 14.4708 89.0855 15.3206 89.9679 15.3206C90.8539 15.3206 91.4469 14.412 91.4469 13.2814C91.4481 12.1292 90.8671 11.2674 89.9811 11.2674ZM97.7138 16.1248L97.6226 15.473H97.5889C97.2048 15.9975 96.6441 16.2532 95.9334 16.2532C94.9189 16.2532 94.1986 15.5427 94.1986 14.5873C94.1986 13.1902 95.41 12.4677 97.5073 12.4677V12.3632C97.5073 11.6179 97.1123 11.2446 96.332 11.2446C95.7737 11.2446 95.2839 11.3851 94.8529 11.6647L94.5972 10.8378C95.1206 10.5113 95.7737 10.3481 96.5409 10.3481C98.0199 10.3481 98.7667 11.1282 98.7667 12.6897V14.7745C98.7667 15.3458 98.7919 15.7887 98.8483 16.126L97.7138 16.1248ZM97.5409 13.3054C96.1435 13.3054 95.4424 13.6439 95.4424 14.4468C95.4424 15.041 95.8037 15.3314 96.3056 15.3314C96.9455 15.3314 97.5409 14.8429 97.5409 14.1792V13.3054ZM104.876 16.1248L104.817 15.2162H104.783C104.421 15.9027 103.814 16.2532 102.965 16.2532C101.6 16.2532 100.589 15.053 100.589 13.3642C100.589 11.5939 101.637 10.3469 103.068 10.3469C103.826 10.3469 104.362 10.6025 104.665 11.1162H104.69V7.86719H105.95V14.5993C105.95 15.1466 105.963 15.6591 105.996 16.1248H104.876ZM104.69 12.7941C104.69 12.002 104.166 11.3262 103.365 11.3262C102.432 11.3262 101.862 12.1532 101.862 13.3174C101.862 14.4588 102.454 15.2402 103.34 15.2402C104.131 15.2402 104.69 14.5525 104.69 13.7375V12.7941ZM113.934 16.2532C112.281 16.2532 111.209 15.0182 111.209 13.3414C111.209 11.5939 112.304 10.3481 114.028 10.3481C115.66 10.3481 116.755 11.5243 116.755 13.249C116.756 15.0182 115.626 16.2532 113.934 16.2532ZM113.981 11.2674C113.074 11.2674 112.491 12.1172 112.491 13.3054C112.491 14.4708 113.086 15.3206 113.969 15.3206C114.855 15.3206 115.448 14.412 115.448 13.2814C115.451 12.1292 114.868 11.2674 113.981 11.2674ZM123.521 16.1248H122.261V12.8745C122.261 11.8736 121.877 11.3719 121.12 11.3719C120.374 11.3719 119.863 12.0128 119.863 12.7581V16.1248H118.603V12.0824C118.603 11.5819 118.591 11.0454 118.557 10.4633H119.663L119.722 11.3371H119.757C120.094 10.7321 120.782 10.3469 121.551 10.3469C122.739 10.3469 123.521 11.2554 123.521 12.7341V16.1248ZM131.986 11.4079H130.602V14.1564C130.602 14.8561 130.844 15.2054 131.334 15.2054C131.556 15.2054 131.742 15.1814 131.892 15.1466L131.927 16.102C131.683 16.1956 131.357 16.2424 130.951 16.2424C129.959 16.2424 129.366 15.6951 129.366 14.262V11.4079H128.54V10.4645H129.366V9.42749L130.602 9.05421V10.4633H131.986V11.4079ZM138.647 16.1248H137.39V12.8985C137.39 11.8856 137.007 11.3731 136.248 11.3731C135.596 11.3731 134.988 11.8159 134.988 12.7125V16.1248H133.731V7.86719H134.988V11.2674H135.014C135.41 10.6505 135.984 10.3469 136.716 10.3469C137.914 10.3469 138.647 11.2782 138.647 12.7581V16.1248ZM145.47 13.5971H141.695C141.719 14.6689 142.428 15.2738 143.479 15.2738C144.037 15.2738 144.551 15.1802 145.005 15.0062L145.2 15.8799C144.665 16.1128 144.035 16.2292 143.301 16.2292C141.53 16.2292 140.482 15.1106 140.482 13.3762C140.482 11.6407 141.555 10.3361 143.159 10.3361C144.606 10.3361 145.514 11.4079 145.514 13.027C145.522 13.218 145.507 13.4094 145.47 13.5971ZM144.317 12.7005C144.317 11.8267 143.876 11.2098 143.072 11.2098C142.349 11.2098 141.778 11.8387 141.696 12.7005H144.317Z" fill="white"/>
</g>
<defs>
<linearGradient id="paint0_linear" x1="118.805" y1="48.1254" x2="118.805" y2="-124.971" gradientUnits="userSpaceOnUse">
<stop stop-color="#1A1A1A" stop-opacity="0.1"/>
<stop offset="0.123" stop-color="#212121" stop-opacity="0.151"/>
<stop offset="0.308" stop-color="#353535" stop-opacity="0.227"/>
<stop offset="0.532" stop-color="#575757" stop-opacity="0.318"/>
<stop offset="0.783" stop-color="#858585" stop-opacity="0.421"/>
<stop offset="1" stop-color="#B3B3B3" stop-opacity="0.51"/>
</linearGradient>
<clipPath id="clip0">
<rect width="161.943" height="48" fill="white"/>
</clipPath>
</defs>
</svg>
