<svg width="162" height="48" viewBox="0 0 162 48" fill="none" xmlns="http://www.w3.org/2000/svg">
<g clip-path="url(#clip0)">
<path fill-rule="evenodd" clip-rule="evenodd" d="M155.945 47.9832H5.9979C2.63908 47.9832 0 45.3441 0 41.9853V5.9979C0 2.63908 2.63908 0 5.9979 0H155.945C159.304 0 161.943 2.63908 161.943 5.9979V41.9853C161.943 45.3441 159.304 47.9832 155.945 47.9832Z" fill="black"/>
<path d="M155.945 0.959664C158.704 0.959664 160.984 3.23887 160.984 5.9979V41.9853C160.984 44.7443 158.704 47.0235 155.945 47.0235H5.9979C3.23887 47.0235 0.959664 44.7443 0.959664 41.9853V5.9979C0.959664 3.23887 3.23887 0.959664 5.9979 0.959664H155.945ZM155.945 0H5.9979C2.63908 0 0 2.75903 0 5.9979V41.9853C0 45.3441 2.63908 47.9832 5.9979 47.9832H155.945C159.304 47.9832 161.943 45.3441 161.943 41.9853V5.9979C161.943 2.75903 159.304 0 155.945 0Z" fill="#A6A6A6"/>
<path d="M56.8601 12.2355C56.8601 13.1951 56.6202 14.0348 56.0204 14.6346C55.3006 15.3544 54.4609 15.7142 53.3813 15.7142C52.3017 15.7142 51.462 15.3544 50.7422 14.6346C50.0225 13.9149 49.6626 13.0752 49.6626 11.9956C49.6626 10.9159 50.0225 10.0762 50.7422 9.35648C51.462 8.63673 52.3017 8.27686 53.3813 8.27686C53.8611 8.27686 54.341 8.39681 54.8208 8.63673C55.3006 8.87664 55.6605 9.11656 55.9004 9.47643L55.3006 10.0762C54.8208 9.47644 54.221 9.23652 53.3813 9.23652C52.6615 9.23652 51.9418 9.47644 51.462 10.0762C50.8622 10.5561 50.6223 11.2758 50.6223 12.1155C50.6223 12.9552 50.8622 13.675 51.462 14.1548C52.0618 14.6346 52.6615 14.9945 53.3813 14.9945C54.221 14.9945 54.8208 14.7546 55.4206 14.1548C55.7805 13.7949 56.0204 13.3151 56.0204 12.7153H53.3813V11.7556H56.8601V12.2355ZM62.3781 9.23652H59.1393V11.5157H62.1382V12.3554H59.1393V14.6346H62.3781V15.5943H58.1796V8.39681H62.3781V9.23652ZM66.3368 15.5943H65.3771V9.23652H63.3378V8.39681H68.376V9.23652H66.3368V15.5943ZM71.8548 15.5943V8.39681H72.8145V15.5943H71.8548ZM76.8931 15.5943H75.9334V9.23652H73.8941V8.39681H78.8124V9.23652H76.7731V15.5943H76.8931ZM88.2891 14.6346C87.5693 15.3544 86.7296 15.7142 85.65 15.7142C84.5704 15.7142 83.7307 15.3544 83.0109 14.6346C82.2912 13.9149 81.9313 13.0752 81.9313 11.9956C81.9313 10.9159 82.2912 10.0762 83.0109 9.35648C83.7307 8.63673 84.5704 8.27686 85.65 8.27686C86.7296 8.27686 87.5693 8.63673 88.2891 9.35648C89.0088 10.0762 89.3687 10.9159 89.3687 11.9956C89.3687 13.0752 89.0088 13.9149 88.2891 14.6346ZM83.7307 14.0348C84.2105 14.5147 84.9302 14.8745 85.65 14.8745C86.3697 14.8745 87.0895 14.6346 87.5693 14.0348C88.0492 13.555 88.409 12.8353 88.409 11.9956C88.409 11.1558 88.1691 10.4361 87.5693 9.95627C87.0895 9.47644 86.3697 9.11656 85.65 9.11656C84.9302 9.11656 84.2105 9.35648 83.7307 9.95627C83.2508 10.4361 82.891 11.1558 82.891 11.9956C82.891 12.8353 83.1309 13.555 83.7307 14.0348ZM90.6882 15.5943V8.39681H91.7679L95.2466 14.0348V8.39681H96.2063V15.5943H95.2466L91.5279 9.71635V15.5943H90.6882Z" fill="white"/>
<path d="M81.6914 26.1507C78.8124 26.1507 76.5332 28.31 76.5332 31.3089C76.5332 34.1879 78.8124 36.4671 81.6914 36.4671C84.5704 36.4671 86.8496 34.3079 86.8496 31.3089C86.8496 28.19 84.5704 26.1507 81.6914 26.1507ZM81.6914 34.3079C80.132 34.3079 78.8124 32.9883 78.8124 31.1889C78.8124 29.3896 80.132 28.07 81.6914 28.07C83.2509 28.07 84.5704 29.2696 84.5704 31.1889C84.5704 32.9883 83.2509 34.3079 81.6914 34.3079ZM70.5353 26.1507C67.6563 26.1507 65.3771 28.31 65.3771 31.3089C65.3771 34.1879 67.6563 36.4671 70.5353 36.4671C73.4143 36.4671 75.6935 34.3079 75.6935 31.3089C75.6935 28.19 73.4143 26.1507 70.5353 26.1507ZM70.5353 34.3079C68.9759 34.3079 67.6563 32.9883 67.6563 31.1889C67.6563 29.3896 68.9759 28.07 70.5353 28.07C72.0948 28.07 73.4143 29.2696 73.4143 31.1889C73.4143 32.9883 72.0948 34.3079 70.5353 34.3079ZM57.22 27.7102V29.8694H62.3782C62.2582 31.069 61.7784 32.0287 61.1786 32.6284C60.4588 33.3482 59.2593 34.1879 57.22 34.1879C53.9811 34.1879 51.5819 31.6688 51.5819 28.4299C51.5819 25.1911 54.1011 22.6719 57.22 22.6719C58.8994 22.6719 60.2189 23.3917 61.1786 24.2314L62.738 22.6719C61.4185 21.4724 59.7391 20.5127 57.3399 20.5127C53.0214 20.5127 49.3027 24.1114 49.3027 28.4299C49.3027 32.7484 53.0214 36.3471 57.3399 36.3471C59.7391 36.3471 61.4185 35.6274 62.858 34.0679C64.2975 32.6284 64.7773 30.5892 64.7773 29.0297C64.7773 28.5499 64.7773 28.07 64.6574 27.7102H57.22ZM111.681 29.3896C111.201 28.19 110.002 26.1507 107.362 26.1507C104.723 26.1507 102.564 28.19 102.564 31.3089C102.564 34.1879 104.723 36.4671 107.602 36.4671C109.882 36.4671 111.321 35.0276 111.801 34.1879L110.121 32.9883C109.522 33.828 108.802 34.4278 107.602 34.4278C106.403 34.4278 105.683 33.948 105.083 32.8684L111.921 29.9894L111.681 29.3896ZM104.723 31.069C104.723 29.1497 106.283 28.07 107.362 28.07C108.202 28.07 109.042 28.5499 109.282 29.1497L104.723 31.069ZM99.0853 35.9873H101.365V20.9925H99.0853V35.9873ZM95.4866 27.2303C94.8868 26.6305 93.9271 26.0308 92.7275 26.0308C90.2084 26.0308 87.8093 28.31 87.8093 31.1889C87.8093 34.0679 90.0885 36.2272 92.7275 36.2272C93.9271 36.2272 94.8868 35.6274 95.3666 35.0276H95.4866V35.7473C95.4866 37.6667 94.407 38.7463 92.7275 38.7463C91.408 38.7463 90.4483 37.7866 90.2084 36.9469L88.2891 37.7866C88.8889 39.1062 90.3284 40.7856 92.8475 40.7856C95.4866 40.7856 97.6458 39.2261 97.6458 35.5074V26.3906H95.4866V27.2303ZM92.8475 34.3079C91.2881 34.3079 89.9685 32.9883 89.9685 31.1889C89.9685 29.3896 91.2881 28.07 92.8475 28.07C94.407 28.07 95.6065 29.3896 95.6065 31.1889C95.6065 32.9883 94.407 34.3079 92.8475 34.3079ZM122.117 20.9925H116.719V35.9873H118.998V30.3492H122.117C124.636 30.3492 127.036 28.5499 127.036 25.6709C127.036 22.7919 124.636 20.9925 122.117 20.9925ZM122.237 28.19H118.998V23.0318H122.237C123.917 23.0318 124.876 24.4713 124.876 25.5509C124.756 26.8705 123.797 28.19 122.237 28.19ZM136.032 26.0308C134.353 26.0308 132.674 26.7505 132.074 28.31L134.113 29.1497C134.593 28.31 135.313 28.07 136.152 28.07C137.352 28.07 138.432 28.7898 138.552 29.9894V30.1093C138.192 29.8694 137.232 29.5095 136.272 29.5095C134.113 29.5095 131.954 30.7091 131.954 32.8684C131.954 34.9076 133.753 36.2272 135.673 36.2272C137.232 36.2272 137.952 35.5074 138.552 34.7877H138.671V35.9873H140.831V30.2293C140.591 27.5902 138.552 26.0308 136.032 26.0308ZM135.792 34.3079C135.073 34.3079 133.993 33.948 133.993 32.9883C133.993 31.7887 135.313 31.4289 136.392 31.4289C137.352 31.4289 137.832 31.6688 138.432 31.9087C138.192 33.3482 136.992 34.3079 135.792 34.3079ZM148.388 26.3906L145.869 32.8684H145.749L143.11 26.3906H140.711L144.669 35.5074L142.39 40.5457H144.669L150.787 26.3906H148.388ZM128.235 35.9873H130.514V20.9925H128.235V35.9873Z" fill="white"/>
<path fill-rule="evenodd" clip-rule="evenodd" d="M12.4754 8.99658C12.1156 9.35646 11.9956 9.95625 11.9956 10.676V37.1867C11.9956 37.9065 12.2355 38.5063 12.5954 38.8661L12.7154 38.9861L27.5901 24.1113V23.8714L12.4754 8.99658Z" fill="url(#paint0_linear)"/>
<path fill-rule="evenodd" clip-rule="evenodd" d="M32.3885 29.15L27.4702 24.2318V23.8719L32.3885 18.9536L32.5085 19.0736L38.3864 22.4324C40.0658 23.3921 40.0658 24.9515 38.3864 25.9112L32.3885 29.15Z" fill="url(#paint1_linear)"/>
<path fill-rule="evenodd" clip-rule="evenodd" d="M32.5086 29.0299L27.4703 23.9917L12.4756 38.9864C13.0754 39.5862 13.9151 39.5862 14.9947 39.1064L32.5086 29.0299Z" fill="url(#paint2_linear)"/>
<path fill-rule="evenodd" clip-rule="evenodd" d="M32.5086 18.9534L14.9947 8.99687C13.9151 8.39708 13.0754 8.51704 12.4756 9.11683L27.4703 23.9916L32.5086 18.9534Z" fill="url(#paint3_linear)"/>
<path opacity="0.2" fill-rule="evenodd" clip-rule="evenodd" d="M32.3886 28.9102L14.9947 38.7467C14.035 39.3465 13.1953 39.2265 12.5955 38.7467L12.4756 38.8667L12.5955 38.9866C13.1953 39.4665 14.035 39.5864 14.9947 38.9866L32.3886 28.9102Z" fill="black"/>
<path opacity="0.12" d="M12.4754 38.7466C12.1156 38.3867 11.9956 37.7869 11.9956 37.0671V37.1871C11.9956 37.9069 12.2355 38.5066 12.5954 38.8665V38.7466H12.4754ZM38.3864 25.5512L32.3885 28.91L32.5084 29.0299L38.3864 25.6711C39.2261 25.1913 39.586 24.5915 39.586 23.9917C39.586 24.5915 39.1061 25.0713 38.3864 25.5512Z" fill="black"/>
<path opacity="0.25" fill-rule="evenodd" clip-rule="evenodd" d="M14.9946 9.11691L38.3864 22.4323C39.1061 22.9121 39.586 23.3919 39.586 23.9917C39.586 23.3919 39.2261 22.7921 38.3864 22.3123L14.9946 8.99695C13.3151 8.03729 11.9956 8.75704 11.9956 10.6764V10.7963C11.9956 8.99695 13.3151 8.15725 14.9946 9.11691Z" fill="white"/>
</g>
<defs>
<linearGradient id="paint0_linear" x1="26.1506" y1="10.4481" x2="2.3173" y2="16.8922" gradientUnits="userSpaceOnUse">
<stop stop-color="#00A0FF"/>
<stop offset="0.007" stop-color="#00A1FF"/>
<stop offset="0.26" stop-color="#00BEFF"/>
<stop offset="0.512" stop-color="#00D2FF"/>
<stop offset="0.76" stop-color="#00DFFF"/>
<stop offset="1" stop-color="#00E3FF"/>
</linearGradient>
<linearGradient id="paint1_linear" x1="40.5864" y1="23.993" x2="11.5602" y2="23.993" gradientUnits="userSpaceOnUse">
<stop stop-color="#FFE000"/>
<stop offset="0.409" stop-color="#FFBD00"/>
<stop offset="0.775" stop-color="#FFA500"/>
<stop offset="1" stop-color="#FF9C00"/>
</linearGradient>
<linearGradient id="paint2_linear" x1="29.7819" y1="26.7459" x2="10.6304" y2="58.8995" gradientUnits="userSpaceOnUse">
<stop stop-color="#FF3A44"/>
<stop offset="1" stop-color="#C31162"/>
</linearGradient>
<linearGradient id="paint3_linear" x1="8.75329" y1="0.211153" x2="17.2382" y2="14.5897" gradientUnits="userSpaceOnUse">
<stop stop-color="#32A071"/>
<stop offset="0.069" stop-color="#2DA771"/>
<stop offset="0.476" stop-color="#15CF74"/>
<stop offset="0.801" stop-color="#06E775"/>
<stop offset="1" stop-color="#00F076"/>
</linearGradient>
<clipPath id="clip0">
<rect width="161.943" height="48" fill="white"/>
</clipPath>
</defs>
</svg>
