<svg width="72" height="72" viewBox="0 0 72 72" fill="none" xmlns="http://www.w3.org/2000/svg">
<g clip-path="url(#clip0)">
<path d="M6.17151 29.657H8.68579L7.42865 26.457L6.17151 29.657Z" fill="#2FABF7"/>
<path d="M37.3715 26.9151C37.1429 26.8008 36.8001 26.8008 36.4572 26.8008H34.1715V28.6293H36.4572C36.8001 28.6293 37.1429 28.6294 37.3715 28.5151C37.6001 28.4008 37.7144 28.0579 37.7144 27.7151C37.8287 27.2579 37.6001 27.0294 37.3715 26.9151Z" fill="#228FE0"/>
<path d="M61.8286 23.4854V24.8568L61.1429 23.4854H55.7714V24.8568L55.0857 23.4854H47.7714C46.5143 23.4854 45.4857 23.7139 44.5714 24.1711V23.4854H39.4286V24.1711C38.8571 23.7139 38.1714 23.4854 37.2571 23.4854H18.8571L17.6 26.3425L16.3429 23.4854H10.5143V24.8568L9.82857 23.4854H4.91429L2.62857 28.8568L0 34.7996H2.62857H5.82857L6.51429 32.9711H8.11429L8.8 34.7996H15.4286V33.4282L16 34.7996H19.3143L19.8857 33.4282V34.7996H35.7714V31.8282H36C36.2286 31.8282 36.2286 31.8282 36.2286 32.1711V34.6854H44.4572V33.9996C45.1429 34.3425 46.1714 34.6854 47.5429 34.6854H50.9714L51.6572 32.8568H53.2571L53.9429 34.6854H60.5714V32.9711L61.6 34.6854H66.9714V23.4854H61.8286ZM23.2 33.0854H21.2571V26.7996L18.5143 33.0854H16.8L14.0571 26.7996V33.0854H10.1714L9.37143 31.3711H5.48572L4.8 33.1996H2.62857L6.05714 25.0854H8.91429L12.1143 32.7425V25.0854H15.2L17.7143 30.5711L20 25.0854H23.2V33.0854ZM30.9714 26.7996H26.5143V28.2854H30.8571V29.8854H26.5143V31.4854H30.9714V33.1996H24.5714V25.0854H30.9714V26.7996ZM39.5429 30.1139C39.7714 30.5711 39.8857 30.9139 39.8857 31.5996V33.1996H37.9429V32.1711C37.9429 31.7139 37.9429 31.0282 37.6 30.5711C37.2572 30.2282 36.9143 30.2282 36.2286 30.2282H34.1714V33.1996H32.2286V25.0854H36.5714C37.6 25.0854 38.2857 25.0854 38.8571 25.4282C39.4286 25.7711 39.7714 26.3425 39.7714 27.2568C39.7714 28.5139 38.9714 29.1996 38.4 29.4282C38.9714 29.5425 39.3143 29.8854 39.5429 30.1139ZM42.9714 33.0854H41.0286V24.9711H42.9714V33.0854ZM65.4857 33.0854H62.7429L59.0857 27.0282V33.0854H55.2L54.5143 31.3711H50.5143L49.8286 33.1996H47.6572C46.7429 33.1996 45.6 32.9711 44.9143 32.2854C44.2286 31.5996 43.8857 30.6854 43.8857 29.1996C43.8857 28.0568 44.1143 26.9139 44.9143 25.9996C45.4857 25.3139 46.5143 25.0854 47.7714 25.0854H49.6V26.7996H47.7714C47.0857 26.7996 46.7429 26.9139 46.2857 27.2568C45.9429 27.5996 45.7143 28.2854 45.7143 29.0854C45.7143 29.9996 45.8286 30.5711 46.2857 31.0282C46.6286 31.3711 47.0857 31.4854 47.6572 31.4854H48.4572L51.0857 25.1996H53.9429L57.1429 32.8568V25.1996H60L63.3143 30.7996V25.1996H65.2572V33.0854H65.4857Z" fill="#0571C1"/>
<path d="M51.2001 29.657H53.8286L52.5715 26.457L51.2001 29.657Z" fill="#228FE0"/>
<path d="M31.7715 46.1139V39.5996L28.8 42.7996L31.7715 46.1139Z" fill="#228FE0"/>
<path d="M19.5428 40.4004V41.8861H23.7714V43.4861H19.5428V45.2004H24.2286L26.4 42.8004L24.3428 40.4004H19.5428Z" fill="#2FABF7"/>
<path d="M36.1142 40.4004H33.7142V42.4575H36.2285C36.9142 42.4575 37.3714 42.1147 37.3714 41.429C37.2571 40.7432 36.7999 40.4004 36.1142 40.4004Z" fill="#228FE0"/>
<path d="M71.4287 42.3421V37.1992H70.0573H66.6287C65.6001 37.1992 64.8002 37.4278 64.2287 37.8849V37.1992H58.9716C58.1716 37.1992 57.143 37.4278 56.6859 37.8849V37.1992H47.4287V37.8849C46.743 37.3135 45.4859 37.1992 44.9144 37.1992H38.743V37.8849C38.1716 37.3135 36.8001 37.1992 36.1144 37.1992H29.2573L27.6573 38.9135L26.1716 37.1992H15.8859V48.3992H25.943L27.543 46.6849L29.0287 48.3992H35.2001V45.7706H36.0001C36.8001 45.7706 37.8287 45.7706 38.6287 45.4278V48.5135H43.7716V45.5421H44.0001C44.343 45.5421 44.343 45.5421 44.343 45.8849V48.5135H59.8859C60.9144 48.5135 61.943 48.2849 62.5144 47.8278V48.5135H67.4287C68.4573 48.5135 69.4859 48.3992 70.1716 47.9421C71.3144 47.2564 72.0001 45.9992 72.0001 44.5135C72.0001 43.7135 71.7716 42.9135 71.4287 42.3421ZM36.0001 44.1706H33.7144V46.9135H30.0573L27.7716 44.2849L25.3716 46.9135H17.8287V38.7992H25.4859L27.7716 41.4278L30.1716 38.7992H36.2287C37.7144 38.7992 39.4287 39.2564 39.4287 41.4278C39.3144 43.7135 37.7144 44.1706 36.0001 44.1706ZM47.4287 43.7135C47.6573 44.0564 47.7716 44.5135 47.7716 45.1992V46.7992H45.8287V45.7706C45.8287 45.3135 45.8287 44.5135 45.4859 44.1706C45.2573 43.8278 44.8001 43.8278 44.1144 43.8278H42.0573V46.7992H40.1144V38.6849H44.4573C45.3716 38.6849 46.1716 38.6849 46.743 39.0278C47.3144 39.3706 47.7716 39.9421 47.7716 40.8564C47.7716 42.1135 46.9716 42.7992 46.4001 43.0278C46.9716 43.2564 47.3144 43.4849 47.4287 43.7135ZM55.3144 40.3992H50.8573V41.8849H55.2001V43.4849H50.8573V45.0849H55.3144V46.7992H48.9144V38.6849H55.3144V40.3992ZM60.1144 46.7992H56.4573V45.0849H60.1144C60.4573 45.0849 60.6859 45.0849 60.9144 44.8564C61.0287 44.7421 61.143 44.5135 61.143 44.2849C61.143 44.0564 61.0287 43.8278 60.9144 43.7135C60.8001 43.5992 60.5716 43.4849 60.2287 43.4849C58.4002 43.3706 56.2287 43.4849 56.2287 40.9706C56.2287 39.8278 56.9144 38.5706 58.9716 38.5706H62.743V40.5135H59.2001C58.8573 40.5135 58.6287 40.5135 58.4001 40.6278C58.1716 40.7421 58.1716 40.9706 58.1716 41.1992C58.1716 41.5421 58.4001 41.6564 58.6287 41.7706C58.8573 41.8849 59.0859 41.8849 59.3144 41.8849H60.343C61.3716 41.8849 62.0573 42.1135 62.5144 42.5706C62.8573 42.9135 63.0859 43.4849 63.0859 44.2849C63.0859 45.9992 62.0573 46.7992 60.1144 46.7992ZM69.943 45.9992C69.4859 46.4564 68.6859 46.7992 67.543 46.7992H63.8859V45.0849H67.543C67.8859 45.0849 68.1144 45.0849 68.343 44.8564C68.4573 44.7421 68.5716 44.5135 68.5716 44.2849C68.5716 44.0564 68.4573 43.8278 68.343 43.7135C68.2287 43.5992 68.0002 43.4849 67.6573 43.4849C65.8287 43.3706 63.6573 43.4849 63.6573 40.9706C63.6573 39.8278 64.343 38.5706 66.4001 38.5706H70.1716V40.5135H66.743C66.4001 40.5135 66.1716 40.5135 65.943 40.6278C65.7144 40.7421 65.7144 40.9706 65.7144 41.1992C65.7144 41.5421 65.8287 41.6564 66.1716 41.7706C66.4001 41.8849 66.6287 41.8849 66.8573 41.8849H67.8859C68.9144 41.8849 69.6001 42.1135 70.0573 42.5706C70.1716 42.5706 70.1716 42.6849 70.1716 42.6849C70.5144 43.1421 70.6287 43.7135 70.6287 44.2849C70.6287 44.9706 70.4002 45.5421 69.943 45.9992Z" fill="#0571C1"/>
<path d="M45.3715 40.6289C45.1429 40.5146 44.8001 40.5146 44.4572 40.5146H42.1715V42.3432H44.4572C44.8001 42.3432 45.1429 42.3432 45.3715 42.2289C45.6001 42.1146 45.7143 41.7718 45.7143 41.4289C45.8286 40.9718 45.6001 40.7432 45.3715 40.6289Z" fill="#228FE0"/>
<path d="M37.3715 26.9141C37.1429 26.7998 36.8001 26.7998 36.4572 26.7998H34.1715V28.6284H36.4572C36.8001 28.6284 37.1429 28.6284 37.3715 28.5141C37.6001 28.3998 37.7144 28.0569 37.7144 27.7141C37.8287 27.2569 37.6001 27.0284 37.3715 26.9141Z" fill="#228FE0"/>
<path d="M51.2001 29.657H53.8286L52.5715 26.457L51.2001 29.657Z" fill="#228FE0"/>
<path d="M31.7715 46.1139V39.5996L28.8 42.7996L31.7715 46.1139Z" fill="#228FE0"/>
<path d="M36.1142 40.4004H33.7142V42.4575H36.2285C36.9142 42.4575 37.3714 42.1147 37.3714 41.429C37.2571 40.7432 36.7999 40.4004 36.1142 40.4004Z" fill="#228FE0"/>
<path d="M45.3715 40.6289C45.1429 40.5146 44.8001 40.5146 44.4572 40.5146H42.1715V42.3432H44.4572C44.8001 42.3432 45.1429 42.3432 45.3715 42.2289C45.6001 42.1146 45.7143 41.7718 45.7143 41.4289C45.8286 40.9718 45.6001 40.7432 45.3715 40.6289Z" fill="#228FE0"/>
<path d="M35.3144 46.5706L33.7144 44.8564V46.7992H29.943L27.6573 44.1706L25.143 46.7992H17.6002V38.7992H25.2573L27.6573 41.4278L28.8002 40.0564L25.943 37.1992H15.8859V48.3992H25.943L27.6573 46.6849L29.143 48.3992H35.3144V46.5706Z" fill="#2FABF7"/>
<path d="M23.4286 34.6854L21.9429 33.0854H21.2571V32.3996L19.5429 30.6854L18.4 33.0854H16.8L14.0571 26.7996V33.0854H10.1714L9.37143 31.3711H5.48571L4.68571 33.0854H2.62857L6.05714 25.0854H8.91429L12.1143 32.7425V25.0854H13.8286L12.2286 23.4854H10.5143V24.8568L9.94286 23.4854H4.91429L2.62857 28.8568L0 34.6854H2.62857H5.94286L6.62857 32.9711H8.22857L9.02857 34.6854H15.4286V33.3139L16 34.6854H19.3143L19.8857 33.3139V34.6854H23.4286Z" fill="#2FABF7"/>
<path d="M18.1715 29.4282L16.3429 27.5996L17.7143 30.571L18.1715 29.4282Z" fill="#2FABF7"/>
<path d="M70.1715 47.8279C71.2 47.1422 71.8857 45.9993 72 44.7422L70.4 43.1422C70.5143 43.485 70.6286 43.8279 70.6286 44.285C70.6286 44.9707 70.4 45.5422 69.9429 45.9993C69.4857 46.4564 68.6857 46.7993 67.5429 46.7993H63.8857V45.085H67.5429C67.8857 45.085 68.1143 45.085 68.3429 44.8564C68.4572 44.7422 68.5715 44.5136 68.5715 44.285C68.5715 44.0564 68.4572 43.8279 68.3429 43.7136C68.2286 43.5993 68 43.485 67.6572 43.485C65.8286 43.3707 63.6572 43.485 63.6572 40.9707C63.6572 39.8279 64.3429 38.7993 66.0572 38.5707L64.8 37.3136C64.5715 37.4279 64.4572 37.5422 64.3429 37.5422V36.8564H59.0857C58.2857 36.8564 57.2572 37.085 56.8 37.5422V36.8564H47.4286V37.5422C46.7429 36.9707 45.4857 36.8564 44.9143 36.8564H38.7429V37.5422C38.1715 36.9707 36.8 36.8564 36.1143 36.8564H29.2572L27.6572 38.5707L26.1715 36.8564H24.9143L28.3429 40.285L30.0572 38.4564H36.1143C37.6 38.4564 39.3143 38.9136 39.3143 41.085C39.3143 43.3707 37.7143 43.8279 36 43.8279H33.7143V45.5422L35.4286 47.2564V45.5422H36C36.8 45.5422 37.8286 45.5422 38.6286 45.1993V48.285H43.7715V45.3136H44C44.3429 45.3136 44.3429 45.3136 44.3429 45.6564V48.285H59.8857C60.9143 48.285 61.9429 48.0564 62.5143 47.5993V48.285H67.4286C68.3429 48.3993 69.3715 48.285 70.1715 47.8279ZM47.4286 43.7136C47.6572 44.0564 47.7715 44.5136 47.7715 45.1993V46.7993H45.8286V45.7707C45.8286 45.3136 45.8286 44.5136 45.4857 44.1707C45.2572 43.8279 44.8 43.8279 44.1143 43.8279H42.0572V46.7993H40.1143V38.685H44.4572C45.3715 38.685 46.1715 38.685 46.7429 39.0279C47.3143 39.3707 47.7715 39.9422 47.7715 40.8564C47.7715 42.1136 46.9715 42.7993 46.4 43.0279C46.9715 43.2564 47.3143 43.485 47.4286 43.7136ZM55.3143 40.3993H50.8572V41.885H55.2V43.485H50.8572V45.085H55.3143V46.7993H48.9143V38.685H55.3143V40.3993ZM60.1143 46.7993H56.4572V45.085H60.1143C60.4572 45.085 60.6857 45.085 60.9143 44.8564C61.0286 44.7422 61.1429 44.5136 61.1429 44.285C61.1429 44.0564 61.0286 43.8279 60.9143 43.7136C60.8 43.5993 60.5715 43.485 60.2286 43.485C58.4 43.3707 56.2286 43.485 56.2286 40.9707C56.2286 39.8279 56.9143 38.5707 58.9715 38.5707H62.7429V40.5136H59.2C58.8572 40.5136 58.6286 40.5136 58.4 40.6279C58.1715 40.7422 58.1715 40.9707 58.1715 41.1993C58.1715 41.5422 58.4 41.6564 58.6286 41.7707C58.8572 41.885 59.0857 41.885 59.3143 41.885H60.3429C61.3715 41.885 62.0572 42.1136 62.5143 42.5707C62.8572 42.9136 63.0857 43.485 63.0857 44.285C63.0857 45.9993 62.0572 46.7993 60.1143 46.7993Z" fill="#228FE0"/>
<path d="M65.6 41.1984C65.6 41.5413 65.7143 41.6556 66.0571 41.7698C66.2857 41.8841 66.5143 41.8841 66.7428 41.8841H67.7714C68.4571 41.8841 68.9143 41.9984 69.3714 42.227L67.6571 40.5127H66.6285C66.2857 40.5127 66.0571 40.5127 65.8285 40.627C65.7143 40.7413 65.6 40.9698 65.6 41.1984Z" fill="#228FE0"/>
<path d="M61.6001 34.3428L61.8287 34.6856H61.943L61.6001 34.3428Z" fill="#228FE0"/>
<path d="M55.3143 28.0566L57.2572 32.7424V29.9995L55.3143 28.0566Z" fill="#228FE0"/>
<path d="M35.7715 31.8282H36C36.2286 31.8282 36.2286 31.8282 36.2286 32.171V34.6853H44.4572V33.9996C45.1429 34.3425 46.1715 34.6853 47.5429 34.6853H50.9715L51.6572 32.8568H53.2572L53.9429 34.6853H60.5715V33.5425L58.9715 31.9425V33.1996H55.0858L54.5143 31.371H50.5143L49.8286 33.1996H47.6572C46.7429 33.1996 45.6 32.971 44.9143 32.2853C44.2286 31.5996 43.8858 30.6853 43.8858 29.1996C43.8858 28.0568 44.1143 26.9139 44.9143 25.9996C45.4858 25.3139 46.5143 25.0853 47.7715 25.0853H49.6V26.7996H47.7715C47.0858 26.7996 46.7429 26.9139 46.2858 27.2568C45.9429 27.5996 45.7143 28.2853 45.7143 29.0853C45.7143 29.9996 45.8286 30.571 46.2858 31.0282C46.6286 31.371 47.0858 31.4853 47.6572 31.4853H48.4572L51.0858 25.1996H52.2286L50.6286 23.5996H47.6572C46.4 23.5996 45.3715 23.8282 44.4572 24.2853V23.5996H39.4286V24.2853C38.8572 23.8282 38.1715 23.5996 37.2572 23.5996H18.8572L17.6 26.4568L16.3429 23.5996H11.3143L12.9143 25.1996H15.2L17.1429 29.4282L17.8286 30.1139L19.8858 25.0853H23.0858V33.1996H21.1429V26.9139L19.2 31.4853L22.5143 34.7996H35.6572L35.7715 31.8282ZM41.0286 25.0853H42.9715V33.1996H41.0286V25.0853ZM30.9715 26.7996H26.5143V28.2853H30.8572V29.8853H26.5143V31.4853H30.9715V33.1996H24.5715V25.0853H30.9715V26.7996ZM34.1715 33.0853H32.2286V24.971H36.5715C37.6 24.971 38.2858 24.971 38.8572 25.3139C39.4286 25.6568 39.7715 26.2282 39.7715 27.1425C39.7715 28.3996 38.9715 29.0853 38.4 29.3139C38.8572 29.4282 39.2 29.771 39.3143 29.9996C39.5429 30.4568 39.6572 30.7996 39.6572 31.4853V33.0853H37.7143V32.0568C37.7143 31.5996 37.7143 30.9139 37.3715 30.4568C37.2572 30.2282 36.9143 30.2282 36.2286 30.2282H34.1715V33.0853Z" fill="#228FE0"/>
</g>
<defs>
<clipPath id="clip0">
<rect width="72" height="72" fill="white"/>
</clipPath>
</defs>
</svg>
