<svg width="72" height="72" viewBox="0 0 72 72" fill="none" xmlns="http://www.w3.org/2000/svg">
<path d="M71.9999 36.0004C71.9999 47.8861 62.3999 57.6004 50.3999 57.6004C38.5142 57.6004 28.7999 47.8861 28.7999 36.0004C28.7999 24.1147 38.3999 14.4004 50.2856 14.4004C62.3999 14.4004 71.9999 24.1147 71.9999 36.0004Z" fill="#FFB600"/>
<path d="M50.3999 14.4004C62.2856 14.4004 71.9999 24.1147 71.9999 36.0004C71.9999 47.8861 62.3999 57.6004 50.3999 57.6004C38.5142 57.6004 28.7999 47.8861 28.7999 36.0004" fill="#F7981D"/>
<path d="M50.3999 14.4004C62.2856 14.4004 71.9999 24.1147 71.9999 36.0004C71.9999 47.8861 62.3999 57.6004 50.3999 57.6004" fill="#FF8500"/>
<path d="M21.3714 14.4004C9.6 14.5147 0 24.1147 0 36.0004C0 47.8861 9.6 57.6004 21.6 57.6004C27.2 57.6004 32.2286 55.429 36.1143 52.0004C36.9143 51.3147 37.6 50.5147 38.2857 49.7147H33.8286C33.2571 49.029 32.6857 48.229 32.2286 47.5432H39.8857C40.3429 46.8575 40.8 46.0575 41.1429 45.2575H30.9714C30.6286 44.5718 30.2857 43.7718 30.0571 42.9718H41.9429C42.6286 40.8004 43.0857 38.5147 43.0857 36.1147C43.0857 34.5147 42.8571 33.029 42.6286 31.5432H29.3714C29.4857 30.7432 29.7143 30.0575 29.9429 29.2575H41.8286C41.6 28.4575 41.2571 27.6575 40.9143 26.9718H30.8571C31.2 26.1718 31.6571 25.4861 32.1143 24.6861H39.7714C39.3143 23.8861 38.7429 23.0861 38.0571 22.4004H33.8286C34.5143 21.6004 35.2 20.9147 36 20.229C32.2286 16.6861 27.0857 14.629 21.4857 14.629C21.4857 14.4004 21.4857 14.4004 21.3714 14.4004Z" fill="#FF5050"/>
<path d="M0 35.9994C0 47.8851 9.6 57.5994 21.6 57.5994C27.2 57.5994 32.2286 55.4279 36.1143 51.9994C36.9143 51.3136 37.6 50.5136 38.2857 49.7136H33.8286C33.2571 49.0279 32.6857 48.2279 32.2286 47.5422H39.8857C40.3429 46.8565 40.8 46.0565 41.1429 45.2565H30.9714C30.6286 44.5708 30.2857 43.7708 30.0571 42.9708H41.9429C42.6286 40.7994 43.0857 38.5136 43.0857 36.1136C43.0857 34.5136 42.8571 33.0279 42.6286 31.5422H29.3714C29.4857 30.7422 29.7143 30.0565 29.9429 29.2565H41.8286C41.6 28.4565 41.2571 27.6565 40.9143 26.9708H30.8571C31.2 26.1708 31.6571 25.4851 32.1143 24.6851H39.7714C39.3143 23.8851 38.7429 23.0851 38.0571 22.3994H33.8286C34.5143 21.5994 35.2 20.9136 36 20.2279C32.2286 16.6851 27.0857 14.6279 21.4857 14.6279H21.3714" fill="#E52836"/>
<path d="M21.5999 57.5994C27.1999 57.5994 32.2285 55.4279 36.1142 51.9994C36.9142 51.3136 37.5999 50.5136 38.2856 49.7136H33.8285C33.2571 49.0279 32.6856 48.2279 32.2285 47.5422H39.8856C40.3428 46.8565 40.7999 46.0565 41.1428 45.2565H30.9713C30.6285 44.5708 30.2856 43.7708 30.0571 42.9708H41.9428C42.6285 40.7994 43.0856 38.5136 43.0856 36.1136C43.0856 34.5136 42.8571 33.0279 42.6285 31.5422H29.3713C29.4856 30.7422 29.7142 30.0565 29.9428 29.2565H41.8285C41.5999 28.4565 41.2571 27.6565 40.9142 26.9708H30.8571C31.1999 26.1708 31.6571 25.4851 32.1142 24.6851H39.7713C39.3142 23.8851 38.7428 23.0851 38.0571 22.3994H33.8285C34.5142 21.5994 35.1999 20.9136 35.9999 20.2279C32.2285 16.6851 27.0856 14.6279 21.4856 14.6279H21.3713" fill="#CB2026"/>
<path d="M29.2573 41.4858L29.6001 39.543C29.4858 39.543 29.2573 39.6573 29.0287 39.6573C28.2287 39.6573 28.1144 39.2001 28.2287 38.9716L28.9144 34.9716H30.1716L30.5144 32.8001H29.3716L29.6001 31.4287H27.3144C27.3144 31.4287 25.943 38.9716 25.943 39.8859C25.943 41.2573 26.743 41.8287 27.7716 41.8287C28.4573 41.8287 29.0287 41.6001 29.2573 41.4858Z" fill="white"/>
<path d="M30.0573 37.8292C30.0573 41.0292 32.2287 41.8292 34.0573 41.8292C35.7715 41.8292 36.4573 41.4864 36.4573 41.4864L36.9144 39.3149C36.9144 39.3149 35.6573 39.8864 34.5144 39.8864C32.0001 39.8864 32.4573 38.0578 32.4573 38.0578H37.143C37.143 38.0578 37.4858 36.5721 37.4858 36.0006C37.4858 34.5149 36.6858 32.6863 34.1715 32.6863C31.7715 32.4578 30.0573 34.9721 30.0573 37.8292ZM34.0573 34.5149C35.3144 34.5149 35.0858 36.0006 35.0858 36.1149H32.5715C32.5715 36.0006 32.8001 34.5149 34.0573 34.5149Z" fill="white"/>
<path d="M48.5714 41.4861L49.0285 38.9718C49.0285 38.9718 47.8856 39.5432 47.0856 39.5432C45.4856 39.5432 44.7999 38.2861 44.7999 36.9147C44.7999 34.1718 46.1714 32.6861 47.7714 32.6861C48.9142 32.6861 49.8285 33.3718 49.8285 33.3718L50.1714 30.9718C50.1714 30.9718 48.7999 30.4004 47.5428 30.4004C44.9142 30.4004 42.2856 32.6861 42.2856 37.029C42.2856 39.8861 43.6571 41.8289 46.3999 41.8289C47.3142 41.8289 48.5714 41.4861 48.5714 41.4861Z" fill="white"/>
<path d="M16.6859 32.457C15.0859 32.457 13.943 32.9142 13.943 32.9142L13.6002 34.857C13.6002 34.857 14.6287 34.3999 16.1144 34.3999C16.9144 34.3999 17.6002 34.5142 17.6002 35.1999C17.6002 35.657 17.4859 35.7713 17.4859 35.7713C17.4859 35.7713 16.8002 35.7713 16.4573 35.7713C14.5144 35.7713 12.343 36.5713 12.343 39.1999C12.343 41.257 13.7144 41.7141 14.5144 41.7141C16.1144 41.7141 16.8002 40.6856 16.9144 40.6856L16.8002 41.5999H18.8573L19.7716 35.3142C19.7716 32.5713 17.4859 32.457 16.6859 32.457ZM17.143 37.5999C17.143 37.9427 16.9144 39.7713 15.543 39.7713C14.8573 39.7713 14.6287 39.1999 14.6287 38.857C14.6287 38.2856 14.9716 37.4856 16.6859 37.4856C17.0287 37.5999 17.143 37.5999 17.143 37.5999Z" fill="white"/>
<path d="M21.9429 41.7152C22.5143 41.7152 25.3715 41.8295 25.3715 38.7437C25.3715 35.8866 22.6286 36.458 22.6286 35.3152C22.6286 34.7437 23.0858 34.5152 23.8858 34.5152C24.2286 34.5152 25.4858 34.6295 25.4858 34.6295L25.8286 32.5723C25.8286 32.5723 25.0286 32.3438 23.6572 32.3438C21.9429 32.3438 20.2286 33.0295 20.2286 35.3152C20.2286 37.9437 23.0858 37.7152 23.0858 38.7437C23.0858 39.4295 22.2858 39.5437 21.7143 39.5437C20.6858 39.5437 19.6572 39.2009 19.6572 39.2009L19.3143 41.258C19.4286 41.4866 20 41.7152 21.9429 41.7152Z" fill="white"/>
<path d="M67.5428 30.6289L67.0857 33.7146C67.0857 33.7146 66.1714 32.5718 64.9143 32.5718C62.8571 32.5718 61.0286 35.086 61.0286 38.0575C61.0286 39.8861 61.9428 41.8289 63.8857 41.8289C65.2571 41.8289 66.0571 40.9146 66.0571 40.9146L65.9428 41.7146H68.2286L69.9428 30.7432L67.5428 30.6289ZM66.5143 36.686C66.5143 37.9432 65.9428 39.5432 64.6857 39.5432C63.8857 39.5432 63.4286 38.8575 63.4286 37.7146C63.4286 35.8861 64.2286 34.7432 65.2571 34.7432C66.0571 34.7432 66.5143 35.3146 66.5143 36.686Z" fill="white"/>
<path d="M4.22868 41.6003L5.60011 33.3718L5.82868 41.6003H7.42868L10.4001 33.3718L9.14297 41.6003H11.543L13.3715 30.6289H9.60011L7.31439 37.3718L7.20011 30.6289H3.88582L2.05725 41.6003H4.22868Z" fill="white"/>
<path d="M39.6571 41.5999C40.3428 37.8284 40.4571 34.7427 42.0571 35.3141C42.2857 33.8284 42.6285 33.257 42.8571 32.6855C42.8571 32.6855 42.7428 32.6855 42.4 32.6855C41.3714 32.6855 40.5714 34.057 40.5714 34.057L40.8 32.7998H38.6285L37.1428 41.7141H39.6571V41.5999Z" fill="white"/>
<path d="M53.8287 32.457C52.2287 32.457 51.0858 32.9142 51.0858 32.9142L50.743 34.857C50.743 34.857 51.7716 34.3999 53.2573 34.3999C54.0573 34.3999 54.743 34.5142 54.743 35.1999C54.743 35.657 54.6287 35.7713 54.6287 35.7713C54.6287 35.7713 53.943 35.7713 53.6001 35.7713C51.6573 35.7713 49.4858 36.5713 49.4858 39.1999C49.4858 41.257 50.8573 41.7141 51.6573 41.7141C53.2573 41.7141 53.943 40.6856 54.0573 40.6856L53.943 41.5999H56.0001L56.9144 35.3142C57.0287 32.5713 54.6287 32.457 53.8287 32.457ZM54.4001 37.5999C54.4001 37.9427 54.1716 39.7713 52.8001 39.7713C52.1144 39.7713 51.8858 39.1999 51.8858 38.857C51.8858 38.2856 52.2287 37.4856 53.943 37.4856C54.2858 37.5999 54.2858 37.5999 54.4001 37.5999Z" fill="white"/>
<path d="M58.8572 41.5999C59.5429 37.8284 59.6572 34.7427 61.2572 35.3141C61.4857 33.8284 61.8286 33.257 62.0572 32.6855C62.0572 32.6855 61.9429 32.6855 61.6 32.6855C60.5715 32.6855 59.7715 34.057 59.7715 34.057L60 32.7998H57.8286L56.3429 41.7141H58.8572V41.5999Z" fill="white"/>
<path d="M25.7142 39.8859C25.7142 41.2573 26.5142 41.8287 27.5428 41.8287C28.3428 41.8287 29.0285 41.6001 29.2571 41.4858L29.5999 39.543C29.4857 39.543 29.2571 39.6573 29.0285 39.6573C28.2285 39.6573 28.1142 39.2001 28.2285 38.9716L28.9142 34.9716H30.1714L30.5142 32.8001H29.3714L29.5999 31.4287" fill="#DCE5E5"/>
<path d="M31.2001 37.8292C31.2001 41.0292 32.2286 41.8292 34.0572 41.8292C35.7715 41.8292 36.4572 41.4864 36.4572 41.4864L36.9144 39.3149C36.9144 39.3149 35.6572 39.8864 34.5144 39.8864C32.0001 39.8864 32.4572 38.0578 32.4572 38.0578H37.1429C37.1429 38.0578 37.4858 36.5721 37.4858 36.0006C37.4858 34.5149 36.6858 32.6863 34.1715 32.6863C31.7715 32.4578 31.2001 34.9721 31.2001 37.8292ZM34.0572 34.5149C35.3144 34.5149 35.5429 36.0006 35.5429 36.1149H32.5715C32.5715 36.0006 32.8001 34.5149 34.0572 34.5149Z" fill="#DCE5E5"/>
<path d="M48.5713 41.4861L49.0285 38.9718C49.0285 38.9718 47.8856 39.5432 47.0856 39.5432C45.4856 39.5432 44.7999 38.2861 44.7999 36.9147C44.7999 34.1718 46.1713 32.6861 47.7713 32.6861C48.9142 32.6861 49.8285 33.3718 49.8285 33.3718L50.1713 30.9718C50.1713 30.9718 48.7999 30.4004 47.5427 30.4004C44.9142 30.4004 43.4285 32.6861 43.4285 37.029C43.4285 39.8861 43.657 41.8289 46.3999 41.8289C47.3142 41.8289 48.5713 41.4861 48.5713 41.4861Z" fill="#DCE5E5"/>
<path d="M13.6002 34.9713C13.6002 34.9713 14.6287 34.5141 16.1144 34.5141C16.9144 34.5141 17.6002 34.6284 17.6002 35.3141C17.6002 35.7713 17.4859 35.8855 17.4859 35.8855C17.4859 35.8855 16.8002 35.8855 16.4573 35.8855C14.5144 35.8855 12.343 36.6855 12.343 39.3141C12.343 41.3712 13.7144 41.8284 14.5144 41.8284C16.1144 41.8284 16.8002 40.7998 16.9144 40.7998L16.8002 41.7141H18.8573L19.7716 35.4284C19.7716 32.7998 17.4859 32.6855 16.5716 32.6855L13.6002 34.9713ZM18.2859 37.5998C18.2859 37.9427 16.9144 39.7712 15.543 39.7712C14.8573 39.7712 14.6287 39.1998 14.6287 38.857C14.6287 38.2855 14.9716 37.4855 16.6859 37.4855C17.0287 37.5998 18.2859 37.5998 18.2859 37.5998Z" fill="#DCE5E5"/>
<path d="M19.4285 41.4866C19.4285 41.4866 20.1142 41.7152 22.057 41.7152C22.6285 41.7152 25.4856 41.8295 25.4856 38.7437C25.4856 35.8866 22.7428 36.458 22.7428 35.3152C22.7428 34.7437 23.1999 34.5152 23.9999 34.5152C24.3428 34.5152 25.5999 34.6295 25.5999 34.6295L25.9428 32.5723C25.9428 32.5723 25.1428 32.3438 23.7713 32.3438C22.057 32.3438 21.4856 33.0295 21.4856 35.3152C21.4856 37.9437 23.1999 37.7152 23.1999 38.7437C23.1999 39.4295 22.3999 39.5437 21.8285 39.5437" fill="#DCE5E5"/>
<path d="M67.0859 33.7146C67.0859 33.7146 66.1716 32.5717 64.9145 32.5717C62.8573 32.5717 62.1716 35.086 62.1716 38.0574C62.1716 39.886 61.9431 41.8289 63.8859 41.8289C65.2573 41.8289 66.0573 40.9146 66.0573 40.9146L65.9431 41.7146H68.2288L69.9431 30.7432L67.0859 33.7146ZM66.9716 36.686C66.9716 37.9431 65.9431 39.5431 64.6859 39.5431C63.8859 39.5431 63.4288 38.8574 63.4288 37.7146C63.4288 35.886 64.2288 34.7432 65.2573 34.7432C66.0573 34.7432 66.9716 35.3146 66.9716 36.686Z" fill="#DCE5E5"/>
<path d="M4.22868 41.6003L5.60011 33.3718L5.82868 41.6003H7.42868L10.4001 33.3718L9.14297 41.6003H11.543L13.3715 30.6289H10.5144L7.31439 37.3718L7.20011 30.6289H5.94297L2.05725 41.6003H4.22868Z" fill="#DCE5E5"/>
<path d="M37.2574 41.5999H39.6574C40.3432 37.8284 40.4574 34.7427 42.0574 35.3141C42.286 33.8284 42.6289 33.257 42.8574 32.6855C42.8574 32.6855 42.7432 32.6855 42.4003 32.6855C41.3717 32.6855 40.5717 34.057 40.5717 34.057L40.8003 32.7998" fill="#DCE5E5"/>
<path d="M50.743 34.9713C50.743 34.9713 51.7716 34.5141 53.2573 34.5141C54.0573 34.5141 54.743 34.6284 54.743 35.3141C54.743 35.7713 54.6287 35.8855 54.6287 35.8855C54.6287 35.8855 53.943 35.8855 53.6001 35.8855C51.6573 35.8855 49.4858 36.6855 49.4858 39.3141C49.4858 41.3712 50.8573 41.8284 51.6573 41.8284C53.2573 41.8284 53.943 40.7998 54.0573 40.7998L53.943 41.7141H56.0001L56.9144 35.4284C56.9144 32.7998 54.6287 32.6855 53.7144 32.6855L50.743 34.9713ZM55.4287 37.5998C55.4287 37.9427 54.0573 39.7712 52.6858 39.7712C52.0001 39.7712 51.7716 39.1998 51.7716 38.857C51.7716 38.2855 52.1144 37.4855 53.8287 37.4855C54.2858 37.5998 55.4287 37.5998 55.4287 37.5998Z" fill="#DCE5E5"/>
<path d="M56.4572 41.5999H58.8572C59.5429 37.8284 59.6571 34.7427 61.2571 35.3141C61.4857 33.8284 61.8286 33.257 62.0571 32.6855C62.0571 32.6855 61.9429 32.6855 61.6 32.6855C60.5714 32.6855 59.7714 34.057 59.7714 34.057L60 32.7998" fill="#DCE5E5"/>
</svg>
