<svg width="72" height="72" viewBox="0 0 72 72" fill="none" xmlns="http://www.w3.org/2000/svg">
<g clip-path="url(#clip0)">
<path d="M55.6572 31.5996H51.7715C51.543 31.5996 51.3144 31.8282 51.2001 32.0568L49.6001 42.1139C49.6001 42.3425 49.7144 42.4568 49.943 42.4568H52.0001C52.2287 42.4568 52.343 42.3425 52.343 42.1139L52.8001 39.2568C52.8001 39.0282 53.0287 38.7996 53.3715 38.7996H54.6287C57.2572 38.7996 58.7429 37.5425 59.0858 35.0282C59.3144 33.9996 59.0858 33.0853 58.6287 32.5139C57.9429 31.9425 56.9144 31.5996 55.6572 31.5996ZM56.1144 35.371C55.8858 36.7425 54.8572 36.7425 53.8287 36.7425H53.143L53.6001 34.1139C53.6001 33.9996 53.7144 33.8853 53.943 33.8853H54.1715C54.8572 33.8853 55.543 33.8853 55.8858 34.3425C56.1144 34.4568 56.1144 34.7996 56.1144 35.371Z" fill="#139AD6"/>
<path d="M27.6572 31.5996H23.7715C23.543 31.5996 23.3144 31.8282 23.2001 32.0568L21.6001 42.1139C21.6001 42.3425 21.7144 42.4568 21.943 42.4568H23.7715C24.0001 42.4568 24.2287 42.2282 24.343 41.9996L24.8001 39.2568C24.8001 39.0282 25.0287 38.7996 25.3715 38.7996H26.6287C29.2572 38.7996 30.743 37.5425 31.0858 35.0282C31.3144 33.9996 31.0858 33.0853 30.6287 32.5139C29.943 31.9425 29.0287 31.5996 27.6572 31.5996ZM28.1144 35.371C27.8858 36.7425 26.8572 36.7425 25.8287 36.7425H25.2572L25.7144 34.1139C25.7144 33.9996 25.8287 33.8853 26.0572 33.8853H26.2858C26.9715 33.8853 27.6572 33.8853 28.0001 34.3425C28.1144 34.4568 28.2287 34.7996 28.1144 35.371Z" fill="#263B80"/>
<path d="M39.4288 35.2569H37.6003C37.486 35.2569 37.2574 35.3712 37.2574 35.4855L37.1431 36.0569L37.0288 35.8283C36.5717 35.2569 35.7717 35.0283 34.8574 35.0283C32.8003 35.0283 30.9717 36.6283 30.6288 38.7998C30.4003 39.9426 30.7431 40.9712 31.3146 41.6569C31.886 42.3426 32.686 42.5712 33.7146 42.5712C35.4288 42.5712 36.3431 41.5426 36.3431 41.5426L36.2288 42.1141C36.2288 42.3426 36.3431 42.4569 36.5717 42.4569H38.286C38.5145 42.4569 38.7431 42.2283 38.8574 41.9998L39.886 35.5998C39.7717 35.4855 39.5431 35.2569 39.4288 35.2569ZM36.8003 38.914C36.5717 39.9426 35.7717 40.7426 34.6288 40.7426C34.0574 40.7426 33.6003 40.5141 33.3717 40.2855C33.1431 39.9426 33.0288 39.4855 33.0288 38.914C33.1431 37.8855 34.0574 37.0855 35.086 37.0855C35.6574 37.0855 36.0003 37.314 36.3431 37.5426C36.686 37.8855 36.8003 38.4569 36.8003 38.914Z" fill="#263B80"/>
<path d="M67.3142 35.2569H65.4856C65.3713 35.2569 65.1428 35.3712 65.1428 35.4855L65.0285 36.0569L64.9142 35.8283C64.4571 35.2569 63.6571 35.0283 62.7428 35.0283C60.6856 35.0283 58.8571 36.6283 58.5142 38.7998C58.2857 39.9426 58.6285 40.9712 59.1999 41.6569C59.7714 42.3426 60.5714 42.5712 61.5999 42.5712C63.3142 42.5712 64.2285 41.5426 64.2285 41.5426L64.1142 42.1141C64.1142 42.3426 64.2285 42.4569 64.4571 42.4569H66.1713C66.3999 42.4569 66.6285 42.2283 66.7428 41.9998L67.7713 35.5998C67.6571 35.4855 67.5428 35.2569 67.3142 35.2569ZM64.6856 38.914C64.4571 39.9426 63.6571 40.7426 62.5142 40.7426C61.9428 40.7426 61.4856 40.5141 61.2571 40.2855C61.0285 39.9426 60.9142 39.4855 60.9142 38.914C61.0285 37.8855 61.9428 37.0855 62.9714 37.0855C63.5428 37.0855 63.8856 37.314 64.2285 37.5426C64.6856 37.8855 64.7999 38.4569 64.6856 38.914Z" fill="#139AD6"/>
<path d="M49.3714 35.2578H47.4286C47.2 35.2578 47.0857 35.3721 46.9714 35.4864L44.4571 39.3721L43.3143 35.715C43.2 35.4864 43.0857 35.3721 42.7428 35.3721H40.9143C40.6857 35.3721 40.5714 35.6007 40.5714 35.8292L42.6286 41.8864L40.6857 44.6292C40.5714 44.8578 40.6857 45.2006 40.9143 45.2006H42.7428C42.9714 45.2006 43.0857 45.0864 43.2 44.9721L49.4857 35.9435C49.8286 35.6007 49.6 35.2578 49.3714 35.2578Z" fill="#263B80"/>
<path d="M69.4857 31.9424L67.8857 42.2281C67.8857 42.4566 68 42.5709 68.2286 42.5709H69.8286C70.0572 42.5709 70.2857 42.3424 70.4 42.1138L72 32.0566C72 31.8281 71.8857 31.7138 71.6572 31.7138H69.8286C69.7143 31.5995 69.6 31.7138 69.4857 31.9424Z" fill="#139AD6"/>
<path d="M13.1429 28.1722C12.3429 27.2579 10.8571 26.8008 8.8 26.8008H3.08571C2.74286 26.8008 2.4 27.1436 2.28571 27.4865L0 42.4579C0 42.8008 0.228571 43.0294 0.457143 43.0294H4L4.91429 37.4294V37.6579C5.02857 37.3151 5.37143 36.9722 5.71429 36.9722H7.42857C10.7429 36.9722 13.2571 35.6008 14.0571 31.8294C14.0571 31.7151 14.0571 31.6008 14.0571 31.4865C13.9429 31.4865 13.9429 31.4865 14.0571 31.4865C14.1714 30.0008 13.9429 29.0865 13.1429 28.1722Z" fill="#263B80"/>
<path d="M13.9427 31.4854C13.9427 31.5996 13.9427 31.7139 13.9427 31.8282C13.1427 35.7139 10.6284 36.9711 7.31413 36.9711H5.59984C5.25698 36.9711 4.91413 37.3139 4.79984 37.6568L3.65698 44.6282C3.65698 44.8568 3.77127 45.0854 4.11413 45.0854H7.08555C7.42841 45.0854 7.77127 44.8568 7.77127 44.5139V44.3996L8.3427 40.8568V40.6282C8.3427 40.2854 8.68555 40.0568 9.02841 40.0568H9.48555C12.3427 40.0568 14.6284 38.9139 15.1998 35.4854C15.4284 34.1139 15.3141 32.8568 14.6284 32.0568C14.5141 31.8282 14.2856 31.5996 13.9427 31.4854Z" fill="#139AD6"/>
<path d="M13.143 31.1436C13.0287 31.1436 12.9144 31.0294 12.8001 31.0294C12.6859 31.0294 12.5716 31.0294 12.4573 30.9151C12.0001 30.8008 11.543 30.8008 10.9716 30.8008H6.51443C6.40014 30.8008 6.28586 30.8008 6.17157 30.9151C5.943 31.0294 5.82871 31.2579 5.82871 31.4865L4.91443 37.4294V37.6579C5.02871 37.3151 5.37157 36.9722 5.71443 36.9722H7.42871C10.743 36.9722 13.2573 35.6008 14.0573 31.8294C14.0573 31.7151 14.0573 31.6008 14.1716 31.4865C13.943 31.3722 13.8287 31.2579 13.6001 31.2579C13.2573 31.1436 13.2573 31.1436 13.143 31.1436Z" fill="#232C65"/>
</g>
<defs>
<clipPath id="clip0">
<rect width="72" height="72" fill="white"/>
</clipPath>
</defs>
</svg>
