<svg width="72" height="72" viewBox="0 0 72 72" fill="none" xmlns="http://www.w3.org/2000/svg">
<g clip-path="url(#clip0)">
<path d="M26.3999 46.3419L30.057 25.7705H35.7713L32.2285 46.3419H26.3999Z" fill="#3C58BF"/>
<path d="M26.3999 46.3419L31.0856 25.7705H35.7713L32.2285 46.3419H26.3999Z" fill="#293688"/>
<path d="M52.9143 26.0012C51.7714 25.5441 49.9429 25.0869 47.6572 25.0869C41.9429 25.0869 37.8286 27.9441 37.8286 32.0583C37.8286 35.1441 40.6857 36.7441 42.9714 37.7726C45.2572 38.8012 45.9429 39.4869 45.9429 40.4012C45.9429 41.7726 44.1143 42.4583 42.5143 42.4583C40.2286 42.4583 38.9714 42.1155 37.0286 41.3155L36.2286 40.9726L35.4286 45.6583C36.8 46.2298 39.3143 46.8012 41.9429 46.8012C48 46.8012 52 43.9441 52 39.6012C52 37.2012 50.5143 35.3726 47.0857 33.8869C45.0286 32.8583 43.7714 32.2869 43.7714 31.2583C43.7714 30.3441 44.8 29.4298 47.0857 29.4298C49.0286 29.4298 50.4 29.7726 51.4286 30.2298L52 30.4583L52.9143 26.0012Z" fill="#3C58BF"/>
<path d="M52.9143 26.0012C51.7714 25.5441 49.9429 25.0869 47.6572 25.0869C41.9429 25.0869 38.8572 27.9441 38.8572 32.0583C38.8572 35.1441 40.6857 36.7441 42.9714 37.7726C45.2572 38.8012 45.9429 39.4869 45.9429 40.4012C45.9429 41.7726 44.1143 42.4583 42.5143 42.4583C40.2286 42.4583 38.9714 42.1155 37.0286 41.3155L36.2286 40.9726L35.4286 45.6583C36.8 46.2298 39.3143 46.8012 41.9429 46.8012C48 46.8012 52 43.9441 52 39.6012C52 37.2012 50.5143 35.3726 47.0857 33.8869C45.0286 32.8583 43.7714 32.2869 43.7714 31.2583C43.7714 30.3441 44.8 29.4298 47.0857 29.4298C49.0286 29.4298 50.4 29.7726 51.4286 30.2298L52 30.4583L52.9143 26.0012Z" fill="#293688"/>
<path d="M62.7429 25.7705C61.3715 25.7705 60.3429 25.8848 59.7715 27.2562L51.2001 46.3419H57.3715L58.5144 42.9134H65.8286L66.5144 46.3419H72.0001L67.2001 25.7705H62.7429V25.7705ZM60.1144 39.4848C60.4572 38.4562 62.4001 33.4277 62.4001 33.4277C62.4001 33.4277 62.8572 32.1705 63.2001 31.3705L63.5429 33.3134C63.5429 33.3134 64.6858 38.4562 64.9144 39.5991H60.1144V39.4848Z" fill="#3C58BF"/>
<path d="M64.1144 25.7705C62.7429 25.7705 61.7144 25.8848 61.1429 27.2562L51.2001 46.3419H57.3715L58.5144 42.9134H65.8286L66.5144 46.3419H72.0001L67.2001 25.7705H64.1144V25.7705ZM60.1144 39.4848C60.5715 38.3419 62.4001 33.4277 62.4001 33.4277C62.4001 33.4277 62.8572 32.1705 63.2001 31.3705L63.5429 33.3134C63.5429 33.3134 64.6858 38.4562 64.9144 39.5991H60.1144V39.4848Z" fill="#293688"/>
<path d="M15.8858 40.1714L15.3143 37.2C14.2858 33.7714 10.9715 30 7.31433 28.1715L12.4572 46.4572H18.6286L27.8858 25.8857H21.7143L15.8858 40.1714Z" fill="#3C58BF"/>
<path d="M15.8858 40.1714L15.3143 37.2C14.2858 33.7714 10.9715 30 7.31433 28.1715L12.4572 46.4572H18.6286L27.8858 25.8857H22.8572L15.8858 40.1714Z" fill="#293688"/>
<path d="M0 25.7705L1.02857 25.9991C8.34286 27.7134 13.3714 32.0562 15.3143 37.1991L13.2571 27.4848C12.9143 26.1134 11.8857 25.7705 10.6286 25.7705H0V25.7705Z" fill="#FFBC00"/>
<path d="M0 25.7705C7.31429 27.4848 13.3714 31.9419 15.3143 37.0848L13.3714 28.9705C13.0286 27.5991 11.8857 26.7991 10.6286 26.7991L0 25.7705Z" fill="#F7981D"/>
<path d="M0 25.7705C7.31429 27.4848 13.3714 31.9419 15.3143 37.0848L13.9429 32.6276C13.6 31.2562 13.1429 29.8848 11.5429 29.3134L0 25.7705Z" fill="#ED7C00"/>
<path d="M21.6 39.4852L17.7143 35.5995L15.8857 39.9424L15.4286 37.0852C14.4 33.6566 11.0857 29.8852 7.42859 28.0566L12.5714 46.3424H18.7429L21.6 39.4852Z" fill="#051244"/>
<path d="M32.2285 46.342L27.3142 41.3135L26.3999 46.342H32.2285Z" fill="#051244"/>
<path d="M45.3714 39.2559C45.8286 39.713 46.0572 40.0559 45.9429 40.513C45.9429 41.8844 44.1143 42.5701 42.5143 42.5701C40.2286 42.5701 38.9714 42.2273 37.0286 41.4273L36.2286 41.0844L35.4286 45.7701C36.8 46.3416 39.3143 46.913 41.9429 46.913C45.6 46.913 48.5714 45.8844 50.2857 44.0559L45.3714 39.2559Z" fill="#051244"/>
<path d="M52 46.3415H57.3714L58.5143 42.913H65.8286L66.5143 46.3415H72L70.0571 37.9987L63.2 31.3701L63.5429 33.1987C63.5429 33.1987 64.6857 38.3415 64.9143 39.4844H60.1143C60.5714 38.3415 62.4 33.4273 62.4 33.4273C62.4 33.4273 62.8571 32.1701 63.2 31.3701" fill="#051244"/>
</g>
<defs>
<clipPath id="clip0">
<rect width="72" height="72" fill="white"/>
</clipPath>
</defs>
</svg>
