<svg width="24" height="24" viewBox="0 0 24 24" fill="none" xmlns="http://www.w3.org/2000/svg">
<path d="M12.6446 21C16.6151 21 19 19.1739 19 16.1816C19 13.9667 17.3241 12.3292 14.8103 12.0936V11.8933C16.6409 11.6105 18.0718 10.0201 18.0718 8.24116C18.0718 5.62578 15.9705 4 12.477 4H5V21H12.6446ZM7.88766 6.23839H11.8066C13.9466 6.23839 15.1971 7.15731 15.1971 8.72419C15.1971 10.3382 13.8692 11.1982 11.3168 11.1982H7.88766V6.23839ZM7.88766 18.7616V13.2834H11.8969C14.6169 13.2834 16.0479 14.2141 16.0479 15.9931C16.0479 17.7956 14.6685 18.7616 12.0645 18.7616H7.88766Z" fill="#2C3038"/>
</svg>
