<svg width="24" height="24" viewBox="0 0 24 24" fill="none" xmlns="http://www.w3.org/2000/svg">
<path d="M12 24C5.385 24 0 18.615 0 12C0 5.385 5.385 0 12 0C18.615 0 24 5.385 24 12C24 18.615 18.615 24 12 24ZM22.12 13.642C21.77 13.532 18.95 12.689 15.736 13.204C17.076 16.888 17.623 19.888 17.728 20.512C20.028 18.957 21.664 16.492 22.123 13.642H22.12ZM16.005 21.45C15.852 20.55 15.255 17.418 13.815 13.68L13.749 13.7C7.959 15.715 5.889 19.725 5.709 20.1C7.439 21.458 9.629 22.266 11.999 22.266C13.419 22.266 14.769 21.976 15.999 21.452L16.005 21.45ZM4.385 18.87C4.617 18.47 7.43 13.815 12.717 12.105C12.852 12.06 12.987 12.021 13.122 11.985C12.862 11.4 12.582 10.818 12.29 10.245C7.17 11.775 2.206 11.71 1.756 11.7L1.752 12.012C1.752 14.645 2.75 17.049 4.386 18.867L4.385 18.87ZM1.965 9.915C2.425 9.923 6.648 9.941 11.442 8.667C9.744 5.649 7.912 3.109 7.642 2.739C4.774 4.089 2.632 6.729 1.966 9.909L1.965 9.915ZM9.6 2.052C9.882 2.432 11.745 4.966 13.422 8.052C17.067 6.687 18.612 4.612 18.795 4.35C16.985 2.74 14.605 1.764 12 1.764C11.175 1.764 10.37 1.864 9.6 2.049V2.052ZM19.935 5.535C19.717 5.825 18 8.028 14.211 9.575C14.451 10.065 14.681 10.56 14.891 11.061C14.971 11.241 15.041 11.421 15.111 11.591C18.521 11.161 21.911 11.851 22.251 11.921C22.231 9.501 21.371 7.281 19.941 5.541L19.935 5.535Z" fill="#2C3038"/>
</svg>
