<svg width="24" height="24" viewBox="0 0 24 24" fill="none" xmlns="http://www.w3.org/2000/svg">
<g clip-path="url(#clip0)">
<path d="M19.4 0.197049C18.66 -0.173951 16.679 -0.0499509 14.205 0.817049C9.998 3.78505 6.531 7.99205 6.161 14.926C6.161 15.167 5.668 14.926 5.544 14.8C4.43 12.696 3.93399 10.345 4.92399 6.87905C5.17099 6.63205 4.55399 6.26205 4.55399 6.38505C4.30499 6.50805 3.43999 7.49805 2.81999 8.48805C-0.027005 13.435 1.83 19.999 6.781 22.719C11.728 25.44 18.163 23.707 21.012 18.633C24.354 12.819 21.381 1.31105 19.4 0.197049" fill="#2C3038"/>
</g>
<defs>
<clipPath id="clip0">
<rect width="24" height="24" fill="white"/>
</clipPath>
</defs>
</svg>
