<svg width="24" height="24" viewBox="0 0 24 24" fill="none" xmlns="http://www.w3.org/2000/svg">
<path d="M9.60399 8.18L14.004 1.8C14.838 0.6 15.91 0 17.231 0C18.303 0 19.233 0.381 20.02 1.144C20.803 1.909 21.196 2.819 21.196 3.882C21.196 4.666 20.989 5.361 20.572 5.961L16.605 11.73L21.458 17.883C21.942 18.495 22.185 19.213 22.185 20.033C22.185 21.119 21.804 22.051 21.04 22.831C20.278 23.61 19.354 24 18.269 24C17.08 24 16.172 23.613 15.548 22.84L9.60499 15.423V19.512C9.60499 20.68 9.40299 21.586 8.99799 22.234C8.26099 23.411 7.19499 24 5.78499 24C4.50299 24 3.50899 23.564 2.80599 22.701C2.14599 21.902 1.81599 20.845 1.81599 19.529V4.365C1.81599 3.12 2.15199 2.091 2.81999 1.282C3.51799 0.428 4.48799 0 5.72599 0C6.90499 0 7.88599 0.428 8.67199 1.282C9.10999 1.757 9.38699 2.235 9.50299 2.722C9.57299 3.022 9.60799 3.58 9.60799 4.402V8.18H9.60399Z" fill="#2C3038"/>
</svg>
