<svg width="24" height="24" viewBox="0 0 24 24" fill="none" xmlns="http://www.w3.org/2000/svg">
<path d="M12.069 18.874C8.04601 18.874 6.24901 16.895 6.24901 15.41C6.24901 14.645 6.81001 14.114 7.58201 14.114C9.30501 14.114 8.85501 16.591 12.069 16.591C13.71 16.591 14.619 15.696 14.619 14.78C14.619 14.229 14.35 13.62 13.265 13.351L9.68901 12.456C6.80901 11.732 6.28601 10.17 6.28601 8.705C6.28601 5.658 9.14701 4.514 11.835 4.514C14.306 4.514 17.228 5.887 17.228 7.713C17.228 8.497 16.54 8.953 15.775 8.953C14.306 8.953 14.577 6.916 11.611 6.916C10.142 6.916 9.31901 7.58 9.31901 8.533C9.31901 9.486 10.472 9.791 11.476 10.02L14.113 10.607C17.004 11.256 17.737 12.953 17.737 14.551C17.737 17.027 15.835 18.875 12.015 18.875L12.069 18.874ZM23.099 13.993L23.07 14.128L23.026 13.888C23.041 13.933 23.07 13.962 23.085 14.008C23.205 13.333 23.266 12.645 23.266 11.956C23.266 10.427 22.965 8.944 22.368 7.536C21.799 6.188 20.973 4.974 19.941 3.94C18.892 2.907 17.694 2.084 16.346 1.514C15.028 0.883 13.545 0.584 12.018 0.584C11.298 0.584 10.574 0.654 9.87501 0.788L9.99401 0.848L9.75501 0.815L9.87401 0.79C8.91001 0.274 7.82901 0 6.73101 0C4.94201 0 3.26101 0.698 1.99501 1.967C0.729013 3.235 0.0320129 4.923 0.0320129 6.716C0.0320129 7.859 0.324013 8.981 0.876013 9.974L0.896013 9.85L0.937013 10.089L0.877013 9.974C0.763013 10.619 0.705013 11.273 0.705013 11.929C0.705013 13.459 1.00501 14.946 1.58901 16.345C2.15701 17.707 2.96701 18.921 4.01601 19.954C5.05001 21.004 6.26301 21.811 7.61101 22.396C9.00501 22.996 10.488 23.294 12.015 23.294C12.674 23.294 13.349 23.234 13.992 23.115L13.873 23.053L14.113 23.099L13.978 23.129C14.98 23.698 16.104 24 17.272 24C19.055 24 20.731 23.31 22.005 22.037C23.264 20.778 23.967 19.086 23.967 17.288C23.967 16.15 23.668 15.026 23.114 14.022" fill="#2C3038"/>
</svg>
