<svg width="24" height="24" viewBox="0 0 24 24" fill="none" xmlns="http://www.w3.org/2000/svg">
<g clip-path="url(#clip0)">
<path d="M5.042 15.165C5.04068 15.8332 4.77485 16.4737 4.30263 16.9465C3.83041 17.4193 3.19021 17.6859 2.522 17.688C1.85344 17.6864 1.21273 17.4201 0.740075 16.9472C0.267423 16.4744 0.00132044 15.8336 0 15.165C0.00184946 14.4969 0.268217 13.8567 0.74084 13.3844C1.21346 12.9122 1.85388 12.6463 2.522 12.645H5.042V15.165ZM6.313 15.165C6.31485 14.497 6.58108 13.857 7.05349 13.3848C7.52589 12.9126 8.16605 12.6466 8.834 12.645C9.50195 12.6466 10.1421 12.9126 10.6145 13.3848C11.0869 13.857 11.3532 14.497 11.355 15.165V21.478C11.3534 22.1462 11.0873 22.7866 10.6149 23.2592C10.1425 23.7318 9.50222 23.9982 8.834 24C8.16578 23.9982 7.52548 23.7318 7.05307 23.2592C6.58066 22.7866 6.31458 22.1462 6.313 21.478V15.165ZM8.834 5.042C8.16613 5.04015 7.52613 4.77409 7.05378 4.30193C6.58143 3.82977 6.31511 3.18987 6.313 2.522C6.31458 1.85378 6.58066 1.21337 7.05307 0.740779C7.52548 0.268184 8.16578 0.00184841 8.834 0C9.50222 0.00184841 10.1425 0.268184 10.6149 0.740779C11.0873 1.21337 11.3534 1.85378 11.355 2.522V5.042H8.834ZM8.834 6.313C9.50204 6.31485 10.1422 6.58105 10.6146 7.05342C11.087 7.5258 11.3532 8.16596 11.355 8.834C11.3532 9.50204 11.087 10.1422 10.6146 10.6146C10.1422 11.087 9.50204 11.3532 8.834 11.355H2.522C1.85378 11.3534 1.21337 11.0873 0.740779 10.6149C0.268184 10.1425 0.00184841 9.50222 0 8.834C0.00184841 8.16578 0.268184 7.52548 0.740779 7.05307C1.21337 6.58066 1.85378 6.31458 2.522 6.313H8.834ZM18.956 8.834C18.9578 8.16578 19.2242 7.52548 19.6968 7.05307C20.1694 6.58066 20.8098 6.31458 21.478 6.313C22.1462 6.31458 22.7866 6.58066 23.2592 7.05307C23.7318 7.52548 23.9982 8.16578 24 8.834C23.9982 9.50222 23.7318 10.1425 23.2592 10.6149C22.7866 11.0873 22.1462 11.3534 21.478 11.355H18.956V8.834ZM17.688 8.834C17.6861 9.50239 17.4197 10.1428 16.9469 10.6153C16.4741 11.0877 15.8334 11.3537 15.165 11.355C14.497 11.3532 13.857 11.0869 13.3848 10.6145C12.9126 10.1421 12.6466 9.50195 12.645 8.834V2.522C12.6463 1.85388 12.9122 1.21346 13.3844 0.74084C13.8567 0.268217 14.4969 0.00184946 15.165 0C15.8336 0.00132044 16.4744 0.267423 16.9472 0.740075C17.4201 1.21273 17.6864 1.85344 17.688 2.522V8.834ZM15.165 18.956C15.8336 18.9573 16.4744 19.2234 16.9472 19.6961C17.4201 20.1687 17.6864 20.8094 17.688 21.478C17.6864 22.1466 17.4201 22.7873 16.9472 23.2599C16.4744 23.7326 15.8336 23.9987 15.165 24C14.4969 23.9981 13.8567 23.7318 13.3844 23.2592C12.9122 22.7865 12.6463 22.1461 12.645 21.478V18.956H15.165ZM15.165 17.688C14.4967 17.6861 13.8564 17.4196 13.3841 16.9468C12.9118 16.474 12.6461 15.8333 12.645 15.165C12.6466 14.4971 12.9126 13.8571 13.3848 13.3848C13.8571 12.9126 14.4971 12.6466 15.165 12.645H21.478C22.1461 12.6463 22.7865 12.9122 23.2592 13.3844C23.7318 13.8567 23.9981 14.4969 24 15.165C23.9987 15.8336 23.7326 16.4744 23.2599 16.9472C22.7873 17.4201 22.1466 17.6864 21.478 17.688H15.165Z" fill="#2C3038"/>
</g>
<defs>
<clipPath id="clip0">
<rect width="24" height="24" fill="white"/>
</clipPath>
</defs>
</svg>
