<svg width="24" height="24" viewBox="0 0 24 24" fill="none" xmlns="http://www.w3.org/2000/svg">
<g clip-path="url(#clip0)">
<path d="M23.977 6.41601C23.872 8.75401 22.238 11.959 19.083 16.025C15.815 20.272 13.057 22.395 10.793 22.395C9.384 22.395 8.215 21.101 7.24 18.514L5.322 11.4C4.603 8.81601 3.834 7.52201 3.01 7.52201C2.831 7.52201 2.204 7.90001 1.129 8.65401L0 7.19701C1.185 6.15301 2.351 5.11301 3.501 4.06901C5.08 2.70101 6.266 1.98401 7.055 1.91001C8.922 1.73001 10.071 3.01001 10.502 5.74801C10.967 8.70101 11.291 10.537 11.473 11.255C12.012 13.705 12.604 14.929 13.249 14.929C13.751 14.929 14.505 14.133 15.514 12.544C16.518 10.955 17.054 9.74701 17.126 8.91601C17.27 7.54501 16.731 6.85501 15.512 6.85501C14.938 6.85501 14.345 6.97601 13.735 7.24601C14.921 3.37801 17.169 1.48901 20.497 1.60901C22.97 1.66901 24.125 3.27301 23.99 6.40601L23.977 6.41601Z" fill="#2C3038"/>
</g>
<defs>
<clipPath id="clip0">
<rect width="24" height="24" fill="white"/>
</clipPath>
</defs>
</svg>
