<svg width="24" height="24" viewBox="0 0 24 24" fill="none" xmlns="http://www.w3.org/2000/svg">
<path d="M23.495 6.20498C23.356 5.70674 23.0907 5.2528 22.725 4.88703C22.3592 4.52126 21.9052 4.25603 21.407 4.11698C19.537 3.61598 12.011 3.61598 12.011 3.61598C12.011 3.61598 4.50401 3.60598 2.61501 4.11698C2.11677 4.25603 1.66283 4.52126 1.29706 4.88703C0.931287 5.2528 0.666058 5.70674 0.527007 6.20498C0.172528 8.11949 -0.0022322 10.0629 0.00500725 12.01C-0.000863617 13.9497 0.173891 15.8857 0.527007 17.793C0.666058 18.2912 0.931287 18.7452 1.29706 19.1109C1.66283 19.4767 2.11677 19.7419 2.61501 19.881C4.48301 20.383 12.011 20.383 12.011 20.383C12.011 20.383 19.517 20.383 21.407 19.881C21.9052 19.7419 22.3592 19.4767 22.725 19.1109C23.0907 18.7452 23.356 18.2912 23.495 17.793C23.8407 15.885 24.0081 13.949 23.995 12.01C24.0095 10.0636 23.8421 8.12018 23.495 6.20498ZM9.60901 15.601V8.40798L15.873 12.01L9.60901 15.601Z" fill="#2C3038"/>
</svg>
