<svg width="48" height="48" viewBox="0 0 48 48" fill="none" xmlns="http://www.w3.org/2000/svg">
<g clip-path="url(#clip0)">
<path opacity="0.4" d="M40.0296 9.38639L13.5456 14.904C12.0547 15.2125 10.7156 16.0253 9.75393 17.2056C8.79221 18.3859 8.26661 19.8615 8.26562 21.384V40.6848C8.26596 41.6688 8.48561 42.6404 8.9086 43.5288C9.33158 44.4173 9.94727 45.2003 10.7109 45.821C11.4745 46.4416 12.3668 46.8842 13.323 47.1167C14.2792 47.3492 15.2751 47.3656 16.2384 47.1648L42.72 41.6448C44.2109 41.3363 45.55 40.5235 46.5117 39.3432C47.4734 38.1629 47.999 36.6873 48 35.1648V15.8688C48 14.8848 47.7806 13.9132 47.3579 13.0247C46.9352 12.1361 46.3198 11.3529 45.5565 10.7321C44.7931 10.1112 43.9009 9.6683 42.9449 9.43552C41.9889 9.20274 40.993 9.18596 40.0296 9.38639V9.38639Z" fill="#0069FB"/>
<path d="M31.752 0.830302L5.28 6.3479C3.78909 6.65637 2.45002 7.46919 1.4883 8.64948C0.526587 9.82977 0.000980767 11.3054 0 12.8279L0 32.1287C0.000411729 33.1125 0.220022 34.0838 0.642868 34.972C1.06571 35.8603 1.68117 36.6432 2.44449 37.2638C3.20782 37.8844 4.09984 38.3271 5.0557 38.5597C6.01157 38.7924 7.00726 38.8091 7.9704 38.6087L34.4544 33.0887C35.9453 32.7802 37.2844 31.9674 38.2461 30.7871C39.2078 29.6068 39.7334 28.1312 39.7344 26.6087V7.3127C39.7347 6.32749 39.5152 5.35461 39.0918 4.46501C38.6684 3.5754 38.0518 2.79149 37.2871 2.17041C36.5223 1.54933 35.6285 1.10674 34.671 0.874903C33.7134 0.643068 32.7162 0.627831 31.752 0.830302V0.830302Z" fill="#0069FB"/>
<path d="M14.3208 27.7777L15.6697 27.4849V32.7097L14.3208 33.0025V32.3857C14.1258 32.6772 13.875 32.9274 13.583 33.1218C13.291 33.3162 12.9635 33.451 12.6192 33.5185C12.3105 33.6022 11.986 33.6097 11.6737 33.5403C11.3614 33.4709 11.0707 33.3267 10.8264 33.1201C10.5733 32.8945 10.3746 32.6145 10.2453 32.3011C10.116 31.9876 10.0595 31.6489 10.08 31.3105C10.0799 30.5389 10.3432 29.7904 10.8264 29.1889C11.2596 28.5856 11.8964 28.1594 12.6192 27.9889C13.3513 27.8305 13.9176 27.9601 14.3208 28.3825V27.7777ZM11.8344 31.9897C11.9812 32.0977 12.1505 32.171 12.3298 32.2038C12.509 32.2367 12.6934 32.2283 12.8688 32.1793C13.2836 32.0957 13.6557 31.8688 13.92 31.5385C14.1911 31.2172 14.3376 30.8092 14.3329 30.3889C14.3448 30.2076 14.3136 30.0261 14.2418 29.8593C14.1701 29.6924 14.0598 29.5449 13.92 29.4289C13.7726 29.3205 13.6023 29.2473 13.4221 29.2148C13.242 29.1824 13.0569 29.1916 12.8808 29.2417C12.4727 29.3296 12.1071 29.5548 11.845 29.8798C11.5829 30.2047 11.4403 30.6098 11.4408 31.0273C11.4276 31.2072 11.4562 31.3878 11.5245 31.5548C11.5928 31.7218 11.6989 31.8706 11.8344 31.9897V31.9897Z" fill="white"/>
<path d="M20.088 27.821L18.9096 28.0802V30.2402C18.9006 30.308 18.9081 30.3771 18.9315 30.4414C18.9549 30.5058 18.9935 30.5635 19.044 30.6098C19.1651 30.678 19.3078 30.6969 19.4424 30.6626C19.6604 30.6266 19.8759 30.5777 20.088 30.5162V31.7402C19.164 32.045 18.5088 32.1002 18.1296 31.9034C17.7504 31.7066 17.5608 31.2506 17.5608 30.533V28.361L16.6512 28.5578V27.2617L17.5608 27.0649V26.0089L18.9096 25.3105V26.7722L20.088 26.5154V27.821Z" fill="white"/>
<path d="M21.9168 25.5026C21.8176 25.5283 21.7139 25.5309 21.6135 25.5101C21.5132 25.4893 21.4191 25.4456 21.3384 25.3826C21.2594 25.3199 21.1964 25.2393 21.1547 25.1475C21.1129 25.0557 21.0936 24.9553 21.0984 24.8546C21.1128 24.6206 21.2002 24.3971 21.3483 24.2154C21.4964 24.0338 21.6977 23.9031 21.924 23.8418C22.025 23.8142 22.1312 23.8109 22.2338 23.8322C22.3364 23.8535 22.4326 23.8987 22.5144 23.9642C22.5932 24.0275 22.6561 24.1085 22.6978 24.2007C22.7395 24.2928 22.7589 24.3935 22.7544 24.4946C22.7515 24.7275 22.6665 24.9518 22.5144 25.1282C22.365 25.319 22.1536 25.4514 21.9168 25.5026ZM21.2496 31.5026V26.273L22.596 25.9802V31.2002L21.2496 31.5026Z" fill="white"/>
<path d="M26.5248 30.4991C25.7376 30.6703 25.0808 30.5479 24.5544 30.1319C24.2899 29.9169 24.0801 29.6424 23.942 29.3308C23.804 29.0192 23.7416 28.6794 23.76 28.3391C23.7607 27.5563 24.0397 26.7992 24.5472 26.2031C25.0417 25.5789 25.7386 25.1469 26.5176 24.9815C26.9773 24.8685 27.4599 24.891 27.9072 25.0463C28.309 25.1826 28.6493 25.4574 28.8672 25.8215L27.708 26.7527C27.6041 26.5619 27.433 26.4165 27.228 26.3447C26.9965 26.2632 26.7461 26.2515 26.508 26.3111C26.1111 26.3943 25.756 26.6143 25.5048 26.9327C25.2433 27.2444 25.102 27.6394 25.1064 28.0463C25.0947 28.2223 25.1246 28.3985 25.1938 28.5608C25.2631 28.723 25.3696 28.8666 25.5048 28.9799C25.6463 29.0862 25.8107 29.1581 25.9848 29.1898C26.159 29.2214 26.3381 29.212 26.508 29.1623C26.7711 29.1072 27.0177 28.9913 27.228 28.8239C27.4375 28.6641 27.6027 28.4534 27.708 28.2119L28.8792 28.6271C28.6489 29.0913 28.3215 29.5005 27.9192 29.8271C27.5139 30.1579 27.0361 30.3882 26.5248 30.4991Z" fill="white"/>
<path d="M33.6913 23.5726L35.0401 23.2798V28.5046L33.6913 28.7998V28.183C33.4962 28.4745 33.2455 28.7247 32.9535 28.9191C32.6615 29.1135 32.3339 29.2483 31.9897 29.3158C31.68 29.3979 31.3549 29.4035 31.0426 29.332C30.7303 29.2605 30.44 29.1141 30.1969 28.9054C29.9453 28.6811 29.7476 28.403 29.6184 28.0918C29.4892 27.7806 29.4318 27.4443 29.4505 27.1078C29.4503 26.3362 29.7136 25.5877 30.1969 24.9862C30.6321 24.3874 31.2686 23.9656 31.9897 23.7982C32.7217 23.6398 33.2881 23.7694 33.6913 24.1918V23.5726ZM31.2001 27.7846C31.3468 27.8926 31.5162 27.9659 31.6954 27.9987C31.8746 28.0316 32.059 28.0232 32.2345 27.9742C32.6451 27.8886 33.0128 27.6618 33.2737 27.3334C33.5447 27.0121 33.6912 26.6041 33.6865 26.1838C33.6984 26.0025 33.6672 25.821 33.5955 25.6542C33.5237 25.4873 33.4134 25.3398 33.2737 25.2238C33.1262 25.1154 32.9559 25.0422 32.7758 25.0097C32.5957 24.9773 32.4105 24.9865 32.2345 25.0366C31.8264 25.1245 31.4607 25.3497 31.1987 25.6747C30.9366 25.9997 30.7939 26.4047 30.7945 26.8222C30.7826 27.0031 30.8131 27.1843 30.8835 27.3513C30.954 27.5184 31.0623 27.6667 31.2001 27.7846V27.7846Z" fill="white"/>
</g>
<defs>
<clipPath id="clip0">
<rect width="48" height="48" fill="white"/>
</clipPath>
</defs>
</svg>
