<svg width="48" height="48" viewBox="0 0 48 48" fill="none" xmlns="http://www.w3.org/2000/svg">
<g clip-path="url(#clip0)">
<path d="M48 15.0723V22.0635C48 36.3867 37.2552 48.0003 24 48.0003C10.7448 48.0003 0 36.3867 0 22.0635V15.0723L25.0512 40.9779L48 15.0723Z" fill="url(#paint0_linear)"/>
<path d="M1.0512 15.041C0.7488 15.041 0.4488 15.041 0.1512 15.065C0.0510454 15.9463 0.000565616 16.8325 0 17.7194C0 30.9194 10.7448 41.6282 24 41.6282C24.3024 41.6282 24.6 41.6282 24.9 41.6066C24.999 40.7253 25.0494 39.8391 25.0512 38.9522C25.0512 25.7474 14.3064 15.041 1.0512 15.041Z" fill="url(#paint1_linear)"/>
<path d="M47.8512 15.0722C35.1528 15.6962 25.0512 26.1482 25.0512 38.9522C25.0512 39.1754 25.0512 39.3986 25.0512 39.6218C25.0512 39.3986 25.0512 39.1754 25.0512 38.9522C25.0512 39.401 25.0368 39.8474 25.0104 40.289C25.0368 39.8474 25.0512 39.401 25.0512 38.9522C25.0512 25.7522 14.3064 15.041 1.0512 15.041C0.7488 15.041 0.4488 15.041 0.1512 15.065C0.0510454 15.9463 0.000565616 16.8325 0 17.7194C0 30.9194 10.7448 41.6282 24 41.6282C24.3024 41.6282 24.6 41.6282 24.9 41.6066C25.0008 41.6066 25.1016 41.6066 25.2 41.6066C37.8984 40.9826 48 30.5306 48 17.7266C47.9993 16.8398 47.9496 15.9536 47.8512 15.0722V15.0722Z" fill="url(#paint2_linear)"/>
<path d="M24 17.28C28.7717 17.28 32.64 13.4117 32.64 8.64C32.64 3.86826 28.7717 0 24 0C19.2282 0 15.36 3.86826 15.36 8.64C15.36 13.4117 19.2282 17.28 24 17.28Z" fill="#6F4A9E"/>
</g>
<defs>
<linearGradient id="paint0_linear" x1="24" y1="50.2611" x2="24" y2="34.4811" gradientUnits="userSpaceOnUse">
<stop stop-color="#FF8A11"/>
<stop offset="1" stop-color="#E81894"/>
</linearGradient>
<linearGradient id="paint1_linear" x1="27.5304" y1="45.9098" x2="7.884" y2="22.901" gradientUnits="userSpaceOnUse">
<stop stop-color="#B03B83"/>
<stop offset="1" stop-color="#6F4A9E"/>
</linearGradient>
<linearGradient id="paint2_linear" x1="4800" y1="4097.77" x2="4800" y2="2177.91" gradientUnits="userSpaceOnUse">
<stop stop-color="#FF8A11"/>
<stop offset="1" stop-color="#E81894"/>
</linearGradient>
<clipPath id="clip0">
<rect width="48" height="48" fill="white"/>
</clipPath>
</defs>
</svg>
