<svg width="48" height="48" viewBox="0 0 48 48" fill="none" xmlns="http://www.w3.org/2000/svg">
<g clip-path="url(#clip0)">
<path d="M15.6817 18.8856C14.9808 17.4293 14.6683 15.8165 14.7746 14.2038C14.8809 12.5911 15.4023 11.0332 16.2882 9.68149C17.1742 8.32974 18.3945 7.23 19.8309 6.48903C21.2672 5.74805 22.8707 5.39102 24.4858 5.45257C26.1008 5.51413 27.6725 5.9922 29.0483 6.84036C30.424 7.68852 31.5572 8.87796 32.3376 10.2932C33.1181 11.7085 33.5194 13.3015 33.5026 14.9176C33.4858 16.5338 33.0515 18.1181 32.2417 19.5168L24.6769 32.64L26.9449 36.5688L35.6521 21.4872C37.3707 18.4346 37.8158 14.8273 36.8909 11.4484C35.9659 8.06958 33.7455 5.19195 30.7118 3.44027C27.678 1.68858 24.0757 1.20424 20.687 2.09239C17.2983 2.98054 14.3967 5.16948 12.6121 8.18401C11.6644 9.80355 11.0742 11.6072 10.8813 13.4737C10.6884 15.3403 10.8972 17.2265 11.4937 19.0056C12.1004 18.9297 12.7111 18.8912 13.3225 18.8904L15.6817 18.8856Z" fill="url(#paint0_linear)"/>
<path d="M46.1976 26.5174C45.2575 24.8668 43.9708 23.4395 42.4263 22.3337C40.8818 21.2279 39.116 20.4699 37.2504 20.1118C37.0137 20.6778 36.742 21.2284 36.4368 21.7606L35.2512 23.8126C36.8693 23.912 38.434 24.4293 39.7924 25.3141C41.1509 26.1988 42.2566 27.4207 43.0018 28.8604C43.747 30.3001 44.106 31.9085 44.044 33.5284C43.9819 35.1484 43.5007 36.7245 42.6476 38.103C41.7944 39.4814 40.5983 40.6151 39.1761 41.3932C37.754 42.1714 36.1543 42.5674 34.5334 42.5427C32.9124 42.5179 31.3256 42.0733 29.9278 41.2521C28.5301 40.4309 27.3692 39.2613 26.5584 37.8574L19.0056 24.7774H14.472L23.1552 39.8206C23.4538 40.334 23.7849 40.8278 24.1464 41.299L24.2184 41.3926C25.4551 42.9845 27.0415 44.2705 28.8547 45.1511C30.668 46.0317 32.6595 46.4833 34.6752 46.471V46.471C37.0102 46.4707 39.3039 45.8559 41.326 44.6883C43.348 43.5207 45.0271 41.8415 46.1946 39.8193C47.3621 37.7972 47.9767 35.5034 47.9768 33.1685C47.977 30.8335 47.3625 28.5397 46.1952 26.5174H46.1976Z" fill="url(#paint1_linear)"/>
<path d="M21.1561 38.3186C20.2779 39.6555 19.0722 40.7454 17.6537 41.4845C16.2351 42.2237 14.6511 42.5875 13.0522 42.5413C11.4533 42.4951 9.89291 42.0405 8.51944 41.2207C7.14598 40.4009 6.00518 39.2432 5.20566 37.8578C4.38313 36.4327 3.95011 34.8162 3.95009 33.1707C3.95008 31.5252 4.38308 29.9087 5.20558 28.4835C6.02809 27.0584 7.21115 25.8747 8.63591 25.0516C10.0607 24.2284 11.677 23.7946 13.3225 23.7938H28.4593L30.7201 19.8674H13.3225C11.5606 19.8437 9.81155 20.1703 8.17693 20.8282C6.54231 21.4861 5.05467 22.4621 3.80038 23.6997C2.54609 24.9372 1.55015 26.4116 0.870386 28.0373C0.190621 29.6629 -0.159424 31.4074 -0.159424 33.1694C-0.159424 34.9314 0.190621 36.6759 0.870386 38.3016C1.55015 39.9272 2.54609 41.4016 3.80038 42.6392C5.05467 43.8767 6.54231 44.8527 8.17693 45.5106C9.81155 46.1685 11.5606 46.4951 13.3225 46.4714C15.2281 46.4826 17.1135 46.0793 18.8478 45.2894C20.5821 44.4995 22.124 43.342 23.3665 41.897C22.9782 41.3956 22.6238 40.8688 22.3057 40.3202L21.1561 38.3186Z" fill="url(#paint2_linear)"/>
</g>
<defs>
<linearGradient id="paint0_linear" x1="15.5257" y1="3.60241" x2="34.9489" y2="27.3648" gradientUnits="userSpaceOnUse">
<stop stop-color="#B03B83"/>
<stop offset="0.56" stop-color="#E72E6C"/>
<stop offset="1" stop-color="#FFC400"/>
</linearGradient>
<linearGradient id="paint1_linear" x1="24.156" y1="21.7654" x2="45.096" y2="44.4622" gradientUnits="userSpaceOnUse">
<stop stop-color="#D83B83"/>
<stop offset="1" stop-color="#6F4A9E"/>
</linearGradient>
<linearGradient id="paint2_linear" x1="2.18885" y1="38.1074" x2="30.1825" y2="25.6922" gradientUnits="userSpaceOnUse">
<stop stop-color="#9C2383"/>
<stop offset="1" stop-color="#E72E6C"/>
</linearGradient>
<clipPath id="clip0">
<rect width="48" height="48" fill="white"/>
</clipPath>
</defs>
</svg>
