<svg width="48" height="48" viewBox="0 0 48 48" fill="none" xmlns="http://www.w3.org/2000/svg">
<g clip-path="url(#clip0)">
<mask id="mask0" mask-type="alpha" maskUnits="userSpaceOnUse" x="0" y="3" width="49" height="42">
<path d="M3.41994 39.8614C7.03434 45.8614 15.7319 46.0078 19.3415 39.9958C20.4843 38.0917 21.1267 35.9294 21.2087 33.7102L21.3239 30.6358C21.3239 30.6358 15.8399 35.6398 13.5791 35.3326C12.8159 35.2294 13.3967 33.8134 13.6727 33.1126C14.7215 30.4726 21.0935 23.9782 21.0935 23.9782C21.0935 23.9782 21.5999 14.779 22.4999 12.2566C22.9655 10.951 23.5055 10.3534 23.9999 10.1158C24.4943 10.3558 25.0343 10.951 25.4999 12.2566C26.3999 14.779 26.9063 23.9782 26.9063 23.9782C26.9063 23.9782 33.2783 30.4582 34.3271 33.1126C34.6031 33.8134 35.1839 35.2294 34.4207 35.3326C32.1575 35.6398 26.6759 30.6358 26.6759 30.6358L26.7911 33.7102C26.8778 36.0546 27.5896 38.3333 28.8527 40.3102C32.4767 45.979 40.8887 45.8302 44.4287 40.111C46.7374 36.3811 47.973 32.087 47.9999 27.7006C48.0983 14.6734 37.6031 3.82779 24.5759 3.52299C20.2816 3.42015 16.0383 4.47176 12.289 6.56807C8.53964 8.66438 5.42164 11.7286 3.26037 15.4408C1.0991 19.1531 -0.0262125 23.3774 0.00185526 27.6729C0.029923 31.9684 1.21035 36.1777 3.41994 39.8614V39.8614Z" fill="#FBB03B"/>
</mask>
<g mask="url(#mask0)">
<path d="M3.41994 39.8614C7.03434 45.8614 15.7319 46.0078 19.3415 39.9958C20.4843 38.0917 21.1267 35.9294 21.2087 33.7102L21.3239 30.6358C21.3239 30.6358 15.8399 35.6398 13.5791 35.3326C12.8159 35.2294 13.3967 33.8134 13.6727 33.1126C14.7215 30.4726 21.0935 23.9782 21.0935 23.9782C21.0935 23.9782 21.5999 14.779 22.4999 12.2566C22.9655 10.951 23.5055 10.3534 23.9999 10.1158C24.4943 10.3558 25.0343 10.951 25.4999 12.2566C26.3999 14.779 26.9063 23.9782 26.9063 23.9782C26.9063 23.9782 33.2783 30.4582 34.3271 33.1126C34.6031 33.8134 35.1839 35.2294 34.4207 35.3326C32.1575 35.6398 26.6759 30.6358 26.6759 30.6358L26.7911 33.7102C26.8778 36.0546 27.5896 38.3333 28.8527 40.3102C32.4767 45.979 40.8887 45.8302 44.4287 40.111C46.7374 36.3811 47.973 32.087 47.9999 27.7006C48.0983 14.6734 37.6031 3.82779 24.5759 3.52299C20.2816 3.42015 16.0383 4.47176 12.289 6.56807C8.53964 8.66438 5.42164 11.7286 3.26037 15.4408C1.0991 19.1531 -0.0262125 23.3774 0.00185526 27.6729C0.029923 31.9684 1.21035 36.1777 3.41994 39.8614V39.8614Z" fill="#FBB03B"/>
<path d="M63.9 11.7596C63.9 24.1028 53.424 34.1084 40.5 34.1084C27.576 34.1084 17.1 24.11 17.1 11.7596C17.1 -0.590802 23.376 -4.8916 36.3 -4.8916C49.224 -4.8916 63.9 -0.576403 63.9 11.7596Z" fill="url(#paint0_linear)"/>
<path d="M27.3 48.3671C27.3 62.2007 -7.50004 51.8519 -7.50004 38.0159C-7.50004 24.1799 -9.02404 23.3159 3.89996 23.3159C16.824 23.3159 27.3 34.5311 27.3 48.3671Z" fill="url(#paint1_linear)"/>
</g>
</g>
<defs>
<linearGradient id="paint0_linear" x1="54.264" y1="29.7236" x2="26.532" y2="-3.4732" gradientUnits="userSpaceOnUse">
<stop stop-color="#01DDA5"/>
<stop offset="1" stop-color="#3CADE2"/>
</linearGradient>
<linearGradient id="paint1_linear" x1="22.4208" y1="55.1207" x2="-3.46563" y2="24.1343" gradientUnits="userSpaceOnUse">
<stop stop-color="#FF8A11"/>
<stop offset="1" stop-color="#E81894"/>
</linearGradient>
<clipPath id="clip0">
<rect width="48" height="48" fill="white"/>
</clipPath>
</defs>
</svg>
