<svg width="48" height="48" viewBox="0 0 48 48" fill="none" xmlns="http://www.w3.org/2000/svg">
<path d="M45.9072 26.7452C45.528 20.4764 43.2 15.6812 39.3768 13.2452L39.2088 13.142C36.8088 11.7332 33.156 10.622 29.184 9.99802L32.9184 7.59802C33.0168 7.53082 33.1296 7.44922 33.2256 7.37002C33.8351 6.85826 34.2163 6.12535 34.2854 5.33252C34.3545 4.53969 34.1058 3.75189 33.594 3.14242C33.0823 2.53295 32.3494 2.15174 31.5565 2.08265C30.7637 2.01356 29.9759 2.26226 29.3664 2.77402L22.032 8.93962L12.6552 0.678817C12.6144 0.642817 12.5664 0.604417 12.5232 0.570817C12.2405 0.35193 11.9175 0.19087 11.5725 0.0968324C11.2276 0.00279519 10.8675 -0.0223774 10.5128 0.0227519C9.79647 0.113895 9.1457 0.485859 8.70364 1.05682C8.48475 1.33953 8.32369 1.66258 8.22965 2.00754C8.13562 2.35249 8.11044 2.71259 8.15557 3.06727C8.24672 3.78359 8.61868 4.43436 9.18964 4.87642L15.8136 10.01C11.772 10.7732 7.75924 12.4652 5.25364 15.9236L5.19604 16.0052C1.71604 21.0188 1.83604 28.0556 2.21524 31.802C2.21524 31.8356 2.21524 31.8692 2.22724 31.9028C3.13924 39.3596 6.18004 44.1596 11.28 46.1828L11.316 46.1972C14.3208 47.3588 18.4464 47.9996 22.9296 47.9996C25.68 47.9996 29.808 47.7596 33.8544 46.5884C38.2176 45.3284 41.3232 43.31 43.0872 40.5884C43.1352 40.5116 43.1832 40.4348 43.2288 40.3484C45.1824 36.9596 46.2096 31.7444 45.9072 26.7452ZM38.64 37.706C36.4104 41.1524 29.436 42.7004 22.9296 42.7004C19.2192 42.7004 15.6624 42.1988 13.2264 41.2604C9.48004 39.7796 8.03284 35.7188 7.49524 31.2716C7.04164 26.8244 7.78564 21.9908 9.84004 19.0316C12.0888 15.9116 16.9296 14.7524 22.2384 14.7524C27.8544 14.7524 33.6792 16.0532 36.5376 17.7236C41.7288 21.0188 41.5368 32.678 38.64 37.706Z" fill="#2EB67D"/>
<path d="M18.2016 22.1129C16.1352 23.5937 19.7736 35.4209 22.2816 36.4073C24.7896 37.3937 34.116 28.8785 33.1704 26.1977C32.4 23.9993 20.2656 20.6393 18.2016 22.1129Z" fill="#2EB67D"/>
</svg>
