<svg width="48" height="48" viewBox="0 0 48 48" fill="none" xmlns="http://www.w3.org/2000/svg">
<g clip-path="url(#clip0)">
<path d="M24 6.24C27.5126 6.24 30.9463 7.28161 33.8669 9.2331C36.7876 11.1846 39.0639 13.9583 40.4081 17.2035C41.7523 20.4488 42.104 24.0197 41.4188 27.4648C40.7335 30.9099 39.042 34.0744 36.5582 36.5582C34.0744 39.042 30.9099 40.7335 27.4648 41.4187C24.0197 42.104 20.4488 41.7523 17.2036 40.4081C13.9583 39.0639 11.1846 36.7875 9.23311 33.8669C7.28162 30.9463 6.24001 27.5126 6.24001 24C6.24573 19.2915 8.1187 14.7775 11.4481 11.4481C14.7775 8.11869 19.2915 6.24572 24 6.24V6.24ZM24 0C19.2533 0 14.6131 1.40758 10.6663 4.04473C6.71955 6.68188 3.64341 10.4302 1.8269 14.8156C0.0103988 19.201 -0.464881 24.0266 0.461164 28.6822C1.38721 33.3377 3.67299 37.6141 7.02945 40.9706C10.3859 44.327 14.6623 46.6128 19.3178 47.5388C23.9734 48.4649 28.799 47.9896 33.1844 46.1731C37.5698 44.3566 41.3181 41.2805 43.9553 37.3337C46.5924 33.3869 48 28.7468 48 24C48 17.6348 45.4714 11.5303 40.9706 7.02944C36.4697 2.52856 30.3652 0 24 0V0Z" fill="#2600E3"/>
<path d="M20.4936 13.7476V24.5956C20.4936 25.1788 20.5176 25.774 20.5608 26.3812C20.5946 26.9513 20.7287 27.5111 20.9568 28.0348C21.1798 28.5291 21.5438 28.9466 22.0032 29.2348C22.4832 29.542 23.148 29.698 24.0144 29.698C24.8808 29.698 25.5432 29.542 26.0112 29.2348C26.4649 28.9407 26.8267 28.5248 27.0552 28.0348C27.2925 27.5135 27.4316 26.9529 27.4656 26.3812C27.5088 25.774 27.5328 25.1812 27.5328 24.5956V13.7476H32.6904V25.3108C32.6904 28.4148 31.9808 30.6812 30.5616 32.11C29.1424 33.5388 26.96 34.2532 24.0144 34.2532C21.0672 34.2532 18.88 33.5388 17.4528 32.11C16.0256 30.6812 15.3112 28.4148 15.3096 25.3108V13.7476H20.4936Z" fill="#002573"/>
</g>
<defs>
<clipPath id="clip0">
<rect width="48" height="48" fill="white"/>
</clipPath>
</defs>
</svg>
