<svg width="137" height="32" viewBox="0 0 137 32" fill="none" xmlns="http://www.w3.org/2000/svg">
<g clip-path="url(#clip0)">
<path d="M12.8401 32H10.3953V0L12.8401 2.0384V32Z" fill="#555A64"/>
<path d="M5.09607 32.0001H7.54087V6.20166L5.09607 8.24006V32.0001Z" fill="#555A64"/>
<path d="M0 32.0001H2.4464V12.3169L0 14.3553V32.0001Z" fill="#555A64"/>
<path d="M23.2352 32.0001H20.7904V12.3169L23.2352 14.3553V32.0001Z" fill="#555A64"/>
<path d="M18.1409 32.0001H15.6945V6.20166L18.1409 8.24006V32.0001Z" fill="#555A64"/>
<path d="M32.1056 20.4494L31.52 24.6398H28.8672L31.5872 8.99023H35.2672L38.08 24.6398H35.36L34.696 20.4542L32.1056 20.4494ZM34.4 18.2286C34.0144 15.571 33.6448 13.0494 33.4528 11.2782H33.3568C33.2848 12.5678 32.7776 15.9182 32.4416 18.2286H34.4Z" fill="#555A64"/>
<path d="M46.7279 20.0286V20.9886C46.7279 22.1534 47.1039 22.8014 48.0943 22.8014C49.1087 22.8014 49.3743 21.9102 49.3743 20.8942C49.3743 19.211 48.9823 18.6894 47.1727 17.3742C45.3631 16.059 44.3839 15.1998 44.3839 12.8766C44.3839 10.8142 45.0575 8.73264 48.1023 8.73584C51.2175 8.73584 51.6991 10.7982 51.6991 12.4958V13.3326H49.1199V12.5614C49.1199 11.4718 48.9215 10.811 48.0559 10.811C47.1903 10.811 46.9887 11.4926 46.9887 12.531C46.9887 13.6366 47.2143 14.1774 48.6975 15.1838C51.2223 16.9166 51.9999 17.9198 51.9999 20.539C51.9999 22.7598 51.1615 24.859 48.0127 24.859C44.8911 24.859 44.1295 23.0142 44.1295 20.9534V20.0238L46.7279 20.0286Z" fill="#555A64"/>
<path d="M66.4976 24.64H64.4688C64.3937 24.2524 64.3456 23.86 64.3248 23.4656C63.8576 24.5056 62.8848 24.8688 61.7888 24.8688C59.3056 24.8688 58.5056 23.2016 58.5056 20.5488V13.1952C58.5056 10.6352 59.5792 8.75684 62.5056 8.75684C66.0496 8.75684 66.424 11.1728 66.424 12.8528V13.3616H63.8272V12.7344C63.8272 11.9104 63.6976 10.9552 62.5088 10.9552C61.56 10.9552 61.1552 11.5632 61.1552 12.8144V20.8144C61.1552 22.0672 61.5472 22.7216 62.488 22.7216C63.616 22.7216 63.8912 21.8464 63.8912 20.2368V17.9584H62.4144V15.8784H66.4976V24.64Z" fill="#555A64"/>
<path d="M76.168 20.4494L75.5776 24.6398H72.9296L75.6496 8.99023H79.3296L82.1472 24.6398H79.4272L78.7648 20.4542L76.168 20.4494ZM78.4576 18.2286C78.0704 15.571 77.7024 13.0494 77.5088 11.2782H77.4144C77.3408 12.5678 76.8336 15.9182 76.4976 18.2286H78.4576Z" fill="#555A64"/>
<path d="M91.04 17.6366V24.6398H88.4384V8.98535H92.0432C94.6112 8.98535 96.128 9.94535 96.128 12.7566V13.3518C96.128 15.7518 95.064 16.3694 94.4096 16.6174C95.3936 17.0462 95.9568 17.7038 95.9568 19.827C95.9568 21.1438 95.9312 23.6862 96.1168 24.635H93.6C93.376 23.6894 93.424 21.115 93.424 19.9822C93.424 18.075 93.16 17.6366 91.648 17.6366H91.04ZM91.04 15.6446H91.6368C93.0144 15.6446 93.52 15.1646 93.52 13.4606V12.9246C93.52 11.715 93.2496 10.9774 91.7744 10.9774H91.04V15.6446Z" fill="#555A64"/>
<path d="M103.115 8.98535H106.72C110.299 8.98535 111.171 10.7054 111.171 13.6094V19.611C111.171 22.011 110.728 24.635 106.714 24.635H103.115V8.98535ZM105.718 22.5854H106.56C108.27 22.5854 108.533 21.5646 108.533 19.9438V13.419C108.533 11.979 108.259 11.0606 106.544 11.0606H105.725L105.718 22.5854Z" fill="#555A64"/>
<path d="M120.778 8.98535V24.6398H118.174V8.98535H120.778Z" fill="#555A64"/>
<path d="M130.408 20.4494L129.818 24.6398H127.17L129.89 8.99023H133.57L136.387 24.6398H133.667L133.005 20.4542L130.408 20.4494ZM132.698 18.2286C132.31 15.571 131.942 13.0494 131.749 11.2782H131.654C131.581 12.5678 131.074 15.9182 130.738 18.2286H132.698Z" fill="#555A64"/>
</g>
<defs>
<clipPath id="clip0">
<rect width="136.387" height="32" fill="white"/>
</clipPath>
</defs>
</svg>
