<svg width="108" height="32" viewBox="0 0 108 32" fill="none" xmlns="http://www.w3.org/2000/svg">
<g clip-path="url(#clip0)">
<path d="M39.7168 22.3133C38.2822 20.7709 37.5643 18.7976 37.5632 16.3933C37.5622 13.9891 38.2758 12.0445 39.704 10.5597C41.1291 9.07708 42.9248 8.33521 45.0912 8.33414C46.3311 8.30637 47.5528 8.63513 48.6112 9.28134C49.5852 9.87962 50.3753 10.735 50.8944 11.7533V8.59174H53.5392V24.3677H50.8944V21.1485C50.3796 22.1813 49.5895 23.0517 48.6112 23.6637C47.5559 24.3185 46.3329 24.6521 45.0912 24.6237C42.9462 24.6248 41.1547 23.8547 39.7168 22.3133ZM49.3296 20.7757C50.3728 19.7027 50.8944 18.2755 50.8944 16.4941C50.8944 14.7128 50.3728 13.2856 49.3296 12.2125C48.8485 11.6973 48.2652 11.288 47.6169 11.0108C46.9687 10.7337 46.2698 10.5948 45.5648 10.6029C44.8645 10.5934 44.1696 10.7266 43.5223 10.9942C42.8751 11.2618 42.2891 11.6584 41.8 12.1597C40.7568 13.1944 40.2352 14.6024 40.2352 16.3837C40.2352 18.1651 40.7616 19.6115 41.8144 20.7229C42.8683 21.8333 44.1232 22.3891 45.5792 22.3901C46.2823 22.3967 46.9789 22.2565 47.6247 21.9785C48.2705 21.7005 48.8512 21.2909 49.3296 20.7757V20.7757Z" fill="#555A64"/>
<path d="M54.8896 8.5918H57.6768L62.504 21.9198L67.36 8.5918H70.176L63.9984 24.3678H61.0384L54.8896 8.5918Z" fill="#555A64"/>
<path d="M78.1344 24.6257C75.8752 24.6257 74.0363 23.879 72.6176 22.3857C71.1989 20.8923 70.4901 18.919 70.4912 16.4657C70.4912 14.0123 71.2096 12.0438 72.6464 10.5601C74.0832 9.07634 75.9461 8.33447 78.2352 8.33447C80.5243 8.33447 82.3632 9.03847 83.752 10.4465C85.1408 11.8545 85.8341 13.6502 85.832 15.8337C85.8344 16.3532 85.7965 16.8721 85.7184 17.3857H73.1648C73.2395 18.9569 73.7323 20.1969 74.6432 21.1057C75.5541 22.0145 76.7179 22.4694 78.1344 22.4705C79.2075 22.4705 80.1141 22.231 80.8544 21.7521C81.5686 21.2945 82.1301 20.6344 82.4672 19.8561H85.2832C84.7905 21.229 83.8942 22.4208 82.712 23.2753C81.4992 24.1766 79.9733 24.6267 78.1344 24.6257ZM81.6672 11.8545C80.7296 10.9446 79.5659 10.4897 78.176 10.4897C76.7861 10.4897 75.632 10.935 74.7136 11.8257C73.7963 12.7153 73.2875 13.9361 73.1872 15.4881H83.1072C83.0869 13.9766 82.6069 12.7654 81.6672 11.8545Z" fill="#555A64"/>
<path d="M90.5489 8.59194V11.1519C91.6209 9.27354 93.335 8.33487 95.6913 8.33594C97.4353 8.33487 98.8939 8.91621 100.067 10.0799C101.241 11.2437 101.827 12.897 101.827 15.0399V24.3679H99.2257V15.4591C99.2257 13.8698 98.8427 12.6634 98.0769 11.8399C97.311 11.0165 96.2523 10.6042 94.9009 10.6031C93.5505 10.6031 92.4875 11.0154 91.7121 11.8399C90.9366 12.6645 90.5489 13.8709 90.5489 15.4591V24.3679H87.9329V8.59194H90.5489Z" fill="#555A64"/>
<path d="M107.107 23.8783C106.872 24.1121 106.572 24.271 106.247 24.3349C105.921 24.3988 105.584 24.3649 105.278 24.2374C104.971 24.1099 104.71 23.8945 104.526 23.6185C104.342 23.3425 104.243 23.0181 104.243 22.6863C104.243 22.3546 104.342 22.0302 104.526 21.7542C104.71 21.4782 104.971 21.2628 105.278 21.1353C105.584 21.0078 105.921 20.9739 106.247 21.0378C106.572 21.1017 106.872 21.2605 107.107 21.4943C107.42 21.8122 107.595 22.2403 107.595 22.6863C107.595 23.1324 107.42 23.5605 107.107 23.8783V23.8783Z" fill="#555A64"/>
<path d="M17.2032 28.0528H17.0816H16.9648C16.7776 28.0528 16.5824 28.0656 16.3872 28.0656C12.6288 28.0666 8.98507 26.7715 6.07041 24.3987C3.15576 22.0259 1.14853 18.7205 0.387207 15.04C0.547207 24.4352 7.65121 32 16.3872 32C25.1168 32 32.2128 24.4432 32.3872 15.0528C31.6621 18.5996 29.7755 21.8035 27.0255 24.1579C24.2756 26.5123 20.8193 27.8828 17.2032 28.0528Z" fill="#555A64"/>
<path d="M1.08801 10.0273C0.886407 10.0273 0.686407 10.0273 0.488007 10.0433C0.421237 10.6309 0.387584 11.2217 0.387207 11.8129C0.387207 20.6129 7.55041 27.7521 16.3872 27.7521C16.5888 27.7521 16.7872 27.7521 16.9872 27.7377C17.0532 27.1502 17.0868 26.5594 17.088 25.9681C17.088 17.1649 9.92481 10.0273 1.08801 10.0273Z" fill="#555A64"/>
<path d="M32.288 10.0481C23.8224 10.4641 17.088 17.4321 17.088 25.9681C17.088 26.1169 17.088 26.2657 17.088 26.4145C17.088 26.2657 17.088 26.1169 17.088 25.9681C17.088 26.2673 17.0784 26.5649 17.0608 26.8593C17.0784 26.5649 17.088 26.2673 17.088 25.9681C17.088 17.1681 9.92481 10.0273 1.08801 10.0273C0.886407 10.0273 0.686407 10.0273 0.488007 10.0433C0.421237 10.6309 0.387584 11.2217 0.387207 11.8129C0.387207 20.6129 7.55041 27.7521 16.3872 27.7521C16.5888 27.7521 16.7872 27.7521 16.9872 27.7377C17.0544 27.7377 17.1216 27.7377 17.1872 27.7377C25.6528 27.3217 32.3872 20.3537 32.3872 11.8177C32.3867 11.2265 32.3536 10.6357 32.288 10.0481V10.0481Z" fill="#555A64"/>
<path d="M32.288 10.0481C23.8224 10.4641 17.088 17.4321 17.088 25.9681C17.088 26.1169 17.088 26.2657 17.088 26.4145C17.088 26.2657 17.088 26.1169 17.088 25.9681C17.088 26.2673 17.0784 26.5649 17.0608 26.8593C17.0784 26.5649 17.088 26.2673 17.088 25.9681C17.088 17.1681 9.92481 10.0273 1.08801 10.0273C0.886407 10.0273 0.686407 10.0273 0.488007 10.0433C0.421237 10.6309 0.387584 11.2217 0.387207 11.8129C0.387207 20.6129 7.55041 27.7521 16.3872 27.7521C16.5888 27.7521 16.7872 27.7521 16.9872 27.7377C17.0544 27.7377 17.1216 27.7377 17.1872 27.7377C25.6528 27.3217 32.3872 20.3537 32.3872 11.8177C32.3867 11.2265 32.3536 10.6357 32.288 10.0481V10.0481Z" fill="#555A64"/>
<path d="M16.3872 11.52C19.5684 11.52 22.1472 8.94116 22.1472 5.76C22.1472 2.57884 19.5684 0 16.3872 0C13.206 0 10.6272 2.57884 10.6272 5.76C10.6272 8.94116 13.206 11.52 16.3872 11.52Z" fill="#555A64"/>
</g>
<defs>
<clipPath id="clip0">
<rect width="107.2" height="32" fill="white" transform="translate(0.387207)"/>
</clipPath>
</defs>
</svg>
