<svg width="138" height="32" viewBox="0 0 138 32" fill="none" xmlns="http://www.w3.org/2000/svg">
<g clip-path="url(#clip0)">
<path d="M16.0864 0C6.5328 0 0 6.08 0 16.0864C0 25.64 6.5328 32 16.0864 32C25.64 32 32 25.64 32 16.0864C32 6.08 25.64 0 16.0864 0ZM25.5888 25.5888C24.9661 26.2089 24.2716 26.7525 23.52 27.208V14.08L20.64 12.48V28.48C19.5978 28.7906 18.5248 28.9865 17.44 29.064V8.024L14.56 6.424V29.0544C13.5301 28.9694 12.5115 28.7796 11.52 28.488V13.44L8.64 15.04V27.2304C5.0064 25.0656 2.88 21.1504 2.88 16.08C2.88 12.0112 4.1232 8.6432 6.4768 6.3392C8.7904 4.0784 12.1136 2.88 16.0864 2.88C20.0592 2.88 23.3264 4.0736 25.6 6.3296C27.9056 8.624 29.12 11.9984 29.12 16.0896C29.12 20 27.8992 23.28 25.5888 25.5888Z" fill="#555A64"/>
<path d="M40.1857 24.1218C40.4081 25.789 41.7153 27.0386 43.5761 27.0386C46.1361 27.0386 47.4161 25.733 47.4161 22.9826V21.565C46.8321 22.621 45.4705 23.5378 43.4977 23.5378C39.8849 23.5378 37.2465 20.7602 37.2465 16.9538C37.2465 13.341 39.7745 10.3682 43.4977 10.3682C45.6097 10.3682 46.9153 11.229 47.4977 12.341V10.6178H50.6096V22.8706C50.6096 26.4834 48.7473 29.845 43.6625 29.845C40.0785 29.845 37.5825 27.6226 37.2161 24.8994L40.1857 24.1218ZM47.4945 16.9602C47.4945 14.653 46.0209 13.1522 44.0209 13.1522C41.9649 13.1522 40.4913 14.653 40.4913 16.9602C40.4913 19.3218 41.9089 20.8002 44.0209 20.8002C46.0801 20.7874 47.4945 19.2866 47.4945 16.9602Z" fill="#555A64"/>
<path d="M67.5199 17.3697C67.5199 21.5377 64.5471 24.5697 60.4911 24.5697C56.4623 24.5697 53.4879 21.5409 53.4879 17.3697C53.4879 13.2289 56.4623 10.2017 60.4911 10.2017C64.5535 10.2017 67.5199 13.2289 67.5199 17.3697ZM64.2687 17.3697C64.2751 14.5601 62.4975 13.1201 60.4975 13.1201C58.5247 13.1201 56.7183 14.5601 56.7183 17.3713C56.7183 20.1825 58.5247 21.6785 60.4975 21.6785C62.4975 21.6769 64.2751 20.2033 64.2751 17.3697H64.2687Z" fill="#555A64"/>
<path d="M70.6384 24.1485V4.03174H73.8609V24.1485H70.6384Z" fill="#555A64"/>
<path d="M90.5328 21.6765C90.5324 22.5025 90.5789 23.3278 90.672 24.1485H87.5872C87.5026 23.5687 87.4561 22.984 87.448 22.3981C86.808 23.5373 85.392 24.4781 83.4752 24.4781C79.5856 24.4781 76.9728 21.4205 76.9728 17.3373C76.9728 13.4461 79.6128 10.2509 83.4192 10.2509C85.7808 10.2509 86.976 11.3357 87.3936 12.1965V4.03174H90.5328V21.6765ZM83.84 21.6477C85.9504 21.6477 87.424 19.8973 87.424 17.3133C87.424 14.7293 85.976 13.1197 83.864 13.1197C81.752 13.1197 80.1968 14.7597 80.1968 17.3437C80.1968 19.9277 81.6416 21.6477 83.84 21.6477Z" fill="#555A64"/>
<path d="M94.7552 24.1485V4.03174H97.9792V24.1485H94.7552Z" fill="#555A64"/>
<path d="M103.73 3.75488C104.007 3.75467 104.281 3.80911 104.538 3.91507C104.794 4.02103 105.027 4.17645 105.223 4.37244C105.419 4.56843 105.575 4.80115 105.681 5.0573C105.787 5.31345 105.842 5.58801 105.842 5.86528C105.839 6.27898 105.714 6.68269 105.483 7.02564C105.251 7.36858 104.924 7.63545 104.541 7.79266C104.158 7.94988 103.738 7.99043 103.332 7.90922C102.927 7.828 102.554 7.62865 102.261 7.33622C101.969 7.0438 101.769 6.67137 101.687 6.26578C101.606 5.86019 101.646 5.43955 101.803 5.05676C101.96 4.67397 102.227 4.34614 102.569 4.11449C102.912 3.88285 103.316 3.75773 103.73 3.75488V3.75488ZM102.146 24.1485V10.6173H105.346V24.1485H102.146Z" fill="#555A64"/>
<path d="M112.733 24.1485H109.509V10.6173H112.65V12.4237C113.538 10.8669 115.151 10.2285 116.65 10.2285C119.957 10.2285 121.541 12.6173 121.541 15.5917V24.1485H118.317V16.1485C118.317 14.4813 117.567 13.1469 115.539 13.1469C113.706 13.1469 112.733 14.5645 112.733 16.3469V24.1485Z" fill="#555A64"/>
<path d="M137.44 20.2865C136.717 22.6497 134.578 24.5665 131.326 24.5665C127.659 24.5665 124.408 21.8993 124.408 17.3137C124.408 13.0353 127.576 10.2017 130.994 10.2017C135.155 10.2017 137.6 12.9601 137.6 17.2305C137.609 17.5754 137.581 17.9203 137.517 18.2593H127.626C127.709 20.3153 129.32 21.7793 131.32 21.7793C133.266 21.7793 134.266 20.7521 134.71 19.4177L137.44 20.2865ZM134.349 15.8977C134.293 14.3137 133.238 12.8961 131.014 12.8961C130.184 12.879 129.379 13.1805 128.764 13.7388C128.149 14.297 127.772 15.0696 127.709 15.8977H134.349Z" fill="#555A64"/>
</g>
<defs>
<clipPath id="clip0">
<rect width="137.6" height="32" fill="white"/>
</clipPath>
</defs>
</svg>
