<svg width="116" height="32" viewBox="0 0 116 32" fill="none" xmlns="http://www.w3.org/2000/svg">
<g clip-path="url(#clip0)">
<path d="M10.4544 12.5902C9.9871 11.6194 9.77877 10.5442 9.84962 9.46903C9.92046 8.3939 10.2681 7.35533 10.8587 6.45417C11.4493 5.553 12.2629 4.81984 13.2205 4.32586C14.178 3.83187 15.247 3.59385 16.3237 3.63489C17.4004 3.67593 18.4482 3.99463 19.3654 4.56007C20.2826 5.12552 21.038 5.91848 21.5583 6.86199C22.0786 7.8055 22.3462 8.86751 22.3349 9.94492C22.3237 11.0223 22.0342 12.0786 21.4944 13.011L16.4512 21.7598L17.9632 24.379L23.768 14.3246C24.9137 12.2895 25.2104 9.88467 24.5938 7.63211C23.9771 5.37955 22.4969 3.46114 20.4744 2.29335C18.4519 1.12556 16.0504 0.802665 13.7912 1.39476C11.5321 1.98686 9.59769 3.44616 8.40797 5.45584C7.77613 6.53554 7.38269 7.73796 7.25409 8.98232C7.12548 10.2267 7.2647 11.4841 7.66237 12.6702C8.0668 12.6196 8.47398 12.594 8.88157 12.5934L10.4544 12.5902Z" fill="#555A64"/>
<path d="M30.7985 17.6786C30.1717 16.5782 29.3139 15.6267 28.2842 14.8895C27.2545 14.1523 26.0773 13.6469 24.8337 13.4082C24.6758 13.7855 24.4947 14.1526 24.2913 14.5074L23.5009 15.8754C24.5796 15.9417 25.6227 16.2866 26.5283 16.8764C27.4339 17.4662 28.1711 18.2808 28.6679 19.2406C29.1647 20.2004 29.4041 21.2726 29.3627 22.3526C29.3213 23.4326 29.0005 24.4833 28.4317 25.4023C27.863 26.3213 27.0656 27.0771 26.1175 27.5958C25.1694 28.1146 24.1029 28.3786 23.0223 28.3621C21.9417 28.3456 20.8838 28.0492 19.9519 27.5017C19.0201 26.9543 18.2461 26.1745 17.7057 25.2386L12.6705 16.5186H9.64807L15.4369 26.5474C15.6359 26.8897 15.8566 27.2189 16.0977 27.533L16.1457 27.5954C16.9701 28.6566 18.0277 29.514 19.2365 30.101C20.4453 30.6881 21.773 30.9892 23.1169 30.981V30.981C24.6735 30.9808 26.2027 30.5709 27.5507 29.7925C28.8987 29.0141 30.0181 27.8946 30.7964 26.5465C31.5747 25.1985 31.9845 23.6693 31.9846 22.1126C31.9847 20.556 31.575 19.0268 30.7969 17.6786H30.7985Z" fill="#555A64"/>
<path d="M14.104 25.5457C13.5185 26.437 12.7147 27.1636 11.7691 27.6564C10.8234 28.1491 9.76734 28.3916 8.70143 28.3609C7.63552 28.3301 6.59523 28.027 5.67959 27.4804C4.76394 26.9339 4.00341 26.1621 3.4704 25.2385C2.92204 24.2884 2.63336 23.2108 2.63336 22.1138C2.63335 21.0168 2.92201 19.9391 3.47035 18.989C4.01869 18.0389 4.80739 17.2498 5.75723 16.701C6.70708 16.1522 7.78461 15.8631 8.8816 15.8625H18.9728L20.48 13.2449H8.8816C7.70701 13.2292 6.54099 13.4469 5.45125 13.8855C4.3615 14.324 3.36974 14.9747 2.53355 15.7998C1.69735 16.6248 1.03339 17.6077 0.580217 18.6915C0.12704 19.7753 -0.106323 20.9382 -0.106323 22.1129C-0.106323 23.2876 0.12704 24.4506 0.580217 25.5344C1.03339 26.6181 1.69735 27.6011 2.53355 28.4261C3.36974 29.2511 4.3615 29.9018 5.45125 30.3404C6.54099 30.779 7.70701 30.9967 8.8816 30.9809C10.1521 30.9884 11.4089 30.7195 12.5652 30.1929C13.7214 29.6663 14.7493 28.8947 15.5776 27.9313C15.3188 27.597 15.0825 27.2459 14.8704 26.8801L14.104 25.5457Z" fill="#555A64"/>
<path d="M37.3823 27.2002V4.36816H40.0127V18.709L47.6079 11.397H51.0895L43.5695 18.637L51.3135 27.2002H47.6927L40.0127 18.7202V27.2002H37.3823Z" fill="#555A64"/>
<path d="M63.2832 23.659C62.4811 24.9742 61.5163 25.9652 60.3888 26.6318C59.2614 27.2985 58.2251 27.6318 57.28 27.6318C55.9606 27.6318 54.775 27.0617 53.7232 25.9214C52.6715 24.7812 52.1456 23.051 52.1456 20.731C52.1456 18.9028 52.495 17.2692 53.1936 15.8302C53.8239 14.474 54.7898 13.301 56 12.4222C57.1734 11.587 58.6224 11.1694 60.3472 11.1694C60.8464 11.1694 61.5995 11.2228 62.6064 11.3294C62.7584 11.3486 62.984 11.371 63.2848 11.3998H65.92V22.5598C65.92 24.466 66.1227 26.0126 66.528 27.1998H63.7888C63.5316 26.0339 63.3626 24.8503 63.2832 23.659V23.659ZM63.2928 20.5134V13.731C62.4435 13.4965 61.5675 13.3722 60.6864 13.3614C59.0619 13.3614 57.7088 13.9897 56.6272 15.2462C55.5456 16.5028 55.0048 18.2094 55.0048 20.3662C55.0048 21.9342 55.3003 23.1166 55.8912 23.9134C56.4822 24.7102 57.1552 25.1124 57.9104 25.1198C58.7307 25.1198 59.6374 24.7044 60.6304 23.8734C61.6235 23.0425 62.511 21.9225 63.2928 20.5134Z" fill="#555A64"/>
<path d="M69.12 27.1998V11.3966H71.7504V14.8478C72.4347 13.7029 73.3676 12.7263 74.48 11.9902C75.5467 11.3022 76.6133 10.9582 77.68 10.9582C78.5832 10.9494 79.4688 11.2077 80.2256 11.7006C80.9558 12.1578 81.5175 12.8401 81.8256 13.6446C82.1317 14.4468 82.2848 16.0217 82.2848 18.3694V27.1998H79.6576V18.043C79.6576 16.5262 79.5845 15.5246 79.4384 15.0382C79.3018 14.5667 79.0223 14.1491 78.6384 13.843C78.2788 13.5437 77.8263 13.3785 77.3584 13.3758C76.4336 13.3758 75.4411 13.8142 74.3808 14.691C73.2934 15.6017 72.4014 16.7228 71.7584 17.987V27.1998H69.12Z" fill="#555A64"/>
<path d="M87.776 14.949C88.5867 13.6231 89.5531 12.6279 90.6752 11.9634C91.7974 11.2988 92.8299 10.9639 93.7728 10.9586C95.0934 10.9586 96.2811 11.5287 97.336 12.669C98.391 13.8092 98.919 15.5394 98.92 17.8594C98.92 19.6898 98.5691 21.3234 97.8672 22.7602C97.234 24.115 96.268 25.2875 95.0592 26.1682C93.8912 27.0034 92.4443 27.421 90.7184 27.421C90.2267 27.421 89.472 27.3676 88.4544 27.261C88.304 27.2434 88.0784 27.2194 87.776 27.1906H85.1456V4.36816H87.776V14.949ZM87.776 18.077V24.861C88.634 25.0932 89.5177 25.2168 90.4064 25.229C92 25.229 93.3414 24.6034 94.4304 23.3522C95.5195 22.101 96.064 20.39 96.064 18.2194C96.064 16.6428 95.767 15.4583 95.1728 14.6658C94.5787 13.8732 93.9046 13.4764 93.1504 13.4754C92.3291 13.4754 91.4262 13.8908 90.4416 14.7218C89.4571 15.5527 88.5686 16.6722 87.776 18.0802V18.077Z" fill="#555A64"/>
<path d="M111.95 23.6592C111.148 24.9744 110.184 25.9653 109.058 26.632C107.931 27.2986 106.896 27.632 105.952 27.632C104.633 27.632 103.449 27.0613 102.4 25.92C101.351 24.7786 100.826 23.0485 100.824 20.7296C100.824 18.9013 101.173 17.2677 101.87 15.8288C102.501 14.4729 103.466 13.3 104.675 12.4208C105.848 11.5856 107.297 11.168 109.021 11.168C109.522 11.168 110.276 11.2213 111.282 11.328C111.432 11.3472 111.658 11.3696 111.96 11.3984H114.592V22.56C114.592 24.4661 114.795 26.0128 115.2 27.2H112.456C112.2 26.0339 112.031 24.8504 111.95 23.6592V23.6592ZM111.962 20.5136V13.7312C111.112 13.4968 110.236 13.3726 109.355 13.3616C107.73 13.3616 106.376 13.9898 105.296 15.2464C104.215 16.5029 103.675 18.2096 103.674 20.3664C103.674 21.9344 103.969 23.1168 104.56 23.9136C105.151 24.7104 105.823 25.1125 106.578 25.12C107.4 25.12 108.307 24.7045 109.298 23.8736C110.288 23.0426 111.177 21.9226 111.962 20.5136V20.5136Z" fill="#555A64"/>
</g>
<defs>
<clipPath id="clip0">
<rect width="115.2" height="32" fill="white"/>
</clipPath>
</defs>
</svg>
