<svg width="89" height="32" viewBox="0 0 89 32" fill="none" xmlns="http://www.w3.org/2000/svg">
<g clip-path="url(#clip0)">
<path d="M43.536 16.2173C44.1481 16.696 44.727 17.2156 45.2688 17.7725C45.8768 18.3923 46.4768 19.0605 47.0688 19.7773C47.6608 20.4941 48.2197 21.2216 48.7456 21.9597C49.2255 22.6227 49.6709 23.31 50.08 24.0189H47.1088C46.7028 23.346 46.2617 22.695 45.7872 22.0685C45.2869 21.404 44.7637 20.7677 44.2176 20.1597C43.695 19.5714 43.1417 19.0112 42.56 18.4813C42.0564 18.0187 41.5218 17.5911 40.96 17.2013V24.0205H38.408V3.28934L40.9456 2.85254V15.7821L42.3856 14.3421C42.9136 13.8163 43.432 13.2797 43.9408 12.7325C44.4496 12.1853 44.9296 11.6627 45.3808 11.1645C45.8352 10.6653 46.2261 10.2243 46.5536 9.84134H49.536C49.1178 10.2968 48.6634 10.7971 48.1728 11.3421C47.6821 11.8872 47.1728 12.4371 46.6448 12.9917C46.1189 13.5464 45.5856 14.1011 45.0448 14.6557L43.536 16.2173Z" fill="#555A64"/>
<path d="M49.8912 26.6638C50.1425 26.7723 50.4027 26.859 50.6688 26.923C50.976 27.0036 51.2921 27.045 51.6096 27.0462C52.6101 27.0462 53.392 26.8232 53.9552 26.3774C54.5184 25.9315 55.0272 25.2088 55.4816 24.2094C54.336 22.027 53.2693 19.7134 52.2816 17.2686C51.2992 14.8467 50.475 12.3636 49.8144 9.83496H52.5344C52.7349 10.6542 52.976 11.5363 53.2576 12.4814C53.5392 13.4264 53.8528 14.3992 54.1984 15.3998C54.544 16.4003 54.9173 17.4003 55.3184 18.3998C55.7195 19.3992 56.1376 20.363 56.5728 21.291C57.264 19.3827 57.864 17.4915 58.3728 15.6174C58.8816 13.7432 59.3616 11.8158 59.8128 9.83496H62.4304C61.7755 12.5091 61.0486 15.0776 60.2496 17.5406C59.4507 20.0035 58.5867 22.3086 57.6576 24.4558C57.3389 25.19 56.9606 25.8969 56.5264 26.5694C56.171 27.1188 55.734 27.6108 55.2304 28.0286C54.7559 28.4098 54.2128 28.6965 53.6304 28.8734C52.9795 29.0641 52.3038 29.1563 51.6256 29.147C51.4159 29.1461 51.2064 29.1322 50.9984 29.1054C50.7792 29.0782 50.5664 29.0414 50.3584 28.9966C50.1504 28.9518 49.9584 28.9006 49.7856 28.8462C49.66 28.8091 49.5371 28.7637 49.4176 28.7102L49.8912 26.6638Z" fill="#555A64"/>
<path d="M68.6016 9.48153C69.4775 9.45858 70.3504 9.59242 71.1792 9.87673C71.8155 10.0948 72.3872 10.4685 72.8422 10.964C73.2971 11.4595 73.6209 12.0609 73.784 12.7135C73.9717 13.4299 74.0632 14.1682 74.056 14.9087V23.7727L73.1424 23.9231C72.752 23.9871 72.3109 24.0463 71.8192 24.1007C71.3275 24.1551 70.7941 24.2053 70.2192 24.2511C69.6464 24.2959 69.0784 24.3183 68.5152 24.3183C67.7715 24.3248 67.0298 24.2427 66.3056 24.0735C65.6785 23.9309 65.0854 23.6667 64.56 23.2959C64.0631 22.9346 63.6683 22.4506 63.4144 21.8911C63.1247 21.2296 62.9849 20.5122 63.0048 19.7903C62.9864 19.0875 63.1519 18.392 63.4848 17.7727C63.7949 17.2168 64.2401 16.748 64.7792 16.4095C65.3674 16.0469 66.0137 15.7882 66.6896 15.6447C67.4414 15.4788 68.2093 15.3967 68.9792 15.3999C69.2352 15.3999 69.4976 15.4143 69.7712 15.4415C70.0448 15.4687 70.3024 15.5039 70.5488 15.5503C70.7952 15.5967 71.008 15.6367 71.1888 15.6719C71.3696 15.7071 71.4976 15.7359 71.5712 15.7551V15.0399C71.5708 14.6229 71.5252 14.2071 71.4352 13.7999C71.3503 13.4056 71.1829 13.0337 70.944 12.7087C70.6905 12.3772 70.3576 12.1147 69.976 11.9455C69.4697 11.7352 68.9238 11.6375 68.376 11.6591C67.6424 11.653 66.9098 11.7135 66.1872 11.8399C65.7082 11.9181 65.2378 12.0418 64.7824 12.2095L64.48 10.1087C65.0086 9.90873 65.5574 9.76709 66.1168 9.68633C66.9373 9.54434 67.7689 9.4758 68.6016 9.48153V9.48153ZM68.8192 22.1919C69.4192 22.1919 69.952 22.1775 70.4192 22.1503C70.8094 22.1333 71.1975 22.083 71.5792 21.9999V17.7727C71.2961 17.654 70.9977 17.5758 70.6928 17.5407C70.2005 17.4711 69.7036 17.439 69.2064 17.4447C68.8002 17.4469 68.3946 17.4746 67.992 17.5279C67.585 17.5765 67.1888 17.6916 66.8192 17.8687C66.4736 18.0344 66.1704 18.2768 65.9328 18.5775C65.6829 18.9207 65.5581 19.3391 65.5792 19.7631C65.5792 20.6741 65.8699 21.3061 66.4512 21.6591C67.0325 22.0122 67.8219 22.1898 68.8192 22.1919Z" fill="#555A64"/>
<path d="M77.1648 10.24C77.7472 10.0939 78.52 9.93919 79.4832 9.77599C80.5838 9.60242 81.697 9.52054 82.8112 9.53119C83.9376 9.53119 84.8741 9.69119 85.6208 10.0112C86.3212 10.2959 86.9363 10.7566 87.4064 11.3488C87.869 11.9571 88.1908 12.6603 88.3488 13.408C88.5372 14.2768 88.6284 15.1638 88.6208 16.0528V24.0176H86.08V16.6C86.0904 15.8494 86.0309 15.0995 85.9024 14.36C85.8171 13.8238 85.6167 13.3123 85.3152 12.8608C85.0439 12.4796 84.6635 12.1895 84.224 12.0288C83.6809 11.8417 83.1086 11.7539 82.5344 11.7696C82.2608 11.7696 81.9792 11.7792 81.688 11.7968C81.3968 11.8144 81.12 11.8368 80.856 11.864C80.592 11.8912 80.3552 11.9232 80.1472 11.96L79.6976 12.0416V24.016H77.1648V10.24Z" fill="#555A64"/>
<path d="M15.5568 16.7251C13.5313 14.6557 11.1128 13.012 8.44321 11.8905C5.77363 10.7689 2.90685 10.1921 0.0112305 10.1939V21.8291C2.18937 21.8317 4.30932 22.5324 6.06009 23.8282C7.81086 25.124 9.10029 26.9467 9.73923 29.0291C10.3537 24.4231 12.387 20.1228 15.5568 16.7251V16.7251Z" fill="#555A64"/>
<path d="M31.9888 10.1938V21.829C29.2922 21.8324 26.7071 22.9051 24.8004 24.8119C22.8936 26.7186 21.821 29.3037 21.8176 32.0002H10.1824C10.1824 19.9762 19.9648 10.1938 31.9888 10.1938Z" fill="#555A64"/>
<path d="M16 11.52C19.1812 11.52 21.76 8.94116 21.76 5.76C21.76 2.57884 19.1812 0 16 0C12.8188 0 10.24 2.57884 10.24 5.76C10.24 8.94116 12.8188 11.52 16 11.52Z" fill="#555A64"/>
</g>
<defs>
<clipPath id="clip0">
<rect width="88.6208" height="32" fill="white"/>
</clipPath>
</defs>
</svg>
