<svg width="115" height="32" viewBox="0 0 115 32" fill="none" xmlns="http://www.w3.org/2000/svg">
<g clip-path="url(#clip0)">
<path d="M2.28004 24.2307C4.68964 28.2307 10.488 28.3283 12.8944 24.3203C13.6565 23.0504 14.0847 21.6083 14.1392 20.1283L14.216 18.0803C14.216 18.0803 10.56 21.4163 9.05284 21.2115C8.54404 21.1427 8.93124 20.1987 9.11524 19.7299C9.81444 17.9699 14.0624 13.6499 14.0624 13.6499C14.0624 13.6499 14.4 7.50906 15 5.82586C15.3104 4.96026 15.6704 4.55866 16 4.40026C16.3296 4.56026 16.6896 4.95706 17 5.82586C17.6 7.50906 17.9376 13.6419 17.9376 13.6419C17.9376 13.6419 22.1856 17.9619 22.8848 19.7299C23.0688 20.1987 23.456 21.1427 22.9472 21.2115C21.44 21.4163 17.784 18.0803 17.784 18.0803L17.8608 20.1283C17.9184 21.6917 18.3929 23.2114 19.2352 24.5299C21.6512 28.3091 27.2592 28.2099 29.6192 24.3971C31.1581 21.9104 31.9819 19.0477 32 16.1235C32.0656 7.43866 25.0688 0.208263 16.384 0.000263096C13.5204 -0.0688399 10.6907 0.632089 8.19048 2.02987C5.69021 3.42764 3.61104 5.47101 2.17004 7.94662C0.729041 10.4222 -0.0209364 13.2393 -0.00158801 16.1037C0.0177604 18.9681 0.805725 21.7747 2.28004 24.2307V24.2307Z" fill="#555A64"/>
<path d="M44.5103 14.1503H41.1935V20.2559C41.1935 20.7663 41.3199 21.1375 41.5743 21.3759C41.8287 21.6143 42.2015 21.7423 42.6943 21.7711C43.3005 21.8009 43.9079 21.7961 44.5135 21.7567V25.1919C41.9108 25.4842 40.0762 25.2394 39.0095 24.4575C37.9428 23.6756 37.4095 22.2762 37.4095 20.2591V14.1503H34.8495V10.5103H37.4095V7.5439L41.1935 6.3999V10.5103H44.5103V14.1503Z" fill="#555A64"/>
<path d="M51.792 13.035C52.1031 12.1444 52.7222 11.3942 53.5376 10.9198C54.3652 10.4465 55.3043 10.2034 56.2576 10.2158V14.443C55.1735 14.2907 54.0712 14.5418 53.16 15.1486C52.2501 15.7544 51.7952 16.7624 51.7952 18.1726V25.1886H48V10.5102H51.792V13.035Z" fill="#555A64"/>
<path d="M61.6848 19.4047C62.1936 21.2447 63.5733 22.1647 65.824 22.1647C67.2725 22.1647 68.3685 21.6757 69.112 20.6975L72.1648 22.4575C70.7173 24.5525 68.5824 25.5999 65.76 25.5999C63.3344 25.5999 61.3872 24.8661 59.9184 23.3983C58.4496 21.9306 57.7157 20.081 57.7168 17.8495C57.7168 15.6383 58.4411 13.7935 59.8896 12.3151C61.3381 10.8367 63.1989 10.0981 65.472 10.0991C67.6245 10.0991 69.4005 10.8426 70.8 12.3295C72.1995 13.8165 72.8992 15.6565 72.8992 17.8495C72.8959 18.3712 72.8467 18.8917 72.752 19.4047H61.6848ZM61.6256 16.4687H69.12C68.9067 15.4725 68.4613 14.729 67.784 14.2383C67.1156 13.7508 66.3072 13.4932 65.48 13.5039C64.4624 13.5039 63.6208 13.7637 62.9552 14.2831C62.2896 14.8026 61.8464 15.5311 61.6256 16.4687V16.4687Z" fill="#555A64"/>
<path d="M85.2 10.5103H89.3696L83.7904 25.1887H79.4704L73.8976 10.5103H78.0656L81.6192 20.7855L85.2 10.5103Z" fill="#555A64"/>
<path d="M102.346 10.5104H106.133V25.1888H102.346V23.456C101.209 24.8853 99.6134 25.6 97.5601 25.6C95.6027 25.6 93.9243 24.8533 92.5249 23.36C91.1254 21.8666 90.4257 20.032 90.4257 17.856C90.4257 15.6832 91.1254 13.848 92.5249 12.3504C93.9243 10.8528 95.6027 10.1061 97.5601 10.1104C99.6145 10.1104 101.21 10.8245 102.346 12.2528V10.5104ZM95.3601 20.8288C96.1227 21.601 97.0913 21.9877 98.2657 21.9888C98.806 22.0048 99.3439 21.9102 99.8463 21.7107C100.349 21.5112 100.805 21.2111 101.187 20.8288C101.961 20.0554 102.347 19.0624 102.347 17.8496C102.347 16.6368 101.961 15.6432 101.187 14.8688C100.413 14.0954 99.439 13.7093 98.2657 13.7104C97.0923 13.7114 96.1238 14.0976 95.3601 14.8688C94.5974 15.6432 94.2155 16.6368 94.2145 17.8496C94.2134 19.0624 94.5953 20.0554 95.3601 20.8288Z" fill="#555A64"/>
<path d="M112.389 25.6C113.787 25.6 114.92 24.4667 114.92 23.0688C114.92 21.6709 113.787 20.5376 112.389 20.5376C110.991 20.5376 109.858 21.6709 109.858 23.0688C109.858 24.4667 110.991 25.6 112.389 25.6Z" fill="#555A64"/>
</g>
<defs>
<clipPath id="clip0">
<rect width="114.88" height="32" fill="white"/>
</clipPath>
</defs>
</svg>
