<svg width="96" height="32" viewBox="0 0 96 32" fill="none" xmlns="http://www.w3.org/2000/svg">
<g clip-path="url(#clip0)">
<path d="M5.9488 0.496094V24.1329C5.9488 25.9425 6.4944 26.9105 7.8416 26.9105C9.2688 26.9105 9.7072 25.8081 9.7072 24.1329V0.496094H15.6896V23.7457C15.6896 29.2481 13.1888 31.9681 7.7504 31.9681C2.4112 31.9681 0 29.3377 0 23.6961V0.496094H5.9488Z" fill="#555A64"/>
<path d="M22.176 5.77449H17.696V0.496094H32.5761V5.77609H28.0769V31.5361H22.176V5.77449Z" fill="#555A64"/>
<path d="M50.0352 8.79987V23.1999C50.0352 29.3583 47.1664 31.9999 41.7952 31.9999C36.6976 31.9999 34.08 29.2927 34.08 23.2607V8.63987C34.08 2.64627 37.3408 0.0302734 42.08 0.0302734C46.8304 0.0302734 50.0352 2.60147 50.0352 8.79987ZM40.0544 8.12787V23.9999C40.0544 25.9199 40.7056 26.9167 42.0256 26.9167C43.4032 26.9167 44.0272 26.0095 44.0272 23.9695V8.08147C44.0272 6.14227 43.496 5.15027 42.0096 5.15027C40.7504 5.15027 40.0544 6.06867 40.0544 8.12787V8.12787Z" fill="#555A64"/>
<path d="M58.1487 21.968V24.1184C58.1487 26.1584 58.6511 27.1072 59.9983 27.1072C61.3455 27.1072 61.6799 25.7024 61.6799 24.2368C61.6799 21.3072 61.1343 20.4592 57.9999 17.808C54.5391 14.8464 52.7599 13.0928 52.7599 8.528C52.7567 4.0864 54.2111 0 60.0303 0C66.2111 0 67.1231 4.2576 67.1231 7.8112V9.6H61.5423V7.7376C61.5423 5.8544 61.2367 4.9232 60.0687 4.9232C58.9775 4.9232 58.6287 5.8704 58.6287 7.6288C58.6287 9.4976 58.9647 10.4208 61.5087 12.4288C66.0287 16.0144 67.6495 18.0288 67.6495 23.1408C67.6495 28 66.0047 32.0048 59.9007 32.0048C54.0399 32.0048 52.3679 28.4336 52.3679 23.8336V21.968H58.1487Z" fill="#555A64"/>
<path d="M76.1599 0.496094V31.5361H70.2607V0.496094H76.1599Z" fill="#555A64"/>
<path d="M85.1776 24.1474L84.4208 31.5346H78.4L82.744 0.494629H91.552L96 31.5346H89.8528L89.0064 24.1474H85.1776ZM88.504 18.8802C88.0672 14.9074 87.456 8.86583 87.168 5.89463H86.936C86.8304 8.05783 86.1008 15.0418 85.6928 18.8802H88.504Z" fill="#555A64"/>
</g>
<defs>
<clipPath id="clip0">
<rect width="96" height="32" fill="white"/>
</clipPath>
</defs>
</svg>
