<svg width="80" height="32" viewBox="0 0 80 32" fill="none" xmlns="http://www.w3.org/2000/svg">
<path d="M0.8528 26.4254L6.9408 19.2254C8.8416 17.019 10.0528 15.8078 12.3632 13.7022L12.4352 13.6014H3.9408L5.2208 6.89258H22.848L21.92 12.243L16.0688 19.1118C13.9376 21.6238 12.5712 23.003 10.6288 24.6798L10.6032 24.7806H20.032L18.752 31.4894H0L0.8528 26.4254Z" fill="#555A64"/>
<path d="M36.8176 0L35.576 6.888H40.3072L39.1776 12.96H34.424L32.9088 20.8C32.7454 21.6037 32.6454 22.419 32.6096 23.2384C32.6096 24.496 33.1792 25.232 34.5568 25.232C35.1838 25.2416 35.8109 25.217 36.4352 25.1584L35.408 31.4736C34.3456 31.84 32.5104 32 30.9664 32C26.576 32 24.4256 29.76 24.4256 26.3392C24.44 24.9076 24.596 23.4809 24.8912 22.08L26.6096 12.96H23.7568L24.8608 6.8896H27.7408L28.6656 1.9104L36.8176 0Z" fill="#555A64"/>
<path d="M61.76 16.0976C61.76 25.2752 56.0144 31.9472 47.9856 31.9472C41.6896 31.9472 38.2592 27.7008 38.2592 22.2544C38.2592 13.5024 43.8592 6.36963 52.1888 6.36963C58.6448 6.36963 61.76 11.0032 61.76 16.0976ZM46.3744 22.08C46.3744 24.16 47.136 25.7728 49.0208 25.7728C52.0912 25.7728 53.6464 19.6688 53.6464 15.8528C53.6464 14.0544 52.9504 12.536 51.0736 12.536C47.9392 12.5424 46.3504 18.7696 46.3744 22.08Z" fill="#555A64"/>
<path d="M62.3184 24.4576C63.6448 25.1104 65.9568 26.0064 68.1696 25.9824C69.7776 25.9584 70.504 25.2432 70.504 24.3072C70.504 23.3712 69.8384 22.6672 67.8384 21.5568C65.2464 20.0992 63.1904 18.008 63.1904 15.1184C63.1904 9.92483 67.5488 6.36963 73.9104 6.36963C76.7296 6.36963 78.8176 6.90083 79.9904 7.55523L78.24 13.2944C76.8602 12.6628 75.3606 12.3354 73.8432 12.3344C72.2192 12.3344 71.1552 12.9248 71.1552 14.0576C71.1552 14.8224 71.9456 15.5248 73.5728 16.3744C76.2784 17.9632 78.6704 19.9904 78.6704 23.0768C78.6704 28.7824 74.1152 31.8992 67.5264 31.8992C64.5824 31.8992 61.8224 31.1168 60.4672 30.1248L62.3184 24.4576Z" fill="#555A64"/>
</svg>
