<svg width="127" height="36" viewBox="0 0 127 36" fill="none" xmlns="http://www.w3.org/2000/svg">
<path d="M3.156 27.168C2.29733 27.2053 1.644 27.0747 1.196 26.776C0.766667 26.4773 0.552 26.02 0.552 25.404C0.552 24.844 0.692 24.4333 0.972 24.172C1.252 23.892 1.69067 23.7333 2.288 23.696L3.184 23.64C4.528 23.584 5.2 22.7907 5.2 21.26V9.276C5.2 8.62267 5.40533 8.1 5.816 7.708C6.22667 7.316 6.75867 7.12 7.412 7.12C8.06533 7.12 8.588 7.316 8.98 7.708C9.39067 8.1 9.596 8.62267 9.596 9.276V21.204C9.596 24.9 7.748 26.8693 4.052 27.112L3.156 27.168ZM23.4547 12.972C24.108 12.972 24.6214 13.1493 24.9947 13.504C25.3867 13.8587 25.5827 14.344 25.5827 14.96V25.236C25.5827 25.8147 25.3774 26.2813 24.9667 26.636C24.5747 26.9907 24.0614 27.168 23.4267 27.168C22.8294 27.168 22.3534 27 21.9987 26.664C21.644 26.328 21.4667 25.88 21.4667 25.32V25.04C21.0374 25.7493 20.468 26.2907 19.7587 26.664C19.068 27.0373 18.284 27.224 17.4067 27.224C15.6707 27.224 14.3734 26.748 13.5147 25.796C12.6747 24.8253 12.2547 23.3693 12.2547 21.428V14.96C12.2547 14.344 12.4414 13.8587 12.8147 13.504C13.2067 13.1493 13.7294 12.972 14.3827 12.972C15.036 12.972 15.5494 13.1493 15.9227 13.504C16.296 13.8587 16.4827 14.344 16.4827 14.96V21.512C16.4827 22.3333 16.6507 22.94 16.9867 23.332C17.3414 23.724 17.8734 23.92 18.5827 23.92C19.404 23.92 20.0667 23.64 20.5707 23.08C21.0934 22.52 21.3547 21.7827 21.3547 20.868V14.96C21.3547 14.344 21.5414 13.8587 21.9147 13.504C22.288 13.1493 22.8014 12.972 23.4547 12.972ZM44.927 12.916C46.4203 12.916 47.5683 13.3733 48.371 14.288C49.1736 15.184 49.575 16.6587 49.575 18.712V25.18C49.575 25.8333 49.379 26.328 48.987 26.664C48.595 27 48.091 27.168 47.475 27.168C46.8776 27.168 46.3736 27 45.963 26.664C45.5523 26.328 45.347 25.8333 45.347 25.18V18.656C45.347 17.76 45.1883 17.1347 44.871 16.78C44.5723 16.4067 44.1056 16.22 43.471 16.22C42.687 16.22 42.0616 16.4907 41.595 17.032C41.1283 17.5733 40.895 18.3293 40.895 19.3V25.18C40.895 25.8333 40.699 26.328 40.307 26.664C39.915 27 39.411 27.168 38.795 27.168C38.1976 27.168 37.6936 27 37.283 26.664C36.8723 26.328 36.667 25.8333 36.667 25.18V18.656C36.667 17.76 36.5083 17.1347 36.191 16.78C35.8923 16.4067 35.4256 16.22 34.791 16.22C34.007 16.22 33.3816 16.4907 32.915 17.032C32.4483 17.5733 32.215 18.3293 32.215 19.3V25.18C32.215 25.8333 32.0096 26.328 31.599 26.664C31.207 27 30.7123 27.168 30.115 27.168C29.5176 27.168 29.0136 27 28.603 26.664C28.1923 26.328 27.987 25.8333 27.987 25.18V14.904C27.987 14.288 28.1923 13.812 28.603 13.476C29.0323 13.14 29.5456 12.972 30.143 12.972C30.703 12.972 31.1696 13.14 31.543 13.476C31.9163 13.7933 32.103 14.2413 32.103 14.82V15.1C32.551 14.3907 33.1296 13.8493 33.839 13.476C34.567 13.1027 35.3883 12.916 36.303 12.916C37.2923 12.916 38.123 13.1213 38.795 13.532C39.4856 13.924 40.0176 14.568 40.391 15.464C40.8203 14.68 41.427 14.064 42.211 13.616C43.0136 13.1493 43.919 12.916 44.927 12.916ZM60.4324 12.916C61.6084 12.916 62.6537 13.224 63.5684 13.84C64.5017 14.4373 65.2204 15.2867 65.7244 16.388C66.2471 17.4707 66.5084 18.7213 66.5084 20.14C66.5084 21.5587 66.2471 22.8093 65.7244 23.892C65.2204 24.956 64.5111 25.7773 63.5964 26.356C62.6817 26.9347 61.6271 27.224 60.4324 27.224C59.4991 27.224 58.6497 27.0373 57.8844 26.664C57.1377 26.272 56.5591 25.7307 56.1484 25.04V30.332C56.1484 30.892 55.9617 31.34 55.5884 31.676C55.2151 32.012 54.7204 32.18 54.1044 32.18C53.4511 32.18 52.9191 32.0027 52.5084 31.648C52.1164 31.2933 51.9204 30.8267 51.9204 30.248V14.96C51.9204 14.3627 52.1071 13.8867 52.4804 13.532C52.8724 13.1587 53.3857 12.972 54.0204 12.972C54.6551 12.972 55.1591 13.1587 55.5324 13.532C55.9057 13.8867 56.0924 14.3627 56.0924 14.96V15.184C56.5031 14.4747 57.0911 13.924 57.8564 13.532C58.6217 13.1213 59.4804 12.916 60.4324 12.916ZM59.2004 24.004C60.1897 24.004 60.9551 23.6773 61.4964 23.024C62.0377 22.352 62.3084 21.3907 62.3084 20.14C62.3084 18.8707 62.0377 17.8907 61.4964 17.2C60.9551 16.4907 60.1897 16.136 59.2004 16.136C58.2111 16.136 57.4457 16.4813 56.9044 17.172C56.3631 17.844 56.0924 18.8147 56.0924 20.084C56.0924 21.3347 56.3631 22.3053 56.9044 22.996C57.4457 23.668 58.2111 24.004 59.2004 24.004ZM73.4603 27.224C72.3216 27.224 71.3323 27.1307 70.4923 26.944C69.6523 26.7573 68.9149 26.4587 68.2803 26.048C68.0003 25.88 67.7856 25.656 67.6363 25.376C67.4869 25.096 67.4123 24.7787 67.4123 24.424C67.4123 23.9947 67.5336 23.64 67.7763 23.36C68.0189 23.0613 68.3176 22.912 68.6723 22.912C68.9149 22.912 69.1576 22.9587 69.4003 23.052C69.6429 23.1267 69.8949 23.22 70.1563 23.332C70.6789 23.5747 71.1923 23.7707 71.6963 23.92C72.2003 24.0507 72.8256 24.116 73.5723 24.116C74.2256 24.116 74.7296 24.0133 75.0843 23.808C75.4576 23.6027 75.6443 23.3227 75.6443 22.968C75.6443 22.7067 75.5603 22.5013 75.3923 22.352C75.2429 22.184 74.9536 22.0347 74.5243 21.904C74.0949 21.7733 73.4136 21.6147 72.4803 21.428C70.8189 21.1107 69.6243 20.6347 68.8963 20C68.1683 19.3653 67.8043 18.4787 67.8043 17.34C67.8043 16.5 68.0563 15.744 68.5603 15.072C69.0829 14.4 69.7923 13.8773 70.6883 13.504C71.5843 13.112 72.5923 12.916 73.7123 12.916C74.5149 12.916 75.2989 13.0187 76.0643 13.224C76.8296 13.4293 77.5109 13.7187 78.1083 14.092C78.6869 14.4467 78.9763 14.9693 78.9763 15.66C78.9763 16.108 78.8549 16.4813 78.6123 16.78C78.3696 17.0787 78.0709 17.228 77.7163 17.228C77.2869 17.228 76.7736 17.06 76.1763 16.724C75.7096 16.4813 75.2803 16.304 74.8883 16.192C74.5149 16.0613 74.0669 15.996 73.5443 15.996C72.9656 15.996 72.5083 16.108 72.1723 16.332C71.8363 16.5373 71.6683 16.8267 71.6683 17.2C71.6683 17.592 71.8643 17.8907 72.2563 18.096C72.6483 18.3013 73.4043 18.5067 74.5243 18.712C75.7749 18.9547 76.7549 19.2533 77.4643 19.608C78.1736 19.944 78.6869 20.3733 79.0043 20.896C79.3216 21.4187 79.4803 22.0813 79.4803 22.884C79.4803 24.2093 78.9296 25.264 77.8283 26.048C76.7456 26.832 75.2896 27.224 73.4603 27.224ZM88.5641 24.088C89.1241 24.1253 89.5348 24.2653 89.7961 24.508C90.0574 24.7507 90.1881 25.1053 90.1881 25.572C90.1881 26.1133 89.9734 26.524 89.5441 26.804C89.1148 27.084 88.4988 27.196 87.6961 27.14L86.9121 27.084C83.6454 26.8227 82.0121 25.1147 82.0121 21.96V16.416H80.8921C80.2761 16.416 79.8094 16.2853 79.4921 16.024C79.1748 15.744 79.0161 15.352 79.0161 14.848C79.0161 14.3253 79.1748 13.9333 79.4921 13.672C79.8094 13.392 80.2761 13.252 80.8921 13.252H82.0121V11.068C82.0121 10.452 82.1988 9.96667 82.5721 9.612C82.9641 9.25733 83.4868 9.08 84.1401 9.08C84.7934 9.08 85.3068 9.25733 85.6801 9.612C86.0534 9.96667 86.2401 10.452 86.2401 11.068V13.252H88.2001C89.4694 13.252 90.1041 13.784 90.1041 14.848C90.1041 15.352 89.9454 15.744 89.6281 16.024C89.3108 16.2853 88.8348 16.416 88.2001 16.416H86.2401V22.268C86.2401 22.828 86.3708 23.2573 86.6321 23.556C86.8934 23.836 87.2761 23.9947 87.7801 24.032L88.5641 24.088ZM97.0962 12.916C99.1122 12.916 100.606 13.4107 101.576 14.4C102.547 15.3707 103.032 16.864 103.032 18.88V25.208C103.032 25.824 102.855 26.3093 102.5 26.664C102.146 27 101.651 27.168 101.016 27.168C100.419 27.168 99.9336 26.9907 99.5602 26.636C99.2056 26.2627 99.0282 25.7867 99.0282 25.208V25.012C98.7482 25.7027 98.2816 26.244 97.6282 26.636C96.9749 27.028 96.2096 27.224 95.3322 27.224C94.3989 27.224 93.5496 27.0373 92.7842 26.664C92.0376 26.2907 91.4402 25.768 90.9922 25.096C90.5629 24.424 90.3482 23.6773 90.3482 22.856C90.3482 21.848 90.6002 21.0547 91.1042 20.476C91.6269 19.8973 92.4576 19.4773 93.5962 19.216C94.7349 18.9547 96.2936 18.824 98.2722 18.824H99.0002V18.32C99.0002 17.536 98.8229 16.9667 98.4682 16.612C98.1322 16.2573 97.5629 16.08 96.7602 16.08C95.9576 16.08 94.8002 16.36 93.2882 16.92C92.8589 17.1253 92.4949 17.228 92.1962 17.228C91.7856 17.228 91.4589 17.088 91.2162 16.808C90.9736 16.5093 90.8522 16.1267 90.8522 15.66C90.8522 15.2867 90.9362 14.9787 91.1042 14.736C91.2722 14.4933 91.5429 14.2693 91.9162 14.064C92.5696 13.7093 93.3629 13.4293 94.2962 13.224C95.2482 13.0187 96.1816 12.916 97.0962 12.916ZM96.2562 24.312C97.0776 24.312 97.7402 24.0413 98.2442 23.5C98.7482 22.94 99.0002 22.2213 99.0002 21.344V20.868H98.5242C97.0122 20.868 95.9482 20.9893 95.3322 21.232C94.7349 21.4747 94.4362 21.9133 94.4362 22.548C94.4362 23.0707 94.6042 23.5 94.9402 23.836C95.2949 24.1533 95.7336 24.312 96.2562 24.312ZM113.557 12.972C114.117 12.9347 114.556 13.0653 114.873 13.364C115.209 13.644 115.377 14.0733 115.377 14.652C115.377 15.268 115.228 15.7253 114.929 16.024C114.631 16.3227 114.099 16.5093 113.333 16.584L112.493 16.668C111.467 16.78 110.72 17.116 110.253 17.676C109.805 18.236 109.581 18.9547 109.581 19.832V25.18C109.581 25.8333 109.376 26.328 108.965 26.664C108.573 27 108.079 27.168 107.481 27.168C106.865 27.168 106.352 27 105.941 26.664C105.549 26.328 105.353 25.8333 105.353 25.18V14.904C105.353 14.288 105.559 13.812 105.969 13.476C106.38 13.14 106.875 12.972 107.453 12.972C108.013 12.972 108.48 13.14 108.853 13.476C109.227 13.7933 109.413 14.2413 109.413 14.82V15.576C109.749 14.7733 110.253 14.1573 110.925 13.728C111.616 13.2987 112.363 13.056 113.165 13L113.557 12.972ZM124.763 24.088C125.323 24.1253 125.734 24.2653 125.995 24.508C126.256 24.7507 126.387 25.1053 126.387 25.572C126.387 26.1133 126.172 26.524 125.743 26.804C125.314 27.084 124.698 27.196 123.895 27.14L123.111 27.084C119.844 26.8227 118.211 25.1147 118.211 21.96V16.416H117.091C116.475 16.416 116.008 16.2853 115.691 16.024C115.374 15.744 115.215 15.352 115.215 14.848C115.215 14.3253 115.374 13.9333 115.691 13.672C116.008 13.392 116.475 13.252 117.091 13.252H118.211V11.068C118.211 10.452 118.398 9.96667 118.771 9.612C119.163 9.25733 119.686 9.08 120.339 9.08C120.992 9.08 121.506 9.25733 121.879 9.612C122.252 9.96667 122.439 10.452 122.439 11.068V13.252H124.399C125.668 13.252 126.303 13.784 126.303 14.848C126.303 15.352 126.144 15.744 125.827 16.024C125.51 16.2853 125.034 16.416 124.399 16.416H122.439V22.268C122.439 22.828 122.57 23.2573 122.831 23.556C123.092 23.836 123.475 23.9947 123.979 24.032L124.763 24.088Z" fill="#2C3038"/>
</svg>
