<svg width="2000" height="2000" viewBox="0 0 2000 2000" fill="none" xmlns="http://www.w3.org/2000/svg">
<path d="M576.4 1788.2C18.0999 1697.1 -10.8002 1152.5 173.3 696.9C245.3 528.9 394.2 285.7 908.4 252.9C1363.5 223.9 1835.2 687.2 1922.1 1156.4C2040.7 1796.9 1276.7 1902.4 576.4 1788.2Z" fill="#046865"/>
<path d="M732.4 1780.2C1035.05 1780.2 1280.4 1736.32 1280.4 1682.2C1280.4 1628.08 1035.05 1584.2 732.4 1584.2C429.748 1584.2 184.4 1628.08 184.4 1682.2C184.4 1736.32 429.748 1780.2 732.4 1780.2Z" fill="white"/>
<path d="M1385.8 604.2C1496.26 604.2 1585.8 514.657 1585.8 404.2C1585.8 293.743 1496.26 204.2 1385.8 204.2C1275.34 204.2 1185.8 293.743 1185.8 404.2C1185.8 514.657 1275.34 604.2 1385.8 604.2Z" fill="white"/>
<path d="M458.4 1519.2H316.3C314.6 1519.2 313.3 1517.9 313.3 1516.2C313.3 1514.5 314.6 1513.2 316.3 1513.2H458.4C460.1 1513.2 461.4 1514.5 461.4 1516.2C461.4 1517.9 460.1 1519.2 458.4 1519.2Z" fill="#1A1A1A"/>
<path d="M848.4 1519.2H618.3C616.6 1519.2 615.3 1517.9 615.3 1516.2C615.3 1514.5 616.6 1513.2 618.3 1513.2H848.4C850.1 1513.2 851.4 1514.5 851.4 1516.2C851.4 1517.9 850.1 1519.2 848.4 1519.2Z" fill="#1A1A1A"/>
<path d="M1106.4 1519.2H1016.3C1014.6 1519.2 1013.3 1517.9 1013.3 1516.2C1013.3 1514.5 1014.6 1513.2 1016.3 1513.2H1106.4C1108.1 1513.2 1109.4 1514.5 1109.4 1516.2C1109.4 1517.9 1108.1 1519.2 1106.4 1519.2Z" fill="#1A1A1A"/>
<path d="M1164.4 1519.2H1136.3C1134.6 1519.2 1133.3 1517.9 1133.3 1516.2C1133.3 1514.5 1134.6 1513.2 1136.3 1513.2H1164.4C1166.1 1513.2 1167.4 1514.5 1167.4 1516.2C1167.4 1517.9 1166.1 1519.2 1164.4 1519.2Z" fill="#1A1A1A"/>
<path d="M1785.9 1736C1778.4 1733.1 1767.6 1730.4 1754 1728.2C1726.3 1723.6 1689.4 1721.1 1650.3 1721.1C1611.1 1721.1 1574.3 1723.6 1546.6 1728.2C1533 1730.4 1522.3 1733.1 1514.7 1736C1505.7 1739.5 1501.3 1743.5 1501.3 1748.1C1501.3 1752.7 1505.7 1756.7 1514.7 1760.2C1522.2 1763.1 1533 1765.8 1546.6 1768C1574.3 1772.6 1611.2 1775.1 1650.3 1775.1C1689.5 1775.1 1726.3 1772.6 1754 1768C1767.6 1765.8 1778.3 1763.1 1785.9 1760.2C1794.9 1756.7 1799.3 1752.7 1799.3 1748.1C1799.3 1743.5 1794.9 1739.5 1785.9 1736Z" fill="#1A1A1A"/>
<path d="M841.6 230.9L802.9 426.9C802.9 426.9 778.2 415.6 726.9 417.6C675.6 419.6 643.6 424.3 643.6 424.3L613 222.9C613 222.9 645.7 199.6 733 199.6C809.6 199.5 841.6 230.9 841.6 230.9Z" fill="#009B72"/>
<path d="M645.6 209.6C622.7 215.9 613 222.8 613 222.8L643.7 424.1C643.7 424.1 651.8 422.9 666.4 421.5L645.6 209.6Z" fill="white"/>
<path d="M279.8 917.7C279.8 917.7 308.8 829.2 319.3 806.2C329.8 783.2 357.8 706.2 393.3 672.7C393.3 672.7 413.8 643.7 465.3 639.2L482.3 513.2C482.3 513.2 436.3 521.2 389.8 547.2C343.3 573.2 299.3 620.2 272.3 664.2C245.3 708.2 198.3 802.2 180.3 896.7C182.8 895.7 279.8 917.7 279.8 917.7Z" fill="white"/>
<path d="M474 574.6C461 576.4 447.6 582.6 436.3 587.1C395.6 603.5 358.8 629.6 329.5 662.4C288 709 261.8 768.6 253.3 830.5C251.7 842.3 250.7 854.4 246.3 865.5C241.9 876.6 233.5 886.8 222 889.9C220.3 890.4 218.5 890.7 217 891.7C213.2 894.2 213.6 899.1 215.7 903.5C244.3 909.6 279.9 917.7 279.9 917.7C279.9 917.7 308.9 829.2 319.4 806.2C329.9 783.2 357.9 706.2 393.4 672.7C393.4 672.7 413.9 643.7 465.4 639.2L474 574.6Z" fill="#009B72"/>
<path d="M1257.6 731.5C1257.6 731.5 1251.6 786.8 1228.9 808.8C1206.2 830.8 1187.6 840.8 1161.6 819.5C1135.6 798.2 1128.3 736.8 1128.3 736.8C1128.3 736.8 1124.1 679.8 1097.1 627.5C1070.1 575.2 1025.8 542.2 946.3 535.2L945 652.2C945 652.2 985.3 660.5 1001 683.5C1016.7 706.5 1023.7 740.5 1029.3 772.2C1035 803.9 1055.3 869.5 1084.6 904.2C1113.9 938.9 1150.9 951.2 1179.9 951.9C1208.9 952.6 1251.6 942.9 1288.9 908.9C1326.2 874.9 1339.2 834.9 1339.2 834.9C1339.2 834.9 1358.5 784.6 1361.2 765.2C1361.2 765.2 1332.5 765.2 1305.9 758.9C1279.3 752.5 1257.6 731.5 1257.6 731.5Z" fill="white"/>
<path d="M1361.3 765.2C1361.3 765.2 1332.6 765.2 1306 758.9C1303.1 758.2 1300.3 757.4 1297.6 756.4C1289.6 781.5 1296.3 826.5 1292.6 852.1C1289.5 873.9 1273.5 892 1255.2 904.4C1213.1 932.7 1150.3 927 1119.8 899.7C1100.8 882.7 1083.3 843.2 1076.4 798.6C1059.7 691.6 1046.3 642.3 989.2 612.1C976.3 605.3 956.4 603.5 945.5 603L944.9 652.3C944.9 652.3 985.2 660.6 1000.9 683.6C1016.6 706.6 1023.6 740.6 1029.2 772.3C1034.9 804 1055.2 869.6 1084.5 904.3C1113.8 939 1150.8 951.3 1179.8 952C1208.8 952.7 1251.5 943 1288.8 909C1303.7 895.4 1314.8 880.8 1322.6 868.3C1322.6 868.2 1322.7 868.2 1322.7 868.1C1328.6 856.6 1331.1 849 1331.1 849C1331.1 849 1335.5 841.2 1339.4 834.3C1342 827.9 1358.8 783.1 1361.3 765.2Z" fill="#009B72"/>
<path d="M728.3 487.3L659.6 484.1L557 476.9C557 476.9 519 464.9 495.7 490.2C472.4 515.5 473 555.5 473 555.5C473 555.5 461.7 679.5 461 723.5C460.3 767.5 461.7 886.2 465 932.2C468.3 978.2 479.7 1063.5 500.3 1094.2C520.9 1124.9 541 1128.9 608.3 1118.9C675.6 1108.9 755 1097.6 755 1097.6L912.3 1078.3C912.3 1078.3 945 1074.3 954.3 1051C963.6 1027.7 954.3 984.3 954.3 984.3C954.3 984.3 939 883.5 939 842.9C939 802.2 945 604.2 945 604.2C945 604.2 954.6 534.6 936.3 510.9C923 493.5 728.3 487.3 728.3 487.3Z" fill="#009B72"/>
<path d="M850.4 579.2L494.5 563.5C493.7 563.5 492.9 563.8 492.3 564.3C491.7 564.9 491.4 565.6 491.4 566.5V876.2C491.4 877.7 492.6 879 494.1 879.2L845.4 913.5C845.5 913.5 845.6 913.5 845.7 913.5C846.4 913.5 847.1 913.2 847.7 912.7C848.3 912.1 848.7 911.3 848.7 910.5L853.3 582.2C853.3 580.6 852.1 579.3 850.4 579.2Z" fill="white"/>
<path d="M728.3 487.3L659.6 484.1L557 476.9C557 476.9 519 464.9 495.7 490.2C484.3 502.6 478.6 518.5 475.8 531.6L935.7 510.1C917.2 493.3 728.3 487.3 728.3 487.3Z" fill="white"/>
<path d="M905.3 1077.2L947.3 1316.2L988.8 1560.7C988.8 1560.7 970.3 1577.2 944.8 1582.7C919.3 1588.2 888.3 1581.2 888.3 1581.2L844.8 1321.2L806.8 1090.7L905.3 1077.2Z" fill="white"/>
<path d="M930 1584.6C935 1584.3 940 1583.7 944.8 1582.7C970.3 1577.2 988.8 1560.7 988.8 1560.7L947.3 1316.2L911.3 1111.1L858.8 1135.3L930 1584.6Z" fill="#009B72"/>
<path d="M925.3 1178.7C925.3 1178.6 925.3 1178.5 925.3 1178.4L909.8 1079.4C909.5 1077.8 908.1 1076.7 906.5 1076.9L839.4 1085.3L807.1 1089.3C806.3 1089.4 805.6 1089.8 805.1 1090.5C804.6 1091.2 804.4 1092 804.5 1092.8L813.5 1146.8C813.6 1147.4 813.9 1147.9 814.3 1148.4C814.9 1149 829.3 1163.7 863.7 1157.3C876.7 1154.9 881.7 1165.2 888 1181.1C892.2 1191.8 896.5 1202.8 906 1204.6C907.2 1204.8 908.4 1205 909.6 1205C913.1 1205 916.2 1203.9 918.7 1201.7C926.2 1194.6 925.3 1179.3 925.3 1178.7Z" fill="#1A1A1A"/>
<path d="M678.3 1107.2L579.3 1592.7C579.3 1592.7 550.8 1604.2 528.3 1602.7C505.8 1601.2 480.3 1586.2 480.3 1586.2L507.8 1443.2L573.8 1122.7L678.3 1107.2Z" fill="white"/>
<path d="M528.3 1602.7C536 1601.1 547.7 1601.8 559 1599.6C569 1597.7 579.3 1592.7 579.3 1592.7L678.3 1107.2L619.3 1115.2L528.3 1602.7Z" fill="#009B72"/>
<path d="M680.5 1106.1C679.8 1105.4 678.8 1105 677.8 1105.2L572.8 1122.2C571.6 1122.4 570.6 1123.3 570.3 1124.6L547.3 1239.6C547.2 1240.3 547.3 1241 547.6 1241.6C547.8 1242 553 1251.8 562.8 1254.5C564.5 1255 566.3 1255.2 568 1255.2C571.8 1255.2 575.8 1254 579.7 1251.7C588.1 1246.8 588.7 1236.1 589.2 1224.7C590.2 1205.9 591.2 1186.4 625.3 1185.1C661.6 1183.7 670 1160.1 670.4 1159.1C670.4 1159 670.5 1158.9 670.5 1158.8L681.2 1108.8C681.5 1107.8 681.2 1106.8 680.5 1106.1Z" fill="#1A1A1A"/>
<path d="M179.9 1097.3C176.5 1096.5 127.3 1088 126.6 1091.2C125.9 1094.4 130.9 1098.4 159.4 1105.4C187.9 1112.4 229.6 1121.2 230.4 1117.4C231.2 1113.6 201.7 1102.3 179.9 1097.3Z" fill="#046865"/>
<path d="M505.3 567.2H857.3L846.3 895.2L505.3 865.2V567.2Z" fill="#1A1A1A"/>
<path d="M506.9 592.7C507 604.7 505.9 616.7 505.3 628.7C504.7 640.5 505.6 652.3 505 664.1C504.9 666.9 504.6 669.6 504.2 672.3C505.4 677.1 505.3 682.3 504.7 687.1C504.4 689.6 504.1 692 503.7 694.5C503.6 694.9 503 699.4 503.5 695.7C504 692.4 503.5 695.7 503.5 696.5C503.4 697.9 503.4 699.3 503.4 700.6C503.4 702 503.6 703.4 503.7 704.8C503.5 700.1 503.8 705.5 503.9 706.3C504.5 710.3 505.2 714.4 505.6 718.4C505.9 721.4 506.1 724.4 505.9 727.4C513.5 729.2 523.1 730.9 533.5 731.9C558.3 734.1 579.3 727.2 579.3 727.2L585.9 596.4L506.9 592.7Z" fill="#009B72"/>
<path d="M587.7 593.9C585.9 591.7 581.4 590 573.3 588.4C564.7 586.7 553.3 585.4 541.1 584.8C528.9 584.2 517.4 584.3 508.7 585.2C507.7 585.3 506.8 585.4 505.9 585.5C506.5 587.4 506.9 589.5 507 591.5C507 594.4 507 597.4 506.9 600.3C507.2 600.4 507.6 600.4 507.9 600.5C516.5 602.2 527.9 603.5 540.1 604.1C552.3 604.7 563.8 604.6 572.5 603.7C576.9 603.3 580.2 602.7 582.7 602L581.4 628.4C581.3 628.5 581.3 628.7 581.2 628.8C578.5 630.4 564.1 632.6 538.7 631.3C523.5 630.5 512.4 628.9 505.3 627.4C505.3 627.8 505.3 628.2 505.2 628.6C504.6 640.4 505.5 652.2 504.9 664C504.8 666.8 504.5 669.5 504.1 672.2C505.1 676.4 505.2 680.9 504.8 685.2C513.2 686.8 524.1 688 535.7 688.6C547.9 689.2 559.4 689.1 568.1 688.2C572.5 687.8 575.8 687.2 578.3 686.5L576.3 725.9C576.2 726 576.2 726.2 576.1 726.3C573.4 727.9 559 730.1 533.6 728.8C522 728.2 512.8 727.1 505.9 726C505.9 728 505.7 730 505.5 732C513.4 733.3 523.1 734.3 533.3 734.8C545.5 735.4 557 735.3 565.7 734.4C575.7 733.4 580.4 731.8 581.6 728.9C582 728.4 582.2 727.8 582.2 727.2L588.8 596.4C589.1 595.4 588.6 594.5 587.7 593.9Z" fill="#1A1A1A"/>
<path d="M540.8 590.8C525.4 590 514.1 590.5 506.9 591.4V591.5C506.9 592.4 506.9 593.3 506.9 594.2C513.9 595.8 525.1 597.4 540.4 598.1C561.5 599.2 575 597.8 580.5 596.4C575.2 594.5 561.9 591.9 540.8 590.8Z" fill="white"/>
<path d="M678.7 602.4L670.6 733.2C670.6 733.2 649.5 739.9 624.8 737.4C600.1 734.9 580.2 727.6 580.2 727.6L586.1 626.1L588.2 597.2L678.7 602.4Z" fill="#009B72"/>
<path d="M681.7 602.6C681.8 601.5 681.2 600.5 680.4 599.9C678.6 597.7 674.1 595.9 666.1 594.2C657.5 592.4 646.1 591 633.9 590.2C621.7 589.4 610.2 589.4 601.5 590.2C592 591 587.3 592.4 585.8 595.1C585.5 595.5 585.3 596 585.3 596.6L583.2 630.2L580 681.4L577.2 727.3C577.2 727.4 577.2 727.4 577.2 727.5C577.2 727.6 577.2 727.6 577.2 727.7C577 731.5 581.2 734 592.5 736.3C601.1 738.1 612.5 739.5 624.7 740.3C636.9 741.1 648.4 741.1 657.1 740.3C667.1 739.5 671.8 737.9 673 735C673.4 734.5 673.6 733.9 673.7 733.3L681.7 602.6ZM590.8 602.9C593.2 603.8 596.3 604.7 600.4 605.6C609 607.4 620.4 608.8 632.6 609.6C644.8 610.4 656.3 610.4 665 609.6C669.4 609.2 672.7 608.7 675.2 608L673.6 634.4C673.5 634.5 673.5 634.7 673.4 634.8C670.7 636.3 656.3 638.4 630.9 636.8C605.9 635.3 591.9 631.6 589.1 629.7L590.8 602.9ZM624.9 734.3C599.9 732.8 585.9 729.1 583.1 727.2L585.6 687.4C588 688.3 591.1 689.2 595.2 690.1C603.8 691.9 615.2 693.3 627.4 694.1C639.6 694.9 651.1 694.9 659.8 694.1C664.2 693.7 667.5 693.2 670 692.5L667.6 731.9C667.5 732 667.5 732.2 667.4 732.3C664.8 733.9 650.4 735.9 624.9 734.3Z" fill="#1A1A1A"/>
<path d="M633 603.6C611.9 602.3 598.6 599.5 593.3 597.5C598.8 596.2 612.3 595 633.4 596.3C654.5 597.6 667.8 600.4 673.1 602.4C667.6 603.7 654.1 604.9 633 603.6Z" fill="white"/>
<path d="M769 608.7L760.901 739.5C760.901 739.5 739.8 746.2 715.1 743.7C690.4 741.2 670.5 733.9 670.5 733.9L676.401 632.4L678.5 603.5L769 608.7Z" fill="#009B72"/>
<path d="M772 608.9C772.1 607.8 771.5 606.8 770.7 606.2C768.9 604 764.4 602.2 756.4 600.5C747.8 598.7 736.4 597.3 724.2 596.5C712 595.7 700.5 595.7 691.8 596.5C682.3 597.3 677.6 598.7 676.1 601.4C675.8 601.8 675.6 602.3 675.6 602.9L673.5 636.5L670.3 687.7L667.5 733.6C667.5 733.7 667.5 733.7 667.5 733.8C667.5 733.9 667.5 733.9 667.5 734C667.3 737.8 671.5 740.3 682.8 742.6C691.4 744.4 702.8 745.8 715 746.6C727.2 747.4 738.7 747.4 747.4 746.6C757.4 745.8 762.1 744.2 763.3 741.3C763.7 740.8 763.9 740.2 764 739.6L772 608.9ZM681.2 609.2C683.6 610.1 686.7 611 690.8 611.9C699.4 613.7 710.8 615.1 723 615.9C735.2 616.7 746.7 616.7 755.4 615.9C759.8 615.5 763.1 615 765.6 614.3L764 640.7C763.9 640.8 763.9 641 763.8 641.1C761.1 642.6 746.7 644.7 721.3 643.1C696.3 641.6 682.3 637.9 679.5 636L681.2 609.2ZM715.3 740.7C690.3 739.2 676.3 735.5 673.5 733.6L676 693.8C678.4 694.7 681.5 695.6 685.6 696.5C694.2 698.3 705.6 699.7 717.8 700.5C730 701.3 741.5 701.3 750.2 700.5C754.6 700.1 757.9 699.6 760.4 698.9L758 738.3C757.9 738.4 757.9 738.6 757.8 738.7C755.1 740.2 740.7 742.2 715.3 740.7Z" fill="#1A1A1A"/>
<path d="M723.4 609.9C702.3 608.6 689 605.8 683.7 603.8C689.2 602.5 702.7 601.3 723.8 602.6C744.9 603.9 758.2 606.7 763.5 608.7C758 610 744.5 611.2 723.4 609.9Z" fill="white"/>
<path d="M853.6 680.1C854.1 658.3 852.4 636.2 854.5 614.5L768.9 609.5L766.8 638.4L760.9 739.9C760.9 739.9 780.8 747.1 805.5 749.7C829 752.1 849.2 746.2 851.2 745.6C851.2 723.7 853.1 701.9 853.6 680.1Z" fill="#009B72"/>
<path d="M853.6 680.1C853.9 669.3 853.6 658.4 853.4 647.5C849.4 649 835.3 650.6 811.6 649.2C786.6 647.7 772.6 644 769.8 642.1L771.5 615.3C773.9 616.2 777 617.1 781.1 618C789.7 619.8 801.1 621.2 813.3 622C825.5 622.8 837 622.8 845.7 622C849 621.7 851.7 621.4 853.9 620.9C854.2 616.9 854.5 612.9 855 608.9C852.8 608.1 850 607.4 846.6 606.7C838 604.9 826.6 603.5 814.4 602.7C802.2 601.9 790.7 601.9 782 602.7C772.5 603.5 767.8 604.9 766.3 607.6C766 608 765.8 608.5 765.8 609.1L763.7 642.7L760.5 693.9L757.7 739.8C757.7 739.9 757.7 739.9 757.7 740C757.7 740.1 757.7 740.1 757.7 740.2C757.5 744 761.7 746.5 773 748.8C781.6 750.6 793 752 805.2 752.8C817.4 753.6 828.9 753.6 837.6 752.8C844.2 752.2 848.5 751.4 851 750C850.9 726.6 853 703.3 853.6 680.1ZM848.3 744.2C848.2 744.3 848.2 744.5 848.1 744.6C845.4 746.1 831 748.2 805.6 746.6C780.6 745.1 766.6 741.4 763.8 739.5L766.3 699.7C768.7 700.6 771.8 701.5 775.9 702.4C784.5 704.2 795.9 705.6 808.1 706.4C820.3 707.2 831.8 707.2 840.5 706.4C844.9 706 848.2 705.5 850.7 704.8L848.3 744.2Z" fill="#1A1A1A"/>
<path d="M813.7 615.9C792.6 614.6 779.3 611.8 774 609.8C779.5 608.5 793 607.3 814.1 608.6C835.2 609.9 848.5 612.7 853.8 614.7C848.3 616 834.8 617.2 813.7 615.9Z" fill="white"/>
<path d="M505.3 763.7C503.7 779.5 503.5 795.7 505.2 811.3C506.2 820.9 505.7 830.2 505.4 839.8C505.2 848.4 505.9 856.9 505.7 865.5C507.5 865.7 509.4 866 511.2 866.3C511.6 866.3 514.5 866.6 514.8 866.6C522.5 867.2 530.2 867.7 537.9 868.2C551.7 869.1 565.4 869.3 579 871.3L584.2 767.3L505.3 763.7Z" fill="#009B72"/>
<path d="M585.7 764.9C583.9 762.7 579.4 761 571.3 759.4C562.7 757.7 551.3 756.4 539.1 755.8C526.9 755.2 515.4 755.3 506.7 756.2C506.5 756.2 506.3 756.2 506.2 756.3C505.6 761.3 505 766.3 504.7 771.3C505.1 771.4 505.5 771.5 506 771.6C514.6 773.3 526 774.6 538.2 775.2C550.4 775.8 561.9 775.7 570.6 774.8C575 774.4 578.3 773.8 580.8 773.1L579.5 799.5C579.4 799.6 579.4 799.8 579.3 799.9C576.6 801.5 562.2 803.7 536.8 802.4C522.2 801.7 511.3 800.2 504.2 798.7C504.4 803 504.7 807.2 505.1 811.4C506.1 821 505.6 830.3 505.3 839.9C505.2 845.5 505.4 851.2 505.5 856.8C513.5 858.1 523.4 859.2 533.8 859.7C546 860.3 557.5 860.2 566.2 859.3C570.6 858.9 573.9 858.3 576.4 857.6L575.7 871C577.7 871.3 579.7 871.6 581.7 871.9L586.9 767.6C587.1 766.4 586.6 765.5 585.7 764.9Z" fill="#1A1A1A"/>
<path d="M538.8 761.8C523.7 761 512.6 761.5 505.4 762.3C505.3 763.3 505.2 764.2 505.1 765.2C512.1 766.8 523.3 768.3 538.4 769.1C559.5 770.2 573 768.8 578.5 767.4C573.2 765.5 559.9 762.9 538.8 761.8Z" fill="white"/>
<path d="M586.2 768.1L584.1 797L579.7 871.5C582.5 871.9 585.4 872.5 588.2 873.1C590.3 873.6 592.2 874.4 593.9 875.5C619.4 876.1 644.7 879 670 881.2L676.7 773.3L586.2 768.1Z" fill="#009B72"/>
<path d="M678.3 770.9C676.5 768.7 672 766.9 664 765.2C655.4 763.4 644 762 631.8 761.2C619.6 760.4 608.1 760.4 599.4 761.2C589.9 762 585.2 763.4 583.7 766.1C583.4 766.5 583.2 767 583.2 767.6L581.1 801.2L577.9 852.4L576.7 871.1C578.7 871.4 580.7 871.7 582.7 872L583.5 858.3C585.9 859.2 589 860.1 593.1 861C601.7 862.8 613.1 864.2 625.3 865C637.5 865.8 649 865.8 657.7 865C662.1 864.6 665.4 864.1 667.9 863.4L667 881C669 881.2 671 881.4 673 881.5L679.7 773.5C679.7 772.5 679.2 771.5 678.3 770.9ZM671.7 805.4C671.6 805.5 671.6 805.7 671.5 805.8C668.8 807.3 654.4 809.4 629 807.8C604 806.3 590 802.6 587.2 800.7L588.9 773.9C591.3 774.8 594.4 775.7 598.5 776.6C607.1 778.4 618.5 779.8 630.7 780.6C642.9 781.4 654.4 781.4 663.1 780.6C667.5 780.2 670.8 779.7 673.3 779L671.7 805.4Z" fill="#1A1A1A"/>
<path d="M631 774.6C609.9 773.3 596.6 770.5 591.3 768.5C596.8 767.2 610.3 766 631.4 767.3C652.5 768.6 665.8 771.4 671.1 773.4C665.6 774.7 652.1 775.9 631 774.6Z" fill="white"/>
<path d="M676.5 774.5L674.4 803.4L669.8 881.3C686.9 882.8 704 884.1 721.2 884.1C724.2 884.1 727 884.8 729.4 885.9C739.7 886.8 750 887.7 760.2 888.5L766.9 779.7L676.5 774.5Z" fill="#009B72"/>
<path d="M768.7 777.2C766.9 775 762.4 773.2 754.4 771.5C745.8 769.7 734.4 768.3 722.2 767.5C710 766.7 698.5 766.7 689.8 767.5C680.3 768.3 675.6 769.7 674.1 772.4C673.8 772.8 673.6 773.3 673.6 773.9L671.5 807.5L668.3 858.7L666.9 880.9C668.9 881.1 670.9 881.3 672.9 881.4L673.9 864.6C676.3 865.5 679.4 866.4 683.5 867.3C692.1 869.1 703.5 870.5 715.7 871.3C727.9 872.1 739.4 872.1 748.1 871.3C752.5 870.9 755.8 870.4 758.3 869.7L757.2 888.2C759.2 888.4 761.2 888.5 763.2 888.7L769.9 779.8C770.1 778.8 769.5 777.8 768.7 777.2ZM762 811.8C761.9 811.9 761.9 812.1 761.8 812.2C759.1 813.7 744.7 815.8 719.3 814.2C694.3 812.7 680.3 809 677.5 807.1L679.2 780.3C681.6 781.2 684.7 782.1 688.8 783C697.4 784.8 708.8 786.2 721 787C733.2 787.8 744.7 787.8 753.4 787C757.8 786.6 761.1 786.1 763.6 785.4L762 811.8Z" fill="#1A1A1A"/>
<path d="M721.4 780.9C700.3 779.6 687 776.8 681.7 774.8C687.2 773.5 700.7 772.3 721.8 773.6C742.9 774.9 756.2 777.7 761.5 779.7C756 781 742.5 782.2 721.4 780.9Z" fill="white"/>
<path d="M786.601 890.7C797.001 891.5 807.401 892.3 817.801 893.4C827.201 894.4 836.501 895.8 845.901 895.8C846.101 890 846.401 884.2 846.101 878.3C845.501 866.3 846.401 855.1 848.101 843.1C848.301 841.6 848.501 840 848.801 838.5C848.801 838.3 848.901 838.1 848.901 837.9C849.201 835.2 849.501 832.5 849.701 829.8C850.101 824.5 850.001 819.2 849.801 813.9C849.501 804.3 849.001 794.8 849.601 785.3L766.901 780.5L764.801 809.4L760.201 888.5C768.901 889.2 777.801 889.9 786.601 890.7Z" fill="#009B72"/>
<path d="M763.1 888.8L764.201 870.8C766.601 871.7 769.7 872.6 773.8 873.5C782.4 875.3 793.8 876.7 806 877.5C818.2 878.3 829.701 878.3 838.401 877.5C841.301 877.3 843.8 876.9 845.8 876.6C845.4 865.3 846.301 854.6 847.901 843.2C848.101 841.7 848.3 840.1 848.6 838.6C848.6 838.4 848.701 838.2 848.701 838C849.001 835.3 849.3 832.6 849.5 829.9C849.7 826.3 849.8 822.6 849.701 819C844.201 820.3 830.7 821.5 809.5 820.2C784.5 818.7 770.501 815 767.701 813.1L769.401 786.3C771.801 787.2 774.9 788.1 779 789C787.6 790.8 799 792.2 811.201 793C823.4 793.8 834.9 793.8 843.6 793C845.7 792.8 847.5 792.6 849.1 792.4C849.2 788.9 849.3 785.4 849.701 781.9C849.8 780.9 850.001 780 850.201 779C848.601 778.5 846.7 778.1 844.6 777.6C836 775.8 824.601 774.4 812.401 773.6C800.201 772.8 788.7 772.8 780 773.6C770.5 774.4 765.8 775.8 764.3 778.5C764 778.9 763.8 779.4 763.8 780L761.701 813.6L758.5 864.8L757 888.3C759.2 888.5 761.2 888.6 763.1 888.8Z" fill="#1A1A1A"/>
<path d="M849.601 785C843.301 783.1 830.801 780.8 812.201 779.6C791.101 778.3 777.601 779.5 772.101 780.8C777.401 782.8 790.701 785.6 811.801 786.9C830.401 788 843.101 787.3 849.601 786.2C849.501 785.8 849.601 785.4 849.601 785Z" fill="white"/>
<path d="M850.3 746.2C850.2 746.2 850.2 746.2 850.1 746.2L506.1 723.2C504.4 723.1 503.2 721.7 503.3 720C503.4 718.3 504.8 717.1 506.5 717.2L850.5 740.2C852.2 740.3 853.4 741.7 853.3 743.4C853.2 745 851.9 746.2 850.3 746.2Z" fill="#1A1A1A"/>
<path d="M962.3 1008.7C961.4 1002.5 960.3 995.6 959.1 988.3C951.4 940.1 939.7 867.2 942.3 764.3C943.3 722.7 944.9 683.3 946.2 648.6C948.8 581.6 950.5 537.3 947.1 526.4C941.5 508.4 934.3 497.3 882.5 494.3C882.5 494.3 882.5 494.3 882.4 494.3C852.1 492.6 746.6 486 661.8 480.7C601.2 476.9 548.9 473.7 541.3 473.3C526.6 472.5 513.8 475.2 503.2 481.5C486.6 491.3 476.2 509.2 472.1 534.9C462.7 594.6 457.9 705.7 456.6 761.9C454.4 856.2 463.8 1018 487.3 1076.6C498.8 1103.9 512.8 1119.2 531.5 1124.9C538.1 1126.9 545.2 1127.7 552.7 1127.7C565 1127.7 578.3 1125.6 592.1 1123.3C639 1115.7 874 1085.8 906.9 1082.8C926.4 1081 941.9 1073.5 951.6 1061.2C962 1048.2 965.5 1030.6 962.3 1008.7ZM878.4 500L869.2 531.8C868 536 863.9 538.8 859.6 538.5L552.2 516C547.2 515.6 543.4 511.5 543.6 506.5L544.2 479.3C558.1 480.1 606.4 483.1 661.5 486.6C743.1 491.7 843.9 497.9 878.4 500ZM947.1 1057.5C936.1 1071.5 919 1075.7 906.5 1076.9C873.5 1079.9 638.3 1109.9 591.3 1117.4C577.1 1119.7 564.4 1121.7 552.9 1121.7C528 1121.7 509 1112 493 1074.2C470.1 1017.1 460.5 853.3 462.7 761.9C464 705.8 468.8 595 478.2 535.7C482.3 509.6 495.8 479.1 536.3 479.1C536.9 479.1 537.5 479.1 538.1 479.1L537.4 506.4C537.2 514.6 543.4 521.5 551.6 522L858.9 544.4C859.3 544.4 859.6 544.4 860 544.4C866.7 544.4 872.8 539.9 874.7 533.3L884.3 500.2C933.5 503.4 936.9 514.2 941.2 528C944.3 537.9 942.4 586.6 940 648.2C938.6 683 937.1 722.3 936.1 764C933.5 867.5 945.2 940.7 952.9 989.1C954.1 996.4 955.2 1003.3 956.1 1009.5C959.3 1029.7 956.2 1045.8 947.1 1057.5Z" fill="#1A1A1A"/>
<path d="M796.408 923.087L576.337 952.325L590.166 1056.41L810.236 1027.17L796.408 923.087Z" fill="#1A1A1A"/>
<path d="M590.2 1059.4C589.5 1059.4 588.9 1059.2 588.4 1058.8C587.8 1058.3 587.4 1057.6 587.2 1056.8L573.4 952.7C573.2 951.1 574.3 949.5 576 949.3L796 920C796.8 919.9 797.6 920.1 798.2 920.6C798.8 921.1 799.2 921.8 799.4 922.6L813.2 1026.7C813.4 1028.3 812.3 1029.9 810.6 1030.1L590.5 1059.3C590.5 1059.3 590.3 1059.4 590.2 1059.4ZM579.7 954.8L592.7 1052.9L806.8 1024.4L793.8 926.3L579.7 954.8Z" fill="#1A1A1A"/>
<path d="M812.4 1025.1L775.8 986L799.3 924.1C799.9 922.6 799.1 920.8 797.6 920.2C796.1 919.6 794.3 920.4 793.7 921.9L770.2 983.9L625 1004L578.6 950.3C577.5 949 575.6 948.9 574.4 950C573.1 951.1 573 953 574.1 954.2L620 1007.4L587.7 1054.7C586.8 1056.1 587.1 1057.9 588.5 1058.9C589 1059.3 589.6 1059.4 590.2 1059.4C591.2 1059.4 592.1 1058.9 592.7 1058.1L625.6 1010L771.2 989.9L808.1 1029.2C808.7 1029.8 809.5 1030.1 810.3 1030.1C811 1030.1 811.8 1029.8 812.4 1029.3C813.5 1028.2 813.6 1026.3 812.4 1025.1Z" fill="white"/>
<path d="M139.1 1090.9C134.5 1097.7 131.8 1105.9 131.8 1114.7C131.8 1138.2 150.8 1157.2 174.3 1157.2C197.8 1157.2 216.8 1138.2 216.8 1114.7C216.8 1113 216.7 1111.4 216.5 1109.7C216.5 1109.7 205.3 1101.7 180.8 1097.2C156.3 1092.7 139.1 1090.9 139.1 1090.9Z" fill="#009B72"/>
<path d="M174.3 1157.2C197.8 1157.2 216.8 1138.2 216.8 1114.7C216.8 1113 216.7 1111.4 216.5 1109.7C216.5 1109.7 215.2 1108.8 212.5 1107.3C211.6 1109.3 210.6 1111.7 209.1 1114.5C204.4 1122.8 198 1130.2 190 1135.5C177.1 1144 159.7 1146.4 145.7 1139.7C142.9 1138.3 140 1136.6 137.1 1135.2C144.4 1148.4 158.3 1157.2 174.3 1157.2Z" fill="white"/>
<path d="M304.2 939.4C303.9 938.2 295 909.6 235 894.6C170.5 878.6 140.9 895.9 139.7 896.6C138.9 897.1 138.4 897.9 138.3 898.9L119.4 1088.9C119.2 1089.2 119.1 1089.5 119 1089.9C118.2 1093.4 121.5 1096.4 131.1 1100.5C129.6 1105 128.8 1109.8 128.8 1114.7C128.8 1118.3 129.2 1121.8 130 1125.2C127.3 1127.1 124.7 1129.3 122.3 1131.7C119.1 1135 116.3 1138.7 114 1143C111.8 1147.3 110.2 1152.2 109.7 1157.3C109.6 1158.6 109.6 1159.9 109.6 1161.1C109.6 1161.7 109.6 1162.4 109.7 1163L109.9 1164.9L110 1165.9L110.2 1166.8L110.6 1168.7C110.8 1170 111.2 1171.1 111.7 1172.3C113.4 1177 115.9 1181.2 118.9 1184.8C124.9 1192 132.2 1197 140 1200.6C141.1 1201.1 142.3 1200.9 143.3 1200.1C144.6 1199 144.7 1197.1 143.6 1195.8L143.5 1195.7C142.2 1194.1 140.8 1192.7 139.4 1191.2C138.1 1189.7 136.8 1188.2 135.5 1186.7C134.9 1185.9 134.3 1185.2 133.7 1184.4C133.1 1183.6 132.5 1182.9 132 1182.1C131 1180.5 129.8 1179.1 129 1177.5C128.6 1176.7 128 1176 127.7 1175.2L126.6 1172.8C126.4 1172.4 126.3 1172 126.1 1171.6L125.7 1170.4C125.6 1170 125.4 1169.6 125.3 1169.2L125 1168C124.2 1164.9 124 1161.8 124.4 1158.7C124.8 1155.6 125.8 1152.5 127.2 1149.5C128.6 1146.4 130.5 1143.4 132.6 1140.4C133.3 1139.4 134.1 1138.4 134.8 1137.4C142.7 1150.9 157.4 1160.1 174.1 1160.1C186.7 1160.1 198 1155 206.3 1146.7C206.9 1148.6 207.5 1150.4 207.9 1152.3C208.7 1155.7 209.3 1159 209.4 1162.1C209.6 1165.3 209.3 1168.3 208.5 1171.2C207 1177 203.2 1182.2 197.9 1186.9L196.9 1187.8L195.9 1188.6L193.8 1190.3C192.3 1191.4 190.8 1192.4 189.3 1193.5C187.7 1194.5 186.1 1195.5 184.5 1196.6C182.8 1197.6 181.2 1198.6 179.5 1199.7L179.3 1199.8C178.3 1200.4 177.8 1201.6 178 1202.8C178.3 1204.5 179.8 1205.6 181.5 1205.3C183.5 1205 185.6 1204.6 187.6 1204.2C189.6 1203.7 191.6 1203.1 193.6 1202.4C195.6 1201.7 197.6 1200.9 199.5 1200L202.4 1198.5L203.8 1197.7L205.2 1196.8L208 1195L210.7 1192.9C211.1 1192.5 211.6 1192.2 212 1191.8L213.2 1190.6C214 1189.8 214.9 1189 215.6 1188C218.7 1184.4 221.1 1180 222.6 1175.4C224.1 1170.7 224.5 1165.8 224.1 1161C223.6 1156.3 222.4 1151.8 220.7 1147.7C218.9 1143.6 216.7 1139.9 214 1136.5L213.9 1136.4C216.3 1132.1 218 1127.3 218.8 1122.3C222 1122.6 224.7 1122.8 226.9 1122.8C233 1122.8 235.9 1121.6 236.7 1119.1L303.7 941.1C304.3 940.6 304.4 940 304.2 939.4ZM133.3 1094.9C130.6 1093.8 128.5 1092.7 127.1 1091.9C128.9 1091.8 131.5 1091.9 134.8 1092.2C134.3 1093.1 133.8 1094 133.3 1094.9ZM174.3 1154.2C152.5 1154.2 134.8 1136.5 134.8 1114.7C134.8 1106.9 137.1 1099.3 141.4 1092.9C150.9 1094.1 163.7 1096.4 179.2 1100.2C193.2 1103.6 204.9 1107.2 213.6 1110.2C213.8 1111.7 213.9 1113.2 213.9 1114.7C213.8 1136.5 196.1 1154.2 174.3 1154.2ZM219.8 1116.5C219.8 1115.9 219.8 1115.3 219.8 1114.7C219.8 1114 219.8 1113.3 219.7 1112.6C224 1114.3 227.1 1115.8 229.1 1116.9C227 1117 223.8 1116.9 219.8 1116.5Z" fill="#1A1A1A"/>
<path d="M140 1086.6C141.6 1086.8 143.3 1087 145.1 1087.2L170.8 894.4C156 895.9 147.3 899.5 144.2 901L125.7 1086C129 1085.7 133.7 1085.9 140 1086.6Z" fill="white"/>
<path d="M179.8 1094.2L214.5 896.5C207.3 895.3 200.7 894.6 194.6 894.2L161.8 1090.2C167.6 1091.3 173.6 1092.7 179.8 1094.2Z" fill="white"/>
<path d="M479 513.2C477.9 513.3 452.6 515.7 416.7 531.4C383.6 545.9 335.2 575 291.9 631.3C273.5 655.3 257.7 681.3 244.4 706.9C244.2 707.1 244.1 707.4 244 707.6C226.3 741.7 212.9 774.9 203.5 801.5C185.6 852 177.8 889.9 177.7 890.2C177.4 891.8 178.4 893.4 180 893.7C180.2 893.7 180.4 893.8 180.6 893.8C182 893.8 183.2 892.8 183.5 891.4C183.6 890.7 190.9 856.3 207.2 809.1C207.7 809 222.6 805.8 241.1 809.5C265.9 814.4 285.1 828.6 298.3 851.7C285.7 887.1 277.4 914 277.3 914.3C276.8 915.9 277.7 917.6 279.3 918C279.6 918.1 279.9 918.1 280.2 918.1C281.5 918.1 282.7 917.3 283.1 916C283.6 914.4 331.8 758.1 375.7 697.9C417.1 641.1 462.7 642.1 463.1 642.1C464.8 642.2 466.2 640.9 466.2 639.2C466.3 637.5 465 636.1 463.3 636.1C462.5 636.1 454.9 635.8 443.2 639.1C443.5 605.3 431.4 581.4 421.1 567.3C412.9 556.1 404.6 549.1 400.3 545.9C406.8 542.4 413 539.5 418.7 536.9C453.8 521.5 479.1 519.1 479.4 519C481 518.9 482.3 517.4 482.1 515.7C482.2 514.3 480.7 513.1 479 513.2ZM301.1 844.4C283.7 816.8 259.7 806.9 242.2 803.5C227.7 800.7 215.4 801.7 209.6 802.6C219.5 774.8 232.4 743.2 248.8 711.4C253 711 265.4 710.2 279.9 714.9C303.5 722.6 320.8 740.5 331.3 768.1C323.6 785.7 315.6 805.5 307.3 827.6C305.1 833.3 303 839 301.1 844.4ZM370.9 694.4C359.8 709.7 347.6 731.8 334.7 760.5C320.6 728 298.4 714.6 281.8 709.2C269.4 705.2 258.5 704.8 252.2 705.1C265 681 279.8 657 296.8 634.9C300.5 630.1 304.2 625.6 307.9 621.2C315.4 622 355.9 629.2 376.7 686.9C374.7 689.3 372.8 691.8 370.9 694.4ZM437.3 641.2C421.9 646.7 401.5 658 381 681.7C368.6 649.6 350 633.4 336.3 625.3C326.4 619.5 317.8 617.1 312.4 616C340.5 584.3 369.8 563.2 394.5 549.2C398.7 552 438.7 580.3 437.3 641.2Z" fill="#1A1A1A"/>
<path d="M735.3 330.7C757.392 330.7 775.3 312.791 775.3 290.7C775.3 268.609 757.392 250.7 735.3 250.7C713.209 250.7 695.3 268.609 695.3 290.7C695.3 312.791 713.209 330.7 735.3 330.7Z" fill="white"/>
<path d="M735.3 247.7C711.6 247.7 692.3 267 692.3 290.7C692.3 314.4 711.6 333.7 735.3 333.7C759 333.7 778.3 314.4 778.3 290.7C778.3 267 759 247.7 735.3 247.7ZM698.3 290.7C698.3 270.3 714.9 253.7 735.3 253.7C755.6 253.7 772.1 270.1 772.3 290.4C765.4 284.7 756.5 281.2 746.8 281.2C726.9 281.2 710.3 295.8 707.3 314.9C701.7 308.4 698.3 299.9 698.3 290.7Z" fill="#1A1A1A"/>
<path d="M629.5 339.3C622.7 340.4 616.3 335.7 615.2 328.9L608.6 285.9C607.5 279.1 612.2 272.7 619 271.6C625.8 270.5 632.2 275.2 633.3 282L639.9 325C641 331.8 636.3 338.2 629.5 339.3Z" fill="#1A1A1A"/>
<path d="M625.8 452.2C625.1 452.2 624.4 452 623.9 451.5C593.1 425.8 577.5 398 577.4 368.8C577.3 324 613.8 292.7 615.4 291.4C616.7 290.3 618.6 290.5 619.6 291.8C620.7 293.1 620.5 295 619.2 296C618.8 296.3 583.2 326.8 583.3 368.8C583.4 396.1 598.3 422.3 627.7 446.9C629 448 629.1 449.9 628.1 451.1C627.5 451.8 626.7 452.2 625.8 452.2Z" fill="#1A1A1A"/>
<path d="M625.8 458.7C631.047 458.7 635.3 454.447 635.3 449.2C635.3 443.953 631.047 439.7 625.8 439.7C620.554 439.7 616.3 443.953 616.3 449.2C616.3 454.447 620.554 458.7 625.8 458.7Z" fill="#1A1A1A"/>
<path d="M700.8 383.2L748.8 359.2C748.8 359.2 755.8 384.2 737.3 393.2C722.6 400.3 700.8 383.2 700.8 383.2Z" fill="white"/>
<path d="M729.2 397.9C714.8 397.9 699.7 386.1 698.9 385.5C698.1 384.9 697.7 383.9 697.8 382.8C697.9 381.8 698.5 380.9 699.4 380.4L747.4 356.4C748.2 356 749.1 356 750 356.3C750.8 356.7 751.4 357.4 751.7 358.2C754.4 367.7 755 387.7 738.6 395.7C735.7 397.3 732.5 397.9 729.2 397.9ZM706.7 383.6C713.3 387.9 726.7 395 736 390.5C748.1 384.6 747.6 370.4 746.6 363.6L706.7 383.6Z" fill="#1A1A1A"/>
<path d="M677.8 487.7C677.7 487.7 677.6 487.7 677.5 487.7C675.9 487.5 674.7 486.1 674.8 484.4L681.6 419.6C681.8 418 683.2 416.8 684.9 416.9C686.5 417.1 687.7 418.5 687.6 420.2L680.8 485C680.6 486.5 679.3 487.7 677.8 487.7Z" fill="#1A1A1A"/>
<path d="M764.3 491.7C762.7 491.7 761.4 490.5 761.3 488.9L757 420C756.9 418.3 758.2 416.9 759.8 416.8C761.4 416.7 762.9 418 763 419.6L767.3 488.4C767.4 490.1 766.1 491.5 764.5 491.6C764.4 491.7 764.4 491.7 764.3 491.7Z" fill="#1A1A1A"/>
<path d="M714.1 233.7L714.7 233.2L715.2 232.7C715.5 232.4 715.9 232.1 716.2 231.9C716.9 231.3 717.6 230.9 718.4 230.4C719.9 229.5 721.5 228.8 723.1 228.2C726.4 227 729.9 226.3 733.4 226.3C734.3 226.2 735.1 226.3 736 226.4C736.9 226.5 737.7 226.5 738.6 226.7C739.5 226.8 740.3 227 741.2 227.2C742 227.4 742.9 227.7 743.7 227.9C745.4 228.4 746.9 229.1 748.4 229.8C749.9 230.6 751.3 231.5 752.7 232.5C754 233.5 754.3 235.4 753.3 236.8C752.6 237.7 751.6 238.1 750.6 238H750.2C748.7 237.9 747.3 237.5 745.9 237.3C744.5 237.2 743.1 236.8 741.7 236.7L739.7 236.5C739 236.5 738.3 236.4 737.7 236.4C737 236.3 736.4 236.3 735.7 236.3C735 236.3 734.4 236.2 733.7 236.3C731 236.3 728.4 236.6 725.7 237C724.4 237.2 723 237.5 721.7 237.8C721 238 720.3 238.1 719.7 238.3C719.4 238.4 719 238.5 718.7 238.6L718.2 238.7C718 238.7 717.9 238.8 717.8 238.8L716.1 238.7C714.6 238.6 713.4 237.3 713.5 235.7C713.3 234.8 713.6 234.2 714.1 233.7Z" fill="#1A1A1A"/>
<path d="M664.3 365C675.788 365 685.1 355.687 685.1 344.2C685.1 332.712 675.788 323.4 664.3 323.4C652.812 323.4 643.5 332.712 643.5 344.2C643.5 355.687 652.812 365 664.3 365Z" fill="white"/>
<path d="M786.3 367C797.788 367 807.1 357.687 807.1 346.2C807.1 334.712 797.788 325.4 786.3 325.4C774.812 325.4 765.5 334.712 765.5 346.2C765.5 357.687 774.812 367 786.3 367Z" fill="white"/>
<path d="M803.2 430.2C801.9 430.2 800.7 429.3 800.3 428.1C796.2 425.1 767.8 421.1 722.9 421.1C678 421.1 649.6 425.1 645.5 428.1C645.1 429.3 644 430.2 642.6 430.2C641 430.2 639.6 428.9 639.6 427.2C639.6 421.2 652.5 419.3 665.7 417.8C681 416.1 701.2 415.1 722.8 415.1C744.4 415.1 764.6 416.1 779.9 417.8C804 420.6 806 424 806 427.2C806.2 428.8 804.8 430.2 803.2 430.2Z" fill="#1A1A1A"/>
<path d="M857 155C852.6 154.7 848.8 158.1 848.5 162.5C848.3 165.4 849.7 168.1 851.9 169.6C851.8 169.8 851.7 170.1 851.6 170.3L840.1 226.5C831.3 219.8 808.3 205.5 765.8 199.2C769.6 193.3 770.5 184 765.5 173.7C761.3 165.2 752.2 156.6 739.5 158.3C736.2 150.3 731.3 143.5 725.5 138.9C713.4 129.3 698.9 129.3 685.7 139C675.1 146.8 669.5 156 668.8 166.4C667.9 180.2 676.3 192.5 681.5 198.7C645 203.6 623 214.2 614.5 219.1L606.5 161C606.5 160.7 606.4 160.5 606.3 160.3C608.6 158.9 610.2 156.4 610.2 153.4C610.2 149 606.6 145.4 602.2 145.4C597.8 145.4 594.2 149 594.2 153.4C594.2 157.2 596.9 160.5 600.5 161.2C600.5 161.4 600.5 161.6 600.5 161.8L609.2 224.5L639.2 426.5C639.3 426.9 639.4 427.3 639.6 427.6C639.9 430.7 642.9 433.9 665.7 436.5C681 438.2 701.2 439.2 722.8 439.2C744.4 439.2 764.6 438.2 779.9 436.5C793.1 435 806 433 806 427.1C806 426.8 806 426.5 805.9 426.2C806 426 806 425.9 806 425.7L845 232.7C845.1 232.3 845.1 231.9 845 231.6L857.4 171.4C857.4 171.2 857.5 171 857.5 170.8C861.2 170.3 864.1 167.2 864.3 163.4C864.8 159.1 861.4 155.3 857 155ZM760.2 176.4C764.5 185.1 763.8 194.4 758.7 198.3C753.2 197.6 747.3 197.1 741.2 196.8C744.9 185.8 744.6 174.4 741.7 164.3C750.6 163.6 757 169.8 760.2 176.4ZM722.6 196.2C721.5 192.5 719.5 183.5 723.2 175.9C725.5 171.1 729.8 167.7 736 165.5C738.8 175 739 186 735.1 196.4C730.7 196.3 726.6 196.2 722.6 196.2ZM675 166.8C675.5 158.3 680.4 150.5 689.4 143.9C704.2 133 716.1 139.1 721.9 143.7C726.8 147.5 730.9 153.2 733.8 159.8C726.1 162.5 720.7 167 717.7 173.2C713.6 181.6 715 191 716.3 196.1C706.4 196.3 697.3 196.8 688.9 197.8C685.8 194.6 674.1 181.4 675 166.8ZM800.9 421.8C797.2 420.4 790.8 419 780 417.8C764.7 416.1 744.5 415.1 722.9 415.1C701.3 415.1 681.1 416.1 665.8 417.8C657.6 418.7 649.6 419.8 644.6 422L615.5 225.8C623.5 220.9 663.3 199.4 736.8 202.7C802.2 205.6 832.7 228.2 838.9 233.4C838.9 233.5 838.9 233.5 838.9 233.6L800.9 421.8Z" fill="#1A1A1A"/>
<path d="M757.1 421.9C747.2 421.4 735.7 421 723 421C709.6 421 697.7 421.4 687.5 421.9L681.2 481.8C707.5 483.4 735.1 485.1 761.3 486.8L757.1 421.9Z" fill="white"/>
<path d="M762.1 434.4C762.1 434.4 756.6 453.8 722.6 450.2C681.7 445.9 681.6 466.2 681.6 475.4L684.7 419.8L732.6 418.1L760 419.8L762.1 434.4Z" fill="#1A1A1A"/>
<path d="M678.9 1105.2C677.3 1104.9 675.7 1105.9 675.4 1107.5L652.3 1220.3C622.6 1229.5 598.2 1226.4 582.9 1222.2C580.6 1221.6 578.2 1220.8 575.9 1220C569.4 1217.7 564.5 1215.4 561.6 1213.7C560.2 1213 559.3 1212.4 558.7 1212L576.3 1125.6C576.6 1124 575.6 1122.4 574 1122.1C572.4 1121.8 570.8 1122.8 570.5 1124.4L476.5 1586C474.1 1589.7 458.1 1614.3 442.3 1638.9C407.3 1693.4 407.3 1694.7 407.3 1696.1C407.3 1699.4 413.6 1705.1 415.5 1706.8C423.8 1714.1 445.6 1729.3 482.1 1729.3C487.9 1729.3 494.1 1728.9 500.7 1728.1C562.7 1720 595.2 1683.6 596.6 1682.1C597.2 1681.4 597.5 1680.5 597.3 1679.6L582.4 1592.2L681.3 1108.8C681.6 1107.2 680.5 1105.6 678.9 1105.2ZM576.7 1590.2C532.7 1612.2 491.5 1590.9 482.7 1585.8L493.3 1533.9C501 1538.3 520.7 1547.5 548.5 1547.5C559.9 1547.5 572.7 1546 586.6 1541.9L576.7 1590.2ZM587.9 1535.2C587.7 1535.2 587.6 1535.2 587.4 1535.3C537.7 1550.7 502 1532.1 494.5 1527.6L506.1 1470.7C513.7 1475 533.4 1484.4 561.5 1484.4C572.9 1484.4 585.6 1482.9 599.5 1478.9L587.9 1535.2ZM600.8 1472.2C600.7 1472.2 600.6 1472.2 600.4 1472.3C550.4 1487.8 514.5 1468.8 507.3 1464.5L518.9 1407.6C526.4 1411.9 546.2 1421.4 574.4 1421.4C585.7 1421.4 598.4 1419.9 612.3 1415.9L600.8 1472.2ZM613.7 1409.3C613.6 1409.3 613.5 1409.3 613.5 1409.3C563.1 1425 527 1405.5 520.2 1401.4L531.8 1344.5C539.2 1348.7 559 1358.3 587.5 1358.3C598.8 1358.3 611.5 1356.8 625.2 1352.8L613.7 1409.3ZM626.5 1346.3H626.4C575.5 1362.1 539.3 1342.2 533 1338.3L544.6 1281.5C551.8 1285.7 571.8 1295.4 600.5 1295.4C611.8 1295.4 624.4 1293.9 638.1 1290L626.5 1346.3ZM639.4 1283.3C588.1 1299.2 551.7 1278.8 545.8 1275.2L557.4 1218.3C557.8 1218.5 558.2 1218.8 558.7 1219C561.8 1220.7 567 1223.3 573.9 1225.7C576.3 1226.5 578.8 1227.3 581.2 1228C589.6 1230.3 600.6 1232.3 613.6 1232.3C624.7 1232.3 637.2 1230.9 650.9 1227L639.4 1283.3Z" fill="#1A1A1A"/>
<path d="M582.1 1228.2C581.8 1228.2 581.6 1228.2 581.3 1228.1C578.8 1227.4 576.4 1226.7 574 1225.8C567.1 1223.4 561.9 1220.9 558.8 1219.1C557.3 1218.3 556.8 1216.5 557.6 1215C558.4 1213.5 560.2 1213 561.7 1213.8C564.6 1215.4 569.5 1217.8 576 1220.1C578.3 1220.9 580.6 1221.6 583 1222.3C584.6 1222.7 585.5 1224.4 585.1 1226C584.6 1227.3 583.4 1228.2 582.1 1228.2Z" fill="white"/>
<path d="M626.8 1169.4C600.9 1169.4 582 1161.5 573.6 1157.1C572.1 1156.3 571.5 1154.5 572.3 1153.1C573.1 1151.6 574.9 1151 576.3 1151.8C587.5 1157.6 617.8 1169.8 658.7 1159.2C660.3 1158.8 661.9 1159.8 662.4 1161.4C662.9 1163 661.8 1164.6 660.2 1165.1C648.2 1168.1 637 1169.4 626.8 1169.4Z" fill="white"/>
<path d="M1362.3 761.5C1360.7 761.2 1359.1 762.4 1358.9 764C1355.6 785 1348.4 807.7 1338.7 829.3C1282.9 813.6 1250.9 791 1245.9 787.3C1253.5 770.5 1258.5 753 1261.4 740.4C1261.8 738.8 1260.8 737.2 1259.2 736.8C1257.6 736.4 1256 737.4 1255.6 739C1252.3 753.2 1246.4 773.9 1236.8 792.2C1225.3 814.3 1211.7 826.7 1196.6 829C1185.6 830.7 1175.6 828.1 1167 821.5C1140.2 800.7 1133 746.5 1131.4 730.4C1130.2 717.9 1125.6 684.9 1109.9 648.2C1094.2 611.7 1072.8 583.9 1046.3 565.6C1003.4 536.1 948.3 532.5 946 532.4C944.3 532.3 942.9 533.6 942.8 535.2C942.7 536.9 944 538.3 945.6 538.4C946.1 538.4 984.3 540.9 1021 558.1C1019.2 578.7 1011 627.3 973.3 657.4C957.7 650.1 944.6 649.1 944 649.1C942.3 649 940.9 650.2 940.8 651.9C940.7 653.6 941.9 655 943.6 655.1C943.7 655.1 956.5 656.1 971.2 663.1C971.7 663.7 972.5 664.1 973.3 664.1C973.5 664.2 973.7 664.3 973.9 664.4C995 675.3 1008.8 692.9 1014.9 716.9C1017.5 727.1 1020 738.8 1022.6 751.2C1035.2 810.7 1052.6 892.2 1112.1 932.7C1134.3 947.8 1158.9 955.4 1184.4 955.4C1195.3 955.4 1206.4 954 1217.6 951.2C1244.9 944.3 1273.2 928.6 1293.1 909C1326.8 876 1356.9 815.5 1364.9 765C1365.1 763.3 1364 761.8 1362.3 761.5ZM1142.2 798.3C1141 798.7 1140.1 799.5 1137.7 801.9C1128.8 810.5 1101.8 836.6 1051.4 837.2C1042.6 813.1 1036.6 788.1 1031.5 764.8C1038.4 765.9 1044.9 766.4 1051.1 766.4C1090.5 766.4 1116.1 746.8 1126 737.5C1127.4 748.9 1130.3 765.9 1135.9 782.6C1137.9 788.3 1140 793.5 1142.2 798.3ZM979 660.5C1015.4 630 1024.4 583.2 1026.6 561.1C1032.1 563.9 1037.5 567.1 1042.7 570.7C1065.6 586.5 1084.6 609.8 1099.3 639.9C1091.3 653 1062.1 694.5 1013.4 696.2C1004.2 677.9 990.6 667 979 660.5ZM1020.6 715.4C1019.4 710.6 1017.9 706.1 1016.1 702C1062.7 699.1 1091.8 662.3 1102.3 646.3C1103 647.7 1103.6 649.2 1104.2 650.7C1119.1 685.5 1123.8 716.8 1125.2 729.9C1121.8 733.7 1112.2 742.7 1097.3 749.8C1076.6 759.7 1054 762.6 1030.2 758.4C1029.6 755.5 1029 752.7 1028.4 749.9C1025.7 737.5 1023.2 725.8 1020.6 715.4ZM1055.1 846.9C1054.6 845.6 1054.1 844.4 1053.6 843.1C1105 841.8 1132.6 815.1 1141.9 806.2C1142.9 805.3 1143.9 804.2 1144.3 803.9C1144.5 803.8 1144.7 803.7 1144.8 803.6C1150.1 813.4 1156.2 821 1163.1 826.4C1165.7 828.4 1168.5 830.1 1171.3 831.5C1171.3 831.6 1171.3 831.7 1171.2 831.7C1171.1 832.3 1162.4 888.4 1106.5 921.2C1085.3 904.1 1068.4 879.7 1055.1 846.9ZM1216.1 945.4C1179.9 954.5 1146 948.6 1115.3 927.7C1114.1 926.9 1112.9 926.1 1111.8 925.2C1140.9 907.4 1157.1 883.7 1165.5 866.8C1173.6 850.6 1176.4 837.7 1177 833.8C1181.1 835.1 1185.4 835.8 1189.9 835.8C1192.3 835.8 1194.8 835.6 1197.4 835.2C1202.2 834.5 1206.8 832.9 1211.3 830.5C1218.3 837.7 1257.6 880.9 1244.4 934.5C1244.3 934.7 1244.3 935 1244.3 935.2C1235.1 939.5 1225.5 943 1216.1 945.4ZM1288.9 904.7C1278.3 915.1 1265.2 924.4 1251.2 931.8C1257.4 901.1 1247.7 874.3 1238.1 856.9C1229.9 841.9 1220.6 831.5 1216.5 827.2C1225.9 820.5 1234.5 809.8 1242.1 795.2C1242.5 794.4 1242.9 793.7 1243.2 792.9C1250.8 798.4 1282.1 819.6 1336.1 834.9C1323.3 862.2 1306.6 887.4 1288.9 904.7Z" fill="#1A1A1A"/>
<path d="M1051.1 1673.9L992.2 1559.2L982.3 1501.6C982.3 1501.2 982.2 1500.8 982.1 1500.4L972.3 1443.2C972.4 1442.6 972.3 1441.9 972 1441.4L909.8 1079.3C909.5 1077.7 908 1076.6 906.3 1076.9C904.7 1077.2 903.6 1078.7 903.9 1080.4L905.6 1090.4C904.8 1091.1 904 1091.8 903.1 1092.4C892.7 1100.6 881.2 1106.6 868.9 1110.1C845.3 1116.9 824.6 1113 816.7 1111C815.1 1110.6 814 1110.3 813.2 1110L810.2 1091.7C809.9 1090.1 808.4 1089 806.8 1089.2C805.2 1089.5 804.1 1091 804.3 1092.6L884.6 1581.8L888.3 1665.3C888.3 1665.8 888.5 1666.3 888.8 1666.8C889.9 1668.5 916.3 1709.1 982.1 1715.2C986.4 1715.6 990.5 1715.8 994.4 1715.8C1013.2 1715.8 1027.8 1711.3 1037.9 1702.3C1050.9 1690.7 1051.5 1676.1 1051.5 1675.4C1051.4 1674.9 1051.3 1674.4 1051.1 1673.9ZM814.4 1116.6C814.7 1116.7 815 1116.8 815.3 1116.8C821 1118.3 830.1 1119.9 841.1 1119.9C849.9 1119.9 859.9 1118.8 870.6 1115.8C883.6 1112.1 895.7 1105.8 906.8 1097.1L915.6 1148.3C914.7 1149.1 913.8 1149.8 912.8 1150.6C910.3 1152.6 907.7 1154.5 905.1 1156.2C900.4 1159.3 895.4 1162 890.3 1164.2C857.7 1178.6 827.9 1170.7 823 1169.2L814.4 1116.6ZM824.1 1175.8C828.9 1177 837.8 1178.8 849.3 1178.8C861.6 1178.8 876.8 1176.7 892.7 1169.7C898.1 1167.3 903.3 1164.5 908.3 1161.2C911.1 1159.4 913.8 1157.4 916.5 1155.3C916.6 1155.2 916.6 1155.2 916.7 1155.1L925.6 1207.2C883 1242.9 835.7 1228.2 832.5 1227.1L824.1 1175.8ZM833.6 1233.7C838.4 1235 848 1237.1 860.6 1237.1C861.2 1237.1 861.9 1237.1 862.5 1237.1C879.1 1236.8 903.3 1232.5 926.8 1214L935.7 1265.6C893.9 1300.6 847.1 1287.2 842.1 1285.6L833.6 1233.7ZM843.2 1292.1C848.1 1293.4 857.8 1295.5 870.3 1295.5C870.9 1295.5 871.6 1295.5 872.2 1295.5C888.9 1295.2 913.4 1290.9 936.9 1272.4L945.8 1324.4C905.3 1358.4 859.2 1346.4 851.7 1344.1L843.2 1292.1ZM861.3 1402.7L852.7 1350.6C858 1352 867.9 1354.1 880.5 1354.1C880.9 1354.1 881.2 1354.1 881.6 1354.1C898.6 1353.9 923.3 1349.7 946.9 1331.2L955.8 1383.2C933.5 1401.7 910 1406.4 894.1 1407.2C876.4 1408 864.3 1404.3 861.8 1403.3C861.7 1403 861.5 1402.8 861.3 1402.7ZM870.9 1461.2L862.4 1409.7C867.7 1411.3 877.1 1413.2 889 1413.2C908.1 1413.2 933.2 1408.4 956.9 1389.9L965.8 1441.8C922.1 1477.6 872.3 1461.6 871.6 1461.4C871.5 1461.3 871.2 1461.2 870.9 1461.2ZM872 1467.7C876.2 1468.9 886.5 1471.2 900 1471.2C900.9 1471.2 901.9 1471.2 902.8 1471.2C919.5 1470.8 943.8 1466.4 967 1448.6L975.9 1500.5C935.9 1533.3 888.8 1522.7 880.5 1520.4L872 1467.7ZM881.7 1526.8C886.9 1528 896.6 1529.8 908.8 1529.8C909.7 1529.8 910.7 1529.8 911.7 1529.8C928.9 1529.4 953.9 1525.1 977.2 1507.1L986.1 1559C946.7 1591.3 899.9 1581.6 890.3 1579.2L881.7 1526.8Z" fill="#1A1A1A"/>
<path d="M929.4 1634.7C929.8 1618 930.1 1600.2 930.3 1587.9C927.1 1588.2 924.1 1588.4 921.2 1588.5C920.2 1588.5 919.2 1588.5 918.2 1588.5C905.7 1588.5 895.9 1586.7 890.7 1585.5L894.2 1664.2C896.9 1668 912.4 1688.3 944.4 1700.5C939.6 1690.7 928.7 1664.8 929.4 1634.7Z" fill="white"/>
<path d="M993.4 1688.4C990.7 1688.4 987.8 1688.3 984.8 1688.1C966 1686.7 952.4 1680.6 937.8 1673.4C932.4 1670.7 927 1667.6 921.7 1664.2C913.5 1658.9 905.5 1652.7 898 1645.8C896.8 1644.7 896.7 1642.8 897.8 1641.6C898.9 1640.4 900.8 1640.3 902 1641.4C909.3 1648.1 917 1654 924.9 1659.2C930 1662.5 935.2 1665.5 940.4 1668C954.4 1674.9 967.4 1680.7 985.2 1682.1C1021.7 1684.9 1031.3 1669.4 1032.8 1656C1033 1654.4 1034.5 1653.2 1036.1 1653.4C1037.7 1653.6 1038.9 1655.1 1038.7 1656.7C1037.4 1668.8 1029.4 1688.4 993.4 1688.4Z" fill="white"/>
<path d="M939.1 1673.7C938.7 1673.7 938.2 1673.6 937.8 1673.4C932.4 1670.7 927 1667.6 921.7 1664.2C913.5 1658.9 905.5 1652.7 898 1645.8C896.8 1644.7 896.7 1642.8 897.8 1641.6C898.9 1640.4 900.8 1640.3 902 1641.4C909.3 1648.1 917 1654 924.9 1659.2C930 1662.5 935.2 1665.5 940.4 1668C941.9 1668.7 942.5 1670.5 941.8 1672C941.2 1673 940.2 1673.7 939.1 1673.7Z" fill="#009B72"/>
<path d="M1389.9 564.3C1379.6 563 1369.5 560.4 1359.5 557.9C1358.8 557.7 1358.1 557.5 1357.3 557.4C1352.1 556.1 1347 554.8 1341.8 553.5C1337.3 552.3 1332.7 551.2 1328.2 550.1C1327 549.8 1325.8 549.5 1324.7 549.2C1317.6 547.1 1311.2 543 1306.3 537.5C1307.4 535.9 1309.6 535.7 1311.4 535.7C1319.2 535.5 1327.1 535.4 1334.7 537C1338.5 537.8 1342.3 539.1 1346.1 540C1351.2 541.2 1356.4 541.9 1361.5 543.2C1365.9 544.3 1370.1 546 1374.3 547.7C1380.9 550.3 1387.4 552.8 1394 555.3C1398.1 556.9 1402.1 558.4 1406.4 559.6C1408.6 560.2 1413.3 559.9 1414.4 562.3C1416.2 566.3 1406.2 565.4 1403.8 565.4C1399.1 565.2 1394.5 564.8 1389.9 564.3Z" fill="#046865"/>
<path d="M1399.1 564.7C1403.7 557.9 1406.4 549.7 1406.4 540.9C1406.4 517.4 1387.4 498.4 1363.9 498.4C1340.4 498.4 1321.4 517.4 1321.4 540.9C1321.4 542.6 1321.5 544.2 1321.7 545.9C1321.7 545.9 1332.9 553.9 1357.4 558.5C1381.9 563.1 1399.1 564.7 1399.1 564.7Z" fill="#009B72"/>
<path d="M1364 498.4C1340.5 498.4 1321.5 517.4 1321.5 540.9C1321.5 542.6 1321.6 544.2 1321.8 545.9C1321.8 545.9 1326.9 549.5 1337.7 553.3C1340.9 539.7 1344.6 527.9 1358 520.1C1370.1 513.1 1385.1 512.4 1398.6 516.2C1390.8 505.5 1378.2 498.4 1364 498.4Z" fill="white"/>
<path d="M1444.6 483.7C1444.6 482.4 1444.3 481.1 1444.2 479.9C1444 478.6 1443.8 477.4 1443.5 476.2C1441.1 466.4 1436.3 457.8 1430.3 450.7C1429.5 449.8 1428.2 449.4 1426.9 449.8C1425.3 450.4 1424.5 452.1 1425.1 453.7C1428.2 462 1430.6 470.2 1431.2 478.1C1431.4 482 1431.4 485.9 1430.7 489.6C1430 493.3 1428.8 496.8 1427 500.1C1423.6 506.7 1418.1 512.5 1411.9 517.8C1409.9 519.5 1407.8 521.1 1405.6 522.7C1403.4 517.6 1400.2 512.9 1396.1 508.8C1387.5 500.2 1376.1 495.5 1363.9 495.4C1351.7 495.4 1340.3 500.1 1331.7 508.7C1330.4 510 1329.1 511.5 1328 512.9C1326.2 510.6 1324.5 508.4 1323 506.1C1321.1 503.2 1319.5 500.3 1318.4 497.3C1317.2 494.4 1316.5 491.4 1316.3 488.4C1315.8 482.5 1317.8 476.2 1321.2 470.1L1321.8 468.9L1322.5 467.8L1323.9 465.5C1324.9 464 1326 462.5 1327.1 461C1328.3 459.6 1329.4 458 1330.6 456.5C1331.9 455 1333.1 453.6 1334.3 452L1334.4 451.8C1335.1 450.9 1335.3 449.6 1334.7 448.5C1333.9 447 1332.1 446.4 1330.6 447.2C1328.8 448.2 1327 449.2 1325.2 450.3C1323.5 451.4 1321.8 452.7 1320.1 453.9C1318.5 455.2 1316.8 456.6 1315.3 458.1L1313 460.5L1311.9 461.7L1310.9 463L1308.9 465.6L1307.1 468.5C1306.8 469 1306.5 469.5 1306.2 470L1305.4 471.6C1304.9 472.7 1304.3 473.7 1304 474.8C1302.2 479.2 1301.4 484.1 1301.5 489C1301.6 493.9 1302.8 498.8 1304.7 503.1C1306.7 507.4 1309.3 511.3 1312.3 514.6C1315.3 517.8 1318.6 520.6 1322.1 522.9C1320.7 526.2 1319.7 529.6 1319.1 533.1C1307.4 531.9 1302.4 532.8 1301.1 536.2C1301.1 536.2 1301.1 536.2 1301.1 536.3L1233.9 714.2C1233.7 714.8 1233.6 715.5 1233.8 716.1C1234.1 717.3 1242.9 745.9 1302.9 760.9C1323.3 766 1340.1 767.7 1353.7 767.7C1383.2 767.7 1397.3 759.5 1398.1 758.9C1398.9 758.4 1399.4 757.6 1399.5 756.6L1418.6 566.6C1418.8 566.3 1418.9 565.9 1419 565.6C1419.9 562.1 1416.5 559.1 1407 555C1408.5 550.5 1409.3 545.7 1409.3 540.8C1409.3 538.6 1409.1 536.3 1408.8 534.2C1412.6 532.7 1416.2 530.9 1419.7 528.7C1423.9 526.1 1427.8 523 1431.3 519.3C1434.8 515.6 1437.8 511.3 1440.1 506.6C1440.7 505.4 1441.2 504.2 1441.7 503L1442.4 501.2L1442.9 499.3C1443.2 498 1443.6 496.8 1443.8 495.4L1444.1 493.4C1444.2 492.8 1444.3 492.1 1444.3 491.4L1444.5 487.5C1444.8 486.3 1444.7 485 1444.6 483.7ZM1336 513C1343.5 505.6 1353.4 501.5 1363.9 501.5C1374.5 501.5 1384.4 505.6 1391.8 513.1C1399.3 520.6 1403.4 530.5 1403.3 541C1403.3 548.8 1401 556.4 1396.7 562.8C1387.3 561.6 1374.4 559.2 1358.9 555.4C1344.9 551.9 1333.2 548.4 1324.5 545.3C1324.3 543.8 1324.2 542.3 1324.3 540.8C1324.4 530.3 1328.6 520.4 1336 513ZM1318.5 539.1C1318.5 539.7 1318.5 540.3 1318.5 540.9C1318.5 541.6 1318.5 542.3 1318.6 543C1314.4 541.3 1311.2 539.8 1309.2 538.6C1311.2 538.6 1314.4 538.7 1318.5 539.1ZM1411.1 563.8C1409.3 563.9 1406.7 563.8 1403.4 563.5C1403.9 562.6 1404.4 561.7 1404.9 560.7C1407.6 561.9 1409.7 562.9 1411.1 563.8Z" fill="#1A1A1A"/>
<path d="M1409.3 569.8C1406.5 569.8 1403 569.5 1398.7 569.1L1376.5 759.9C1385.8 758.2 1391.5 755.8 1393.9 754.6L1412.5 569.7C1411.5 569.7 1410.4 569.8 1409.3 569.8Z" fill="white"/>
<path d="M1357.6 561.2C1355.2 560.6 1352.8 560 1350.5 559.4L1296.6 753C1299.1 753.7 1301.7 754.4 1304.4 755.1C1319.6 758.9 1332.8 760.7 1343.8 761.4L1377.2 565.6C1371 564.4 1364.4 562.9 1357.6 561.2Z" fill="white"/>
<path d="M1424.5 329.9V460.9C1424.5 460.9 1403.8 468.9 1379 467.9C1354.2 466.9 1333.8 460.9 1333.8 460.9L1333.5 359.2L1333.8 330.2L1424.5 329.9Z" fill="#009B72"/>
<path d="M1427.5 329.9C1427.5 328.8 1426.9 327.8 1426 327.3C1424 325.2 1419.5 323.7 1411.4 322.5C1402.7 321.2 1391.2 320.5 1379 320.5C1366.8 320.5 1355.3 321.2 1346.6 322.5C1337.2 323.9 1332.5 325.6 1331.2 328.4C1330.9 328.8 1330.8 329.3 1330.8 329.9V363.6V414.9V460.9C1330.8 461 1330.8 461 1330.8 461.1C1330.8 461.2 1330.8 461.2 1330.8 461.3C1330.8 465.2 1335.2 467.3 1346.6 469C1355.3 470.3 1366.8 471 1379 471C1391.2 471 1402.7 470.3 1411.4 469C1421.3 467.5 1425.9 465.7 1427 462.7C1427.4 462.2 1427.6 461.6 1427.6 461V329.9H1427.5ZM1336.8 335.8C1339.2 336.6 1342.4 337.3 1346.6 337.9C1355.3 339.2 1366.8 339.9 1379 339.9C1391.2 339.9 1402.7 339.2 1411.4 337.9C1415.7 337.3 1419.1 336.5 1421.5 335.7V362.2C1421.4 362.3 1421.4 362.5 1421.3 362.6C1418.7 364.3 1404.5 367.2 1379 367.2C1354 367.2 1339.8 364.4 1336.8 362.7V335.8ZM1379 464.9C1354 464.9 1339.8 462.1 1336.8 460.4V420.5C1339.2 421.3 1342.4 422 1346.6 422.6C1355.3 423.9 1366.8 424.6 1379 424.6C1391.2 424.6 1402.7 423.9 1411.4 422.6C1415.7 422 1419.1 421.2 1421.5 420.4V459.9C1421.4 460 1421.4 460.2 1421.3 460.3C1418.7 462 1404.5 464.9 1379 464.9Z" fill="#1A1A1A"/>
<path d="M1379 333.9C1357.9 333.9 1344.5 331.9 1339 330.2C1344.4 328.5 1357.8 326.5 1379 326.5C1400.2 326.5 1413.5 328.5 1419 330.2C1413.5 331.9 1400.1 333.9 1379 333.9Z" fill="white"/>
<path d="M506.033 734.477L505.714 739.467L849.738 761.459L850.057 756.469L506.033 734.477Z" fill="#009B72"/>
<path d="M846.3 898.2C846.2 898.2 846.1 898.2 846 898.2L505 868.2C503.5 868.1 502.3 866.8 502.3 865.2V567.2C502.3 565.5 503.6 564.2 505.3 564.2H857.3C858.1 564.2 858.9 564.5 859.5 565.1C860.1 565.7 860.4 566.5 860.3 567.3L849.3 895.3C849.3 896.1 848.9 896.9 848.3 897.4C847.8 897.9 847 898.2 846.3 898.2ZM508.3 862.4L843.4 891.9L854.2 570.2H508.3V862.4Z" fill="#1A1A1A"/>
<path d="M561.3 510.8C564.779 510.8 567.6 507.979 567.6 504.5C567.6 501.021 564.779 498.2 561.3 498.2C557.821 498.2 555 501.021 555 504.5C555 507.979 557.821 510.8 561.3 510.8Z" fill="#009B72"/>
<path d="M854.1 532.3C857.58 532.3 860.4 529.479 860.4 526C860.4 522.521 857.58 519.7 854.1 519.7C850.621 519.7 847.8 522.521 847.8 526C847.8 529.479 850.621 532.3 854.1 532.3Z" fill="white"/>
<path d="M917.8 534C921.279 534 924.1 531.179 924.1 527.7C924.1 524.22 921.279 521.4 917.8 521.4C914.321 521.4 911.5 524.22 911.5 527.7C911.5 531.179 914.321 534 917.8 534Z" fill="white"/>
<path d="M924.4 1044.8C927.88 1044.8 930.7 1041.98 930.7 1038.5C930.7 1035.02 927.88 1032.2 924.4 1032.2C920.921 1032.2 918.1 1035.02 918.1 1038.5C918.1 1041.98 920.921 1044.8 924.4 1044.8Z" fill="white"/>
<path d="M540.2 1093C543.679 1093 546.5 1090.18 546.5 1086.7C546.5 1083.22 543.679 1080.4 540.2 1080.4C536.72 1080.4 533.9 1083.22 533.9 1086.7C533.9 1090.18 536.72 1093 540.2 1093Z" fill="white"/>
<path d="M514.2 515.8C517.679 515.8 520.5 512.979 520.5 509.5C520.5 506.021 517.679 503.2 514.2 503.2C510.721 503.2 507.9 506.021 507.9 509.5C507.9 512.979 510.721 515.8 514.2 515.8Z" fill="#009B72"/>
<path d="M917.3 644.2C917.2 644.2 917.2 644.2 917.1 644.2L883.1 642.2C881.5 642.1 880.2 640.7 880.3 639.1L883.3 566.1C883.4 564.5 884.7 563.2 886.3 563.2L919.3 562.9C920.1 562.9 920.9 563.2 921.5 563.8C922.1 564.4 922.4 565.2 922.4 566L920.4 641.3C920.4 642.1 920 642.9 919.4 643.4C918.8 643.9 918.1 644.2 917.3 644.2ZM886.4 636.4L914.4 638L916.2 568.9L889.2 569.2L886.4 636.4Z" fill="#1A1A1A"/>
<path d="M901 630.7H900.9C898.4 630.6 896.5 628.6 896.5 626.1L897.8 578.8C897.9 576.3 899.9 574.4 902.4 574.4C904.9 574.5 906.8 576.5 906.8 579L905.5 626.3C905.4 628.8 903.4 630.7 901 630.7Z" fill="#1A1A1A"/>
<path d="M891.5 1169.9C890.3 1169.9 889.3 1169.2 888.8 1168.1C888.1 1166.6 888.8 1164.8 890.3 1164.1C895.4 1161.9 900.3 1159.2 905.1 1156.1C907.7 1154.4 910.3 1152.5 912.8 1150.5C914.1 1149.5 916 1149.7 917 1151C918 1152.3 917.8 1154.2 916.5 1155.2C913.9 1157.3 911.1 1159.3 908.3 1161.1C903.3 1164.4 898 1167.2 892.7 1169.6C892.3 1169.9 891.9 1169.9 891.5 1169.9Z" fill="white"/>
<path d="M841.1 1119.9C830.1 1119.9 821 1118.2 815.3 1116.8C813.7 1116.4 812.7 1114.8 813.1 1113.2C813.5 1111.6 815.1 1110.6 816.7 1111C824.5 1113 845.2 1116.9 868.9 1110.1C881.2 1106.6 892.7 1100.6 903.1 1092.4C904.4 1091.4 906.3 1091.6 907.3 1092.9C908.3 1094.2 908.1 1096.1 906.8 1097.1C895.8 1105.8 883.6 1112.1 870.6 1115.8C859.9 1118.9 849.9 1119.9 841.1 1119.9Z" fill="white"/>
<path d="M509.1 1602.7C495.1 1599.2 484.8 1593.9 480.3 1591.2C454.8 1630.5 418 1687.6 413.6 1696.1C416.2 1700.1 429.7 1713.6 454.5 1719.9C456.1 1647.5 492.3 1623.9 510.7 1603C510.1 1603 509.6 1602.9 509.1 1602.7Z" fill="white"/>
<path d="M485.8 1699.4C475 1699.4 464.2 1698.2 453.5 1695.8C446.9 1694.3 440.3 1692.3 433.9 1689.9C432.4 1689.3 431.6 1687.6 432.2 1686C432.8 1684.4 434.5 1683.7 436.1 1684.3C442.2 1686.6 448.5 1688.5 454.9 1690C471.1 1693.7 487.6 1694.4 504 1692.3C547.4 1686.6 576 1666.5 589.2 1655C590.4 1653.9 592.3 1654 593.4 1655.3C594.5 1656.5 594.4 1658.4 593.1 1659.5C579.4 1671.4 549.7 1692.3 504.8 1698.2C498.4 1699 492.1 1699.4 485.8 1699.4Z" fill="white"/>
<path d="M454.2 1695.8C454 1695.8 453.8 1695.8 453.7 1695.8C449.4 1695 436.2 1691.7 426 1685.9C424.6 1685.1 424.1 1683.2 424.9 1681.8C425.7 1680.4 427.6 1679.9 429 1680.7C438.4 1686.1 451.1 1689.2 454.8 1689.9C456.4 1690.2 457.5 1691.8 457.2 1693.4C456.8 1694.8 455.6 1695.8 454.2 1695.8Z" fill="#009B72"/>
<path d="M1395.6 926.8C1388.3 926.3 1374.2 934.6 1371.1 942.4C1368.1 950.2 1367.7 961.5 1368.7 961.6C1369.7 961.7 1399.9 957 1399.9 957L1431.3 957.7C1431.4 957.7 1429.9 929.1 1395.6 926.8Z" fill="#009B72"/>
<path d="M1395.6 926.8C1388.3 926.3 1374.2 934.6 1371.1 942.4C1368.1 950.2 1367.7 961.5 1368.7 961.6C1369.1 961.6 1373.5 961 1379 960.2C1381.6 951.6 1388.9 933.3 1405.7 928.5C1402.7 927.6 1399.4 927 1395.6 926.8Z" fill="white"/>
<path d="M1396.3 1090.5C1394.6 1090.7 1349.3 1095.7 1351.5 1101C1353.7 1106.2 1401.3 1105.4 1406.1 1104.5C1410.9 1103.6 1463.1 1095.1 1463.1 1095.1C1463.1 1095.1 1479.3 1090.2 1475.1 1088.1C1471 1086 1429.8 1085.7 1396.3 1090.5Z" fill="#009B72"/>
<path d="M1700.62 1381.88C1740.38 1381.88 1772.62 1349.64 1772.62 1309.87C1772.62 1270.11 1740.38 1237.87 1700.62 1237.87C1660.85 1237.87 1628.62 1270.11 1628.62 1309.87C1628.62 1349.64 1660.85 1381.88 1700.62 1381.88Z" fill="#1A1A1A"/>
<path d="M1742.9 1314.1C1744.9 1291.1 1727.9 1270.9 1705 1268.9C1702.7 1268.7 1659.2 1278.4 1597.7 1264.5C1536.2 1250.6 1495.5 1205.3 1478.5 1169.7C1461.5 1134.1 1454.2 1086.3 1454.2 1086.3C1454.2 1086.3 1442.3 1084.8 1423.6 1085.6C1404.9 1086.4 1373.5 1095.8 1373.5 1095.8L1378.7 1133.9C1378.7 1133.9 1397.8 1218.9 1438.1 1263.6C1478.4 1308.3 1524.1 1335.9 1583.1 1350.1C1636.3 1362.9 1689.4 1354.1 1699.3 1352.2C1721.6 1353.2 1740.9 1336.5 1742.9 1314.1Z" fill="white"/>
<path d="M1699.3 1355.1C1697.9 1355.1 1696.6 1354.1 1696.3 1352.6C1696 1351 1697.1 1349.4 1698.8 1349.2C1732.3 1343.7 1738.9 1324.7 1739.9 1313.9C1741.8 1292.6 1726 1273.8 1704.7 1271.9C1702.6 1271.7 1697.5 1271.5 1695.5 1271.7C1693.8 1271.8 1692.4 1270.6 1692.3 1268.9C1692.2 1267.2 1693.4 1265.8 1695.1 1265.7C1697.5 1265.5 1702.8 1265.7 1705.2 1265.9C1729.8 1268.1 1748 1289.8 1745.9 1314.4C1744 1335.8 1727.2 1350.6 1699.8 1355.1C1699.6 1355.1 1699.5 1355.1 1699.3 1355.1Z" fill="#1A1A1A"/>
<path d="M1703.9 1351.1C1703.5 1349.5 1701.9 1348.5 1700.3 1348.9C1700.1 1349 1682.4 1353 1655.2 1353.8C1650 1315.3 1657.5 1282.6 1659.5 1274.7C1683 1274.7 1698.2 1271.4 1698.9 1271.2C1700.5 1270.8 1701.5 1269.2 1701.2 1267.6C1700.9 1266 1699.2 1265 1697.6 1265.3C1697.4 1265.3 1676.5 1269.9 1646.4 1268.3C1618.7 1266.9 1577.2 1259.8 1537 1234.3C1500.8 1211.3 1481 1172.3 1470.8 1143.6C1459.7 1112.3 1457.2 1086.2 1457.2 1085.9C1457 1084.2 1455.6 1083 1453.9 1083.2C1452.3 1083.3 1451 1084.8 1451.2 1086.5C1451.3 1087.4 1453.1 1106.9 1460.9 1132.7C1453.7 1128.9 1441 1124.8 1423.1 1128C1400.8 1132.1 1389.6 1144.6 1385.2 1151.1C1377.3 1119.2 1376.6 1095.9 1376.6 1095.6C1376.6 1094 1375.2 1092.7 1373.6 1092.7C1373.6 1092.7 1373.6 1092.7 1373.5 1092.7C1371.8 1092.7 1370.5 1094.1 1370.6 1095.8C1370.6 1097 1371.4 1124.8 1381.9 1162.2C1391.6 1196.8 1411.8 1246.2 1453 1285.2C1509 1338.3 1573.6 1354.4 1618 1358.5C1628.5 1359.5 1638.4 1359.9 1647.4 1359.9C1679.5 1359.9 1700.6 1355 1701.8 1354.7C1703.2 1354.3 1704.2 1352.7 1703.9 1351.1ZM1493.8 1309.9C1491 1286.6 1497.1 1267.8 1512 1254C1521.4 1245.3 1531.5 1241.3 1535 1240.1C1551.8 1250.6 1568.8 1258 1585 1263.2C1578.1 1272.4 1559.4 1301 1559.1 1340.6C1538 1334 1515.8 1324.2 1493.8 1309.9ZM1387.2 1158.9C1387.6 1158.6 1388 1158.2 1388.2 1157.7C1388.2 1157.7 1390.5 1152.9 1396 1147.7C1403.4 1140.7 1412.9 1136 1424.2 1133.9C1449.7 1129.2 1463.2 1141.1 1463.8 1141.7C1464.2 1143 1464.7 1144.2 1465.1 1145.5C1470.4 1160.6 1478.4 1178.5 1489.9 1195.6C1481.7 1193.9 1467.8 1193.3 1450.9 1201.8C1430.7 1212 1422.9 1227.1 1420.1 1235.2C1403.6 1208.7 1393.7 1181.9 1387.7 1160.7C1387.5 1160.1 1387.4 1159.5 1387.2 1158.9ZM1424.5 1241.9C1424.5 1241.8 1424.5 1241.8 1424.6 1241.7C1424.6 1241.5 1428.1 1220.1 1453.7 1207.1C1466.3 1200.7 1476.9 1200.1 1483.6 1200.6C1490.8 1201.2 1495.2 1203.4 1495.2 1203.4C1495.4 1203.5 1495.6 1203.6 1495.8 1203.6C1504.8 1215.5 1515.8 1226.7 1528.9 1236C1523.7 1238.2 1515.8 1242.3 1508.2 1249.3C1497.4 1259.2 1485.5 1276.8 1487.5 1305.4C1477.2 1298.2 1467.1 1290.1 1457.2 1280.7C1444.2 1268.6 1433.5 1255.4 1424.5 1241.9ZM1618.5 1352.5C1602.8 1351 1584.6 1348 1565.1 1342.4C1564.8 1300.9 1586.4 1271 1591.1 1265.1C1611.9 1271.1 1631.1 1273.5 1646.3 1274.3C1648.7 1274.4 1651.1 1274.5 1653.3 1274.6C1650.7 1284.8 1644.2 1316.2 1649.1 1353.8C1639.8 1353.9 1629.5 1353.6 1618.5 1352.5Z" fill="#1A1A1A"/>
<path d="M1424.2 1133.9C1423.7 1134 1423.2 1134.1 1422.8 1134.2C1423 1134.9 1423.2 1135.6 1423.4 1136.3C1430.2 1159 1440.5 1180.6 1453.3 1200.6C1469.2 1193.3 1482.1 1193.9 1489.9 1195.5C1478.4 1178.4 1470.5 1160.5 1465.1 1145.4C1464.6 1144.1 1464.2 1142.9 1463.8 1141.6C1463.2 1141.1 1449.7 1129.2 1424.2 1133.9Z" fill="#009B72"/>
<path d="M1535 1240.1C1531.6 1241.3 1521.4 1245.3 1512 1254C1509.4 1256.4 1507.1 1259 1505 1261.7C1513.9 1269.6 1523.4 1276.9 1533.8 1282.5C1544.4 1288.2 1555.9 1292.1 1567.6 1295.2C1573.5 1279.5 1581 1268.4 1584.9 1263.3C1568.8 1258.1 1551.8 1250.7 1535 1240.1Z" fill="#009B72"/>
<path d="M1508.1 1249.4C1515.7 1242.4 1523.6 1238.3 1528.8 1236.1C1515.6 1226.9 1504.7 1215.7 1495.7 1203.7C1495.5 1203.6 1495.3 1203.6 1495.1 1203.5C1495 1203.5 1490.7 1201.3 1483.5 1200.7C1477.4 1200.2 1467.9 1200.7 1456.6 1205.7C1458.6 1208.7 1460.6 1211.6 1462.7 1214.5C1472.6 1228.2 1483.8 1241.1 1495.8 1253C1497.4 1254.5 1498.9 1256.1 1500.6 1257.6C1503 1254.5 1505.6 1251.7 1508.1 1249.4Z" fill="#009B72"/>
<path d="M1705 1268.8C1704.6 1268.8 1703.3 1269 1701.1 1269.3C1700.7 1270.2 1700 1270.9 1699 1271.1C1698.3 1271.3 1683.1 1274.6 1659.6 1274.6C1658.6 1278.5 1656.3 1288.2 1654.8 1301.6C1667.2 1299.6 1679.3 1296 1690.7 1290.6C1700 1286.1 1709.2 1279.7 1713 1270.3C1710.3 1269.6 1707.7 1269.1 1705 1268.8Z" fill="#FECE2F"/>
<path d="M1591.1 1265.1C1588.4 1268.5 1580.2 1279.8 1573.6 1296.7C1598 1302.6 1623.8 1305.5 1648.5 1302.6C1649.9 1289.5 1652 1279.6 1653.3 1274.7C1651 1274.6 1648.7 1274.6 1646.3 1274.4C1631.1 1273.5 1611.9 1271.1 1591.1 1265.1Z" fill="#FECE2F"/>
<path d="M1421.2 1128.4C1421.8 1128.3 1422.5 1128.1 1423.1 1128C1441 1124.7 1453.7 1128.9 1460.9 1132.7C1453.1 1106.9 1451.3 1087.4 1451.2 1086.5C1451.2 1086.3 1451.2 1086.1 1451.2 1085.9C1446.6 1085.5 1436.8 1084.9 1423.6 1085.5C1420.7 1085.6 1417.4 1086 1414 1086.5C1414.3 1088.6 1414.6 1090.7 1414.9 1092.9C1416.2 1104.9 1418.2 1116.7 1421.2 1128.4Z" fill="#009B72"/>
<path d="M1478.3 1088.6C1478.3 1088.5 1478.3 1088.5 1478.3 1088.5C1478.2 1088.1 1478.1 1087.6 1477.9 1087.2L1434 957.5C1433.9 956.9 1433.6 956.4 1433.3 956C1433.3 955.8 1433.3 955.7 1433.3 955.5C1432.5 947.6 1429.1 940.7 1424 935.4C1426.4 934.2 1428.5 932.5 1430.4 930.4C1433 927.6 1434.9 923.8 1435.5 919.7C1435.8 917.6 1435.8 915.5 1435.4 913.5C1435 911.5 1434.4 909.6 1433.5 907.9C1432.6 906.2 1431.5 904.6 1430.1 903.3C1428.8 902 1427.3 900.8 1425.5 900C1425.1 899.8 1424.6 899.7 1424.1 899.9C1423 900.2 1422.3 901.3 1422.5 902.5L1422.6 902.9C1423 904.4 1423.5 905.9 1423.9 907.3C1424.3 908.7 1424.7 910.1 1424.9 911.3C1425.2 912.6 1425.4 913.8 1425.5 915C1425.6 916.2 1425.7 917.4 1425.6 918.5C1425.5 919.7 1425.3 920.8 1424.9 922C1424.6 923.2 1424.1 924.4 1423.5 925.6C1422.5 927.6 1421.3 929.6 1419.9 931.8C1413.2 926.6 1404.5 923.9 1395.4 924.9C1386 925.9 1377.9 930.6 1372.4 937.3C1371 935.4 1369.8 933.6 1368.8 931.7C1367.6 929.4 1366.8 927.1 1366.4 924.8C1366.2 923.6 1366.1 922.4 1366 921.2C1365.9 920 1365.9 918.7 1366 917.4C1366 916.1 1366.1 914.7 1366.2 913.3C1366.3 911.9 1366.4 910.3 1366.4 908.9V908.5C1366.4 908.1 1366.3 907.6 1366 907.2C1365.3 906.3 1363.9 906.1 1363 906.8C1361.4 908 1360.3 909.3 1359.3 910.9C1358.3 912.4 1357.6 914.1 1357 915.8C1356.4 917.5 1356.2 919.4 1356.1 921.3C1356.1 923.2 1356.3 925.1 1356.7 927C1357.6 930.8 1359.6 934.3 1362.2 936.9C1364.3 939 1366.8 940.6 1369.4 941.6C1365.8 947.7 1364 955 1364.8 962.7C1364.8 963.1 1365 963.5 1365.1 963.8C1365 964.1 1365 964.4 1365 964.8L1348.7 1100.7C1348.6 1101.1 1348.6 1101.5 1348.6 1102V1102.1C1348.9 1105.1 1351 1108.2 1372.6 1108.5C1374.2 1108.5 1375.5 1107.2 1375.5 1105.6C1375.5 1104 1374.2 1102.7 1372.6 1102.7C1363.2 1102.6 1358.4 1101.9 1356.1 1101.3C1357.7 1100.5 1360.6 1099.4 1365.7 1098.1C1377.2 1095.1 1394.4 1092.2 1412.9 1090.3C1431.7 1088.4 1449.3 1087.6 1461.2 1088.3C1466.1 1088.6 1469 1089 1470.7 1089.5C1468.7 1090.5 1464.7 1091.9 1457.1 1093.7C1455.5 1094.1 1454.6 1095.6 1454.9 1097.2C1455.3 1098.8 1456.8 1099.7 1458.4 1099.4C1475.4 1095.2 1478.6 1092.1 1478.3 1088.6ZM1396.1 930.6C1411 929.1 1424.4 939.3 1427.2 953.8C1425.6 953.6 1423.8 953.5 1421.7 953.5C1415.5 953.3 1407.4 953.8 1398.9 954.6C1390.3 955.5 1382.3 956.8 1376.3 958.2C1374.1 958.7 1372.1 959.2 1370.5 959.8C1370.1 945 1381.2 932.2 1396.1 930.6Z" fill="#1A1A1A"/>
<path d="M1364.3 1092.4C1370.5 1090.8 1378.3 1089.2 1387 1087.8L1389.9 961.5C1379.2 963.1 1372.7 964.9 1370.8 965.9L1355.3 1095.3C1357.6 1094.4 1360.5 1093.4 1364.3 1092.4Z" fill="white"/>
<path d="M1812.3 1061.2C1799.3 1051.5 1752 1029.9 1718.3 1035.2C1684.6 1040.5 1655 1055.2 1653.3 1055.2C1651.6 1055.2 1614 1077.9 1618.6 1085.9C1623.2 1093.9 1682.6 1128.2 1682.6 1128.2L1785.9 1191.9C1785.9 1191.9 1843.9 1232.2 1850.2 1232.6C1856.5 1232.9 1859.5 1229.9 1861.9 1222.9C1864.2 1215.9 1875.3 1168.6 1863.2 1123.2C1854 1088.2 1812.3 1061.2 1812.3 1061.2Z" fill="#009B72"/>
<path d="M1685.8 1076.7C1687.6 1076.7 1719.7 1060.8 1756.2 1055C1774.1 1052.2 1795.5 1056.4 1814.4 1062.6C1813.1 1061.7 1812.3 1061.2 1812.3 1061.2C1799.3 1051.5 1752 1029.9 1718.3 1035.2C1684.6 1040.5 1655 1055.2 1653.3 1055.2C1651.6 1055.2 1614 1077.9 1618.6 1085.9C1620.7 1089.5 1634 1098.5 1647.9 1107.3C1650.1 1097 1684.1 1076.7 1685.8 1076.7Z" fill="white"/>
<path d="M1723 1171.5C1703 1164.9 1645.7 1151.5 1609.7 1164.8C1573.7 1178.1 1535.7 1200.8 1520.4 1264.1C1505.1 1327.4 1508.4 1370.8 1521.7 1426.1C1535 1481.4 1571 1550.8 1613 1578.1C1655 1605.4 1697 1584.8 1715 1573.4C1733 1562.1 1793 1510.7 1819.7 1450.7C1846.4 1390.7 1859 1328.7 1848.4 1280.7C1837.6 1232.9 1794.3 1194.9 1723 1171.5Z" fill="#009B72"/>
<path d="M1573.6 1426.2C1560.3 1370.9 1556.9 1327.5 1572.3 1264.2C1587.6 1200.9 1625.6 1178.2 1661.6 1164.9C1666 1163.3 1670.6 1162.1 1675.5 1161.2C1653.3 1158.3 1628.5 1157.9 1609.6 1164.9C1573.6 1178.2 1535.6 1200.9 1520.3 1264.2C1505 1327.5 1508.3 1370.9 1521.6 1426.2C1534.9 1481.5 1570.9 1550.9 1612.9 1578.2C1638.5 1594.9 1664.1 1593.7 1684.3 1587.7C1677.9 1585.6 1671.4 1582.5 1664.9 1578.2C1623 1550.9 1587 1481.5 1573.6 1426.2Z" fill="white"/>
<path d="M1659.7 1595.9C1658.7 1595.9 1657.6 1595.9 1656.6 1595.8C1626.7 1594.3 1597.5 1575.8 1572 1542.3C1548.7 1511.5 1529.8 1470.1 1517.3 1422.6C1505.1 1376.2 1503.3 1326.4 1512.2 1282.5C1521.8 1235.2 1542.6 1199 1572.5 1177.9C1600 1158.5 1635.6 1151.7 1678.5 1157.8C1718.4 1163.4 1753 1178.8 1766.1 1185.2C1803.2 1203.3 1826.9 1224.5 1840.8 1251.8C1858.2 1286.2 1859.8 1330.3 1845.7 1386.6C1831.6 1442.9 1802.5 1496.5 1763.8 1537.5C1729 1574.3 1690.4 1595.9 1659.7 1595.9ZM1649.4 1161.6C1620.6 1161.6 1596 1168.7 1576 1182.8C1547.4 1203 1527.4 1237.9 1518.1 1283.7C1509.4 1326.7 1511.2 1375.5 1523.1 1421.1C1535.2 1467.2 1554.3 1509 1576.8 1538.7C1601.1 1570.8 1628.8 1588.5 1656.9 1589.8C1686.3 1591.2 1724.6 1570.1 1759.4 1533.4C1797.4 1493.1 1826 1440.5 1839.9 1385.1C1870.8 1261.6 1818.6 1217.4 1763.5 1190.5C1750.7 1184.3 1716.8 1169.2 1677.7 1163.6C1667.8 1162.3 1658.4 1161.6 1649.4 1161.6Z" fill="#1A1A1A"/>
<path d="M1839.1 1161.2C1842.3 1161.2 1844.9 1158.6 1844.9 1155.4C1844.9 1152.2 1842.3 1149.6 1839.1 1149.6C1835.9 1149.6 1833.3 1152.2 1833.3 1155.4C1833.3 1158.6 1835.9 1161.2 1839.1 1161.2Z" fill="#1A1A1A"/>
<path d="M1831 1410.7C1831 1410.7 1831 1410.6 1831.1 1410.5C1831 1410.7 1822.1 1427.1 1743.2 1414.5C1742.4 1414.4 1741.6 1414.6 1741 1415C1740.4 1415.5 1739.9 1416.2 1739.8 1417C1739.7 1417.5 1732.5 1464.7 1727 1505.8C1722.4 1507 1708.5 1509.7 1688.4 1505.4C1689.6 1487 1691.3 1473.4 1691.3 1473.1C1691.4 1472.2 1691.1 1471.2 1690.4 1470.6C1689.7 1469.9 1688.8 1469.6 1687.9 1469.8C1687.7 1469.8 1662.7 1473.2 1630.9 1471.9C1601.7 1470.7 1560.6 1465.1 1530.5 1445.6C1529.1 1444.7 1527.3 1445.1 1526.4 1446.5C1525.5 1447.9 1525.9 1449.7 1527.3 1450.6C1558.6 1470.9 1600.9 1476.6 1630.9 1477.8C1655.9 1478.8 1676.8 1477 1685 1476.1C1684.3 1482.8 1682.7 1497.8 1681.9 1515.1C1680.3 1546.8 1681.5 1570.9 1685.6 1586.7C1685.9 1588.1 1687.2 1589 1688.5 1589C1688.7 1589 1689 1589 1689.2 1588.9C1690.8 1588.5 1691.8 1586.9 1691.4 1585.3C1686.5 1565.9 1686.8 1535.6 1688.2 1511.4C1696.5 1513.1 1703.8 1513.7 1709.9 1513.7C1722.9 1513.7 1730.5 1511 1730.9 1510.8C1731.9 1510.4 1732.7 1509.5 1732.8 1508.4C1737.5 1472.8 1743.6 1432 1745.3 1420.8C1827.1 1433.4 1836 1414.7 1836.8 1412.5L1831 1410.7Z" fill="#1A1A1A"/>
<path d="M1663.8 1502.2C1667.11 1502.2 1669.8 1499.51 1669.8 1496.2C1669.8 1492.89 1667.11 1490.2 1663.8 1490.2C1660.49 1490.2 1657.8 1492.89 1657.8 1496.2C1657.8 1499.51 1660.49 1502.2 1663.8 1502.2Z" fill="#1A1A1A"/>
<path d="M1755.6 1443.1C1759.02 1443.1 1761.8 1440.32 1761.8 1436.9C1761.8 1433.48 1759.02 1430.7 1755.6 1430.7C1752.18 1430.7 1749.4 1433.48 1749.4 1436.9C1749.4 1440.32 1752.18 1443.1 1755.6 1443.1Z" fill="#1A1A1A"/>
<path d="M1717.1 1501.5C1720.19 1501.5 1722.7 1498.99 1722.7 1495.9C1722.7 1492.81 1720.19 1490.3 1717.1 1490.3C1714.01 1490.3 1711.5 1492.81 1711.5 1495.9C1711.5 1498.99 1714.01 1501.5 1717.1 1501.5Z" fill="#1A1A1A"/>
<path d="M1874.6 1049.5C1869.5 1049.5 1865.2 1052.8 1863.6 1057.4C1853.3 1057.4 1838.1 1059.1 1825.5 1067.9C1820.3 1063.6 1814.7 1059.5 1808.6 1055.6C1771.3 1031.8 1731.6 1025.6 1690.7 1037.2C1657.4 1046.6 1631.8 1065.6 1619.5 1076C1616.7 1078.3 1615.3 1081.8 1615.6 1085.4C1615.9 1089 1617.8 1092.1 1620.8 1094L1846.4 1234.7C1848.2 1235.8 1850.2 1236.4 1852.3 1236.4C1853.5 1236.4 1854.8 1236.2 1856 1235.8C1859.2 1234.7 1861.7 1232.2 1862.8 1229.1C1868.1 1214.6 1876.3 1185.3 1872.4 1152.6C1868.6 1120.7 1854.4 1093.7 1830.2 1072C1841 1065 1854.1 1063.5 1863.2 1063.4C1864.2 1068.8 1869 1072.8 1874.6 1072.8C1881 1072.8 1886.3 1067.6 1886.3 1061.1C1886.3 1054.6 1881.1 1049.5 1874.6 1049.5ZM1866.5 1153.3C1868.3 1168.2 1867.4 1182.4 1865.5 1194.7C1849.5 1177 1826.4 1164 1817.9 1159.6C1836.8 1133.6 1842.7 1108.6 1844.5 1096.6C1856.6 1113.2 1863.9 1132.1 1866.5 1153.3ZM1839.3 1089.9C1838.8 1095.4 1835.3 1127.1 1811 1158.9C1810.5 1159.6 1810.3 1160.5 1810.5 1161.4C1810.7 1162.3 1811.3 1163 1812.1 1163.4C1812.4 1163.6 1845.2 1179.4 1863.6 1201.6C1863.8 1201.8 1864 1202 1864.2 1202.2C1862.1 1212.5 1859.4 1221.1 1857.3 1227.1C1856.8 1228.6 1855.6 1229.7 1854.1 1230.2C1852.6 1230.7 1851 1230.5 1849.7 1229.7L1624 1089C1622.6 1088.1 1621.7 1086.7 1621.6 1085C1621.5 1083.3 1622.1 1081.7 1623.4 1080.7C1629.5 1075.5 1638.9 1068.2 1650.9 1061.1L1718.6 1105.4C1722.8 1108.2 1727.6 1109.5 1732.4 1109.5C1740.5 1109.5 1748.5 1105.6 1753.4 1098.5C1757.2 1092.9 1758.6 1086.1 1757.3 1079.4C1756 1072.7 1752.2 1067 1746.5 1063.2L1710.6 1039.2C1743.4 1034.4 1775.2 1041.6 1805.4 1060.9C1818.8 1069.3 1830.1 1079 1839.3 1089.9Z" fill="#1A1A1A"/>
<path d="M1222.4 1424.8C1218.9 1431.2 1220.5 1447.5 1226.2 1453.5C1232 1459.5 1242.1 1464.6 1242.6 1463.7C1243.1 1462.8 1251.5 1433.5 1251.5 1433.5L1265.4 1405.3C1265.5 1405.4 1238.9 1394.7 1222.4 1424.8Z" fill="#009B72"/>
<path d="M1222.4 1424.8C1218.9 1431.2 1220.5 1447.5 1226.2 1453.5C1232 1459.5 1242.1 1464.6 1242.6 1463.7C1242.8 1463.4 1244.1 1459.1 1245.6 1453.8C1238.9 1447.8 1225.4 1433.5 1228.1 1416.2C1226.1 1418.7 1224.2 1421.5 1222.4 1424.8Z" fill="white"/>
<path d="M1371.1 1493.1C1370.6 1494.7 1356.1 1537.9 1361.7 1538.1C1367.4 1538.3 1386.6 1494.8 1387.8 1490.1C1389 1485.4 1403.3 1434.4 1403.3 1434.4C1403.3 1434.4 1405.6 1417.7 1402 1420.6C1398.5 1423.5 1380.9 1460.7 1371.1 1493.1Z" fill="#046865"/>
<path d="M1698.28 1381.59C1738.05 1381.59 1770.28 1349.35 1770.28 1309.59C1770.28 1269.83 1738.05 1237.59 1698.28 1237.59C1658.52 1237.59 1626.28 1269.83 1626.28 1309.59C1626.28 1349.35 1658.52 1381.59 1698.28 1381.59Z" fill="#1A1A1A"/>
<path d="M1721.4 1270.3C1711 1264.3 1699 1262.8 1687.4 1265.9C1675.9 1269 1666.2 1276.4 1660.3 1286.8C1659.6 1288 1658.6 1289.9 1657.7 1291.8C1657.2 1292.2 1656.8 1292.8 1656.6 1293.5C1656.6 1293.5 1656.5 1294 1656.3 1294.8C1656.1 1295.2 1656 1295.6 1655.8 1295.9C1655.6 1296.3 1655.6 1296.8 1655.6 1297.2C1653.6 1304.3 1648.4 1321.1 1637.7 1341.3C1624.7 1365.9 1600.8 1400.5 1560.8 1426.2C1524.7 1449.4 1481 1450.9 1450.7 1448C1417.7 1444.9 1392.9 1436.1 1392.6 1436C1391 1435.4 1389.3 1436.3 1388.8 1437.8C1388.2 1439.4 1389 1441.1 1390.6 1441.6C1391.5 1441.9 1409.9 1448.4 1436.6 1452.3C1430.1 1457.3 1421 1467 1416.5 1484.6C1410.8 1506.6 1417.4 1522 1421.5 1528.8C1389.2 1522.5 1367.8 1513.3 1367.5 1513.2C1366 1512.5 1364.2 1513.2 1363.6 1514.8C1362.9 1516.3 1363.6 1518.1 1365.2 1518.7C1366.3 1519.2 1391.8 1530.2 1430.2 1536.4C1444.3 1538.7 1461.1 1540.5 1479.7 1540.5C1507.9 1540.5 1539.9 1536.4 1571.8 1523.8C1643.6 1495.4 1685.3 1443.5 1707.8 1405C1730.6 1366 1738.3 1333.3 1739.5 1328.1C1746.2 1301.9 1739.7 1280.8 1721.4 1270.3ZM1689 1271.7C1699 1269 1709.4 1270.4 1718.4 1275.5C1727.7 1280.8 1741.7 1294.4 1733.6 1325.8C1733.6 1325.9 1733.5 1326.1 1733.5 1326.2C1733.5 1326.2 1733.5 1326.4 1733.4 1326.7C1733.3 1327 1733.2 1327.3 1733.2 1327.6C1733.2 1327.8 1733.1 1327.9 1733.1 1328.1C1731.9 1333.3 1727.8 1348.8 1719 1369.2C1681.9 1357.7 1655.4 1337.2 1649.1 1332C1657.1 1314.7 1660.9 1301.4 1662.1 1296.7C1663.1 1294.5 1664.7 1291.3 1665.6 1289.8C1670.6 1280.8 1679 1274.4 1689 1271.7ZM1431.2 1530.5C1430.6 1530.4 1430 1530.3 1429.4 1530.2C1429.3 1529.7 1429.1 1529.2 1428.7 1528.8C1428.6 1528.6 1415.4 1512.8 1422.3 1486.1C1428.8 1461 1445.3 1453.8 1446 1453.5C1447.3 1453.6 1448.6 1453.8 1450 1453.9C1457.1 1454.6 1464.9 1455 1473.1 1455C1483.5 1455 1494.5 1454.3 1505.9 1452.5C1500.9 1459.2 1494.5 1471.5 1495.1 1490.5C1495.9 1513.2 1506.2 1526.5 1512.4 1532.5C1481.4 1536.3 1452.9 1534 1431.2 1530.5ZM1569.4 1518.2C1552.9 1524.7 1536.4 1528.9 1520.4 1531.4C1520.3 1531.4 1520.3 1531.3 1520.2 1531.3C1520 1531.2 1502.1 1519 1501.1 1490.4C1500.2 1463.4 1514.7 1451.7 1515.3 1451.2C1515.5 1451.1 1515.6 1450.9 1515.7 1450.8C1530.3 1447.6 1545.1 1442.5 1559 1434.4C1558.8 1440 1559.2 1449 1562.4 1458.8C1566.9 1472.8 1577.8 1491 1604.5 1501.2C1593.7 1507.4 1582 1513.1 1569.4 1518.2ZM1611.2 1497.1C1588.9 1489.9 1574.4 1476.4 1568.2 1457.1C1564.3 1444.9 1564.9 1434 1565.3 1430.4C1581.9 1419.6 1595.8 1407.3 1607.3 1394.8C1612.7 1404.9 1630.8 1433.9 1666.6 1450.8C1651.7 1467.1 1633.5 1483.2 1611.2 1497.1ZM1702.4 1402C1694.5 1415.6 1684.1 1430.9 1670.7 1446.2C1632.9 1429 1614.9 1396.8 1611.5 1390.1C1625.7 1373.7 1636 1357.4 1643.1 1344C1644.2 1341.9 1645.3 1339.8 1646.3 1337.7C1654.5 1344.3 1680.2 1363.5 1716.4 1374.9C1712.6 1383.2 1707.9 1392.4 1702.4 1402Z" fill="#1A1A1A"/>
<path d="M1716.5 1374.7C1680.3 1363.4 1654.6 1344.2 1646.4 1337.5C1645.4 1339.5 1644.3 1341.6 1643.2 1343.8C1636.1 1357.2 1625.9 1373.6 1611.6 1389.9C1615 1396.6 1633 1428.9 1670.8 1446C1684.1 1430.7 1694.5 1415.4 1702.5 1401.8C1707.9 1392.4 1712.6 1383.2 1716.5 1374.7Z" fill="white"/>
<path d="M1666.5 1450.8C1630.7 1433.9 1612.6 1404.9 1607.2 1394.8C1595.7 1407.3 1581.8 1419.6 1565.2 1430.4C1564.8 1434 1564.2 1444.9 1568.1 1457.1C1574.4 1476.4 1588.9 1489.9 1611.1 1497.1C1633.5 1483.2 1651.7 1467.1 1666.5 1450.8Z" fill="white"/>
<path d="M1604.5 1501.1C1577.8 1490.8 1566.8 1472.6 1562.4 1458.7C1559.3 1448.9 1558.8 1439.9 1559 1434.3C1545.1 1442.4 1530.3 1447.5 1515.7 1450.7C1515.6 1450.9 1515.4 1451 1515.3 1451.1C1514.7 1451.6 1500.2 1463.3 1501.1 1490.3C1502.1 1518.9 1520 1531.1 1520.2 1531.2C1520.3 1531.2 1520.3 1531.3 1520.4 1531.3C1536.4 1528.8 1553 1524.6 1569.4 1518.1C1582 1513.1 1593.7 1507.4 1604.5 1501.1Z" fill="white"/>
<path d="M1367.5 1513.2C1367.7 1513.3 1389.2 1522.5 1421.5 1528.8C1417.4 1522 1410.8 1506.6 1416.5 1484.6C1421 1467 1430.2 1457.2 1436.6 1452.3C1409.9 1448.5 1391.5 1441.9 1390.6 1441.6C1390.4 1441.5 1390.2 1441.4 1390.1 1441.4C1387.8 1445.4 1383.1 1454.1 1378.2 1466.3C1372.4 1480.4 1368.2 1504.7 1366.8 1513C1367 1513 1367.2 1513.1 1367.5 1513.2Z" fill="white"/>
<path d="M1422.3 1486.1C1415.4 1512.8 1428.6 1528.6 1428.7 1528.8C1429.1 1529.2 1429.3 1529.7 1429.4 1530.2C1430 1530.3 1430.6 1530.4 1431.2 1530.5C1452.9 1534 1481.4 1536.3 1512.4 1532.5C1506.2 1526.5 1495.9 1513.2 1495.1 1490.5C1494.5 1471.5 1500.9 1459.2 1505.9 1452.5C1494.6 1454.3 1483.5 1455 1473.1 1455C1464.9 1455 1457.1 1454.6 1450 1453.9C1448.7 1453.8 1447.3 1453.6 1446 1453.5C1445.2 1453.8 1428.8 1461 1422.3 1486.1Z" fill="white"/>
<path d="M1733.1 1328.1C1733.1 1327.9 1733.1 1327.8 1733.2 1327.6C1733.3 1327.3 1733.4 1327 1733.4 1326.7C1733.5 1326.4 1733.5 1326.3 1733.5 1326.2C1733.5 1326.1 1733.6 1325.9 1733.6 1325.8C1741.7 1294.4 1727.6 1280.8 1718.4 1275.5C1709.4 1270.3 1699 1269 1689 1271.7C1679 1274.4 1670.7 1280.8 1665.5 1289.8C1664.6 1291.3 1663 1294.5 1662 1296.7C1660.8 1301.5 1657 1314.7 1649 1332C1655.3 1337.2 1681.8 1357.7 1718.9 1369.2C1727.7 1348.8 1731.8 1333.3 1733.1 1328.1Z" fill="white"/>
<path d="M1643.1 1343.8C1636 1357.2 1625.8 1373.6 1611.5 1389.9C1613.5 1393.8 1620.2 1406 1632.8 1419C1648.4 1399.4 1661.9 1377.2 1669.6 1353.6C1658.3 1346.8 1650.2 1340.7 1646.3 1337.5C1645.3 1339.6 1644.3 1341.7 1643.1 1343.8Z" fill="#009B72"/>
<path d="M1562.4 1458.6C1559.3 1448.8 1558.8 1439.8 1559 1434.2C1545.1 1442.3 1530.3 1447.4 1515.7 1450.6C1515.6 1450.8 1515.4 1450.9 1515.3 1451C1514.7 1451.5 1501.4 1462.3 1501.1 1486.9C1504.6 1486.3 1508.2 1485.7 1511.7 1485C1528.3 1481.8 1544.7 1477.1 1560.6 1471.2C1562.7 1470.4 1564.7 1469.6 1566.8 1468.8C1564.8 1465.4 1563.4 1461.9 1562.4 1458.6Z" fill="#009B72"/>
<path d="M1568.2 1457C1569.3 1460.4 1570.7 1463.5 1572.2 1466.6C1583.1 1461.9 1593.7 1456.3 1603.2 1449.2C1612.8 1441.9 1621.2 1433.2 1628.9 1423.9C1617.2 1411.9 1610.2 1400.4 1607.2 1394.8C1595.7 1407.3 1581.8 1419.6 1565.2 1430.4C1564.9 1434 1564.2 1444.9 1568.2 1457Z" fill="#009B72"/>
<path d="M1416 1486.5C1416.1 1485.9 1416.3 1485.2 1416.5 1484.6C1421 1467 1430.2 1457.2 1436.6 1452.3C1409.9 1448.5 1391.5 1441.9 1390.6 1441.6C1390.4 1441.5 1390.2 1441.4 1390.1 1441.4C1387.8 1445.4 1383.1 1454.1 1378.2 1466.3C1377.1 1469 1376 1472.1 1375 1475.4C1377 1476 1379.1 1476.6 1381.2 1477.3C1392.6 1481.2 1404.2 1484.3 1416 1486.5Z" fill="#009B72"/>
<path d="M1669.5 1284C1668 1285.8 1666.7 1287.7 1665.5 1289.7C1664.6 1291.2 1663 1294.4 1662 1296.6C1660.8 1301.4 1657 1314.6 1649 1331.9C1652.1 1334.4 1659.9 1340.6 1671.5 1347.6C1674.9 1335.5 1676.8 1323.1 1676.6 1310.4C1676.4 1301.2 1674.9 1291.3 1669.5 1284Z" fill="#009B72"/>
<path d="M1422.3 1486.1C1422.2 1486.6 1422.1 1487 1422 1487.5C1422.7 1487.6 1423.5 1487.7 1424.2 1487.8C1447.7 1491.2 1471.6 1490.9 1495.1 1487.8C1495.1 1470.3 1501.1 1458.8 1505.9 1452.5C1494.6 1454.3 1483.5 1455 1473.1 1455C1464.9 1455 1457.1 1454.6 1450 1453.9C1448.7 1453.8 1447.3 1453.6 1446 1453.5C1445.2 1453.8 1428.8 1461 1422.3 1486.1Z" fill="#009B72"/>
<path d="M1403.9 1418C1403.8 1418 1403.8 1418 1403.7 1418C1403.3 1417.9 1402.9 1417.8 1402.4 1417.8L1266.3 1403C1265.7 1402.9 1265.2 1402.9 1264.6 1403C1264.4 1402.9 1264.3 1402.8 1264.1 1402.8C1256.6 1400.2 1248.9 1400.4 1241.9 1402.8C1241.8 1400.2 1241.2 1397.5 1240.1 1394.9C1238.6 1391.4 1236 1388 1232.5 1385.8C1230.8 1384.7 1228.8 1383.8 1226.9 1383.3C1224.9 1382.8 1222.9 1382.6 1221 1382.7C1219.1 1382.8 1217.2 1383.2 1215.4 1383.8C1213.6 1384.4 1212 1385.3 1210.4 1386.6C1210 1386.9 1209.8 1387.3 1209.7 1387.8C1209.5 1388.9 1210.2 1390.1 1211.4 1390.3L1211.8 1390.4C1213.3 1390.7 1214.9 1390.9 1216.3 1391.1C1217.7 1391.3 1219.1 1391.6 1220.4 1391.9C1221.7 1392.2 1222.9 1392.5 1224 1392.9C1225.1 1393.3 1226.2 1393.8 1227.2 1394.3C1228.2 1394.9 1229.2 1395.5 1230.1 1396.4C1231 1397.2 1231.9 1398.1 1232.8 1399.2C1234.2 1400.9 1235.5 1402.9 1236.9 1405.1C1229.4 1409 1223.3 1415.7 1220.3 1424.4C1217.2 1433.3 1218.1 1442.7 1221.9 1450.5C1219.6 1450.9 1217.4 1451.3 1215.4 1451.4C1212.8 1451.5 1210.4 1451.3 1208.1 1450.7C1207 1450.4 1205.8 1450 1204.7 1449.5C1203.6 1449.1 1202.4 1448.5 1201.2 1447.9C1200 1447.3 1198.8 1446.7 1197.5 1446C1196.3 1445.3 1194.9 1444.6 1193.6 1443.9L1193.2 1443.7C1192.8 1443.5 1192.3 1443.5 1191.9 1443.6C1190.8 1443.9 1190 1445 1190.3 1446.1C1190.7 1448 1191.5 1449.6 1192.4 1451.1C1193.4 1452.6 1194.5 1454 1195.9 1455.2C1197.3 1456.4 1198.8 1457.5 1200.5 1458.3C1202.2 1459.1 1204 1459.8 1205.9 1460.2C1209.7 1461 1213.7 1460.6 1217.2 1459.4C1220 1458.4 1222.5 1456.8 1224.5 1454.9C1228.5 1460.8 1234.4 1465.5 1241.6 1468C1241.9 1468.1 1242.2 1468.2 1242.5 1468.2C1242.6 1468.2 1242.6 1468.2 1242.7 1468.2C1242.9 1468.4 1243.2 1468.6 1243.5 1468.7L1359.9 1540.7C1360.2 1540.9 1360.5 1541.1 1360.8 1541.3C1360.9 1541.3 1361 1541.4 1361 1541.4H1361.1H1361.2C1361.3 1541.4 1361.3 1541.4 1361.4 1541.4C1361.8 1541.5 1362.2 1541.6 1362.6 1541.6C1365.3 1541.6 1369.2 1538.5 1377 1522.2C1377.7 1520.8 1377.1 1519 1375.6 1518.3C1374.2 1517.6 1372.4 1518.2 1371.7 1519.7C1367.6 1528.2 1365 1532.2 1363.5 1534.1C1363.5 1532.3 1363.7 1529.2 1364.6 1524.1C1366.7 1512.4 1371.3 1495.6 1377.4 1478C1383.5 1460.1 1390.3 1443.9 1395.9 1433.4C1398.2 1429 1399.9 1426.6 1401 1425.2C1401 1427.4 1400.7 1431.6 1399.1 1439.3C1398.8 1440.9 1399.8 1442.4 1401.4 1442.7C1403 1443 1404.5 1442 1404.8 1440.4C1408.8 1423.4 1407.3 1419.1 1403.9 1418ZM1257.5 1412.4C1254.8 1417.9 1251.7 1425.5 1248.9 1433.6C1246.1 1441.7 1243.9 1449.6 1242.6 1455.6C1242.1 1457.8 1241.8 1459.8 1241.6 1461.5C1228.1 1455.6 1221.1 1440.2 1225.9 1426C1230.8 1411.8 1245.7 1404 1260 1407.6C1259.3 1408.9 1258.5 1410.5 1257.5 1412.4Z" fill="#1A1A1A"/>
<path d="M1247.4 1463.9L1358.3 1532.5C1358.4 1530 1358.8 1526.9 1359.5 1523.1C1360.6 1516.8 1362.5 1509.1 1364.8 1500.6L1251.5 1444.8C1248.4 1455 1247.3 1461.7 1247.4 1463.9Z" fill="white"/>
</svg>
