<svg width="2000" height="2000" viewBox="0 0 2000 2000" fill="none" xmlns="http://www.w3.org/2000/svg">
<path d="M1112.5 74.2999C1036 82.8999 938.7 115.2 899.7 234.4C842.4 409.6 726.4 427.8 597.3 406.9C569.8 402.5 541.3 401.9 512.4 405.8C353 427.2 128.3 622.3 128.3 860.3C128.3 1091.3 174.9 1217.8 245.3 1334.3C332.3 1478.3 491.6 1661.3 642.3 1639.7C736.1 1626.2 799.3 1567.4 851.6 1495.9C960.8 1346.5 1024.6 1312.3 1208.8 1295.3C1212.8 1294.9 1216.9 1294.5 1220.9 1293.9C1380.3 1272.5 1517.7 1108.4 1520.4 947.6C1523.3 773.9 1565.7 560.2 1514.5 392.2C1461.4 218 1272.1 56.3999 1112.5 74.2999Z" fill="#046865"/>
<path d="M1247.5 1691.4C1177.2 1753.6 1037.6 1746.9 975.4 1676.6C913.2 1606.3 949.1 1498.6 1019.5 1436.4C1089.8 1374.2 1205.4 1347.9 1267.6 1418.2C1329.8 1488.6 1317.8 1629.2 1247.5 1691.4Z" fill="#046865"/>
<path d="M897.9 1742C874.8 1775.4 815.5 1787 782.1 1764C748.7 1740.9 752.6 1692 775.7 1658.6C798.8 1625.2 844.6 1602.2 878 1625.3C911.5 1648.3 921 1708.6 897.9 1742Z" fill="#046865"/>
<path d="M446.8 272.3L579.6 318L541 430.3L390.3 377.6L416.2 303.3L437.1 297.6L446.8 272.3Z" fill="#009B72"/>
<path d="M446.8 305.3L423.1 312.3L403.1 382.6L390.3 377.6L416.2 303.3L437.1 297.6L446.8 272.3L460.8 276.9L446.8 305.3Z" fill="white"/>
<path d="M441.899 285.6L575.399 330.8L579.599 318L446.799 272.3L441.899 285.6Z" fill="white"/>
<path d="M414.1 260.9L408.1 281.3L415.3 305.2L437.1 297.6L446.8 272.3L414.1 260.9Z" fill="#009B72"/>
<path d="M441.9 285.6L424.8 277.6L408.1 281.3L414.1 260.9L448.8 272.9L441.9 285.6Z" fill="white"/>
<path d="M318.4 269.4C318.1 269.4 317.7 269.3 317.4 269.2C315.8 268.7 315 267 315.5 265.4L334.9 208.9C335.4 207.3 337.1 206.5 338.7 207C340.3 207.5 341.1 209.2 340.6 210.8L321.2 267.3C320.8 268.6 319.7 269.4 318.4 269.4Z" fill="#1A1A1A"/>
<path d="M553.999 460.2C553.699 460.2 553.299 460.1 552.999 460C551.399 459.5 550.599 457.8 551.099 456.2L560.799 428C561.299 426.4 562.999 425.6 564.599 426.1C566.199 426.6 566.999 428.3 566.499 429.9L556.799 458.1C556.499 459.4 555.299 460.2 553.999 460.2Z" fill="#1A1A1A"/>
<path d="M292.4 294C292.1 294 291.7 293.9 291.4 293.8C289.8 293.3 289 291.6 289.5 290L305.5 243.3C306 241.7 307.7 240.9 309.3 241.4C310.9 241.9 311.7 243.6 311.2 245.2L295.2 291.9C294.8 293.2 293.7 294 292.4 294Z" fill="#1A1A1A"/>
<path d="M582.299 316.7C581.999 316 581.299 315.4 580.599 315.2L448.199 269.6C448.099 269.5 447.999 269.5 447.799 269.4C447.599 269.3 447.399 269.3 447.199 269.2L415.799 258.4C415.499 258.2 415.299 258.1 414.999 258C414.699 257.9 414.499 257.9 414.199 257.9L357.999 238.6C357.199 238.3 356.399 238.4 355.699 238.7C354.999 239 354.399 239.7 354.199 240.4L315.599 352.7C315.299 353.5 315.399 354.3 315.699 355C315.999 355.7 316.699 356.3 317.399 356.5L539.999 433.1C540.299 433.2 540.599 433.3 540.999 433.3C541.499 433.3 541.899 433.2 542.299 433C542.999 432.7 543.599 432 543.799 431.3L582.499 319C582.699 318.3 582.699 317.4 582.299 316.7ZM417.199 301.3C414.699 293.3 411.699 283.4 411.199 281.2C411.599 279.4 413.799 272.1 416.099 264.9L442.899 274.1L434.899 295.2L417.199 301.3ZM539.099 426.5L393.899 376.5L417.599 307.5L438.099 300.4C438.899 300.1 439.599 299.5 439.899 298.6L448.499 276L575.799 319.8L539.099 426.5Z" fill="#1A1A1A"/>
<path d="M337.099 340.9C335.899 340.9 334.799 340.2 334.299 339C333.699 337.5 334.499 335.7 335.999 335.1L388.299 314.8C389.799 314.2 391.599 315 392.199 316.5C392.799 318 391.999 319.8 390.499 320.4L338.199 340.7C337.799 340.9 337.499 340.9 337.099 340.9Z" fill="white"/>
<path d="M350.099 350.9C348.899 350.9 347.799 350.2 347.299 349C346.699 347.5 347.399 345.7 348.899 345.1L369.199 336.8C370.699 336.2 372.499 336.9 373.099 338.4C373.699 339.9 372.999 341.7 371.499 342.3L351.199 350.6C350.899 350.9 350.499 350.9 350.099 350.9Z" fill="white"/>
<path d="M451.6 312.6C437 312.6 425.1 324.5 425.1 339.1C425.1 353.7 437 365.6 451.6 365.6C466.2 365.6 478.1 353.7 478.1 339.1C478.1 324.5 466.2 312.6 451.6 312.6Z" fill="#1A1A1A"/>
<path d="M451.6 359.6C462.9 359.6 472.1 350.4 472.1 339.1C472.1 327.9 463 318.7 451.8 318.6C453.5 321.9 454.5 325.6 454.5 329.6C454.5 340.8 446.6 350.2 436.1 352.5C439.9 356.8 445.4 359.6 451.6 359.6Z" fill="#009B72"/>
<path d="M518.899 335.3C504.299 335.3 492.399 347.2 492.399 361.8C492.399 376.4 504.299 388.3 518.899 388.3C533.499 388.3 545.399 376.4 545.399 361.8C545.399 347.1 533.499 335.3 518.899 335.3Z" fill="#1A1A1A"/>
<path d="M518.899 382.3C530.199 382.3 539.399 373.1 539.399 361.8C539.399 350.6 530.299 341.4 519.099 341.3C520.799 344.6 521.799 348.3 521.799 352.3C521.799 363.5 513.899 372.9 503.399 375.2C507.199 379.5 512.699 382.3 518.899 382.3Z" fill="#009B72"/>
<path d="M222.399 558.2L352.899 506.3L396.899 616.6L248.299 674.9L219.399 601.7L198.899 590.2L190.199 570.9L222.399 558.2Z" fill="#009B72"/>
<path d="M192.399 571.5L198.199 588.2L216.899 572.2L239.699 566.5L242.899 550L192.399 571.5Z" fill="white"/>
<path d="M260.899 670.5L235.399 607L244.399 590L257.399 557.5C257.399 557.5 359.899 527.5 359.899 526C359.899 524.5 352.899 506.3 352.899 506.3L242.899 550L232.399 585.5L219.399 601.7L248.399 677.5L260.899 670.5Z" fill="white"/>
<path d="M281 598C280.5 598 280.1 597.9 279.6 597.7C278.1 596.9 277.6 595.1 278.3 593.7L286.7 577.7C287.5 576.2 289.3 575.7 290.7 576.4C292.2 577.2 292.7 579 292 580.4L283.6 596.4C283.2 597.4 282.1 598 281 598Z" fill="#1A1A1A"/>
<path d="M297.399 597.1C296.899 597.1 296.499 597 295.999 596.8C294.499 596 293.899 594.2 294.699 592.8L304.699 573.2C305.499 571.7 307.299 571.1 308.699 571.9C310.199 572.7 310.799 574.5 309.999 575.9L299.999 595.5C299.599 596.5 298.499 597.1 297.399 597.1Z" fill="#1A1A1A"/>
<path d="M399.599 615.4L355.699 505.1C355.399 504.4 354.799 503.8 354.099 503.5C353.399 503.2 352.499 503.2 351.799 503.5L133.099 590.6C132.399 590.9 131.799 591.5 131.499 592.2C131.199 592.9 131.199 593.8 131.499 594.5L175.399 704.8C175.899 706 176.999 706.7 178.199 706.7C178.599 706.7 178.899 706.6 179.299 706.5L397.999 619.3C398.699 619 399.299 618.4 399.599 617.7C399.899 617 399.899 616.2 399.599 615.4ZM194.599 572.5L239.999 554.4L229.699 584.1L219.099 599.6C211.899 595.2 203.099 589.6 201.199 588.2C200.399 586.5 197.399 579.5 194.599 572.5ZM250.299 671.7L223.399 604.1L234.999 587.2C235.199 587 235.299 586.7 235.399 586.5L247.499 551.5L351.399 510.2L392.999 614.9L250.299 671.7Z" fill="#1A1A1A"/>
<path d="M492.399 1005.1L505.099 1017.6L580.399 942.9L591.699 968.2L656.999 1028.2C656.999 1028.2 666.299 1021.5 664.299 1022.2C662.299 1022.9 581.599 926.8 581.599 926.8L492.399 1005.1Z" fill="white"/>
<path d="M712.399 1107.8L706.999 1089.6L711.899 1073.4C712.199 1072.4 711.999 1071.3 711.299 1070.6L583.999 924.9C583.499 924.3 582.699 923.9 581.899 923.9C581.099 923.8 580.299 924.1 579.699 924.6L490.299 1002.8C489.099 1003.9 488.899 1005.8 489.999 1007L644.999 1184.2C645.599 1184.9 646.399 1185.2 647.299 1185.2C647.999 1185.2 648.699 1185 649.299 1184.5L671.399 1165.4C671.699 1165.2 671.899 1164.9 672.099 1164.5L689.099 1131.7L711.599 1110.9C712.399 1110.1 712.799 1108.9 712.399 1107.8ZM581.499 931.1L661.199 1022.2C648.599 1033.4 647.999 1034.4 647.699 1034.8C647.399 1035.3 646.799 1036.3 641.899 1059L586.299 1107.7L496.799 1005.3L581.499 931.1Z" fill="#1A1A1A"/>
<path d="M641.8 1059C646.7 1036.3 647.3 1035.3 647.6 1034.8C647.9 1034.3 648.5 1033.3 661.1 1022.2L581.4 931.1L496.6 1005.3L586.1 1107.7L641.8 1059Z" fill="#009B72"/>
<path d="M609.499 1020.6C609.399 1020.6 609.199 1020.6 608.999 1020.6L553.499 1012.2C551.899 1012 550.699 1010.4 550.999 1008.8C551.199 1007.2 552.799 1006 554.399 1006.3L609.899 1014.7C611.499 1014.9 612.699 1016.5 612.399 1018.1C612.199 1019.5 610.899 1020.6 609.499 1020.6Z" fill="#1A1A1A"/>
<path d="M582 1030.2C581.9 1030.2 581.7 1030.2 581.6 1030.2L559.8 1027.3C558.2 1027.1 557 1025.6 557.2 1023.9C557.4 1022.3 558.9 1021.1 560.6 1021.3L582.4 1024.2C584 1024.4 585.2 1025.9 585 1027.6C584.8 1029.1 583.5 1030.2 582 1030.2Z" fill="#1A1A1A"/>
<path d="M218.099 927.7L177.699 1004.3L259.399 1129L300.699 1052.3L218.099 927.7Z" fill="#009B72"/>
<path d="M221.199 927.8L302.099 927.7L384.699 1052.3H300.699L221.199 927.8Z" fill="white"/>
<path d="M387.399 1053.7C387.499 1053.5 387.599 1053.3 387.599 1053.1C387.599 1053 387.599 1053 387.599 1052.9C387.599 1052.7 387.599 1052.5 387.599 1052.3C387.599 1052.2 387.599 1052.2 387.599 1052.1C387.599 1051.9 387.499 1051.6 387.499 1051.4C387.499 1051.4 387.499 1051.3 387.399 1051.3C387.299 1051.1 387.199 1050.9 387.099 1050.8V1050.7L304.599 926C303.999 925.2 303.099 924.7 302.099 924.7H218.099C217.999 924.7 217.899 924.7 217.899 924.7H217.799C217.599 924.7 217.499 924.8 217.299 924.8H217.199C217.099 924.8 216.999 924.9 216.799 925C216.799 925 216.699 925 216.699 925.1C216.599 925.2 216.399 925.3 216.299 925.4C216.299 925.4 216.199 925.4 216.199 925.5C216.099 925.6 215.999 925.7 215.899 925.8L215.799 925.9C215.699 926 215.599 926.2 215.499 926.3L175.199 1003V1003.1C175.199 1003.2 175.099 1003.3 175.099 1003.4C175.099 1003.5 174.999 1003.6 174.999 1003.7C174.999 1003.8 174.999 1003.9 174.899 1004C174.899 1004.1 174.899 1004.2 174.899 1004.3C174.899 1004.4 174.899 1004.5 174.899 1004.6C174.899 1004.7 174.899 1004.8 174.899 1004.9C174.899 1005 174.899 1005.1 174.999 1005.2C174.999 1005.3 174.999 1005.4 175.099 1005.5C175.099 1005.6 175.199 1005.7 175.199 1005.8C175.199 1005.9 175.299 1006 175.299 1006.1C175.299 1006.1 175.299 1006.2 175.399 1006.2L257.099 1130.9L257.199 1131C257.299 1131.1 257.399 1131.3 257.499 1131.4L257.599 1131.5C257.799 1131.6 257.899 1131.8 258.099 1131.9H258.199C258.399 1132 258.599 1132.1 258.799 1132.1C258.999 1132.2 259.299 1132.2 259.499 1132.2H342.799C343.899 1132.2 344.899 1131.6 345.399 1130.6L387.399 1053.7C387.399 1053.8 387.399 1053.8 387.399 1053.7C387.399 1053.8 387.399 1053.8 387.399 1053.7ZM181.199 1004.2L218.399 933.6L297.299 1052.5L259.199 1123.2L181.199 1004.2ZM300.399 930.7L379.099 1049.4H302.299L223.599 930.7H300.399Z" fill="#1A1A1A"/>
<path d="M236.1 980.4C228.4 976 216.8 982.2 209.8 994.5C206.6 1000.1 204.8 1006.2 204.8 1011.6C204.8 1017.6 207 1022.1 210.9 1024.4C212.6 1025.4 214.4 1025.8 216.4 1025.8C219.1 1025.8 222 1024.9 225 1023.2C229.6 1020.5 234 1015.9 237.2 1010.3C244.3 998 243.8 984.8 236.1 980.4Z" fill="#1A1A1A"/>
<path d="M233.1 985.6C232.4 985.2 231.5 985 230.6 985C226.2 985 219.6 989.4 215 997.5C212.3 1002.2 210.8 1007.2 210.8 1011.6C210.8 1015.3 211.9 1018.1 213.9 1019.2C215.8 1020.3 218.5 1019.9 221.4 1018.4C219.9 1013.1 221.2 1005.5 225.4 998.3C228.1 993.7 231.4 990 234.9 987.5C234.4 986.7 233.8 986 233.1 985.6Z" fill="#009B72"/>
<path d="M266.299 1029.2C258.599 1024.8 246.999 1031 239.999 1043.3C236.799 1048.9 234.999 1055 234.999 1060.4C234.999 1066.4 237.199 1070.9 241.099 1073.2C242.799 1074.2 244.599 1074.6 246.599 1074.6C249.299 1074.6 252.199 1073.7 255.199 1072C259.799 1069.3 264.199 1064.7 267.399 1059.1C274.499 1046.7 273.999 1033.6 266.299 1029.2Z" fill="#1A1A1A"/>
<path d="M263.299 1034.4C262.599 1034 261.699 1033.8 260.799 1033.8C256.399 1033.8 249.799 1038.2 245.199 1046.3C242.499 1051 240.999 1056 240.999 1060.4C240.999 1064.1 242.099 1066.9 244.099 1068C245.999 1069.1 248.699 1068.7 251.599 1067.2C250.099 1061.9 251.399 1054.3 255.599 1047.1C258.299 1042.5 261.599 1038.8 265.099 1036.3C264.599 1035.4 263.999 1034.8 263.299 1034.4Z" fill="#009B72"/>
<path d="M302.7 1110.8C301.7 1110.8 300.6 1110.3 300.1 1109.3C299.3 1107.9 299.8 1106 301.2 1105.2L349.7 1077.7C351.1 1076.9 353 1077.4 353.8 1078.8C354.6 1080.2 354.1 1082.1 352.7 1082.9L304.2 1110.4C303.7 1110.7 303.2 1110.8 302.7 1110.8Z" fill="white"/>
<path d="M323.7 1117.3C322.7 1117.3 321.7 1116.8 321.1 1115.8C320.3 1114.4 320.8 1112.5 322.2 1111.7L340 1101.5C341.4 1100.7 343.3 1101.2 344.1 1102.6C344.9 1104 344.4 1105.9 343 1106.7L325.2 1116.9C324.7 1117.2 324.2 1117.3 323.7 1117.3Z" fill="white"/>
<path d="M304.699 978.7C304.399 978.7 304.099 978.7 303.799 978.6L264.799 966.6C263.199 966.1 262.299 964.4 262.799 962.9C263.299 961.4 264.999 960.4 266.499 960.9L305.499 972.9C307.099 973.4 307.999 975.1 307.499 976.6C307.199 977.8 305.999 978.7 304.699 978.7Z" fill="#009B72"/>
<path d="M294.6 961C294.3 961 294 961 293.7 960.9L279.5 956.6C277.9 956.1 277 954.4 277.5 952.9C278 951.3 279.7 950.4 281.2 950.9L295.4 955.2C297 955.7 297.9 957.4 297.4 958.9C297.1 960.1 295.9 961 294.6 961Z" fill="#009B72"/>
<path d="M525.499 694L643.299 617.4L707.999 716.9L573.899 803.4L531.199 737.3L539.499 717.2L525.499 694Z" fill="#009B72"/>
<path d="M585.099 796.9L543.799 738.6L552.399 711.3L546.399 695.6L647.399 625.3L643.299 617.4L525.399 695.6L539.499 717.2L532.099 739.1L573.899 803.4L585.099 796.9Z" fill="white"/>
<path d="M496.399 712.8L508.799 730.1L532.099 739.1L539.499 717.2L525.499 694L496.399 712.8Z" fill="#009B72"/>
<path d="M496.399 712.8L502.699 721.6L514.399 710.3C514.399 710.3 533.699 706.6 532.399 705.6C531.099 704.6 525.399 694 525.399 694L496.399 712.8Z" fill="white"/>
<path d="M710.599 715.3L645.799 615.8C644.899 614.4 642.999 614 641.599 614.9L524.199 691.3C524.099 691.4 523.999 691.4 523.799 691.5C523.599 691.6 523.399 691.8 523.299 691.9L495.599 710C495.299 710.1 494.999 710.2 494.699 710.4C494.499 710.6 494.299 710.7 494.099 710.9L444.299 743.3C443.599 743.7 443.199 744.4 442.999 745.2C442.799 746 442.999 746.8 443.399 747.5L508.199 847C508.799 847.9 509.699 848.4 510.699 848.4C511.299 848.4 511.799 848.2 512.299 847.9L709.599 719.5C711.099 718.6 711.499 716.7 710.599 715.3ZM530.199 735.3C522.299 732.4 512.699 728.7 510.599 727.7C509.399 726.3 504.999 720.1 500.699 713.8L524.499 698.3L536.199 717.6L530.199 735.3ZM575.099 799.9L535.299 738.8L542.299 718.3C542.599 717.5 542.499 716.5 541.999 715.8L529.599 695L642.399 621.6L703.899 716.1L575.099 799.9Z" fill="#1A1A1A"/>
<path d="M509.799 823.9C509.499 823.9 509.199 823.9 508.899 823.8C507.299 823.3 506.399 821.7 506.899 820.1L522.999 766.3C523.499 764.7 525.099 763.8 526.699 764.3C528.299 764.8 529.199 766.4 528.699 768L512.599 821.8C512.299 823.1 511.099 823.9 509.799 823.9Z" fill="white"/>
<path d="M525.7 819.8C525.4 819.8 525.2 819.8 524.9 819.7C523.3 819.3 522.4 817.6 522.8 816L528.7 794.8C529.1 793.2 530.8 792.3 532.4 792.7C534 793.1 534.9 794.8 534.5 796.4L528.6 817.6C528.2 818.9 527 819.8 525.7 819.8Z" fill="white"/>
<path d="M640.4 718.7C634.5 718.7 628.9 716.8 624.2 713.1C618.6 708.7 615.1 702.5 614.2 695.5C613.3 688.5 615.2 681.5 619.6 676C624 670.4 630.2 666.9 637.2 666C644.2 665.1 651.2 667 656.7 671.4C668.2 680.4 670.3 697.1 661.3 708.6C656.9 714.2 650.7 717.7 643.7 718.6C642.6 718.6 641.5 718.7 640.4 718.7Z" fill="#1A1A1A"/>
<path d="M642.899 712.5C648.299 711.8 653.199 709.1 656.499 704.8C663.499 695.9 661.899 683 652.899 676C649.299 673.2 644.899 671.7 640.299 671.7C639.499 671.7 638.599 671.8 637.699 671.9C632.299 672.6 627.499 675.3 624.199 679.5C627.799 680.1 631.399 681.7 634.499 684.1C643.399 691 645.899 703 641.199 712.7C641.899 712.6 642.399 712.6 642.899 712.5Z" fill="#009B72"/>
<path d="M607.4 728.1C606.5 721.1 603 714.8 597.4 710.5C591.8 706.2 584.9 704.2 577.9 705.1C570.9 706 564.6 709.5 560.3 715.1C551.3 726.6 553.4 743.3 564.9 752.3C569.6 756 575.3 757.9 581.1 757.9C582.2 757.9 583.3 757.8 584.4 757.7C591.4 756.8 597.7 753.3 602 747.7C606.4 742.1 608.3 735.1 607.4 728.1Z" fill="#1A1A1A"/>
<path d="M583.7 751.7C589.1 751 594 748.3 597.3 744C600.7 739.7 602.2 734.3 601.5 728.9C600.8 723.5 598.1 718.6 593.8 715.3C590.1 712.4 585.6 711 581.2 711C575.2 711 569.2 713.7 565.1 718.7C568.7 719.3 572.3 720.9 575.4 723.3C584.3 730.2 586.8 742.2 582.1 751.9C582.7 751.8 583.2 751.7 583.7 751.7Z" fill="#009B72"/>
<path d="M181.999 682.5C181.499 682.5 180.999 682.4 180.599 682.1C179.099 681.3 178.599 679.5 179.399 678L205.799 628.5C206.599 627 208.399 626.5 209.899 627.3C211.399 628.1 211.899 629.9 211.099 631.4L184.699 680.9C184.199 681.9 183.099 682.5 181.999 682.5Z" fill="white"/>
<path d="M198.399 681.6C197.899 681.6 197.499 681.5 196.999 681.3C195.499 680.5 194.899 678.7 195.699 677.3L205.699 657.7C206.499 656.2 208.299 655.6 209.699 656.4C211.199 657.2 211.799 659 210.999 660.4L200.999 680C200.599 681 199.499 681.6 198.399 681.6Z" fill="white"/>
<path d="M433.8 600.3C432.6 600.3 431.5 599.6 431 598.4L408.3 543.2C407.7 541.7 408.4 539.9 409.9 539.3C411.4 538.7 413.2 539.4 413.8 540.9L436.5 596.1C437.1 597.6 436.4 599.4 434.9 600C434.6 600.2 434.2 600.3 433.8 600.3Z" fill="#1A1A1A"/>
<path d="M430.5 635.9C429.3 635.9 428.2 635.2 427.7 634L408.9 588.4C408.3 586.9 409 585.1 410.5 584.5C412 583.9 413.8 584.6 414.4 586.1L433.2 631.7C433.8 633.2 433.1 635 431.6 635.6C431.3 635.8 430.9 635.9 430.5 635.9Z" fill="#1A1A1A"/>
<path d="M120.4 623.6C119.2 623.6 118.1 622.9 117.6 621.7L94.8998 566.5C94.2998 565 94.9998 563.2 96.4998 562.6C97.9998 562 99.7998 562.7 100.4 564.2L123.1 619.4C123.7 620.9 123 622.7 121.5 623.3C121.2 623.6 120.8 623.6 120.4 623.6Z" fill="#1A1A1A"/>
<path d="M445.4 789.5C444.4 789.5 443.5 789 442.9 788.1L410.2 738.1C409.3 736.7 409.7 734.9 411.1 733.9C412.5 733 414.3 733.4 415.3 734.8L448 784.8C448.9 786.2 448.5 788 447.1 789C446.5 789.4 446 789.5 445.4 789.5Z" fill="#1A1A1A"/>
<path d="M739.4 727.5C738.4 727.5 737.5 727 736.9 726.1L704.2 676.1C703.3 674.7 703.7 672.9 705.1 671.9C706.5 671 708.3 671.4 709.3 672.8L742 722.8C742.9 724.2 742.5 726 741.1 727C740.5 727.4 740 727.5 739.4 727.5Z" fill="#1A1A1A"/>
<path d="M533.3 944.2C532.5 944.2 531.6 943.8 531 943.1C529.9 941.8 530.1 939.9 531.3 938.9L576.8 900.1C578.1 899 580 899.2 581 900.4C582.1 901.7 581.9 903.6 580.7 904.6L535.2 943.4C534.7 944 534 944.2 533.3 944.2Z" fill="#1A1A1A"/>
<path d="M384.399 1103.1C383.899 1103.1 383.399 1103 382.999 1102.7C381.499 1101.9 380.999 1100.1 381.799 1098.6L410.499 1046.2C411.299 1044.7 413.099 1044.2 414.599 1045C416.099 1045.8 416.599 1047.6 415.799 1049.1L387.099 1101.5C386.499 1102.5 385.499 1103.1 384.399 1103.1Z" fill="#1A1A1A"/>
<path d="M181.7 950.4C181.2 950.4 180.7 950.3 180.3 950C178.8 949.2 178.3 947.4 179.1 945.9L207.8 893.5C208.6 892 210.4 891.5 211.9 892.3C213.4 893.1 213.9 894.9 213.1 896.4L184.4 948.8C183.8 949.8 182.8 950.4 181.7 950.4Z" fill="#1A1A1A"/>
<path d="M157.1 960.4C156.6 960.4 156.1 960.3 155.7 960C154.2 959.2 153.7 957.4 154.5 955.9L168.8 929.7C169.6 928.2 171.4 927.7 172.9 928.5C174.4 929.3 174.9 931.1 174.1 932.6L159.8 958.8C159.2 959.8 158.1 960.4 157.1 960.4Z" fill="#1A1A1A"/>
<path d="M107.8 636.5C106.6 636.5 105.5 635.8 105 634.6L95.6 611.8C95 610.3 95.7 608.5 97.2 607.9C98.7 607.3 100.5 608 101.1 609.5L110.5 632.3C111.1 633.8 110.4 635.6 108.9 636.2C108.5 636.4 108.2 636.5 107.8 636.5Z" fill="#1A1A1A"/>
<path d="M1796.4 1860.1H1598.3C1596.6 1860.1 1595.3 1858.8 1595.3 1857.1C1595.3 1855.4 1596.6 1854.1 1598.3 1854.1H1796.4C1798.1 1854.1 1799.4 1855.4 1799.4 1857.1C1799.4 1858.8 1798.1 1860.1 1796.4 1860.1Z" fill="#1A1A1A"/>
<path d="M1562.4 1860.1H1499.3C1497.6 1860.1 1496.3 1858.8 1496.3 1857.1C1496.3 1855.4 1497.6 1854.1 1499.3 1854.1H1562.4C1564.1 1854.1 1565.4 1855.4 1565.4 1857.1C1565.4 1858.8 1564.1 1860.1 1562.4 1860.1Z" fill="#1A1A1A"/>
<path d="M1293.8 383.1L1279.1 391.4C1279.1 391.4 1281.1 406.6 1293.3 407.2C1305.4 408 1293.8 383.1 1293.8 383.1Z" fill="#009B72"/>
<path d="M1300.4 364.3C1300.4 364.3 1281.1 401 1292.7 427.3C1304.4 453.6 1316 460.6 1341.4 455.6L1346.1 425.3L1371.8 383L1340.5 370L1300.4 364.3Z" fill="#009B72"/>
<path d="M808.4 457.6L770.1 385.6L739.4 325.6L739.7 338.3L760 392.6L787.6 459.6C787.7 459.6 798.1 462.3 808.4 457.6Z" fill="#1A1A1A"/>
<path d="M884.7 538.6L849.7 477.6L831.5 450.8L802.4 420.8C802.4 420.8 795.5 433.1 802.8 446.8C810.1 460.5 808.6 457.6 808.6 457.6C808.6 457.6 797.8 461.1 794.6 460.8C791.4 460.5 787.8 459.6 787.8 459.6L780 441.7C780 441.7 771 449.6 774 458.8C777 468 779.5 471.3 779.5 471.3C779.5 471.3 776.3 482.7 785.2 487.9C785.2 487.9 781 499.8 790.5 506.1C790.5 506.1 794 518.6 803.7 519.9C813.4 521.2 812.9 527.1 812.9 527.1L843.4 601.6C843.4 601.6 846.4 574.8 861.4 558.1C876.4 541.4 884.7 538.6 884.7 538.6Z" fill="#009B72"/>
<path d="M1776.7 1720.6L1782.9 1734.6C1782.9 1734.6 1774.4 1724.4 1765.1 1729.8C1755.8 1735.2 1749.6 1742.6 1748.6 1753.3C1747.6 1764 1741 1796.5 1741 1796.5L1733.8 1836L1727.4 1851.6L1695 1852.3L1684.8 1847.8C1684.8 1847.8 1680 1841.5 1684 1835.3C1684 1835.3 1697.5 1841.1 1707 1840.1C1716.5 1839.1 1721.8 1835.6 1721.8 1835.6L1728 1809.8L1733.2 1775L1738.2 1745.8L1750.7 1726.6L1764.5 1718.8L1776.7 1720.6Z" fill="white"/>
<path d="M1731.8 1636.3L1758.8 1692.3C1758.8 1692.3 1742.8 1689 1733.1 1696.6C1723.4 1704.3 1722.4 1717.9 1724.4 1725.9C1726.4 1733.9 1724.4 1747.2 1721.7 1749.9C1719 1752.6 1712.4 1754.6 1712.4 1754.6C1712.4 1754.6 1714.7 1744.9 1708.7 1737.9C1702.7 1730.9 1661.4 1683.1 1661.4 1683.1C1661.4 1683.1 1682.7 1680.9 1705.4 1662.9C1728.1 1645 1731.8 1636.3 1731.8 1636.3Z" fill="#009B72"/>
<path d="M1327.1 1829.3C1323.2 1831.4 1319.3 1833.6 1315.1 1834.9C1309.6 1836.7 1303.7 1836.9 1297.9 1836.9C1281 1836.9 1264.3 1834.5 1247.6 1831.8C1225.5 1828.2 1203.5 1824 1181.7 1819.1C1181.4 1818.7 1182.4 1818.9 1182.2 1819.3C1181.9 1819.7 1181.4 1819.6 1180.9 1819.5C1179.3 1819.5 1178.2 1821.4 1178.6 1823C1178.9 1824.6 1180.2 1825.8 1181.4 1826.8C1194.1 1837.4 1211.2 1840.8 1227.5 1843.8C1251.1 1848.2 1274.8 1852.6 1298.8 1853.1C1306.6 1853.3 1314.5 1853 1322 1851C1328.8 1849.2 1335.6 1845.5 1338.6 1839.1C1340.3 1835.4 1340.9 1829.6 1338.6 1825.9C1336.3 1822.1 1330.1 1827.6 1327.1 1829.3Z" fill="white"/>
<path d="M1229.9 1655.1L1243.4 1720.1L1259.4 1776.6C1259.4 1776.6 1260.9 1808.6 1279.4 1808.1C1297.9 1807.6 1301.9 1798.1 1301.9 1798.1C1301.9 1798.1 1313.4 1780.6 1328.9 1786.1C1328.9 1786.1 1318.8 1741.7 1318.1 1734.5C1317.8 1731.3 1314.9 1693.1 1314.9 1693.1C1314.9 1693.1 1304.9 1696.1 1271.4 1682.6C1237.9 1669.1 1229.9 1655.1 1229.9 1655.1Z" fill="#009B72"/>
<path d="M885 539.8C885 539.8 915.1 591.3 946.1 619.3C977.1 647.3 999.8 662 1057.1 655.3C1114.4 648.6 1182.1 576.3 1182.1 576.3C1182.1 576.3 1229.9 522.6 1271.2 510.6C1312.5 498.6 1348.8 500.6 1348.8 500.6C1348.8 500.6 1367.5 567.6 1385.8 600.3C1404.1 633 1493.1 738.3 1493.1 738.3L1543.8 793L1643.8 846.3C1643.8 846.3 1630.5 892.3 1615.8 927.6C1601.1 962.9 1578.3 1000.3 1559.1 1016.9L1578.9 1087.6C1578.9 1087.6 1591.9 1130.6 1593.9 1154.1C1595.9 1177.6 1588.4 1207.6 1588.4 1207.6C1588.4 1207.6 1604.4 1237.1 1616.4 1289.6C1628.4 1342.1 1616.4 1376.6 1616.4 1376.6L1665.9 1485.6L1731.7 1636.3C1731.7 1636.3 1721.9 1657.1 1687.9 1674.1C1653.9 1691.1 1616.4 1681.1 1616.4 1681.1C1616.4 1681.1 1563.4 1670.6 1547.4 1679.1C1531.4 1687.6 1507.9 1708.6 1489.9 1705.1C1471.9 1701.6 1404.9 1685.1 1404.9 1685.1C1404.9 1685.1 1383.9 1687.1 1359.9 1692.1C1335.9 1697.1 1283.4 1690.6 1251.9 1671.6C1220.4 1652.6 1223.9 1624.1 1223.9 1624.1L1187.4 1393.1C1187.4 1393.1 1168.9 1231.1 1166.4 1183.1C1163.9 1135.1 1162.4 1012.1 1162.4 1012.1L1171.7 907.6L1156.4 912.1C1156.4 912.1 1111.4 937.6 1033.4 935.6C955.4 933.6 901.4 904.6 901.4 904.6C901.4 904.6 853.9 851.1 843.9 733.6C833.9 616.1 842.4 595.1 853.9 570.1C865.4 545.1 885 539.8 885 539.8Z" fill="#009B72"/>
<path d="M1293 1252.7C1286.4 1242.3 1212.5 1159.6 1184.8 1105C1156.3 1048.6 1164.9 976.3 1164.9 976.3C1164.9 976.3 1152.9 1085.8 1172.4 1267.3C1191.9 1448.8 1229.9 1655.2 1229.9 1655.2L1271.4 1682.7C1271.4 1682.7 1247.4 1628.8 1209.9 1339.3C1205.9 1308.2 1202.7 1278.6 1200.1 1250.6L1200.2 1250.5C1200.2 1250.5 1196.8 1211.1 1235.7 1238.9C1240.3 1242.2 1247.4 1248 1253.5 1253.5C1257 1256.6 1259.9 1259.7 1262.8 1262.7C1268.6 1268.8 1273.6 1274.1 1280.2 1276.4C1281.4 1276.8 1282.6 1277 1283.9 1277C1287.8 1277 1291.8 1275.2 1294.3 1272.1C1296.2 1269.8 1297.1 1266.8 1297 1263.6C1296.7 1260.2 1295.4 1256.5 1293 1252.7Z" fill="white"/>
<path d="M1353.1 499C1353.1 499 1333.8 495 1303.8 501C1273.8 507 1235.1 524.3 1214.5 545.7C1193.9 567.1 1124.5 626.4 1124.5 626.4C1124.5 626.4 1053.2 670.4 1007.8 655.1C962.5 639.8 926.5 606.4 913.8 583.1C901.1 559.8 859.1 494.4 859.1 494.4L838.4 460.4L802.6 422C802.6 422 793.6 426.5 807.4 451.5C807.4 451.5 823.7 469.7 835.7 492.3C847.7 515 882.4 598.3 937.7 643.6C950.2 653.9 963.9 661.5 977.9 666.9C977.9 666.9 996.1 675.3 995.1 685.3C994.5 691.6 988.2 696.4 977.1 706.3C958.8 722.6 961.8 740.3 978.8 739C1009.8 736.6 1052.6 703.7 1074.5 685.1C1083.3 677.7 1130.5 634.9 1171.8 614.3C1218.5 591 1235.1 551 1271.8 531C1308.5 511 1363.1 516.3 1363.1 516.3L1353.1 499Z" fill="white"/>
<path d="M787.1 461.3C785.9 461.3 784.8 460.6 784.3 459.4L725.9 313.2C725.4 311.9 725.5 310.4 726.2 309.2C726.9 308 728.1 307.1 729.5 306.9C731.5 306.6 733.4 307.6 734.3 309.4L811 456.3C811.8 457.8 811.2 459.6 809.7 460.3C808.2 461.1 806.4 460.5 805.7 459L741.2 335.4L789.8 457.1C790.4 458.6 789.7 460.4 788.1 461C787.8 461.2 787.5 461.3 787.1 461.3Z" fill="#1A1A1A"/>
<path d="M794.6 464C791.3 464 787.5 463.7 783 462.8C781.4 462.5 780.3 460.9 780.6 459.3C780.9 457.7 782.5 456.6 784.1 456.9C800.7 459.9 806.5 455.4 806.6 455.3C807.8 454.2 809.7 454.3 810.8 455.6C811.9 456.8 811.8 458.8 810.5 459.9C809.8 460.4 805.4 464 794.6 464Z" fill="#1A1A1A"/>
<path d="M802.7 449.9C801.6 449.9 800.5 449.3 800 448.2C791.6 430.5 799.6 419.5 799.9 419.1C800.9 417.8 802.8 417.5 804.1 418.5C805.4 419.5 805.7 421.4 804.7 422.7C804.4 423.1 798.6 431.4 805.4 445.6C806.1 447.1 805.5 448.9 804 449.6C803.6 449.8 803.1 449.9 802.7 449.9Z" fill="#1A1A1A"/>
<path d="M1939.4 614.4C1931.3 579.2 1917.1 549.6 1899.5 530.8C1844.7 472.5 1758 474.9 1694.7 476.7C1673.5 477.3 1655.2 477.8 1641.5 476L1640.3 475.8C1585.4 468.5 1502.4 457.5 1470 371.2C1456.8 336.2 1436.4 312.2 1409.2 299.9C1380.2 286.8 1351.8 291.2 1340.8 295.4C1320.4 303.1 1292 328 1297.6 364.7C1297.7 365.6 1298.3 366.4 1299.1 366.9C1299.4 367.1 1305.7 370.9 1308.3 382.3C1309.6 387.8 1309.5 392.4 1309.5 396.2C1309.5 401.8 1309.4 406.5 1314.1 409.2C1316.2 410.4 1318.6 410.4 1320.8 409.3C1323 408.2 1326.9 404.9 1328 395.6C1328.5 391.6 1330.4 388.3 1333.3 386.4C1335.5 384.9 1338.1 384.5 1340.5 385.1C1342.2 385.6 1343.6 386.8 1344.6 388.6C1346.6 392.2 1346.8 397.6 1345.2 403.1C1344 407.1 1341.7 410.1 1340 411.9C1336.7 415.3 1334.8 420 1334.7 424.9C1334.3 453.7 1340.8 558.3 1440.6 695.2C1499.5 776 1565.3 829.9 1636.3 855.6C1666.9 866.7 1698.3 872.2 1729.8 872.2C1734.7 872.2 1739.5 872.1 1744.4 871.8C1781.3 869.8 1818.5 860.1 1855.1 843C1913 816.5 1934.4 763.9 1942.2 724.3C1948.7 689.8 1947.8 650.8 1939.4 614.4Z" fill="#1A1A1A"/>
<path d="M1805.3 797.1C1775 792 1739.8 790.6 1738.3 808.6C1736.8 826.6 1779.1 831.6 1787.2 835.5C1800.7 842 1791.4 854.2 1785.6 860.1C1807.9 855.3 1830.2 847.8 1852.5 837.3C1874.7 827.1 1891.3 812.9 1903.8 797.1C1907.6 791.6 1911.8 785.3 1915.3 780.1C1915.8 779.2 1916.4 778.3 1916.9 777.3C1906.4 789 1877.3 809.3 1805.3 797.1Z" fill="white"/>
<path d="M1496.4 439.6C1489.6 441.8 1438.6 448.4 1432.4 462.3C1428.4 471.2 1439.7 478.6 1455.4 476.3C1471.1 474 1476.4 473.3 1480.4 479.6C1484.4 485.9 1495.4 490.3 1510.7 485.9C1526 481.6 1553 464.2 1581.4 471.6C1581.4 471.6 1581.2 471.5 1580.8 471.4C1552.9 464.2 1524.4 452.3 1501.1 430.2C1503 432.7 1504.5 437 1496.4 439.6Z" fill="white"/>
<path d="M1539.9 1405.1L1439.4 1310C1431.4 1302.4 1431 1289.7 1438.6 1281.7L1438.9 1281.3C1446.5 1273.3 1459.2 1272.9 1467.2 1280.5L1567.7 1375.6C1575.7 1383.2 1576.1 1395.9 1568.5 1403.9L1568.2 1404.3C1560.7 1412.3 1547.9 1412.7 1539.9 1405.1Z" fill="white"/>
<path d="M1541.9 1483.6C1546.1 1476.9 1556.9 1473.6 1574.9 1485.1C1592.9 1496.6 1594.9 1501.1 1603.9 1499.6C1612.9 1498.1 1620.9 1493.3 1639.4 1505.1C1665.7 1521.9 1677.4 1534.6 1669.4 1543.1C1661.4 1551.6 1654.1 1543.9 1637.9 1550.6C1626.9 1555.1 1621.9 1562.6 1607.4 1555.1C1592.9 1547.6 1549.4 1514 1544.9 1507.6C1537.9 1497.6 1538.7 1488.8 1541.9 1483.6Z" fill="white"/>
<path d="M1653.04 1588.14C1662.2 1586.98 1668.83 1579.82 1667.85 1572.15C1666.88 1564.48 1658.68 1559.2 1649.53 1560.36C1640.38 1561.52 1633.75 1568.68 1634.72 1576.35C1635.69 1584.02 1643.89 1589.3 1653.04 1588.14Z" fill="white"/>
<path d="M1285.4 1032.2C1289.5 1053.2 1293.7 1074.2 1298.3 1095.1C1302.8 1116 1307.6 1136.9 1312.6 1157.7C1317.6 1178.5 1322.7 1199.2 1328.2 1219.9L1332.3 1235.4L1336.5 1250.9C1339.4 1261.2 1342.2 1271.5 1345.3 1281.7C1348.3 1292 1351.3 1302.2 1354.4 1312.4C1357.6 1322.6 1360.7 1332.8 1364.1 1342.9C1367.3 1353.1 1370.7 1363.2 1374.1 1373.3C1375.8 1378.4 1377.6 1383.4 1379.4 1388.4L1382 1396L1384.7 1403.5L1390.2 1418.5L1395.9 1433.5C1397.7 1438.5 1399.7 1443.5 1401.7 1448.4L1404.6 1455.8L1406.1 1459.5L1407.6 1463.2L1413.7 1478C1415.7 1483 1417.9 1487.8 1420 1492.7L1423.1 1500.1C1424.1 1502.6 1425.3 1505 1426.4 1507.4L1432.9 1522.1V1522.2C1433.6 1523.7 1432.9 1525.5 1431.4 1526.2C1430 1526.8 1428.3 1526.3 1427.6 1524.9C1422.4 1515.5 1417 1506.1 1412.2 1496.5L1408.5 1489.3C1407.3 1486.9 1406 1484.5 1404.9 1482.1L1397.9 1467.5L1396.2 1463.8L1394.5 1460.1L1391.2 1452.7C1389 1447.8 1386.7 1442.9 1384.6 1437.9L1378.3 1423L1372.3 1408C1364.3 1388 1357 1367.7 1350 1347.3C1346.5 1337.1 1343.3 1326.8 1340 1316.6C1336.9 1306.3 1333.6 1296 1330.7 1285.7C1318.7 1244.3 1308.4 1202.5 1299.8 1160.3C1295.4 1139.2 1291.6 1118.1 1288.1 1096.8C1286.4 1086.2 1284.8 1075.5 1283.3 1064.9C1281.8 1054.2 1280.5 1043.6 1279.5 1032.8C1279.3 1031.1 1280.6 1029.7 1282.2 1029.5C1283.7 1029.6 1285.1 1030.7 1285.4 1032.2Z" fill="#1A1A1A"/>
<path d="M1349.4 498L1340.4 457.5C1340.4 457.5 1340.4 457.5 1340.4 457.4C1340.3 457.2 1340.3 457 1340.2 456.8L1340.1 456.7C1340 456.5 1339.9 456.4 1339.8 456.2C1339.8 456.1 1339.7 456.1 1339.7 456.1C1339.6 456 1339.4 455.8 1339.2 455.7L1339.1 455.6C1338.9 455.5 1338.7 455.4 1338.5 455.3C1338.5 455.3 1338.5 455.3 1338.4 455.3H1338.3C1338.1 455.3 1337.9 455.2 1337.8 455.2C1337.7 455.2 1337.7 455.2 1337.6 455.2C1337.4 455.2 1337.2 455.2 1337 455.3H1336.9C1336.8 455.3 1331.1 456.7 1323.6 455C1313.3 452.6 1305 445.8 1298.8 434.8C1291 420.9 1292.6 403 1295.3 390.4C1298.3 376.5 1303.3 365.8 1303.4 365.7C1304.1 364.2 1303.5 362.4 1302 361.7C1300.5 361 1298.7 361.6 1298 363.1C1297.8 363.4 1294.9 369.8 1292.1 379.2C1291.8 379.4 1291.5 379.6 1291.3 379.9C1291.3 379.9 1287.9 384.4 1281.2 386.9C1277.8 388.2 1276.1 392.4 1277 397.4C1277.9 402.3 1281.4 407.2 1287.1 408.4C1286.9 419.7 1289 429.7 1293.5 437.7C1301.3 451.7 1311.5 457.7 1320.2 460.2L1326.7 498.7C1326.9 500.1 1328.1 501.2 1329.6 501.2L1346.6 501.7H1346.7C1347.6 501.7 1348.4 501.3 1349 500.6C1349.3 499.8 1349.6 498.9 1349.4 498ZM1287.2 402.2C1284.5 401.2 1283.4 398.7 1283 397.5C1282.1 394.9 1282.7 392.8 1283 392.5C1285.4 391.6 1287.4 390.5 1289.1 389.4C1288.2 393.8 1287.6 398.1 1287.2 402.2Z" fill="#1A1A1A"/>
<path d="M1237.1 683.6C1256.3 679.1 1263.4 690 1263.4 708.1C1263.4 729.6 1261.7 763.6 1239.1 780.3C1216.4 797 1129.9 822.6 1109.1 811.6C1091.7 802.4 1097.1 784.3 1112.4 776.3C1127.7 768.3 1178.4 764.3 1194.4 744.3C1210.4 724.3 1203.1 691.6 1237.1 683.6Z" fill="white"/>
<path d="M1860.7 562.6C1860 562.6 1859.4 562.4 1858.8 561.9C1821 530.9 1778.6 522.1 1749.7 520.2C1718.2 518.1 1695.5 523.5 1695.2 523.6C1693.6 524 1692 523 1691.6 521.4C1691.2 519.8 1692.2 518.2 1693.8 517.8C1694.8 517.6 1717.5 512.2 1749.9 514.3C1779.8 516.2 1823.6 525.3 1862.7 557.4C1864 558.5 1864.2 560.3 1863.1 561.6C1862.4 562.2 1861.5 562.6 1860.7 562.6Z" fill="white"/>
<path d="M1703 556.2C1651.5 556.2 1624.1 537 1622.7 536C1621.4 535 1621 533.2 1622 531.8C1623 530.5 1624.8 530.1 1626.2 531.1C1626.7 531.5 1665.4 558.2 1736 547.6C1737.6 547.4 1739.2 548.5 1739.4 550.1C1739.6 551.7 1738.5 553.3 1736.9 553.5C1724.6 555.5 1713.3 556.2 1703 556.2Z" fill="white"/>
<path d="M1788.4 1738.5C1788.4 1738.5 1788.3 1738.4 1788.4 1738.5C1787.5 1734.8 1785.1 1729.5 1782.1 1723.7C1782 1723.4 1781.9 1723.1 1781.8 1722.8C1781.8 1722.7 1781.5 1722.4 1781.1 1721.8C1773.3 1707.2 1762.1 1690.2 1760.8 1688.1L1734.5 1635C1733.1 1631.9 1665.9 1480.9 1627.2 1393.4C1625 1388.3 1622.4 1382.7 1619.7 1376.5C1621.1 1372.5 1625.1 1358.5 1624.6 1334.4C1624.5 1328 1624 1320.5 1622.9 1312C1622.9 1311.5 1622.8 1311.1 1622.8 1310.6C1622.8 1310.4 1622.7 1310.2 1622.6 1309.9C1619.2 1284.4 1610.8 1250 1591.7 1207.4C1606.1 1168.9 1591.3 1119.9 1575.6 1068.1C1570.7 1051.8 1565.6 1035.1 1561.5 1018.7C1583.5 997.9 1604.1 964.3 1622.6 918.8C1636.4 884.8 1643.9 856.5 1644 856.3C1644.4 854.7 1643.5 853.1 1641.9 852.6C1640.3 852.2 1638.7 853.1 1638.2 854.7C1637.9 855.8 1609.6 962.4 1559.9 1011.8C1558.6 1006.1 1557.4 1000.5 1556.4 994.9C1554 981.4 1552 967.9 1550.4 954.7C1550.4 954.6 1550.4 954.4 1550.4 954.3C1550.4 953.5 1546.2 871.3 1556.9 842.5C1559.7 835 1563.6 830.2 1568.5 828.2C1574.7 825.8 1580.6 828.7 1580.7 828.8C1582.1 829.5 1583.8 829 1584.7 827.6C1585.5 826.2 1585.1 824.5 1583.8 823.6L1543.6 797.1C1543.6 797.1 1543.5 797.1 1543.5 797C1543.3 796.9 1543.2 796.8 1543 796.8C1542.9 796.8 1542.9 796.8 1542.8 796.7C1542.6 796.6 1542.4 796.6 1542.1 796.6C1541.9 796.6 1541.7 796.6 1541.5 796.6C1541.4 796.6 1541.3 796.6 1541.2 796.7C1541.1 796.7 1540.9 796.8 1540.8 796.8C1540.7 796.8 1540.7 796.8 1540.6 796.9C1540.6 796.9 1540.5 796.9 1540.5 797C1540.3 797.1 1540.2 797.2 1540 797.3C1539.9 797.4 1539.9 797.4 1539.8 797.5C1539.7 797.6 1539.6 797.7 1539.5 797.9C1539.5 798 1539.4 798 1539.4 798.1C1539.3 798.2 1539.2 798.4 1539.2 798.5C1539.2 798.6 1539.1 798.6 1539.1 798.7C1539 798.9 1539 799.2 1539 799.4C1539 799.4 1539 799.4 1539 799.5C1538.8 802.9 1533.3 899.3 1550.6 996C1554.9 1020.1 1562.6 1045.3 1570 1069.8C1581.3 1107 1592.1 1142.7 1591.7 1173.5L1591.3 1175.9C1590.9 1177 1590.1 1178.1 1588.6 1178.6C1586 1179.5 1582.6 1178.2 1580.3 1175.5C1577.9 1172.8 1575 1167.1 1572.3 1161.3L1567.2 1149.3C1531 1059 1508.8 980.6 1508.5 979.6C1508.1 978 1506.4 977.1 1504.8 977.5C1503.2 977.9 1502.3 979.6 1502.7 981.2C1503 982.1 1524.6 1058.8 1560.1 1147.9C1560.1 1148.1 1560.2 1148.3 1560.3 1148.5C1560.5 1148.9 1562 1152.9 1564.2 1158.1C1571 1174.7 1578.2 1191.7 1585.8 1208.7C1597.8 1235.4 1612 1273.1 1616.9 1311.7C1616.9 1312.1 1617 1312.7 1617 1313.4C1617.1 1318 1616.3 1328.3 1608.3 1329.5C1602.5 1330.4 1597 1324.1 1593.3 1318C1556.9 1238.4 1511.9 1141.6 1511.3 1140.2C1510.6 1138.7 1508.8 1138 1507.3 1138.7C1505.8 1139.4 1505.1 1141.2 1505.8 1142.7C1506.4 1144 1547.8 1233 1583.2 1310.4C1583.2 1310.8 1583.3 1311.2 1583.4 1311.5C1583.5 1311.8 1584.4 1314.2 1586 1317.3L1612.7 1375.3C1616.1 1382.8 1619.1 1389.6 1621.8 1395.7C1658.6 1479 1721.3 1619.7 1728.5 1635.9C1723.2 1643.6 1693.1 1682.8 1639.7 1680.5C1629.7 1680.1 1618.7 1678.6 1608.1 1677.2C1596.1 1675.6 1583.9 1673.9 1572.5 1673.7C1572 1673.5 1571.5 1673.3 1571 1673.3C1570.8 1673.3 1570.5 1673.3 1570.3 1673.3C1552.5 1673.3 1543.5 1645.9 1533 1614.3C1530.9 1608 1528.8 1601.5 1526.5 1595C1513.9 1559.4 1469.4 1443.1 1469 1441.9C1468.6 1440.9 1467.8 1440.2 1466.7 1440C1465.7 1439.8 1464.6 1440.2 1463.9 1441C1461.2 1444.2 1463.4 1453.2 1489.8 1528.2C1494.4 1541.2 1499.1 1554.6 1503.3 1566.9C1505.2 1572.5 1507 1577.8 1508.8 1582.8C1524.6 1628.6 1533.3 1653.8 1534.4 1667.9C1535.2 1677.8 1532.2 1682.6 1530.7 1684.2C1530.4 1684.5 1530 1684.8 1529.7 1685.1C1509.1 1703.1 1499 1706.4 1454.5 1694.5C1440.9 1690.9 1430 1687.9 1420.5 1686C1420 1685.8 1419 1685.5 1417.6 1685.1C1411.4 1682.6 1395.9 1673.1 1386.3 1639.6C1372.7 1592.4 1356.8 1523.8 1342.7 1463.2C1335.4 1431.8 1328.5 1402.2 1323.3 1381.3C1320.5 1370.1 1318.3 1362 1316.6 1356.4C1314.1 1348.4 1312.7 1344.9 1309.3 1345.5C1308.3 1345.7 1307.5 1346.2 1306.9 1347.1C1303.6 1352 1309.1 1378.7 1329.5 1468.1C1334.7 1491 1340.1 1514.7 1344.7 1536C1350 1560.4 1356 1583.3 1361.2 1603.5C1371.8 1644 1379.7 1673.7 1374.7 1684.3C1374 1685.7 1373.3 1686.8 1371 1687.6H1370.9C1342.9 1696.9 1284.6 1687.6 1253.2 1668.8C1239.9 1660.8 1232 1651.7 1230.5 1642.3C1202 1487.5 1167.6 1262.6 1165.4 1070.6C1165.1 1045.3 1165.4 1023.2 1166.1 1004.1C1172.4 1005.1 1178.1 1005.7 1183.4 1005.7C1195.8 1005.7 1205.7 1002.8 1213.4 997.1C1227.4 986.6 1230.9 968.6 1232.4 952.3C1234.9 925.8 1237.3 913 1267.9 886.8C1303.3 856.5 1312.1 831.8 1315.9 813.6C1318 803.4 1315.9 789.7 1303.1 785C1293.6 781.5 1283.1 785.4 1278.3 794.3C1274.3 801.7 1269.4 809.9 1269.4 810C1269.2 810.3 1269.1 810.6 1269 810.8C1267.1 814.5 1255.7 835.1 1232.7 858C1209.4 881.3 1169 911.8 1109.3 924.6C1049.5 937.4 996.7 930.5 962.9 922.5C929.4 914.6 907.4 903.9 903.8 902.1C892.6 888.2 879.2 865.8 867.7 830.5C869.4 831.2 871.2 831.8 872.9 832.5C887.1 837.8 901.4 842.7 915.8 847.1C930.2 851.5 944.8 855.4 959.6 858.6C974.4 861.8 989.3 864.2 1004.4 865.5C1008.2 865.8 1011.9 866 1015.7 866.2C1019.5 866.4 1023.3 866.4 1027.1 866.4C1029 866.4 1030.9 866.4 1032.8 866.3L1038.4 866.1C1042.1 865.9 1045.8 865.7 1049.5 865.5C1064.3 864.6 1079 863.1 1093.6 861.1C1108.2 859.1 1122.7 856.6 1137.1 853.5C1144.3 852 1151.5 850.3 1158.6 848.5C1162.2 847.6 1165.7 846.7 1169.3 845.6C1172.9 844.6 1176.4 843.6 1180 842.4C1180.1 842.4 1180.1 842.4 1180.2 842.3C1181.7 841.7 1182.5 839.9 1181.9 838.4C1181.3 836.9 1179.5 836.1 1178 836.7C1176.4 837.3 1174.7 838 1173 838.5C1171.3 839.1 1169.6 839.6 1167.8 840.2C1164.3 841.2 1160.8 842.2 1157.3 843.1C1150.3 844.9 1143.2 846.5 1136 847.8C1121.7 850.4 1107.3 852.2 1092.8 853.2C1085.6 853.7 1078.3 853.9 1071.1 854.1C1063.9 854.1 1056.6 854.1 1049.4 853.8C1045.8 853.6 1042.2 853.5 1038.6 853.2C1035 853 1031.4 852.7 1027.9 852.3C1020.9 851.6 1013.9 850.5 1006.9 849C1003.4 848.3 1000 847.5 996.5 846.6C993.1 845.7 989.6 844.8 986.2 843.7C982.8 842.7 979.4 841.6 976 840.5C972.6 839.3 969.3 838.2 966 836.9C952.7 831.9 939.7 826.1 926.9 819.6C920.6 816.3 914.3 813 908.1 809.4C901.9 805.8 895.8 802.2 889.8 798.3C883.8 794.4 877.9 790.5 872.1 786.4C869.2 784.3 866.4 782.3 863.6 780.1L859.5 776.9L857.5 775.3L856.5 774.5L856 774.1C855.9 774 855.7 773.8 855.6 773.8C854.8 772.5 853.9 771.2 852.9 770.1C851.5 762.5 850.3 754.5 849.1 746.1C846.6 727.9 844.6 705.8 843.6 683.4C849.7 690.7 856.1 697.8 862.6 704.7C869.8 712.3 877.3 719.6 885 726.7L887.9 729.4L890.8 732C892.8 733.7 894.7 735.5 896.7 737.2C900.7 740.6 904.6 743.9 908.7 747.2C912.7 750.5 916.9 753.6 921 756.8C923.1 758.4 925.2 759.9 927.3 761.4C929.4 762.9 931.5 764.5 933.6 765.9C950.6 777.8 968.3 788.6 986.5 798.2C987.8 798.9 989.5 798.5 990.4 797.2C991.3 795.8 990.9 794 989.5 793C972.5 781.8 956.3 769.5 941 756.4C939.1 754.8 937.2 753.1 935.3 751.4C933.4 749.7 931.5 748.1 929.7 746.3C926 742.9 922.3 739.4 918.7 735.9C915.1 732.4 911.6 728.8 908.1 725.2C906.4 723.4 904.7 721.5 902.9 719.7L900.3 716.9L897.8 714.1C891.1 706.6 884.7 698.9 878.5 691C872.3 683.1 866.5 675.1 860.9 666.8C855.3 658.6 850.1 650.1 845.2 641.6C844.5 640.4 843.8 639.2 843.2 637.9C843.7 624.8 844.8 612.5 846.6 602.1C853.8 560.1 874.9 547 884.9 543.1C916.3 594.2 952.8 643.5 1002.9 656.5C1012.4 659 1022.1 660.2 1031.9 660.2C1058 660.2 1085.4 651.4 1114.7 633.7C1148.5 613.3 1177.8 585.3 1201.4 562.8C1212 552.7 1221.1 544 1228.6 538C1232.2 535.1 1235.9 532.4 1239.7 530C1239.9 530 1240.1 530 1240.4 530H1240.5C1240.9 530 1241.6 529.9 1242.1 529.9C1242.7 529.9 1243.3 529.9 1243.9 529.9C1245.1 529.9 1246.3 530 1247.4 530C1249.8 530.2 1252.1 530.5 1254.5 530.9C1259.2 531.8 1263.7 533.1 1268.1 535C1276.8 538.7 1284.6 544.3 1291.1 551.3C1297.5 558.2 1302.6 566.4 1306.6 575.1C1308.6 579.5 1310.3 584 1311.7 588.6C1313.2 593.3 1314.5 598 1315.9 602.8C1321.2 621.9 1325.9 641.4 1331.1 660.7C1336.3 680.1 1341.8 699.5 1348.6 718.7C1352 728.3 1355.7 737.8 1360 747.2C1364.3 756.6 1369 765.8 1374.7 774.8C1380.4 783.7 1387.1 792.3 1395.5 799.8C1399.7 803.5 1404.4 806.9 1409.5 809.7C1414.6 812.5 1420.2 814.7 1426.1 816C1427.6 816.3 1429.1 816.6 1430.5 816.8C1431.9 817 1433.3 817.2 1434.8 817.3C1437.7 817.6 1440.6 817.7 1443.5 817.7C1449.4 817.6 1455.3 816.8 1461 815.2C1472.4 812.1 1482.8 806.1 1491.4 798.7C1500.1 791.3 1507.2 782.7 1513.2 773.6C1513 773.5 1512.9 773.3 1512.7 773.2C1510.6 772 1497.2 760.5 1495.2 756.5C1494.4 757.9 1493.6 759.3 1492.8 760.6C1488.1 768.4 1482.6 775.5 1476.2 781.3C1469.9 787.2 1462.6 791.6 1454.9 794C1451 795.2 1447 796 1442.8 796.2C1440.7 796.3 1438.6 796.3 1436.5 796.2C1435.4 796.2 1434.4 796 1433.3 795.9C1432.3 795.8 1431.3 795.6 1430.3 795.5C1422.4 794.1 1414.9 790.2 1408.1 784.7C1401.3 779.2 1395.2 772.1 1389.8 764.4C1384.4 756.7 1379.6 748.3 1375.3 739.7C1370.9 731 1367 722.1 1363.4 713C1356.1 694.8 1349.9 675.9 1343.9 656.9C1338 637.9 1332.5 618.7 1326.3 599.5C1324.7 594.7 1323.2 589.9 1321.4 585.1C1319.6 580.2 1317.6 575.4 1315.3 570.8C1310.6 561.5 1304.7 552.7 1297.2 545.3C1289.7 537.9 1280.7 531.9 1270.9 528.2C1266 526.3 1260.9 525 1255.7 524.3C1253.8 524 1252 523.9 1250.1 523.7C1252 522.7 1253.8 521.7 1255.7 520.8C1256.1 520.8 1256.5 520.9 1256.9 520.9C1258.4 521.1 1260 521.4 1261.5 521.7C1264.6 522.3 1267.6 523.2 1270.6 524.3C1276.5 526.4 1282.2 529.3 1287.4 532.7C1297.9 539.6 1306.7 548.9 1313.6 559.4C1314.5 560.7 1315.3 562 1316.1 563.4L1317.3 565.4L1318.5 567.5C1320.1 570.2 1321.4 573 1322.8 575.9C1325.4 581.7 1327.7 587.7 1329.9 593.8C1334.2 606 1338.1 618.6 1342.3 631.2C1346.5 643.8 1351 656.5 1356.6 669C1359.4 675.2 1362.5 681.5 1366 687.5C1369.6 693.6 1373.6 699.5 1378.4 705.1C1383.2 710.7 1388.8 715.9 1395.3 720.2C1398.5 722.4 1402 724.2 1405.7 725.8C1407.5 726.6 1409.4 727.3 1411.3 727.9C1413.2 728.5 1415.1 729.1 1417.1 729.5C1419 730 1421 730.3 1423 730.6C1425 730.8 1426.9 731.1 1428.9 731.1C1432.8 731.3 1436.7 731.2 1440.6 730.8C1448.2 730 1455.6 728.3 1462.6 726.1H1462.7C1462.9 726 1463.2 725.9 1463.4 725.8C1464.9 725.2 1466.2 724.3 1467.4 723.3C1466.4 722.3 1452.9 707.5 1451.2 703.4C1446.7 705 1442.2 706.2 1437.7 707C1435 707.4 1432.3 707.7 1429.6 707.7C1428.3 707.8 1426.9 707.6 1425.6 707.6C1424.3 707.5 1423 707.4 1421.7 707.1C1420.4 706.9 1419.1 706.6 1417.9 706.3C1416.7 705.9 1415.4 705.6 1414.2 705.1C1411.7 704.2 1409.3 703.1 1407 701.8C1402.3 699.1 1397.9 695.5 1393.8 691.4C1385.7 683 1379 672.3 1373.1 661.1C1367.2 649.8 1362.1 637.9 1357.3 625.7C1352.4 613.6 1347.7 601.2 1342.5 588.8C1339.9 582.6 1337.1 576.5 1333.9 570.4C1332.3 567.4 1330.5 564.3 1328.7 561.5L1327.3 559.3L1325.8 557.2C1324.8 555.8 1323.8 554.4 1322.8 553C1314.5 542 1304.2 532.3 1292.1 525.4C1286.1 522 1279.7 519.2 1273.1 517.3C1271 516.7 1269 516.2 1266.9 515.8C1307.5 499.2 1346.6 501.4 1347.1 501.5C1348.8 501.6 1350.2 500.4 1350.3 498.7C1350.4 497 1349.2 495.6 1347.5 495.5C1344.7 495.3 1277.2 491.4 1225.4 533.2C1217.7 539.4 1208.5 548.2 1197.8 558.4C1174.4 580.7 1145.4 608.5 1112.2 628.5C1073.3 652 1038.3 659.2 1005 650.6C946.8 635.5 906.8 567.6 871.5 507.8C867.6 501.2 863.5 494.3 859.6 487.7C852.3 475.6 844.6 463.8 836.8 452.4C836.7 452.3 836.6 452.2 836.5 452.1L805.3 418.7C804.2 417.5 802.3 417.4 801.1 418.6C799.9 419.7 799.8 421.6 801 422.8L832.1 456C839.8 467.2 847.3 478.9 854.5 490.8C858.4 497.3 862.5 504.2 866.4 510.8C871.6 519.7 877 528.8 882.5 537.8C872.1 542.2 852.8 554.8 843.8 590C841.2 582.2 835.2 562.8 835.9 552.4V552.3C836 549.9 836.3 547.1 836.6 544.3C837.7 533.9 838.9 522.1 830.2 518C824.3 515.3 811.9 515.9 810.5 516H810.4C810.3 516 810.2 516 810.1 516C810 516 804.5 516.9 798.1 513.4C794.6 511.1 794.4 505.9 794.4 505.9C794.4 504.9 793.9 504 793.1 503.5C784.8 498 788.4 490.1 788.8 489.2C789.2 488.4 789.2 487.6 788.9 486.8C788.6 486 788 485.4 787.2 485.1C787.1 485.1 779.5 482.1 782.2 470.4C782.4 469.4 782.2 468.4 781.5 467.7C781.1 467.2 770.8 455.4 783 443.8C784.2 442.7 784.3 440.8 783.1 439.6C782 438.4 780.1 438.3 778.9 439.5C765.1 452.6 773.1 466.3 776.1 470.5C774.3 480.5 778.5 486.5 782.4 489.3C781 494.3 781.1 502.1 788.6 507.8C789 510.4 790.3 515.7 795 518.7C795.1 518.7 795.1 518.8 795.2 518.8C800.8 521.9 805.9 522.4 808.8 522.3C811.1 527.9 817.9 544.5 824.7 561.1C828.9 571.3 833.1 581.5 836.3 589.1C837.9 592.9 839.2 596.1 840.2 598.3C840.7 599.4 841.1 600.3 841.3 600.9C841.4 601 841.4 601.2 841.5 601.3C834.8 640.6 838 704.4 843.9 747.1C856.2 836.8 881.3 883.3 900.2 906.5C900.5 906.8 900.8 907.1 901.1 907.3C902 907.8 924.6 919.6 961.9 928.4C982.5 933.3 1010.1 937.8 1042 937.8C1063.4 937.8 1086.7 935.8 1111.1 930.6C1132.7 926 1151.9 919.1 1168.7 911C1162.9 934.1 1160.6 997.6 1160.5 1000.5C1160.5 1001 1160.6 1001.4 1160.7 1001.8C1160 1021.4 1159.7 1044.2 1160 1070.3C1162.2 1262.8 1196.7 1488.2 1225.2 1643.4C1225.4 1644.5 1225.7 1645.6 1226 1646.6C1225.9 1647 1225.8 1647.5 1225.9 1648C1234.4 1698.7 1244.4 1735.7 1251.7 1758.5C1245.4 1749.8 1237.8 1742.1 1230.5 1740.9C1226.3 1740.3 1222.5 1741.7 1219.3 1745.1C1216.2 1748.4 1215.1 1752.3 1216.1 1756.3C1217.6 1762.5 1224.3 1768.5 1232.2 1773.5C1226.4 1773 1221.8 1773.8 1218.7 1775.8C1215.5 1777.8 1213.7 1781.1 1213.6 1785.3C1213.6 1785.8 1213.6 1786.3 1213.6 1786.8L1212.2 1786.9C1190.7 1788.7 1181.3 1796.8 1177.3 1803.4C1173.7 1809.1 1173.4 1815.1 1174.6 1818.6C1176.1 1827.7 1182.8 1835.2 1191.7 1837.8C1215.4 1844.5 1263.6 1856.1 1294 1856.6C1295 1856.6 1295.9 1856.6 1296.8 1856.6C1323.6 1856.6 1339.1 1849.5 1342.7 1842.3C1345.4 1836.8 1345.4 1830 1342.7 1821.9C1342.7 1821.8 1342.6 1821.7 1342.6 1821.6C1342.6 1821.5 1342.6 1821.4 1342.5 1821.4C1342.5 1819.6 1341.8 1816.8 1340.2 1810.9C1338 1802.5 1334.3 1788.3 1329.1 1763.7C1321.5 1727.6 1319.7 1703.5 1319.2 1695.6C1339.9 1698.3 1359.8 1697.8 1373.5 1693.2C1389.1 1688 1401.6 1688 1419.3 1691.6C1419.8 1691.7 1420.1 1691.8 1420.2 1691.8C1429.5 1693.7 1440.3 1696.6 1453.8 1700.2C1471.3 1704.9 1483.9 1707.6 1494.5 1707.6C1509.3 1707.6 1520 1702.3 1534.5 1689.6C1534.6 1689.5 1534.7 1689.5 1534.8 1689.4C1551.3 1675.3 1580.3 1679.2 1608.3 1683C1619.1 1684.5 1630.2 1686 1640.5 1686.4C1647.7 1686.7 1654.4 1686.3 1660.8 1685.4L1703.8 1735.2C1705.8 1737.6 1707.4 1740.2 1708.6 1743.1C1700.5 1736.8 1693.9 1734.1 1688.6 1734.8C1685.2 1735.3 1682.4 1737.2 1680.4 1740.4C1678 1744.3 1677.5 1748.4 1679 1752.1C1680.9 1756.9 1686 1760.8 1692.2 1763.9C1688 1764 1684.7 1764.9 1682.3 1766.6C1679.4 1768.7 1677.8 1771.8 1677.7 1775.8C1677.5 1780.8 1679.8 1783.6 1681.7 1785C1684 1786.7 1687.4 1787.6 1691.7 1787.6C1696.5 1787.6 1702.5 1786.5 1709.7 1784.4C1709.2 1797.1 1708.5 1809.8 1708 1817.9C1704.4 1817.7 1698.4 1817.7 1694 1819.7C1687.6 1822.6 1684.2 1829.1 1682.9 1832.2C1679.7 1836.3 1679.1 1841.7 1681.3 1846.5C1683.6 1851.4 1688.4 1854.5 1693.8 1854.5H1746.5C1756.2 1854.5 1765.3 1849.9 1771 1842.2C1775 1836.8 1782.2 1825.2 1785.8 1808C1792 1772.5 1792.8 1756.9 1788.4 1738.5ZM1220.8 1755.1C1220.5 1753.8 1220.3 1751.8 1222.6 1749.4C1224.1 1747.8 1225.7 1747 1227.4 1747C1227.7 1747 1228 1747 1228.4 1747.1C1233.8 1747.9 1241.2 1755.2 1249.2 1767.5C1252.2 1772.1 1254.8 1776.6 1256.7 1780.2C1252.9 1778.6 1248.1 1776.4 1243.1 1773.9C1230.1 1766.9 1222.1 1760.3 1220.8 1755.1ZM1220.8 1781.1C1222.5 1780.1 1224.9 1779.6 1227.8 1779.6C1233.4 1779.6 1240.8 1781.3 1247.6 1783.4L1218.5 1786.4C1218.5 1786.2 1218.5 1786 1218.5 1785.7C1218.5 1782.8 1219.8 1781.7 1220.8 1781.1ZM1336.8 1828.1C1337.8 1832.9 1337.6 1836.9 1336.1 1840C1334.3 1843.8 1321.2 1851.4 1292.9 1850.9C1263.1 1850.4 1215.5 1839 1192.1 1832.3C1187.6 1831 1183.8 1828 1181.5 1824.1C1183.9 1824.9 1187 1825.7 1191.1 1826.7C1199.8 1828.8 1212 1831.3 1225.3 1833.6C1248.8 1837.7 1278.6 1841.7 1292.9 1841.7C1293.1 1841.7 1293.2 1841.7 1293.4 1841.7C1315.4 1841.5 1330.1 1833.6 1336.8 1828.1ZM1322 1765.1C1323.3 1771.4 1324.5 1776.9 1325.6 1781.9C1321.1 1781.4 1313.7 1783 1303.2 1792.5C1301.4 1794.1 1300 1795.7 1298.7 1797.3C1295 1801.7 1292.1 1805.1 1282.8 1805.8C1271.4 1806.7 1266 1784.3 1265.9 1784V1783.9C1265.9 1783.8 1265.8 1783.7 1265.8 1783.6V1783.5C1265.2 1782 1247.7 1740.6 1233.1 1660.9C1237.3 1665.5 1242.8 1669.9 1249.7 1674.1C1266.2 1684 1289.3 1691.3 1312 1694.9C1312.3 1701.6 1313.9 1726.3 1322 1765.1ZM1707.1 1731.4L1666.4 1684.3C1685.6 1680.1 1700.4 1671.2 1710.5 1663.3C1720.8 1655.2 1727.7 1647 1731.3 1642.2L1754.6 1689.3C1747.9 1688.3 1739.8 1689.6 1733.4 1693C1724.7 1697.7 1719.8 1705.7 1719.8 1715.6C1719.7 1722.6 1720.8 1726.6 1721.6 1729.7C1722.5 1733.2 1723.2 1735.8 1722.2 1741.6C1721.2 1747.4 1717.8 1749.9 1715.3 1750.9C1714.7 1743.8 1711.9 1737 1707.1 1731.4ZM1683.3 1750C1682.5 1748 1682.8 1746 1684.2 1743.7C1685.2 1742 1686.5 1741.1 1688.1 1740.9C1690.7 1740.5 1697 1741.6 1709.3 1752.8C1709.3 1753.4 1709.3 1754 1709.3 1754.6C1709.2 1757.6 1709.1 1760.9 1709 1764.5C1694.8 1760.4 1685.4 1755.2 1683.3 1750ZM1684 1780.4C1683.3 1779.9 1682.3 1778.8 1682.4 1776.2C1682.5 1773.4 1683.6 1772.3 1684.5 1771.7C1688.2 1769.1 1697 1769.6 1708.8 1773.1C1708.7 1774.8 1708.7 1776.5 1708.6 1778.2C1691.3 1783.8 1685.6 1781.6 1684 1780.4ZM1773.6 1725.3C1767.6 1724.3 1761.3 1727 1755.1 1733.5C1746.1 1742.8 1742.6 1764.4 1738.1 1796.2C1735.7 1813.6 1733.5 1825.2 1731.1 1833.8C1727.4 1846.9 1724.2 1848.5 1723.3 1848.6H1692.5C1689.4 1848.6 1686.7 1846.9 1685.4 1844.1C1684.4 1842 1684.4 1839.7 1685.3 1837.7C1689.3 1839.4 1697.4 1842.3 1706.7 1842.3C1711.3 1842.3 1716.1 1841.6 1720.9 1839.7C1726.8 1837.3 1729 1824.2 1732.8 1799.2C1733.2 1796.4 1733.7 1793.5 1734.1 1790.7C1734.6 1787.6 1735 1784.1 1735.5 1780.4C1738.2 1758.3 1741.9 1728.1 1763.9 1722.4C1771.3 1720.5 1775 1723.7 1776.1 1725.1C1776.3 1725.4 1776.4 1725.7 1776.6 1726C1775.6 1725.8 1774.7 1725.5 1773.6 1725.3Z" fill="#1A1A1A"/>
<path d="M1821.7 771.9C1822.4 782.5 1835.3 788.5 1852 787.1C1870.3 785.7 1879 785.1 1880.7 774.6C1882.3 765.1 1871 752.4 1851.1 753.1C1830 753.9 1821 761.2 1821.7 771.9Z" fill="white"/>
<path d="M1226.5 1797.4C1217.3 1797.4 1214 1793.3 1212.9 1789.7C1212.4 1788.1 1213.3 1786.4 1214.9 1786C1216.5 1785.5 1218.2 1786.5 1218.6 1788C1219.2 1790 1221.6 1792.1 1229.8 1791.2C1242.3 1789.8 1258.9 1782.4 1259.1 1782.3C1260.6 1781.6 1262.4 1782.3 1263.1 1783.8C1263.8 1785.3 1263.1 1787.1 1261.6 1787.8C1260.9 1788.1 1243.9 1795.7 1230.5 1797.2C1229.1 1797.3 1227.7 1797.4 1226.5 1797.4Z" fill="white"/>
</svg>
