<svg width="2000" height="2000" viewBox="0 0 2000 2000" fill="none" xmlns="http://www.w3.org/2000/svg">
<path d="M1526.5 1040.4C1649.1 1515.2 1568.5 1799.5 1145.5 1787.5C759.6 1776.6 611.4 1823.5 492.4 1657.8C411.6 1545.3 356 1368.1 348.3 1179.8C339.7 968.3 391.6 742.9 536.4 579.7C910 158.5 1377.9 464.6 1526.5 1040.4Z" fill="#046865"/>
<path d="M755.4 1577C755.4 1577 753.7 1610.3 743.1 1624.3L792.4 1655L843.1 1637.7L848.4 1583L801.7 1575L755.4 1577Z" fill="#009B72"/>
<path d="M1457.9 581.1L1491.4 729.6C1491.4 729.6 1494.4 740.6 1501.9 740.1C1509.4 739.6 1511.4 734.6 1511.4 734.6L1549.4 579.6L1457.9 581.1Z" fill="white"/>
<path d="M1135.9 571.1C1135.9 571.1 1180.4 603.6 1196.4 625.6C1212.4 647.6 1266.4 738.1 1266.4 738.1C1266.4 738.1 1259.9 781.1 1237.9 816.6C1215.9 852.1 1181.9 886.6 1181.9 886.6L1119.4 837.1L1123.9 921.1L1134.4 1033.6C1134.4 1033.6 1070.9 1045.6 1067.4 1046.1C1063.9 1046.6 1020.9 1048.6 1020.9 1048.6L973.9 1043.1C973.9 1043.1 934.1 1033.6 905.9 1018.6C877.7 1003.6 815.9 974.1 792.9 967.1C769.9 960.1 732.4 953.1 732.4 953.1L779.9 812.1L758.4 835.1C758.4 835.1 716.9 799.1 695.9 770.6C674.9 742.1 651.4 706.6 651.4 706.6L708.9 638.1L772.9 581.6L826.4 546.6L878.4 525.1L920.4 513.1C920.4 513.1 918.9 561.6 958.9 594.6C998.9 627.6 1059.4 619.6 1059.4 619.6C1059.4 619.6 1110.4 611.1 1135.9 571.1Z" fill="white"/>
<path d="M924.4 538.2L920.9 514.2C920.8 513.4 920.3 512.6 919.6 512.2C918.9 511.7 918.1 511.6 917.2 511.7C916.8 511.8 875.8 521.1 828 544.9C780.1 568.8 694.8 652.9 691.2 656.4C691.1 656.5 691.1 656.5 691 656.6L648.5 706.4C647.7 707.4 647.5 708.8 648.2 709.9L659.7 729.1C660.2 730 661.1 730.5 662.1 730.6C662.2 730.6 662.2 730.6 662.3 730.6C663.2 730.6 664.1 730.2 664.7 729.4C665.3 728.6 727.1 646.3 789 603.1C850.8 559.9 921.3 541.7 922 541.5C923.7 541.2 924.6 539.7 924.4 538.2Z" fill="#009B72"/>
<path d="M1128.9 964.4L1123.4 900.5V870.1C1123.4 868.9 1122.7 867.9 1121.7 867.4C1120.6 866.9 1119.4 867.1 1118.5 867.8L1074.5 904.8C1073.9 905.3 1073.5 906.1 1073.4 906.9C1073.3 907.7 1073.6 908.5 1074.1 909.1L1123.6 966.6C1124.2 967.3 1125 967.6 1125.9 967.6C1126.3 967.6 1126.7 967.5 1127.1 967.4C1128.3 966.9 1129 965.7 1128.9 964.4Z" fill="#009B72"/>
<path d="M955.8 837.7C941.1 837.7 929.2 849.6 929.2 864.3C929.2 879 941.1 890.9 955.8 890.9C970.5 890.9 982.4 879 982.4 864.3C982.4 849.6 970.4 837.7 955.8 837.7Z" fill="#1A1A1A"/>
<path d="M804.4 740.9C789.7 740.9 777.8 729 777.8 714.3C777.8 699.6 789.7 687.7 804.4 687.7C819.1 687.7 831 699.6 831 714.3C831 729 819.1 740.9 804.4 740.9ZM804.4 693.7C793 693.7 783.8 702.9 783.8 714.3C783.8 725.7 793 734.9 804.4 734.9C815.8 734.9 825 725.7 825 714.3C825 702.9 815.8 693.7 804.4 693.7Z" fill="#009B72"/>
<path d="M896.4 618.9C880.3 618.9 867.1 605.8 867.1 589.6C867.1 573.5 880.2 560.3 896.4 560.3C912.5 560.3 925.7 573.4 925.7 589.6C925.7 605.8 912.6 618.9 896.4 618.9ZM896.4 566.4C883.6 566.4 873.1 576.8 873.1 589.7C873.1 602.6 883.5 613 896.4 613C909.3 613 919.7 602.6 919.7 589.7C919.7 576.8 909.3 566.4 896.4 566.4Z" fill="#1A1A1A"/>
<path d="M1171.8 741.6C1160.4 741.6 1151.1 750.9 1151.1 762.3C1151.1 773.7 1160.4 783 1171.8 783C1183.2 783 1192.5 773.7 1192.5 762.3C1192.5 750.9 1183.2 741.6 1171.8 741.6Z" fill="#009B72"/>
<path d="M823.8 955C813.1 955 802.8 958.9 794.8 965.9C793.6 967 793.4 968.9 794.5 970.1C795.6 971.3 797.5 971.5 798.7 970.4C799.1 970.1 799.4 969.8 799.8 969.5L861.5 996.1C861.5 996.6 861.6 997.1 861.6 997.5C861.7 999.1 863 1000.4 864.6 1000.4H864.7C866.4 1000.3 867.7 999 867.6 997.3C866.8 973.7 847.6 955 823.8 955Z" fill="#009B72"/>
<path d="M1002.8 976.7C1001.9 976.7 1000.9 976.3 1000.3 975.4L965.3 925C964.8 924.3 964.6 923.4 964.8 922.6C965 921.8 965.5 921.1 966.3 920.7L1017 893C1018.3 892.3 1019.9 892.6 1020.8 893.8L1055.5 936.8C1056 937.4 1056.3 938.3 1056.1 939.1C1056 939.9 1055.5 940.7 1054.8 941.1L1004.4 976.1C1003.9 976.5 1003.3 976.7 1002.8 976.7ZM972.1 924.3L1003.5 969.5L1048.8 938.1L1017.7 899.5L972.1 924.3Z" fill="#1A1A1A"/>
<path d="M814 922.7L793.9 893.7C793.4 893 792.8 892.6 792 892.5C791.2 892.4 790.4 892.5 789.8 893L755.6 916.7C754.2 917.6 753.9 919.5 754.8 920.9L774.9 949.9C775.4 950.6 776 951 776.8 951.1C777 951.1 777.2 951.1 777.3 951.1C777.9 951.1 778.5 950.9 779 950.6L813.2 926.9C814.6 925.9 814.9 924 814 922.7Z" fill="#1A1A1A"/>
<path d="M928.1 825.8C926.9 825.8 925.7 825 925.3 823.8L910.4 780.3C910.1 779.5 910.2 778.6 910.6 777.8C911 777.1 911.8 776.5 912.6 776.4L957.1 767.4C958.6 767.1 960 767.9 960.5 769.3L974.4 807C974.7 807.8 974.6 808.6 974.3 809.3C974 810 973.3 810.6 972.6 810.8L929.1 825.7C928.8 825.8 928.4 825.8 928.1 825.8ZM917.2 781.6L930 819L967.8 806.1L955.9 773.7L917.2 781.6Z" fill="#009B72"/>
<path d="M962.4 704.6C961.5 704.6 960.6 704.2 960 703.4L934.8 669.1C934.3 668.4 934.1 667.6 934.3 666.8C934.5 666 934.9 665.3 935.6 664.8L989.2 630.3C989.9 629.9 990.7 629.7 991.5 629.9C992.3 630.1 993 630.6 993.4 631.3L1019.7 675.5C1020.1 676.2 1020.2 677.1 1020 677.9C1019.8 678.7 1019.2 679.4 1018.4 679.7L963.7 704.4C963.3 704.6 962.9 704.6 962.4 704.6ZM941.5 668.1L963.4 697.9L1012.8 675.6L989.8 637L941.5 668.1Z" fill="#009B72"/>
<path d="M836 606.9L800.6 576.1C799.5 575.2 797.9 575.1 796.8 576L746.9 615.5C745.6 616.5 745.4 618.4 746.4 619.7L778.6 660.6C779.1 661.3 779.9 661.7 780.7 661.7C780.8 661.7 780.9 661.7 780.9 661.7C781.7 661.7 782.4 661.4 782.9 660.9L836 611.3C836.6 610.7 837 609.9 837 609.1C837.1 608.3 836.7 607.5 836 606.9Z" fill="#009B72"/>
<path d="M917.7 733.2C917.3 733.2 917 733.1 916.6 733L872 716.1C870.9 715.7 870.2 714.7 870.1 713.6C870 712.5 870.5 711.4 871.4 710.8L913 683.5C913.9 682.9 915 682.8 916 683.3C917 683.8 917.6 684.7 917.7 685.8L920.7 730C920.8 731 920.3 732 919.5 732.6C918.9 733 918.3 733.2 917.7 733.2ZM879.7 712.6L914.4 725.7L912.1 691.3L879.7 712.6Z" fill="#009B72"/>
<path d="M870.3 668.4L861.3 633.4C861 632.4 860.3 631.6 859.3 631.3C858.3 631 857.2 631.2 856.5 631.9L822.5 660.4C821.6 661.2 821.2 662.4 821.5 663.5C821.8 664.6 822.8 665.5 823.9 665.7L866.9 672.2C867 672.2 867.2 672.2 867.3 672.2C868.1 672.2 869 671.8 869.5 671.2C870.3 670.4 870.6 669.4 870.3 668.4Z" fill="#1A1A1A"/>
<path d="M721.4 701.6C720.4 701.6 719.5 701.1 718.9 700.3C718.3 699.5 718.2 698.4 718.6 697.5L732.6 662.5C733 661.4 734.1 660.7 735.3 660.6C736.5 660.5 737.6 661.2 738.1 662.2L755.6 696.7C756.1 697.6 756 698.7 755.5 699.6C755 700.5 754 701 753 701.1L721.4 701.6C721.5 701.6 721.5 701.6 721.4 701.6ZM735.8 670.9L725.9 695.6L748.1 695.2L735.8 670.9Z" fill="#1A1A1A"/>
<path d="M726.4 808.9C725.3 808.9 724.2 808.3 723.7 807.2C723 805.7 723.6 803.9 725.1 803.2L759 787.3L733.4 725.4L695.5 768.3C694.4 769.5 692.5 769.7 691.3 768.6C690.1 767.5 689.9 765.6 691 764.4L732.1 717.9C732.8 717.1 733.8 716.8 734.8 716.9C735.8 717.1 736.7 717.8 737.1 718.7L765.6 787.7C766.2 789.2 765.6 790.9 764.1 791.6L727.6 808.7C727.3 808.8 726.9 808.9 726.4 808.9Z" fill="#009B72"/>
<path d="M1068.4 864.1C1068 864.1 1067.5 864 1067.1 863.8L1020.6 842.3C1019.6 841.9 1019 840.9 1018.9 839.9C1018.8 838.8 1019.3 837.8 1020.1 837.2L1060.1 808.2C1061 807.6 1062.1 807.5 1063.1 807.9C1064.1 808.3 1064.8 809.2 1064.9 810.3L1071.4 860.8C1071.5 861.9 1071.1 863 1070.2 863.6C1069.7 863.9 1069.1 864.1 1068.4 864.1ZM1027.8 839.1L1064.7 856.2L1059.5 816.1L1027.8 839.1Z" fill="#009B72"/>
<path d="M1120.5 664.9C1120.4 663.8 1119.7 662.9 1118.7 662.5C1117.7 662.1 1116.6 662.2 1115.7 662.8L1082.6 686.8C1081.7 687.4 1081.3 688.5 1081.4 689.5C1081.5 690.6 1082.2 691.5 1083.1 691.9L1121.6 709.7C1122 709.9 1122.4 710 1122.9 710C1123.5 710 1124.2 709.8 1124.7 709.4C1125.6 708.8 1126 707.7 1125.9 706.6L1120.5 664.9Z" fill="#1A1A1A"/>
<path d="M947.7 952.8L919.8 914.7C919.2 913.9 918.3 913.5 917.4 913.5C916.4 913.5 915.5 914 915 914.8L889.8 950.2C889.2 951.1 889.1 952.3 889.5 953.2C890 954.2 891 954.8 892.1 954.9L945.2 957.5H945.3C946.4 957.5 947.4 956.9 947.9 955.9C948.5 955 948.4 953.7 947.7 952.8Z" fill="#009B72"/>
<path d="M1026.4 1049.1C1025.8 1049.1 1025.2 1048.9 1024.7 1048.6L951.8 997.5L921.9 1027.1C920.7 1028.3 918.8 1028.3 917.7 1027.1C916.5 1025.9 916.5 1024 917.7 1022.9L949.4 991.6C950.4 990.6 952 990.4 953.2 991.3L1028.2 1043.8C1029.6 1044.8 1029.9 1046.6 1028.9 1048C1028.3 1048.7 1027.4 1049.1 1026.4 1049.1Z" fill="#009B72"/>
<path d="M1175.4 709.6C1174.4 709.6 1173.5 709.1 1172.9 708.2L1144.4 664.2C1143.6 662.9 1143.8 661.2 1145 660.2L1192.2 622C1193.5 621 1195.4 621.2 1196.4 622.4C1197.4 623.7 1197.2 625.6 1196 626.6L1150.9 663.2L1176.4 702.6L1229 673C1230.4 672.2 1232.3 672.7 1233.1 674.1C1233.9 675.5 1233.4 677.4 1232 678.2L1177 709.2C1176.4 709.5 1175.9 709.6 1175.4 709.6Z" fill="#009B72"/>
<path d="M1151.9 864.6C1151.5 864.6 1151 864.5 1150.6 864.3C1149.1 863.6 1148.4 861.8 1149.1 860.3L1168.6 818.3C1169.1 817.3 1170.1 816.6 1171.2 816.6L1235.2 814.6C1236.8 814.6 1238.2 815.8 1238.3 817.5C1238.4 819.2 1237.1 820.5 1235.4 820.6L1173.2 822.5L1154.5 862.8C1154.1 864 1153.1 864.6 1151.9 864.6Z" fill="#009B72"/>
<path d="M1107.4 1042.6L1131.4 1279.6L1153.4 1487.6C1153.4 1487.6 1162.4 1521.6 1161.7 1532.6C1161 1543.6 1161.4 1560.3 1156.4 1565.3C1151.4 1570.3 1113.1 1586.6 1113.1 1586.6L1074.8 1591.9L1041.8 1593.2C1041.8 1593.2 1006.8 1589.2 998.8 1575.5C990.8 1561.8 984.5 1488.5 984.5 1488.5L970.8 1373.2L952.8 1216.5L936.1 1076L929.1 1075.7L923.1 1138.4L909.8 1258.4L892.5 1429.7L884.5 1497.7C884.5 1497.7 886.5 1527.4 883.2 1544.4C879.9 1561.4 869.5 1577.7 869.5 1577.7L848.5 1583L794.2 1585.3L755.5 1577C755.5 1577 717.5 1566.3 715.5 1544.7C713.5 1523.1 718.5 1474.7 718.5 1474.7L726.2 1374.7L737.5 1236L747.2 1117.7L755.5 997L759.8 957.3L797.5 969.6L877.8 1003.6C877.8 1003.6 936.5 1036.3 964.5 1041.3C992.5 1046.3 1071.5 1047.6 1071.5 1047.6L1107.4 1042.6Z" fill="#009B72"/>
<path d="M1043.1 1511.4C1042.9 1511.4 1021.2 1506.3 1017.7 1493.2C1016.1 1487.2 1020.1 1481.3 1024.3 1475C1029.2 1467.7 1034.8 1459.5 1032 1449.8C1029.4 1440.6 1021.2 1431.1 1011.7 1420.1C1003.4 1410.5 994.1 1399.6 987.1 1387.2C978.7 1372.4 973.6 1350.3 970.9 1336L968.6 1321.9C968.3 1320.3 966.8 1319.2 965.2 1319.4C963.6 1319.6 962.4 1321.1 962.6 1322.7C962.7 1323.3 963.4 1329.5 965.1 1338.1L971.1 1375.3L984.1 1505.2C984.2 1506.4 985 1507.4 986.2 1507.8L1004.5 1513.5C1004.7 1513.6 1004.9 1513.6 1005.1 1513.6L1042.1 1517.3C1042.2 1517.3 1042.3 1517.3 1042.4 1517.3C1043.9 1517.3 1045.1 1516.2 1045.4 1514.8C1045.6 1513.2 1044.6 1511.7 1043.1 1511.4Z" fill="white"/>
<path d="M821.8 1105.6C815 1096.2 807.3 1085.5 801 1074.4L800.7 1073.8C789.4 1053.8 784.6 1031 786.8 1007.9C788.6 988.9 790.9 966 790.9 966C790.9 965.6 790.9 965.2 790.8 964.8C790.3 963.4 789.6 962.4 780.3 959.6C771.8 957 761.7 956.6 761.2 956.6C759.6 956.5 758.2 957.8 758.1 959.4L753.9 1016.4L742.4 1160.1L718 1479.6C718 1480.2 718.1 1480.8 718.4 1481.3C719 1482.4 725.5 1492.2 757.1 1499C769.1 1501.6 804.6 1506.3 806.1 1506.5C806.2 1506.5 806.4 1506.5 806.5 1506.5C808 1506.5 809.2 1505.4 809.5 1504C809.8 1502.4 808.7 1500.9 807.1 1500.6C791.5 1497.7 781.9 1480.4 778 1465.3C774.4 1451.3 776 1441.1 778.4 1439.1C782.7 1435.6 785.9 1437.6 793.1 1443.8C795.9 1446.2 798.7 1448.7 802 1450.6C807.3 1453.7 813 1453.5 817.3 1450C822 1446.2 823.8 1439.5 821.9 1433.6C820.6 1429.8 816.8 1424.7 811 1417C802.1 1405.3 788.7 1387.5 777.8 1364.3C774.7 1357.7 772 1350.1 769.7 1341.7C764.2 1321.7 762.2 1300.4 763.8 1278.5C765.9 1248.9 767.9 1220.9 769.7 1195.5C770.6 1183.7 774 1172.4 779.6 1162.8C785.5 1152.8 793 1145.5 800.1 1142.8C805.6 1140.7 811.7 1142.3 817.6 1143.9C824.6 1145.7 831.7 1147.7 837.1 1142.7C844 1136.3 835.2 1124.1 821.8 1105.6Z" fill="white"/>
<path d="M1135.9 571.1L1077.7 532.3C1077.7 532.3 1074.1 527.4 1075.9 523.1C1077.7 518.8 1083.9 504.9 1083.9 504.9L1110.7 497.9L1139.5 491.4C1139.5 491.4 1161.3 476.2 1181 441.9C1200.7 407.6 1198.2 388.7 1198.2 388.7C1198.2 388.7 1167.7 395.7 1141.7 380.2C1115.7 364.7 1088.5 348.7 1080.7 357.7C1072.9 366.7 1060.7 394.9 1054.2 389.9C1047.7 384.9 1047 377.7 1046.7 370.1C1046.4 362.5 1032.7 352.6 1021 358.9C1009.2 365.1 999.5 386.4 1007.8 401.1C1016.1 415.8 1024.8 415.6 1024.8 415.6L991.8 492.6L982.3 497.1L918.1 514.6C918.1 514.6 928.1 588.8 988.9 611.8C1049.6 634.8 1089.6 610.3 1089.6 610.3C1089.6 610.3 1114.4 598.3 1125.8 586.5C1137.2 574.7 1135.9 571.1 1135.9 571.1Z" fill="#009B72"/>
<path d="M651.4 706.6C651.4 706.6 620.1 749.3 597.1 761.9C586.1 767.9 557.4 754 546.9 747.1C504.4 719.1 442.3 663.2 442.3 663.2L434 628.8C434 628.8 428.9 616.4 425.9 618C422.9 619.6 422.3 636.1 422.3 638C422.3 639.8 423.1 656.3 421.5 656C419.8 655.7 384.8 633.9 384.8 633.9C384.8 633.9 372.5 627.7 370.9 631C369.3 634.4 384.8 652.1 384.8 652.1C384.8 652.1 358 634.3 355.3 638.3C352.6 642.3 364.6 655.3 364.6 655.3L386.2 677.5C386.2 677.5 357.8 660.2 356.6 663.2C355.4 666.2 362.6 675.2 363.3 676.1C364.1 676.9 391.2 699.5 391.2 699.5C391.2 699.5 359.6 689.9 360.3 695.7C361 701.5 371.8 705.3 371.8 705.3L412.5 722.6C412.5 722.6 447.2 759.3 459 771.3C586.8 901.6 631.5 879.6 631.5 879.6L676.3 857.6L728.3 808.3L681 752.3L651.4 706.6Z" fill="#009B72"/>
<path d="M1203.4 863.6C1203.4 863.6 1230.9 896.6 1265.9 899.1C1300.9 901.6 1332.9 873.1 1332.9 873.1L1428.4 750.1L1473.9 687.6L1479.9 686.6L1474.9 653.6C1474.9 653.6 1475.1 647.3 1480.4 642.9C1485.7 638.6 1503.1 623.9 1501.4 619.6C1499.7 615.3 1478.4 617.9 1467.1 626.9C1455.8 635.9 1400.4 685.6 1400.4 685.6L1344.4 740.6C1344.4 740.6 1307.2 775.5 1290.1 769.6C1276.4 764.9 1265.8 740.9 1265.8 740.9C1265.8 740.9 1261.1 781.2 1241.1 811.2C1221.1 841.2 1203.4 863.6 1203.4 863.6Z" fill="#009B72"/>
<path d="M1540.4 611C1540.4 611 1509.9 621.3 1512.7 627.5C1515.5 633.7 1532 628.3 1533.2 628C1534.4 627.7 1550.2 621 1550.5 613.8C1550.8 606.6 1543.8 603.8 1543.8 603.8L1540.4 611Z" fill="#009B72"/>
<path d="M1544.1 625.1C1544.1 625.1 1547.8 632.6 1544.9 636.6C1542.1 640.6 1531.9 642.6 1531.9 642.6C1531.9 642.6 1511.9 648.9 1510.2 645.4C1508.5 641.9 1517 634.4 1521.4 632.4C1525.8 630.5 1544.1 625.1 1544.1 625.1Z" fill="#009B72"/>
<path d="M1542.8 647.3C1542.8 647.3 1543.6 654.6 1539.5 658.5C1535.3 662.3 1516.3 671.3 1515 668.8C1513.7 666.3 1519.5 658.6 1520.7 657.8C1521.9 657 1532.2 646.1 1532.5 645.6C1532.8 645.1 1539.2 643.3 1539.2 643.3L1542.8 647.3Z" fill="#009B72"/>
<path d="M1538.8 671.6C1538.8 671.6 1538 678.9 1533.6 683.1C1529.3 687.3 1514.6 693.4 1513.3 689.4C1512 685.4 1526.1 675.2 1526.1 675.2L1528.6 669C1528.6 669.1 1536.3 669.3 1538.8 671.6Z" fill="#009B72"/>
<path d="M1026.4 1591.6L1031.9 1643.1L1066.4 1653.6L1107.4 1646.6L1128.4 1623.1L1116.9 1584.6L1074.8 1592L1026.4 1591.6Z" fill="#009B72"/>
<path d="M1186.1 1662L1157.9 1646.9C1139.6 1637.1 1126.7 1619 1123.4 1598.5V1598.4L1120.5 1584.4C1120.2 1582.8 1118.6 1581.7 1117 1582.1C1115.4 1582.4 1114.3 1584 1114.7 1585.6L1117.6 1599.6C1118.9 1607.4 1121.5 1614.9 1125.1 1621.8C1121.6 1622.2 1115 1623 1112 1623.6C1098.9 1626.5 1090 1631.1 1082.4 1639.1C1077.8 1644 1071.7 1646.1 1064.3 1645.3C1046.4 1643.4 1035.9 1633.9 1033.4 1631.4L1031.7 1614.7C1031.6 1608.9 1034.9 1604.2 1041.5 1600.6C1047.4 1597.4 1053.7 1596.3 1053.8 1596.3C1055.4 1596 1056.4 1594.6 1056.3 1593.1C1056.2 1591.5 1054.8 1590.3 1053.3 1590.4L1029.2 1590.9C1028.7 1589.6 1027.5 1588.8 1026.1 1588.9C1024.5 1589.1 1023.3 1590.5 1023.4 1592.2L1025.7 1614.6C1025.7 1614.8 1025.7 1615 1025.7 1615.2C1025.7 1615.8 1025.8 1616.4 1025.9 1617.1C1025.9 1617.3 1026 1617.4 1026 1617.6L1034.2 1697.2C1034.9 1704.5 1041.1 1710.1 1048.5 1710.1H1189.9C1198.1 1710.1 1204.8 1703.4 1204.8 1695.2V1692.6C1204.4 1679.8 1197.4 1668.1 1186.1 1662Z" fill="#1A1A1A"/>
<path d="M924.4 540.3C924.4 540.3 985.7 527 1001.7 506.3C1017.7 485.6 1028.4 454.3 1031.7 445.6C1035 436.9 1033.6 417.8 1025.4 413.1L1007.7 458.3L989.7 493.6L962.4 501.6L918.9 514.1L924.4 540.3Z" fill="white"/>
<path d="M588.4 436.4C501.3 513.2 456 609.9 388.6 564.3C294.3 500.6 384.2 343.5 469.7 268.5C559.7 189.5 749 154.2 777.4 264.3C794.3 329.9 678.5 356.9 588.4 436.4Z" fill="#046865"/>
<path d="M349.5 798C335.6 845.2 331.1 918.6 281.9 917.2C232.7 915.8 204.4 863.5 205.8 814.3C207.2 765.1 238.5 711.5 287.7 712.9C337 714.3 363.4 750.8 349.5 798Z" fill="#046865"/>
<path d="M806.7 1500.6C806.5 1500.6 805.3 1500.5 803.3 1500.4C797 1500 782.3 1498.9 766 1495.9C744.7 1492 720.1 1478.8 719.9 1478.6C719 1478.1 718 1478.1 717.1 1478.6C716.2 1479 715.6 1479.9 715.5 1480.9C715.3 1482.7 709.8 1524.8 712.7 1545.3C715.8 1567.3 736.8 1573.5 737.6 1573.8L769.8 1583.3C770.1 1583.4 770.4 1583.4 770.7 1583.4C771.9 1583.4 773 1582.7 773.5 1581.5C774.1 1580 773.4 1578.4 772 1577.7C771.7 1577.6 745.4 1564.9 740 1546.5C738 1539.7 739.1 1533.1 743.3 1526.4C755.8 1506.4 793 1506.1 803.5 1506.5C805.3 1506.6 806.4 1506.6 806.4 1506.6C808 1506.6 809.4 1505.4 809.5 1503.8C809.5 1502.2 808.3 1500.8 806.7 1500.6Z" fill="white"/>
<path d="M1043.5 1590.8C1043.3 1590.6 1021.2 1575.3 1018.1 1550.6C1016.6 1539.1 1018.6 1530.4 1023.8 1524.7C1030.9 1516.9 1042.2 1517.3 1042.4 1517.3C1044 1517.4 1045.4 1516.1 1045.5 1514.5C1045.6 1512.9 1044.4 1511.4 1042.7 1511.3L990 1507.3C989.1 1507.2 988.3 1507.6 987.6 1508.2C986.9 1508.8 986.7 1509.7 986.7 1510.6C986.9 1512.8 990.9 1564.4 996.3 1575.7C999.4 1582.3 1008.1 1587.8 1022 1592C1031.9 1595 1040.9 1596.3 1041.3 1596.4C1041.4 1596.4 1041.6 1596.4 1041.7 1596.4C1042.9 1596.4 1044 1595.7 1044.5 1594.5C1045.1 1593.1 1044.6 1591.6 1043.5 1590.8Z" fill="white"/>
<path d="M441.9 662C441.9 662 434.2 680.8 452.4 696.6C480.7 721.3 533.7 759 551.4 769.6C578.7 785.9 581.4 809.9 598.4 805.6C614.8 801.4 606.4 785.6 620.1 764.6C647.9 721.9 662.4 727.6 662.4 727.6L650.9 708.4L604.8 756C604.8 756 596.8 765 583.8 762.3C570.8 759.6 547.7 745.4 536.1 739C494.8 716 441.9 662 441.9 662Z" fill="white"/>
<path d="M1526.4 677.6C1526.2 677.6 1526 677.6 1525.8 677.5C1524.2 677.2 1523.1 675.6 1523.5 673.9L1525.5 664.6C1525.8 663 1527.4 661.9 1529.1 662.3C1530.7 662.6 1531.8 664.2 1531.4 665.9L1529.4 675.2C1529.1 676.7 1527.8 677.6 1526.4 677.6Z" fill="#1A1A1A"/>
<path d="M1552.4 576.5C1552.4 576.4 1552.4 576.4 1552.4 576.5C1552.4 576.3 1552.4 576.3 1552.4 576.2C1552.4 576.1 1552.4 576 1552.4 576C1551.5 565.6 1521.2 562.7 1503.2 562.7C1485.2 562.7 1455 565.5 1454 575.9C1454 575.9 1454 575.9 1454 576C1454 576.2 1454 576.3 1454 576.5C1454 576.6 1454 576.6 1454 576.7C1454 577.3 1454.1 577.9 1454.4 578.5L1465.4 627.7C1465.7 629.1 1467 630 1468.3 630C1468.5 630 1468.7 630 1469 629.9C1470.6 629.5 1471.6 627.9 1471.3 626.3L1461.9 584.5C1472.3 588.8 1490.7 590.2 1503.3 590.2C1515.7 590.2 1533.9 588.9 1544.4 584.6L1537.9 610.2C1537.5 611.8 1538.5 613.4 1540.1 613.8C1540.3 613.9 1540.6 613.9 1540.8 613.9C1542.1 613.9 1543.4 613 1543.7 611.6L1552.1 578.5C1552.3 577.9 1552.5 577.3 1552.5 576.7C1552.4 576.6 1552.4 576.5 1552.4 576.5Z" fill="#1A1A1A"/>
<path d="M1523.3 686.7C1521.7 686.3 1520.1 687.3 1519.7 688.9L1509.5 731.9C1508.5 736.2 1504.9 737.7 1502.2 737.7C1499.4 737.7 1495.8 736.1 1494.9 731.8L1477 652C1476.6 650.4 1475 649.4 1473.4 649.7C1471.8 650.1 1470.8 651.7 1471.1 653.3L1489 733.1C1490.4 739.4 1495.7 743.6 1502.1 743.7H1502.2C1508.6 743.7 1513.9 739.5 1515.4 733.3L1525.6 690.3C1525.9 688.7 1524.9 687.1 1523.3 686.7Z" fill="#1A1A1A"/>
<path d="M1517 633.8C1512.2 633.8 1509.6 632.6 1508.8 630.1C1508.2 628.3 1508.4 626.4 1509.4 624.5C1511.5 620.6 1517.1 616.7 1526.7 612.7C1533.4 609.9 1539.5 608 1539.8 607.9C1541.4 607.4 1543.1 608.3 1543.5 609.9C1544 611.5 1543.1 613.2 1541.5 613.6C1524.5 618.7 1516 624.7 1514.6 627.2C1514.5 627.3 1514.5 627.4 1514.5 627.5C1517.8 628.2 1528.7 627 1537.8 622.5C1543.1 619.9 1546.3 616.8 1546.8 613.7C1547.7 608.1 1542.4 606.5 1542.2 606.4C1540.6 605.9 1539.7 604.3 1540.2 602.7C1540.7 601.1 1542.3 600.2 1543.9 600.7C1547.6 601.8 1554.1 606.1 1552.7 614.7C1550.6 627.2 1529.4 632.8 1519.5 633.5C1518.7 633.8 1517.8 633.8 1517 633.8Z" fill="#1A1A1A"/>
<path d="M1513.7 649.6C1512.7 649.6 1511.9 649.5 1511.1 649.4C1508 648.8 1506.9 647.2 1506.6 645.9C1504.7 638.8 1514.5 632.2 1523.5 628.7C1532.5 625.2 1541.8 621.7 1541.9 621.7C1542.6 621.4 1543.4 621.4 1544.1 621.7C1544.5 621.9 1548.3 623.5 1549.5 627.6C1550.4 630.7 1549.6 634 1547 637.6C1542.6 644 1523.1 649.6 1513.7 649.6ZM1512.5 643.6C1517.7 644.4 1538.7 639.1 1542.1 634.2C1543.1 632.8 1544.1 630.9 1543.7 629.4C1543.5 628.7 1543 628.2 1542.6 627.8C1539.7 628.9 1532.5 631.6 1525.6 634.3C1517.3 637.6 1513.1 641.6 1512.5 643.6Z" fill="#1A1A1A"/>
<path d="M1515.3 673C1514 673 1512.5 672.7 1511.4 671.7C1510.6 670.9 1510.2 669.9 1510.2 668.7C1510.2 663.2 1523 650.1 1530.6 642.8C1530.8 642.6 1531.1 642.4 1531.4 642.2L1537 639.6C1537.7 639.3 1538.5 639.2 1539.2 639.5C1539.6 639.6 1542.9 640.9 1544.6 644.6C1546 647.5 1545.9 651 1544.4 655C1541.7 662 1525.2 671 1517.9 672.6C1517.5 672.7 1516.5 673 1515.3 673ZM1534.5 647.4C1527.4 654.2 1519.8 662.6 1517.2 666.7C1523.3 665.2 1537.4 657 1539 652.8C1540.6 648.5 1539.4 646.5 1538.3 645.6L1534.5 647.4Z" fill="#1A1A1A"/>
<path d="M1515.8 693.4C1514.4 693.4 1513.1 693.2 1512 692.7C1510.5 692 1509.5 690.7 1509.3 689.2C1508.3 684.1 1516.7 677.8 1523.9 673.4C1525.3 672.5 1527.2 673 1528 674.4C1528.9 675.8 1528.4 677.7 1527 678.5C1522.1 681.5 1517.3 685.3 1515.7 687.4C1517.7 687.4 1521.8 686.5 1526.4 684.1C1534 680.2 1535.4 677 1535.7 675C1535.9 673.9 1535.6 673.5 1535.4 673.4C1534.4 672.3 1530.9 672.2 1528.9 672.4C1527.3 672.6 1525.7 671.5 1525.5 669.9C1525.3 668.3 1526.4 666.7 1528 666.5C1529.3 666.3 1536.1 665.6 1539.6 669.2C1540.8 670.4 1542 672.5 1541.5 676C1540.6 681.2 1536.7 685.5 1529 689.4C1525.2 691.5 1520 693.4 1515.8 693.4Z" fill="#1A1A1A"/>
<path d="M848.7 1581.7C847 1581.5 845.6 1582.7 845.4 1584.4L840.6 1631.6C838.1 1634.1 827.6 1643.5 809.8 1645.4C802.4 1646.2 796.3 1644.1 791.7 1639.2C788.7 1636 785.5 1633.3 782 1631.2C776.6 1627.8 770.3 1625.5 762.2 1623.7C759.1 1623 752.6 1622.3 749.1 1621.9C752.8 1615 755.3 1607.5 756.6 1599.6L760 1578.8C760.3 1577.2 759.2 1575.6 757.5 1575.4C755.9 1575.1 754.3 1576.2 754.1 1577.9L750.7 1598.7C747.3 1619.2 734.4 1637.2 716.2 1647.1L688 1662.2C676.7 1668.3 669.6 1680 669.6 1692.9V1695.5C669.6 1703.7 676.3 1710.4 684.5 1710.4H825.9C833.3 1710.4 839.4 1704.9 840.2 1697.5L851.7 1585.2C851.6 1583.3 850.4 1581.8 848.7 1581.7Z" fill="#1A1A1A"/>
<path d="M1048.8 473.6C1048.8 473.6 1049.2 479.2 1054.1 485.6C1065.4 500.3 1081.4 511.7 1076.5 520.3L1089 495.6L1063.5 485.6L1048.8 473.6Z" fill="#1A1A1A"/>
<path d="M1091.7 494.6C1091.4 493.8 1090.8 493.2 1090 492.9L1065 483L1050.7 471.3C1049.8 470.5 1048.5 470.4 1047.4 471C1046.3 471.6 1045.7 472.7 1045.8 473.9C1045.8 474.2 1046.3 480.5 1051.8 487.5C1055.2 491.9 1059 496 1062.6 499.8C1069.5 507.2 1075.9 514.2 1074.2 518.4L1073.9 518.9C1073.2 520.4 1073.7 522.1 1075.2 522.9C1075.7 523.1 1076.1 523.3 1076.6 523.3C1077.6 523.3 1078.7 522.8 1079.2 521.8C1079.4 521.5 1079.5 521.2 1079.7 520.8L1091.7 497C1092 496.2 1092 495.4 1091.7 494.6Z" fill="#1A1A1A"/>
<path d="M1071.2 702.9C1054.6 690.4 1031 693.6 1018.4 710.2C1012.3 718.2 1009.7 728.1 1011.1 738.1C1012.5 748.1 1017.7 756.9 1025.7 763C1032.5 768.1 1040.5 770.6 1048.4 770.6C1059.8 770.6 1071.1 765.5 1078.5 755.7C1091 739.1 1087.7 715.5 1071.2 702.9ZM1029.3 758.2C1022.6 753.1 1018.2 745.7 1017 737.3C1015.8 728.9 1018 720.6 1023.1 713.8C1023.2 713.6 1023.4 713.5 1023.5 713.3L1074 751.5C1073.9 751.7 1073.7 751.9 1073.6 752C1063.2 766 1043.3 768.8 1029.3 758.2Z" fill="#009B72"/>
<path d="M881 827C872.5 821.7 862.4 820 852.6 822.3C842.8 824.6 834.5 830.5 829.2 839.1C823.9 847.6 822.2 857.7 824.5 867.5C826.8 877.3 832.7 885.6 841.3 890.9C847.5 894.7 854.3 896.6 861.1 896.6C873.7 896.6 886 890.3 893.1 878.8C904.1 861.2 898.6 838 881 827ZM888 875.7C878.8 890.5 859.2 895.1 844.4 885.9C844.2 885.8 844 885.7 843.8 885.5L877.2 831.8C877.4 831.9 877.6 832 877.8 832.1C892.7 841.3 897.2 860.9 888 875.7Z" fill="#009B72"/>
<path d="M1071.1 974.5C1058.7 974.5 1048.6 984.6 1048.6 997C1048.6 1009.4 1058.7 1019.5 1071.1 1019.5C1083.5 1019.5 1093.6 1009.4 1093.6 997C1093.6 984.6 1083.5 974.5 1071.1 974.5Z" fill="#1A1A1A"/>
<path d="M1033 795.3L1021.8 780.2C1021.3 779.6 1020.6 779.1 1019.8 779C1019 778.9 1018.2 779.1 1017.6 779.6L1002.5 790.8C1001.2 791.8 1000.9 793.7 1001.9 795L1013.1 810.1C1013.6 810.7 1014.3 811.2 1015.1 811.3C1015.2 811.3 1015.4 811.3 1015.5 811.3C1016.1 811.3 1016.8 811.1 1017.3 810.7L1032.4 799.5C1033.7 798.5 1034 796.7 1033 795.3Z" fill="#1A1A1A"/>
<path d="M877.8 760.8C877.3 760.2 876.6 759.8 875.8 759.7L848.1 757.3C846.4 757.2 845 758.4 844.9 760L842 793.4C841.9 794.2 842.2 795 842.7 795.6C843.2 796.2 843.9 796.6 844.7 796.7L872.4 799.1C872.5 799.1 872.6 799.1 872.7 799.1C874.2 799.1 875.5 797.9 875.7 796.4L878.6 763C878.6 762.2 878.3 761.4 877.8 760.8Z" fill="#1A1A1A"/>
<path d="M863.864 1418.9C870.523 1416.69 873.77 1408.41 871.116 1400.38C868.461 1392.36 860.912 1387.64 854.252 1389.85C847.593 1392.05 844.347 1400.34 847.001 1408.36C849.655 1416.38 857.205 1421.1 863.864 1418.9Z" fill="#1A1A1A"/>
<path d="M860.5 1422.4C857.7 1422.4 854.9 1421.6 852.4 1419.9C848.6 1417.5 845.7 1413.7 844.2 1409.2C842.7 1404.7 842.8 1399.9 844.4 1395.7C846.1 1391.4 849.3 1388.2 853.3 1386.9C857.4 1385.6 861.8 1386.2 865.8 1388.7C869.6 1391.1 872.5 1394.9 874 1399.4C875.5 1403.9 875.4 1408.7 873.8 1412.9C872.1 1417.2 868.9 1420.4 864.9 1421.7C863.5 1422.2 862 1422.4 860.5 1422.4ZM857.6 1392.2C856.8 1392.2 856 1392.3 855.2 1392.6C852.9 1393.4 851 1395.3 850 1397.9C848.9 1400.8 848.9 1404.1 849.9 1407.3C851 1410.5 853 1413.2 855.6 1414.8C858 1416.3 860.6 1416.7 863 1415.9C865.3 1415.1 867.2 1413.2 868.2 1410.6C869.3 1407.7 869.3 1404.4 868.3 1401.2C867.3 1398 865.2 1395.3 862.6 1393.7C861 1392.7 859.3 1392.2 857.6 1392.2Z" fill="#1A1A1A"/>
<path d="M1505.3 619.9C1504.6 617.7 1502.9 616 1500.6 615.1C1493.1 612.2 1479.4 617.2 1470 622.5C1456.3 630.2 1417.7 664.1 1395.8 686.5C1348.1 735.2 1313.1 764.5 1299.7 766.9C1281 770.2 1269.4 739.4 1269.3 739.1C1268.7 737.5 1267 736.8 1265.4 737.3C1263.8 737.9 1263.1 739.6 1263.6 741.2C1263.7 741.4 1264.1 742.5 1264.8 744.2C1264.7 744.4 1264.6 744.6 1264.5 744.8L1260.3 759.3C1260 760.4 1260.4 761.7 1261.3 762.5C1261.5 762.6 1265.4 766 1266.2 774.5C1266.4 776.8 1266.5 779.1 1266.5 781.4C1266.6 788.7 1266.7 797.8 1276.1 799.1C1276.4 799.1 1276.6 799.2 1277 799.2C1279.4 799.2 1285 797.3 1305.7 778.5C1317 768.3 1327.5 757.9 1327.6 757.8L1327.7 757.7C1349.3 741.3 1377.1 714.4 1400.1 690.8C1421.3 669.1 1459.8 635.1 1472.9 627.8C1483.1 622.1 1494 619.1 1498.4 620.8C1499.3 621.1 1499.5 621.5 1499.6 621.9C1500.4 624.2 1493.4 629 1489.2 631.9C1485.8 634.2 1482.3 636.6 1479.9 639.1C1471.8 647.2 1469.4 652.8 1469.3 653C1468.7 654.5 1469.4 656.3 1470.9 656.9C1472.4 657.6 1474.2 656.9 1474.8 655.3C1474.8 655.3 1477 650.4 1484.2 643.2C1486.3 641.1 1489.5 638.9 1492.7 636.7C1499.9 631.8 1507.5 626.6 1505.3 619.9Z" fill="#1A1A1A"/>
<path d="M1490.2 1562.2C1490.2 1562.2 1521 1551.7 1532.3 1584C1532.3 1584 1520.2 1593.2 1503.7 1584.8C1491.3 1579 1490.2 1562.2 1490.2 1562.2Z" fill="white"/>
<path d="M1369.4 1704.8C1371.4 1695.9 1405.1 1696.4 1413.5 1688.6C1421.9 1680.8 1424.1 1620.4 1476 1621.7C1520.9 1622.8 1518.7 1666.9 1525.9 1683.1C1533.6 1700.3 1589.2 1692.9 1592.8 1705.7C1596.3 1718.1 1572.4 1719.1 1549 1716C1532.2 1713.8 1521.9 1711 1516.6 1716.6C1506.9 1726.8 1545 1743.4 1530.5 1750.6C1516 1757.9 1491.9 1725.9 1471.4 1728.8C1453.8 1731.3 1439.9 1748.9 1427.9 1742.7C1417 1737.1 1428.5 1725.1 1420.6 1717.6C1409.2 1706.5 1364.9 1724.9 1369.4 1704.8Z" fill="white"/>
<path d="M1525.8 1754.6C1518.4 1754.6 1510.1 1749.2 1501.4 1743.6C1491.3 1737.1 1480.9 1730.4 1471.8 1731.7C1464.8 1732.7 1458.3 1736.3 1452 1739.9C1443.1 1744.9 1434.7 1749.6 1426.5 1745.4C1418.8 1741.5 1419.6 1734.6 1420.2 1729.6C1420.7 1725.1 1420.9 1722.2 1418.5 1719.8C1414.4 1715.9 1403.5 1716.6 1393.8 1717.3C1382.4 1718.1 1372.6 1718.7 1368.1 1713.5C1366.1 1711.2 1365.5 1708 1366.4 1704.1C1367.9 1697.4 1378.5 1695.3 1390.7 1692.9C1398.9 1691.3 1408.1 1689.4 1411.3 1686.4C1412.8 1685 1414.7 1679.2 1416.5 1673.7C1423.3 1652.7 1434.8 1617.7 1475.9 1618.6C1513.3 1619.5 1520.2 1649 1524.7 1668.4C1526 1673.8 1527 1678.4 1528.5 1681.7C1531.9 1689.3 1549.8 1691.5 1564.2 1693.3C1580.5 1695.3 1593.3 1696.8 1595.6 1704.7C1596.8 1709.1 1595.3 1712.1 1593.8 1713.9C1590.7 1717.5 1580.6 1723 1548.5 1718.8C1545.6 1718.4 1542.9 1718 1540.4 1717.7C1529.3 1716.1 1522 1715 1518.7 1718.5C1516.2 1721.2 1520.5 1725.8 1527 1732C1532.4 1737.2 1537.5 1742.2 1536.7 1747.3C1536.3 1749.8 1534.7 1751.7 1531.8 1753.2C1530 1754.2 1527.9 1754.6 1525.8 1754.6ZM1474.1 1725.6C1484.5 1725.6 1495.1 1732.5 1504.7 1738.6C1514.3 1744.8 1523.5 1750.7 1529.2 1747.8C1530.2 1747.3 1530.8 1746.8 1530.9 1746.4C1531.2 1744.4 1526.2 1739.6 1522.9 1736.4C1516.1 1729.8 1507.6 1721.6 1514.4 1714.4C1519.9 1708.6 1528.4 1709.9 1541.3 1711.8C1543.8 1712.2 1546.5 1712.6 1549.3 1712.9C1569.7 1715.6 1585.4 1714.4 1589.2 1710C1589.8 1709.4 1590.3 1708.4 1589.8 1706.4C1588.7 1702.3 1574.1 1700.6 1563.5 1699.3C1546 1697.2 1527.8 1695 1523 1684.2C1521.3 1680.4 1520.2 1675.5 1518.8 1669.8C1514.2 1650 1508.5 1625.4 1475.7 1624.6C1475.2 1624.6 1474.7 1624.6 1474.1 1624.6C1438.7 1624.6 1428.7 1655.2 1422.1 1675.5C1419.7 1682.9 1418 1688.2 1415.3 1690.7C1410.8 1694.9 1401.6 1696.7 1391.8 1698.7C1384.7 1700.1 1372.8 1702.5 1372.2 1705.4C1371.6 1708.3 1372.4 1709.2 1372.6 1709.6C1375.1 1712.5 1384.8 1711.9 1393.3 1711.3C1404.8 1710.5 1416.6 1709.7 1422.6 1715.5C1427.3 1720 1426.6 1725.7 1426.1 1730.3C1425.5 1735.5 1425.4 1738.1 1429.2 1740.1C1434.6 1742.9 1441.3 1739.1 1449.1 1734.7C1455.5 1731.1 1462.8 1727 1471 1725.8C1472 1725.7 1473.1 1725.6 1474.1 1725.6Z" fill="#1A1A1A"/>
<path d="M1489.8 1562C1489.8 1562 1479.4 1531.1 1511.7 1520C1511.7 1520 1520.9 1532.1 1512.4 1548.6C1506.5 1560.9 1489.8 1562 1489.8 1562Z" fill="white"/>
<path d="M1535.1 1583.1C1529.2 1566 1518 1560 1508.2 1558.3C1510.9 1556.2 1513.4 1553.5 1515.1 1550C1524.3 1532 1514.5 1518.7 1514.1 1518.2C1513.3 1517.2 1512 1516.8 1510.7 1517.2C1481.4 1527.3 1484.5 1552.7 1486.3 1560.6C1486 1561.2 1485.8 1561.8 1485.8 1562.5C1486.4 1589.5 1476.1 1604.8 1472.8 1605.8C1471.8 1605.8 1470.8 1606.3 1470.1 1607C1458.5 1608.4 1449.5 1618.3 1449.5 1630.3C1449.5 1643.2 1460 1653.8 1473 1653.8C1485.9 1653.8 1496.5 1643.3 1496.5 1630.3C1496.5 1620.4 1490.4 1612 1481.7 1608.5C1486.5 1602.7 1490.9 1592.4 1492.9 1579.1C1495.1 1582.5 1498.2 1585.6 1502.4 1587.6C1508.1 1590.5 1513.3 1591.5 1517.8 1591.5C1527.5 1591.5 1533.9 1586.8 1534.2 1586.5C1535.1 1585.6 1535.5 1584.3 1535.1 1583.1ZM1510.4 1523.6C1512.3 1527.3 1515.4 1536.1 1509.7 1547.3C1505.8 1555.2 1496.4 1557.9 1491.9 1558.7C1490.4 1551.9 1488.3 1532.5 1510.4 1523.6ZM1504.9 1582.2C1497.7 1578.7 1494.9 1570.7 1493.8 1565.9C1493.8 1565.4 1493.8 1564.9 1493.8 1564.4C1494.3 1564.3 1494.9 1564.2 1495.5 1564C1503.5 1562.7 1520.3 1562.6 1528.5 1582.8C1524.9 1584.7 1516.1 1587.9 1504.9 1582.2Z" fill="#1A1A1A"/>
<path d="M855.1 1712.4H494.4C492.7 1712.4 491.4 1711.1 491.4 1709.4C491.4 1707.7 492.7 1706.4 494.4 1706.4H855.1C856.8 1706.4 858.1 1707.7 858.1 1709.4C858.1 1711.1 856.8 1712.4 855.1 1712.4Z" fill="#1A1A1A"/>
<path d="M1249.8 1712.4H1011.1C1009.4 1712.4 1008.1 1711.1 1008.1 1709.4C1008.1 1707.7 1009.4 1706.4 1011.1 1706.4H1249.8C1251.5 1706.4 1252.8 1707.7 1252.8 1709.4C1252.8 1711.1 1251.4 1712.4 1249.8 1712.4Z" fill="#1A1A1A"/>
<path d="M917.1 1712.4H881.1C879.4 1712.4 878.1 1711.1 878.1 1709.4C878.1 1707.7 879.4 1706.4 881.1 1706.4H917.1C918.8 1706.4 920.1 1707.7 920.1 1709.4C920.1 1711.1 918.8 1712.4 917.1 1712.4Z" fill="#1A1A1A"/>
<path d="M1132.19 413.371C1134.73 406.301 1129.11 397.818 1119.65 394.425C1110.19 391.031 1100.47 394.012 1097.93 401.082C1095.39 408.152 1101.01 416.635 1110.47 420.028C1119.93 423.422 1129.66 420.441 1132.19 413.371Z" fill="white"/>
<path d="M1120.7 391.6C1115.5 389.7 1110 389.5 1105.3 390.9C1100.3 392.4 1096.6 395.7 1095.1 400C1093.5 404.3 1094.3 409.1 1097.2 413.5C1099.9 417.6 1104.3 420.9 1109.5 422.8C1112.4 423.9 1115.5 424.4 1118.4 424.4C1120.6 424.4 1122.8 424.1 1124.9 423.5C1129.9 422 1133.6 418.7 1135.1 414.4C1138.2 405.8 1131.7 395.6 1120.7 391.6ZM1102.2 410.3C1100.4 407.5 1099.8 404.6 1100.7 402.1C1101.6 399.6 1103.8 397.7 1107 396.7C1108.5 396.2 1110.1 396 1111.7 396C1113.9 396 1116.3 396.4 1118.6 397.2C1122.8 398.7 1126.1 401.4 1128 404.3C1118.6 401 1109 404 1106.5 411C1106.1 412 1106 413 1105.9 414.1C1104.5 413.1 1103.2 411.7 1102.2 410.3Z" fill="#1A1A1A"/>
<path d="M1177.08 429.129C1179.62 422.058 1174 413.576 1164.54 410.183C1155.08 406.789 1145.35 409.77 1142.82 416.84C1140.28 423.91 1145.9 432.393 1155.36 435.786C1164.82 439.179 1174.54 436.199 1177.08 429.129Z" fill="white"/>
<path d="M1121 388.3C1115.6 388.3 1111.6 387.1 1111.3 387C1109.7 386.5 1108.8 384.8 1109.3 383.3C1109.8 381.7 1111.5 380.8 1113 381.3C1113.1 381.3 1121.2 383.7 1128.9 381.1C1130.5 380.6 1132.2 381.4 1132.7 383C1133.2 384.6 1132.4 386.3 1130.8 386.8C1127.5 387.9 1124 388.3 1121 388.3Z" fill="#1A1A1A"/>
<path d="M1175.2 407.1C1175.1 407.1 1175.1 407.1 1175 407.1C1163.2 406.2 1158.3 396.9 1158.1 396.5C1157.3 395 1157.9 393.2 1159.4 392.5C1160.9 391.7 1162.7 392.3 1163.4 393.8C1163.6 394.1 1167.1 400.6 1175.5 401.2C1177.2 401.3 1178.4 402.8 1178.3 404.4C1178.1 405.9 1176.7 407.1 1175.2 407.1Z" fill="#1A1A1A"/>
<path d="M1165.6 407.4C1154.6 403.4 1143.1 407.2 1140 415.8C1139.9 416 1139.9 416.3 1139.8 416.5C1138.9 418.1 1131.3 431.4 1138.4 439.4C1139.9 441.1 1141.3 442.4 1142.5 443.5C1145.5 446.2 1145.7 446.7 1145.2 448.4C1144.8 450 1143.3 451.5 1141.2 452.5C1138.1 453.9 1132.9 454.6 1127.6 452.1C1126.1 451.4 1124.3 452 1123.6 453.6C1122.9 455.1 1123.5 456.9 1125.1 457.6C1128.3 459.1 1131.7 459.8 1135 459.8C1138.1 459.8 1141.1 459.2 1143.7 457.9C1147.5 456.1 1150.1 453.3 1151 450C1152.4 444.6 1149.6 442 1146.5 439.2C1145.4 438.2 1144.1 437 1142.8 435.5C1141.2 433.7 1141.1 431.1 1141.5 428.4C1144.1 432.8 1148.6 436.6 1154.3 438.6C1157.3 439.7 1160.3 440.2 1163.1 440.2C1170.9 440.2 1177.6 436.5 1179.9 430.2C1183.1 421.6 1176.6 411.4 1165.6 407.4ZM1145.6 417.9C1147 414.1 1151.4 411.9 1156.7 411.9C1158.9 411.9 1161.2 412.3 1163.5 413.1C1167.7 414.6 1171 417.3 1172.9 420.2C1163.5 416.9 1153.9 419.9 1151.4 426.9C1151 427.9 1150.9 428.9 1150.8 430C1146.5 426.6 1144.2 421.8 1145.6 417.9Z" fill="#1A1A1A"/>
<path d="M1111 453.4C1100.4 447.4 1089 448.2 1085 455.2C1083 458.8 1083.2 463.3 1085.8 467.9C1088.1 472 1092 475.7 1096.8 478.5C1101.5 481.2 1106.5 482.5 1110.8 482.5C1116.1 482.5 1120.6 480.5 1122.8 476.6C1126.8 469.6 1121.6 459.3 1111 453.4Z" fill="#1A1A1A"/>
<path d="M1032.8 373.8C1034.5 373.9 1035.9 372.7 1036 371C1036.1 369.3 1034.9 367.9 1033.2 367.8C1032.9 367.8 1026.5 367.4 1021.3 372C1017.5 375.4 1015.3 380.4 1014.9 387C1014.8 388.7 1016.1 390.1 1017.7 390.2C1017.8 390.2 1017.8 390.2 1017.9 390.2C1019.5 390.2 1020.8 389 1020.9 387.4C1021.2 382.2 1022.8 379 1024.8 377L1028.1 384.5C1028.6 385.6 1029.7 386.3 1030.8 386.3C1031.2 386.3 1031.6 386.2 1032 386C1033.5 385.3 1034.2 383.6 1033.5 382L1030 374.1C1031.5 373.8 1032.5 373.8 1032.8 373.8Z" fill="#1A1A1A"/>
<path d="M1456.9 576.4C1456.9 576.4 1458.9 589.7 1456.4 603.3C1454.7 612.3 1455.1 621.6 1463.7 619.6C1472.3 617.6 1467.9 608.9 1469 599.9C1470 592.2 1477.4 592.5 1486 603.7C1491.5 610.9 1496.7 608 1501.3 603.1C1503.3 601.1 1504.5 598.9 1508.1 596.9C1514.3 593.5 1517.9 600.8 1524.6 599.5C1531.6 598.1 1532.4 594.9 1536.8 594.3C1542.8 593.5 1546.2 599.9 1551 595.3C1555.8 590.7 1548.8 585 1549.3 576.2C1549.3 576.2 1544 585.2 1521 587.4C1467.4 593 1456.9 576.4 1456.9 576.4Z" fill="white"/>
<path d="M1461.6 622.9C1458.8 622.9 1457 621.8 1455.9 620.7C1452.7 617.6 1451.9 611.7 1453.5 602.7C1455.9 589.7 1454 576.9 1454 576.8C1453.8 575.4 1454.6 574 1455.9 573.5C1457.2 573 1458.7 573.5 1459.5 574.7C1459.7 575 1470.8 589.6 1520.9 584.6C1541.8 582.5 1546.9 574.8 1547 574.8C1547.7 573.6 1549.1 573.1 1550.5 573.5C1551.8 573.9 1552.7 575.2 1552.6 576.6C1552.4 579.8 1553.4 582.5 1554.4 585.2C1555.8 589 1557.5 593.7 1553.3 597.7C1549.1 601.7 1545 599.9 1542.3 598.7C1540.6 597.9 1539.1 597.3 1537.5 597.5C1536.2 597.7 1535.4 598.2 1534 599.1C1532.1 600.3 1529.8 601.8 1525.5 602.7C1521.4 603.5 1518.3 602 1515.7 600.7C1513 599.3 1511.7 598.8 1509.8 599.8C1507.6 601 1506.5 602.2 1505.3 603.6C1504.8 604.2 1504.3 604.8 1503.7 605.4C1501.3 608 1497.5 611.4 1492.7 611.2C1489.5 611 1486.5 609.2 1483.8 605.7C1478.8 599.2 1474.9 597.4 1473.5 597.8C1472.6 598 1472.3 599.9 1472.2 600.4C1471.9 602.9 1472 605.4 1472.2 607.9C1472.6 613.6 1473 620.7 1464.6 622.6C1463.4 622.8 1462.4 622.9 1461.6 622.9ZM1460.6 583.4C1460.9 588.7 1460.8 596.2 1459.4 603.9C1458 611.4 1458.8 615.3 1460 616.4C1460.6 617 1461.6 617.1 1463.1 616.7C1466.1 616 1466.5 614.9 1466.1 608.2C1465.9 605.6 1465.7 602.6 1466.1 599.6C1466.6 595.6 1468.7 592.8 1471.8 592C1476.6 590.7 1482.5 594.3 1488.5 602C1490.1 604 1491.5 605.1 1492.9 605.2C1494.6 605.3 1496.7 603.9 1499.3 601.2C1499.8 600.7 1500.3 600.2 1500.7 599.6C1502.1 598 1503.7 596.1 1506.9 594.4C1511.6 591.8 1515.5 593.8 1518.3 595.2C1520.7 596.4 1522.2 597.1 1524.2 596.7C1527.5 596.1 1529.1 595 1530.6 594C1532.1 593 1533.8 591.9 1536.5 591.5C1539.9 591 1542.5 592.2 1544.6 593.2C1547.3 594.4 1547.8 594.5 1549 593.3C1550.1 592.2 1550 591.3 1548.5 587.3C1548 585.9 1547.4 584.4 1547 582.8C1542.6 585.8 1534.8 589.4 1521.3 590.7C1498.6 593 1480.6 591.7 1467.7 586.9C1464.8 585.7 1462.5 584.5 1460.6 583.4Z" fill="#1A1A1A"/>
<path d="M1449.6 641.6C1449.6 641.6 1444.8 650.3 1444.3 658.1C1443.9 664.1 1445.1 672.9 1441.5 674.9C1437.8 676.9 1436.2 669.9 1431.3 670.2C1427.9 670.4 1425.1 676.2 1421.5 675.9C1417.8 675.6 1414.8 672.2 1414.8 672.2L1433.1 655.9L1449.6 641.6Z" fill="white"/>
<path d="M1421.8 679C1421.6 679 1421.4 679 1421.2 679C1416.5 678.6 1413 674.8 1412.6 674.4C1412.1 673.8 1411.8 673 1411.8 672.2C1411.8 671.4 1412.2 670.7 1412.8 670.1L1431.1 653.8L1447.6 639.4C1448.7 638.4 1450.3 638.4 1451.5 639.3C1452.6 640.2 1452.9 641.8 1452.2 643.1C1452.1 643.3 1447.7 651.3 1447.2 658.3C1447.1 659.7 1447.1 661.3 1447.1 662.9C1447.1 668.9 1447.1 675.2 1442.8 677.5C1439 679.6 1436.1 676.7 1434.5 675.2C1433.2 673.9 1432.3 673.1 1431.4 673.2C1430.8 673.2 1429.5 674.4 1428.7 675.2C1426.9 677 1424.7 679 1421.8 679ZM1419.4 672.2C1420.1 672.6 1420.9 672.9 1421.7 673C1422.3 673.1 1423.8 671.8 1424.7 670.9C1426.4 669.3 1428.4 667.5 1431.1 667.3C1434.8 667 1437.2 669.4 1438.8 671C1439.2 671.4 1439.8 672 1440.1 672.2C1441.2 671.1 1441.2 665.4 1441.2 662.9C1441.2 661.2 1441.2 659.5 1441.3 657.9C1441.4 655.9 1441.8 653.9 1442.3 651.9L1435.1 658.2L1419.4 672.2Z" fill="#1A1A1A"/>
<path d="M1156.4 1665.1C1139 1665.1 1124.9 1651 1124.9 1633.6C1124.9 1629.4 1125.7 1625.2 1127.4 1621.3C1132.3 1609.6 1143.7 1602.1 1156.4 1602.1C1173.8 1602.1 1187.9 1616.2 1187.9 1633.6C1187.9 1643.3 1183.5 1652.3 1175.9 1658.3C1170.4 1662.8 1163.6 1665.1 1156.4 1665.1ZM1156.4 1608.1C1146.1 1608.1 1136.9 1614.2 1132.9 1623.7C1131.6 1626.8 1130.9 1630.2 1130.9 1633.6C1130.9 1647.7 1142.3 1659.1 1156.4 1659.1C1162.2 1659.1 1167.7 1657.2 1172.2 1653.6C1178.4 1648.7 1181.9 1641.4 1181.9 1633.6C1181.9 1619.6 1170.5 1608.1 1156.4 1608.1Z" fill="#1A1A1A"/>
<path d="M1156.4 1665.1C1139 1665.1 1124.9 1651 1124.9 1633.6C1124.9 1629.4 1125.7 1625.2 1127.4 1621.3L1132.9 1623.6C1131.6 1626.7 1130.9 1630.1 1130.9 1633.5C1130.9 1647.6 1142.3 1659 1156.4 1659C1162.2 1659 1167.7 1657.1 1172.2 1653.5L1175.9 1658.2C1170.4 1662.8 1163.6 1665.1 1156.4 1665.1Z" fill="#009B72"/>
<path d="M1121.8 1643.6C1111.8 1643.6 1103.1 1636.9 1100.6 1627.2C1100.1 1625.4 1099.9 1623.6 1099.9 1621.7C1099.9 1609.6 1109.7 1599.8 1121.8 1599.8C1129.1 1599.8 1135.8 1603.4 1139.9 1609.4C1140.8 1610.8 1140.5 1612.6 1139.1 1613.6C1137.7 1614.5 1135.9 1614.2 1134.9 1612.8C1131.9 1608.4 1127 1605.8 1121.8 1605.8C1113.1 1605.8 1105.9 1612.9 1105.9 1621.7C1105.9 1623.1 1106.1 1624.4 1106.4 1625.7C1108.2 1632.7 1114.5 1637.6 1121.7 1637.6C1123.4 1637.6 1124.7 1638.9 1124.7 1640.6C1124.7 1642.3 1123.4 1643.6 1121.8 1643.6Z" fill="#1A1A1A"/>
<path d="M1121.8 1643.6C1111.8 1643.6 1103.1 1636.9 1100.6 1627.2L1106.4 1625.7C1108.2 1632.7 1114.5 1637.6 1121.7 1637.6C1123.8 1637.6 1125.9 1637.2 1127.9 1636.4L1130.2 1641.9C1127.6 1643.1 1124.7 1643.6 1121.8 1643.6Z" fill="#009B72"/>
<path d="M716.9 1665.1C710.8 1665.1 705 1663.4 699.9 1660.1C690.8 1654.3 685.4 1644.4 685.4 1633.6C685.4 1616.2 699.5 1602.1 716.9 1602.1C730.2 1602.1 742.1 1610.5 746.6 1623C747.8 1626.4 748.4 1630 748.4 1633.6C748.4 1651 734.3 1665.1 716.9 1665.1ZM716.9 1608.1C702.8 1608.1 691.4 1619.5 691.4 1633.6C691.4 1642.3 695.8 1650.3 703.1 1655.1C707.2 1657.7 712 1659.1 716.9 1659.1C731 1659.1 742.4 1647.7 742.4 1633.6C742.4 1630.7 741.9 1627.8 740.9 1625C737.3 1614.9 727.7 1608.1 716.9 1608.1Z" fill="#1A1A1A"/>
<path d="M716.9 1665.1C710.8 1665.1 705 1663.4 699.9 1660.1L703.1 1655.1C707.2 1657.7 712 1659.1 716.9 1659.1C731 1659.1 742.4 1647.7 742.4 1633.6C742.4 1630.7 741.9 1627.8 740.9 1625L746.6 1623C747.8 1626.4 748.4 1630 748.4 1633.6C748.4 1651 734.3 1665.1 716.9 1665.1Z" fill="#009B72"/>
<path d="M751.6 1643.6C749.9 1643.6 748.6 1642.3 748.6 1640.6C748.6 1638.9 749.9 1637.6 751.6 1637.6C759 1637.6 765.5 1632.3 767.1 1625.1C767.3 1624 767.5 1622.9 767.5 1621.7C767.5 1613 760.4 1605.8 751.6 1605.8C746.3 1605.8 741.4 1608.4 738.5 1612.8C737.6 1614.2 735.7 1614.5 734.3 1613.6C732.9 1612.7 732.6 1610.8 733.5 1609.4C737.6 1603.4 744.3 1599.8 751.6 1599.8C763.7 1599.8 773.5 1609.6 773.5 1621.7C773.5 1623.3 773.3 1624.8 773 1626.3C770.8 1636.4 761.8 1643.6 751.6 1643.6Z" fill="#1A1A1A"/>
<path d="M751.6 1643.6C748.7 1643.6 745.8 1643 743.1 1641.9L745.4 1636.4C747.4 1637.2 749.4 1637.6 751.6 1637.6C759 1637.6 765.5 1632.3 767.1 1625.1L773 1626.4C770.8 1636.4 761.8 1643.6 751.6 1643.6Z" fill="#009B72"/>
<path d="M1163.6 1522.7C1161.3 1505.1 1157 1489.4 1156.4 1487.2L1125.4 1186.7C1125.5 1186.4 1125.5 1186.1 1125.4 1185.8L1109.9 1037V1036.8C1109.9 1036.6 1109.8 1036.4 1109.8 1036.2C1109.8 1036.2 1109.8 1036.1 1109.7 1036.1C1109.6 1036 1109.6 1035.8 1109.5 1035.7C1109.5 1035.6 1109.4 1035.6 1109.4 1035.5C1109.3 1035.4 1109.3 1035.3 1109.2 1035.2C1109.1 1035.1 1109.1 1035.1 1109 1035C1108.9 1034.9 1108.8 1034.8 1108.7 1034.8C1108.7 1034.8 1108.6 1034.8 1108.6 1034.7C1108.6 1034.7 1108.5 1034.6 1108.4 1034.6C1108.3 1034.5 1108.2 1034.5 1108.1 1034.4C1108 1034.4 1107.9 1034.3 1107.8 1034.3C1107.7 1034.3 1107.6 1034.2 1107.5 1034.2C1107.4 1034.2 1107.3 1034.2 1107.2 1034.1C1107.1 1034.1 1107 1034.1 1106.9 1034.1C1106.8 1034.1 1106.7 1034.1 1106.6 1034.1H1106.5C1106.4 1034.1 1106.3 1034.1 1106.3 1034.1C1106.2 1034.1 1106.2 1034.1 1106.1 1034.1L1075.8 1041.5L1041.6 1044H1041.5C1040.4 1044.1 1039.4 1044.8 1039 1045.8C1038.1 1048.1 1039.9 1050.1 1042 1050H1042.2C1044.5 1049.9 1068.3 1049.1 1081.1 1075.3C1094.1 1102 1104.9 1135.1 1111.6 1158.2C1116.4 1174.6 1119.7 1191.4 1121.4 1208.5C1121.3 1208.9 1128.3 1249.2 1094.8 1281C1087.9 1287.6 1081.3 1292.6 1080.9 1302.1C1080.4 1314.5 1089.6 1330.9 1097.8 1345.3C1104.2 1356.6 1112.2 1370.7 1109 1374C1104.4 1378.8 1092.1 1371.8 1083.2 1366.7C1077.7 1363.6 1072.9 1360.8 1069.4 1360.3C1064 1359.5 1058.3 1361.4 1054.2 1365.4C1050 1369.4 1048 1374.8 1048.5 1380.5C1049.3 1388.8 1057.2 1396.3 1067.2 1405.7C1071.8 1410 1077 1415 1082.1 1420.5C1083.5 1422 1084.8 1423.5 1086.2 1425C1100.8 1440.9 1116 1457.3 1117.3 1477.7C1118.6 1498.5 1108.6 1503.5 1108.1 1503.8C1108 1503.8 1108 1503.9 1107.9 1503.9C1086.1 1509.5 1060.2 1512.1 1030.4 1511.5C1000.7 1511 991.8 1505.1 989.9 1503.5L950.7 1170.8C956.8 1169.6 961.5 1166.8 964.9 1162.3C973.2 1151.3 970.6 1133.5 969 1122.8C968.7 1120.7 968.4 1118.9 968.3 1117.6C968 1114.4 968.6 1111.9 970.2 1110.1C974.1 1105.5 984 1104.7 992.8 1104C996.8 1103.7 1000.5 1103.4 1003.9 1102.8C1009.5 1101.8 1013.5 1097.6 1013.7 1092.6C1013.9 1089.2 1012.4 1080.9 995.5 1076.3C976.1 1070.9 943.4 1072.5 934.9 1073.1C934.8 1073.1 934.7 1073.1 934.5 1073.1C921.7 1073.1 910 1070.6 899.7 1065.9C898.4 1065.3 896.8 1065.6 895.9 1066.8C894.8 1068.4 895.4 1070.5 897.1 1071.3C906 1075.4 915.9 1077.9 926.7 1078.8C926.6 1079.1 926.6 1079.4 926.5 1079.7L914.4 1193.9C914.4 1193.9 914.4 1193.9 914.4 1194L914.3 1194.8C913.9 1197.1 912 1205.4 902.3 1212.6C899.3 1214.8 896.5 1216.3 893.7 1217.7C886.6 1221.4 879.8 1225 880.4 1238.4C880.5 1240.1 880.6 1241.9 880.7 1243.8C881.2 1253.3 882.1 1271 878.6 1273.9C878.5 1274 878.3 1274.2 877.7 1274C873.6 1273.1 865.7 1262.7 859.3 1254.2C853 1245.9 847.1 1238.1 842.1 1234.7C836.9 1231.2 830.5 1230.9 824.9 1234C817.9 1237.8 813.6 1245.9 813.8 1254.6C814.1 1266.6 827.7 1293 854.3 1332.9C871 1357.9 888.8 1400.4 888.5 1434.5C888.5 1435.1 888.6 1435.6 888.9 1436L883 1492C852.8 1504.3 811.6 1505 760.3 1494.1C728.1 1487.2 722.2 1478.8 721.8 1478L762.2 959.1C762.3 957.4 761.1 956 759.4 955.9C757.8 955.8 756.3 957 756.2 958.7L715.5 1481.1C715.5 1481.3 715.5 1481.6 715.5 1481.8C713.9 1491.9 709.3 1524.4 712.7 1546.3C714.4 1557.4 722.8 1572.3 753.2 1579.9C772.7 1584.8 798.5 1587.9 822.2 1587.9C839.8 1587.9 856.1 1586.2 867.7 1582.1C889.4 1574.5 888.7 1505.6 888.5 1494.8C888.6 1494.5 888.7 1494.2 888.8 1493.9L932.6 1080.3C932.6 1080.1 932.7 1079.6 933.4 1079.6C934.1 1079.6 934.2 1080.1 934.2 1080.3L984.2 1505.1C984.3 1508.3 985.3 1547.9 993.9 1571.9C997.3 1581.3 1005.1 1588.2 1017.2 1592.4C1028.1 1596.2 1039 1596.6 1043.2 1596.6C1093.1 1596.6 1135.1 1587.1 1155.3 1571.3C1164.1 1564.8 1166.9 1548.4 1163.6 1522.7ZM865.7 1576.6C842.4 1584.7 792.6 1583.7 754.7 1574.2C739.7 1570.5 721.2 1562.4 718.6 1545.5C715.7 1526.5 719.2 1498 721 1485.8C721.8 1486.4 722.8 1487.1 724 1487.8C731.7 1492.6 743.5 1496.7 759.1 1500C810.1 1510.9 851.6 1510.4 882.6 1498.6C882.8 1528.1 878.7 1572 865.7 1576.6ZM1151.6 1566.6C1144.4 1572.2 1115.2 1590.6 1043.1 1590.6C1040.1 1590.6 1029.4 1590.3 1019.1 1586.7C1008.8 1583.1 1002.2 1577.5 999.4 1569.9C992.9 1551.8 990.9 1523.2 990.3 1510.9C991.3 1511.4 992.3 1511.9 993.6 1512.3C1002.1 1515.5 1014.4 1517.3 1030.3 1517.6C1082.5 1518.5 1123.3 1510.1 1151.5 1492.5C1156.9 1512.9 1165 1556.6 1151.6 1566.6Z" fill="#1A1A1A"/>
<path d="M816.1 1584.9C816.1 1584.9 848.3 1586.5 845.3 1613.1L848.4 1584.6L816.1 1584.9Z" fill="#1A1A1A"/>
<path d="M845.4 1616.1C845.3 1616.1 845.2 1616.1 845.1 1616.1C843.5 1615.9 842.3 1614.4 842.4 1612.8V1612.7C843.1 1606.5 841.7 1601.4 838.3 1597.4C830.8 1588.6 816.1 1587.8 816 1587.8C814.4 1587.7 813.1 1586.4 813.1 1584.7C813.1 1583.1 814.5 1581.8 816.1 1581.8L848.4 1581.6C849.2 1581.6 850.1 1582 850.6 1582.6C851.1 1583.2 851.4 1584.1 851.4 1584.9L848.3 1613.3C848.3 1613.3 848.3 1613.3 848.3 1613.4C848.2 1615 846.9 1616.1 845.4 1616.1ZM835.8 1587.7C838.4 1589.2 840.8 1591.1 842.8 1593.5C843.3 1594.1 843.8 1594.7 844.2 1595.4L845 1587.6L835.8 1587.7Z" fill="#1A1A1A"/>
<path d="M1262 723.8C1258 715.9 1251.3 703.2 1242.6 688.2C1228 663 1206 628.4 1183.9 606.3C1158.4 580.8 1101.7 543.2 1080.6 532.1C1077.7 530.5 1076.5 527 1078 524L1091.5 497C1092.2 495.5 1091.6 493.7 1090.2 493C1088.7 492.3 1086.9 492.9 1086.2 494.3L1072.7 521.3C1069.8 527.1 1072.1 534.3 1077.9 537.4C1089.2 543.4 1110.9 557.1 1132.4 572.4C1129.3 576.6 1118.8 589.8 1101 601C1072.5 618.9 1039.9 623.2 1004.1 613.8C972.5 605.5 949.1 586.3 934.4 556.6C925.5 538.6 922.8 522 922 516.1C930 514.1 937.7 512.2 944.9 510.4C968.4 504.7 985.4 500.6 991.4 496C1003.1 487 1024.1 423.7 1026.4 416.5C1026.9 414.9 1026.1 413.2 1024.5 412.7C1022.9 412.2 1021.2 413 1020.7 414.6C1011.7 442.1 995.5 485.2 987.7 491.1C982.7 494.9 964.5 499.4 943.4 504.5C919.7 510.2 890.3 517.4 863.1 527.4C803.9 549.1 736.9 599.6 683.8 662.3C677.2 670.1 671 677.5 665.2 684.3C633.5 722.1 614.4 744.9 596.3 757.6C593.2 759.8 588.5 760.1 582.1 758.8C564.4 755 534.8 737.3 498.7 708.9C469.4 685.8 446.6 664.2 444.3 660.8C444 659.6 443.5 657.2 442.9 654.4C437.5 628.5 433.1 614.6 425.3 615.6C417.8 616.6 418.3 629.1 418.9 642.4C419 645.8 419.2 650.1 419.1 652.6C415.9 651 409.6 646.8 404.4 643.4C382.1 628.8 371.9 622.9 368 628.6C365.8 631.9 366.8 635.7 369.7 639.9C359.8 633.6 354.2 632.1 351.3 635.9C347.4 641 354 649.8 370.3 664.8C363.3 660.5 359.2 658.8 356.6 659.3C355.5 659.5 354.5 660.2 353.9 661.1C348.5 669.2 362.9 681.3 380.8 694.3C367.5 690.9 360.3 689.7 357.1 691.6C356.1 692.2 355.3 693.2 355.1 694.3C354.2 698 357.3 701.8 376 710.4C386.9 715.4 399.6 720.4 406.2 723C408.8 724 411 725.5 412.9 727.5C414.5 729.2 416.7 731.6 419.4 734.5C453.4 771.5 556.5 883.7 617.1 883.7C617.3 883.7 617.6 883.7 617.9 883.7C642.1 883.3 668.2 870.8 695.6 846.6C712.4 831.7 724.3 817.1 728.1 812.2C737.5 821.7 747.4 830.7 757.2 838.1C757.2 838.1 757.3 838.2 757.4 838.2C757.5 838.2 757.5 838.3 757.6 838.3C757.7 838.4 757.8 838.4 757.9 838.4C758 838.4 758 838.5 758.1 838.5C758.2 838.5 758.3 838.6 758.4 838.6C758.5 838.6 758.5 838.6 758.6 838.6C758.8 838.6 758.9 838.6 759.1 838.6C759.3 838.6 759.5 838.6 759.7 838.5C759.8 838.5 759.8 838.5 759.9 838.4C760 838.4 760.2 838.3 760.3 838.3C760.4 838.3 760.5 838.2 760.5 838.2C760.6 838.1 760.7 838.1 760.8 838C760.9 837.9 760.9 837.9 761 837.8C761.1 837.7 761.1 837.7 761.2 837.6L773.4 823.9L729.5 953.2C729 954.4 727 959.6 729.3 966.4C732.4 975.2 741.2 982.9 755.5 989.4C755.9 989.6 756.3 989.7 756.7 989.7C757.2 989.7 757.8 989.6 758.2 989.3C759 988.8 759.6 987.9 759.7 987L761.8 960.7C787.3 967.4 834.2 984.6 918.2 1027.7C952.9 1045.5 992.4 1050.2 1024.2 1050.2C1031 1050.2 1037.5 1050 1043.5 1049.6C1072.6 1047.9 1095.8 1042.9 1104.1 1040.9L1105 1048.7C1105.2 1050.2 1106.5 1051.4 1108 1051.4C1108.1 1051.4 1108.2 1051.4 1108.3 1051.4C1121.4 1050.1 1133.8 1044.3 1136.8 1038.3C1137.4 1037.7 1137.7 1036.8 1137.6 1035.9C1137.6 1035.9 1137.6 1035.7 1137.5 1035.3C1137.5 1035.1 1137.5 1034.9 1137.4 1034.7C1136.4 1026.7 1130.6 979.7 1126.7 923.5C1124.7 893.9 1123.5 866.7 1123.3 842.1L1179.3 888.9C1179.9 889.4 1180.5 889.6 1181.2 889.6C1181.9 889.6 1182.7 889.3 1183.2 888.8C1183.5 888.5 1213.9 860.2 1239.2 818.7C1263.9 778.1 1268.4 746.4 1269.1 741.1C1269.9 739.7 1268.9 737.3 1262 723.8ZM617.9 877.6C593.5 877.9 557.7 857.8 511.6 817.6C474.1 784.9 440.2 748 423.9 730.3C421.2 727.3 419 724.9 417.4 723.2C414.9 720.6 411.9 718.5 408.5 717.2C383.4 707.5 368.4 700.3 363.2 696.5C368.5 696.9 379 699.7 384 701C386.7 701.7 388.9 702.3 390.7 702.7C393 703.2 395.6 703.8 396.8 701.5C398.1 699 395.8 697.3 394.2 696C392.9 695 391.1 693.8 389 692.3C383.2 688.1 374.3 681.8 367.7 675.9C361.1 669.9 359.5 666.7 359.2 665.3C363.6 666.8 375 674.6 381.4 678.9C393.4 687.1 395.7 688.5 398.1 687.8C399.1 687.5 399.8 686.8 400.2 685.9C401.1 683.6 399.3 682 396.7 679.6C394.8 677.9 392.2 675.6 389.2 673C382.5 667.2 374.2 659.9 367.4 653.2C359 644.8 357.2 641.1 356.8 639.8C362.2 640.4 380.6 654.3 387.7 659.7C397.5 667.1 398.4 667.8 400.4 667.3C401.3 667 402.1 666.3 402.4 665.4C403.6 662.4 401.1 660.3 392.8 653.4C388.1 649.4 382.1 644.5 378.1 640C374 635.5 373.4 633.3 373.4 632.4C377.9 632.8 393.2 642.8 401.6 648.3C416.9 658.3 420.1 660.2 422.9 658.8C426.1 657.2 425.9 652.5 425.5 642.1C425.3 636.5 424.7 623.7 426.7 621.6C428.4 622.5 431.9 628.3 437.6 655.6C438.3 659 438.8 661.4 439.2 662.7C440.4 666.8 467.3 690.9 489.6 708.8C514 728.4 548.5 753.7 573.8 762.4C585.8 766.5 594.5 766.6 600.3 762.4C614.7 752.3 629.4 736.3 650 712.1C654.1 718.4 666.2 736.9 682.5 758.3C686.3 763.3 690.4 768.6 694.9 774.2C695 774.6 695.2 775 695.5 775.3L696.7 776.8C699.3 780.1 705.5 788.9 706 800C706.5 810.6 703.1 824.5 696.2 835.3L684.8 847.5C684.7 847.6 684.7 847.6 684.7 847.7C665.7 863.4 642 877.3 617.9 877.6ZM1234.4 815.6C1213.2 850.4 1188.3 875.8 1181.3 882.6L1123.4 834.2C1123.3 795.1 1125.5 763.2 1130 740.2C1130.3 738.6 1129.3 737 1127.6 736.7C1126 736.4 1124.4 737.4 1124.1 739.1C1120.5 757.2 1117.2 787.2 1117.4 835.4C1117.4 835.6 1117.4 835.8 1117.4 836C1117.5 860.4 1118.5 889.5 1120.9 924C1124.2 972.3 1129 1013.9 1130.9 1029.8C1123.1 1028.8 1110.5 1032.8 1106 1034.3C1104.4 1034.7 1078.2 1041.6 1043.2 1043.6C1010.1 1045.5 962 1043.4 921.1 1022.3C794.6 957.4 750.8 950.2 736.8 950.6L783.7 812.4L825.6 765.3C826.7 764.1 826.6 762.2 825.4 761.1C824.2 760 822.3 760.1 821.2 761.3L758.7 831.5C731.8 810.6 705.1 778.5 687.2 754.9C669.3 731.3 656.5 711.5 654 707.5C659 701.5 664.4 695.1 670.2 688.2C676 681.3 682.1 674 688.7 666.2C741.1 604.2 807.2 554.5 865.4 533.1C882.1 527 899.7 521.9 916.2 517.6C917.1 524.4 920 540.8 929 559C939.6 580.6 961 608.6 1002.6 619.5C1015.8 623 1028 624.4 1039.3 624.4C1067.7 624.4 1089.6 615.1 1104.4 605.8C1123.1 594 1133.9 580.4 1137.3 575.8C1153.6 587.6 1169.3 600.1 1179.7 610.5C1220.1 650.9 1260.4 733.1 1263.3 740.4C1262.8 744.9 1258.3 776.3 1234.4 815.6Z" fill="#1A1A1A"/>
<path d="M1483.2 686.1L1474.9 653.4C1474.6 652.3 1473.7 651.4 1472.5 651.2C1471.3 651 1470.2 651.5 1469.5 652.5C1469.3 652.8 1464.1 660.6 1466.6 669.5C1469.9 681.3 1465.8 693.9 1460.9 701.1C1460.5 701.6 1460.1 702.1 1459.7 702.6L1458.2 704.5C1458.1 704.7 1458 704.8 1457.9 705C1449.8 715.6 1438.9 730 1427.3 745.5C1427.1 745.6 1427 745.8 1426.8 745.9C1426.6 746.1 1406.1 770 1370.6 787.5C1335.5 804.8 1324.9 823.1 1314.7 840.7C1313.8 842.3 1312.8 844 1311.8 845.6L1311.4 846.3C1299.5 866.5 1279.5 900.4 1241.8 888.7C1241.5 888.6 1241.2 888.6 1240.9 888.6C1220.1 879.2 1207.4 863.4 1207.2 863.2C1206.2 861.9 1204.3 861.7 1203 862.7C1201.7 863.7 1201.5 865.6 1202.5 866.9C1203.6 868.3 1230.4 901.5 1271.9 901.5C1291.3 901.5 1310.1 894.6 1327.8 881C1342.4 869.8 1356.5 854 1370.9 832.7C1390.4 803.9 1439.8 738.4 1463.3 707.7C1464.1 706.8 1464.9 705.8 1465.7 704.7L1477.3 690.2L1480.8 689.7C1481.6 689.6 1482.4 689.1 1482.9 688.4C1483.2 687.8 1483.4 686.9 1483.2 686.1Z" fill="#1A1A1A"/>
<path d="M537 892.5C536.3 892.5 535.5 892.2 534.9 891.7L447.7 808.1C446.5 807 446.5 805.1 447.6 803.9C448.7 802.7 450.6 802.7 451.8 803.8L539 887.4C540.2 888.5 540.2 890.4 539.1 891.6C538.5 892.2 537.8 892.5 537 892.5Z" fill="#1A1A1A"/>
<path d="M1234.3 393.6L1232.9 390.2C1232.9 390.2 1232.9 390.1 1232.8 390.1C1224.6 372.9 1221.6 360.6 1217.8 345C1216.6 340.1 1215.4 335.1 1213.9 329.4V329.3C1207.8 309.5 1198.5 279.6 1143.1 259.4C1101.8 244.3 1053.7 251.5 1000.1 280.6C985.1 288.7 970.2 290.8 955.8 292.8C939.1 295.1 921.8 297.5 905.3 309.3C887.5 322.1 874.7 345 871.2 370.7C867.4 399 875 427.4 892.2 448.7C907.6 467.4 930.3 479.6 957.7 484.1C978.3 487.5 994.2 485.3 994.9 485.2C996 485.1 996.9 484.3 997.3 483.4L1023.3 418.9C1023.3 418.8 1023.3 418.8 1023.4 418.7C1023.6 418.7 1023.7 418.7 1023.9 418.7C1025.1 418.7 1026.2 418 1026.7 416.9C1027.3 415.4 1026.6 413.6 1025.1 413C1025 412.9 1011.5 407.1 1009.2 395.2C1006.9 383.4 1011.3 364.5 1023.6 360.3C1026.7 359.2 1029.7 359 1032.5 359.6C1033.6 360 1034.8 360.4 1036.1 360.9C1036.5 361.1 1037 361.4 1037.4 361.7C1041.2 364.4 1043.6 369.1 1043.7 374.2C1043.8 380.1 1044 392.4 1056.8 393.1C1067.9 393.7 1072.4 382.1 1076.1 370.2C1078.5 362.5 1082.3 359.1 1085.1 357.7C1087.5 356.5 1090.1 356.2 1092.3 356.9C1099.7 359.4 1106.6 363.7 1114.6 368.8C1126.1 376.1 1139.2 384.4 1157.9 389.5C1175.9 394.4 1189.1 393.7 1195.9 392.7C1186.7 426.4 1174.1 452.3 1158.3 469.7C1146.8 482.4 1133.7 490.2 1119.8 492.9C1119.7 492.9 1119.6 492.9 1119.5 493C1116.3 493.6 1113.2 493.9 1109.9 493.9C1109.7 493.9 1109.4 493.9 1109.2 493.9C1076.5 493.9 1051.2 471.9 1050.9 471.6C1049.7 470.5 1047.8 470.6 1046.7 471.9C1045.6 473.1 1045.7 475 1047 476.1C1047.8 476.8 1063.1 490.1 1085.6 496.5L1081.3 506.7C1080.8 508 1081.2 509.4 1082.2 510.2C1112.9 533.9 1140.2 544.2 1161.8 544.3C1186 544.5 1229.1 531 1244.3 493.4C1260 454.2 1245.8 420.6 1234.3 393.6Z" fill="#1A1A1A"/>
<path d="M1217.9 497.1C1182.9 535.1 1139.3 535.1 1127.4 531.3C1161.2 546.1 1217.2 536.3 1238.2 493.7C1248.3 473.1 1246.4 449.3 1242.2 431.5C1240.4 449.3 1237.3 476.2 1217.9 497.1Z" fill="white"/>
<path d="M1145.2 265.9C1145.2 265.9 1149.8 311 1208.7 329.4C1202.5 309.6 1192 284.3 1145.2 265.9Z" fill="white"/>
<path d="M951.4 311.3C950.2 309.1 948.1 307.6 945.4 307.1C942.7 306.6 939.8 307.1 937.2 308.5C931.7 311.5 929.2 317.5 931.7 321.9C933.2 324.7 936.3 326.2 939.8 326.2C941.8 326.2 944 325.7 946 324.6C951.3 321.8 953.8 315.8 951.4 311.3Z" fill="white"/>
<path d="M894.4 399C889.8 399 886 395.3 885.9 390.7C885.2 350.2 909.9 330.7 911 329.8C914.7 326.9 920.1 327.6 922.9 331.3C925.8 335 925.1 340.3 921.4 343.2C920.5 343.9 902.3 358.8 902.9 390.3C903 395 899.2 398.9 894.6 399C894.5 399 894.5 399 894.4 399Z" fill="white"/>
</svg>
