<svg width="2000" height="2000" viewBox="0 0 2000 2000" fill="none" xmlns="http://www.w3.org/2000/svg">
<path d="M644.1 1873.8C85.8001 1782.8 -70.0997 1204.8 273.7 857.2C586.8 540.6 424.3 293.7 938.3 261.3C1393.3 232.6 1852.5 783.3 1939.5 1250.9C2058.5 1889.3 1344.4 1988 644.1 1873.8Z" fill="#046865"/>
<path d="M1150.2 49.3C1079.4 38.1 985.3 32 885.2 32C785.1 32 691 38.2 620.2 49.3C569.3 57.3 508.7 71.4 508.7 93.2C508.7 115 569.3 129.1 620.2 137.1C691 148.3 785.1 154.4 885.2 154.4C985.2 154.4 1079.3 148.3 1150.2 137.1C1201.1 129.1 1261.7 115 1261.7 93.2C1261.7 71.4 1201.1 57.3 1150.2 49.3Z" fill="#1A1A1A"/>
<path d="M1883.4 567.8C1863.9 557.2 1836.1 563.7 1800.9 587.1C1767.6 609.3 1728.8 645.7 1685.5 695.3C1596.7 797.1 1498.8 943.3 1409.8 1107.1C1320.9 1270.9 1251.5 1432.6 1214.4 1562.5C1196.4 1625.8 1187 1678.1 1186.5 1718.1C1186 1760.4 1195.7 1787.2 1215.2 1797.8C1221.2 1801.1 1228.1 1802.7 1235.7 1802.7C1252.6 1802.7 1273.4 1794.6 1297.7 1778.5C1331 1756.3 1369.8 1719.9 1413.1 1670.3C1501.9 1568.5 1599.8 1422.3 1688.8 1258.5C1777.7 1094.7 1847.1 933 1884.2 803.1C1902.2 739.8 1911.6 687.5 1912.1 647.5C1912.6 605.2 1902.9 578.4 1883.4 567.8Z" fill="#1A1A1A"/>
<path d="M1269.1 1189.7C1321.1 1244.4 1359.2 1305 1367.8 1365.7C1376.4 1426.4 1359.8 1529.1 1353.1 1574.4C1346.8 1617.3 1316.9 1745.9 1313.8 1759.3C1342 1737.3 1373.8 1706.1 1408.6 1666.3C1497.1 1564.8 1594.8 1419 1683.5 1255.6C1760.9 1113.2 1823.4 972.5 1862.6 852.9C1849.5 850.2 1742.5 827.6 1631.7 787C1527.9 748.9 1423.8 693.3 1350.4 644.7C1193.4 540.7 1080.4 366.7 1034.4 273.7C990.7 185.3 970.5 51 968.6 37.9C942.1 37 914.2 36.5 885.1 36.5C801.1 36.5 727.5 40.7 668.4 47.4C668.4 48.6 668.8 72.5 678.5 191.7C688.5 314.4 723.8 397.7 743.8 478.4C763.8 559.1 838.5 688.4 881.8 764.4C925.1 840.4 1059.1 990.4 1059.1 990.4C1059.1 990.4 1217.1 1135 1269.1 1189.7Z" fill="#009B72"/>
<path d="M1036.5 40.8L968.6 36.8C968.6 36.8 980.5 143.1 1017 234.6C1053.5 326.1 1135.5 452.6 1211.5 530.6C1287.5 608.6 1425 696.6 1501.5 733.6C1578 770.6 1726 836 1862.7 852.8L1883.9 784.5C1883.9 784.5 1798.9 764.3 1764.1 751.3L1739.7 781.3L1740.3 743.1C1740.3 743.1 1594.1 686.9 1578.1 676L1545.7 714.9L1554.3 664.4C1554.3 664.4 1395.3 584.2 1332 531.4L1288.2 560.6L1312.8 516C1312.8 516 1217.1 430.6 1192.7 391.1L1133.7 407.9L1173 364.2C1173 364.2 1109.2 271.5 1079.2 189C1049.2 106.5 1036.5 40.8 1036.5 40.8Z" fill="#009B72"/>
<path d="M1739.4 781.3L1740 743.1C1740 743.1 1593.8 686.9 1577.8 676L1545.4 714.9L1554 664.4C1554 664.4 1395 584.2 1331.7 531.4L1299.4 550.6C1330.4 578.4 1364.1 606.5 1401.4 632.6C1543.5 732.1 1710.7 787.8 1875.3 812.2L1883.9 784.5C1883.9 784.5 1798.8 764.3 1763.9 751.3L1739.4 781.3Z" fill="white"/>
<path d="M1078.9 189.1C1048.9 106.6 1036.5 40.8 1036.5 40.8L1044.4 81.1C1040.4 129.6 1081.4 276.6 1158.4 379.6L1172.7 364.3C1172.7 364.3 1108.9 271.6 1078.9 189.1Z" fill="white"/>
<path d="M1294.4 543.6L1312.5 516C1312.5 516 1216.8 430.6 1192.4 391.1L1163.4 398.6C1200.9 449.7 1239.6 494.1 1294.4 543.6Z" fill="white"/>
<path d="M1241.1 557.6L1223.8 584C1209.2 606.2 1214.7 635.9 1236.1 651.5L1314.7 708.7C1338.5 726 1372 719 1386.9 693.7L1397.1 676.3C1397.1 676.3 1355.1 650.3 1305.8 611.6C1256.5 572.9 1241.1 557.6 1241.1 557.6Z" fill="white"/>
<path d="M1469 1592.1C1468.8 1592.1 1468.6 1592 1468.4 1592C1457.2 1592.2 1447.1 1587 1440.7 1577.8C1434.3 1568.6 1432.9 1557.4 1436.9 1546.9L1438.9 1541.6C1444.7 1526.4 1440.4 1509 1428.2 1498.2L1421.7 1492.5C1409.2 1481.5 1391 1479.6 1376.4 1487.8L1363.2 1495.8C1361.8 1496.6 1361.3 1498.5 1362.2 1499.9C1363 1501.3 1364.9 1501.8 1366.3 1500.9L1379.4 1492.9C1391.7 1486 1407.1 1487.6 1417.7 1496.9L1424.2 1502.6C1434.6 1511.7 1438.2 1526.5 1433.3 1539.4L1431.3 1544.7C1426.7 1556.9 1428.4 1570.5 1435.8 1581.2C1442.5 1590.9 1453.1 1596.8 1464.6 1597.8L1469 1592.1Z" fill="white"/>
<path d="M821.1 657.6L865.7 610.4C877 598.4 896.8 600.7 905 615L977 740C982.9 750.2 980.7 763.2 971.8 770.9C960.7 780.5 943.8 778.4 935.4 766.4L905.4 723.5C896.3 710.5 877.6 709.3 867 721L860.4 728.2L821.1 657.6Z" fill="white"/>
<path d="M806.4 627.5C806.2 627.5 806 627.5 805.8 627.5C802.8 627.3 800.1 625.4 798.9 622.6L765.7 547.1C764.5 544.3 764.9 541 766.8 538.6L853.4 432C860.7 423 871.9 418.2 883.4 419.2C894.9 420.1 905.2 426.6 911 436.6C917.6 448 917.2 461.9 910.1 473L813.4 623.7C811.9 626.1 809.2 627.5 806.4 627.5ZM880.5 425.1C871.7 425.1 863.7 428.9 858.1 435.8L771.5 542.4C771 543.1 770.8 543.9 771.2 544.7L804.4 620.2C804.9 621.3 805.9 621.5 806.3 621.5C806.7 621.5 807.7 621.5 808.4 620.5L905.1 469.8C911 460.6 911.3 449.1 905.8 439.6C901 431.2 892.6 425.9 883 425.1C882.1 425.1 881.3 425.1 880.5 425.1Z" fill="white"/>
<path d="M1484.8 934.8L1412.1 1089.9C1403 1109.4 1377.7 1114.5 1361.7 1100.1L1323.7 1065.9C1309.4 1053 1304.9 1032.4 1312.7 1014.8L1320.6 996.6C1327.6 980.5 1347.9 975.2 1361.9 985.8L1365.5 988.5C1377.9 997.9 1395.7 993.9 1403 980.2L1443.3 904.2C1450.6 890.4 1469.4 888.2 1479.8 899.9C1488.3 909.4 1490.2 923.2 1484.8 934.8Z" fill="white"/>
<path d="M1476 1197.7C1467.7 1197.7 1459.9 1193.9 1454.7 1187.2L1436.9 1164.2C1430.8 1156.2 1429.5 1145.6 1433.7 1136.5L1486.2 1021.6L1488.9 1022.8L1486.2 1021.6C1489.5 1014.5 1495.6 1009.1 1503.2 1006.9C1510.7 1004.7 1518.8 1005.9 1525.4 1010.1L1594.3 1054.6C1605.5 1061.8 1609.7 1075.9 1604.4 1088L1576.8 1151.4C1573.6 1158.8 1567.3 1164.3 1559.5 1166.6C1551.7 1168.9 1543.5 1167.5 1536.8 1162.9C1531.8 1159.5 1525.6 1158.4 1519.7 1159.9C1513.8 1161.4 1508.9 1165.4 1506.2 1170.8L1500.3 1182.7C1496.1 1191.1 1488.1 1196.6 1478.8 1197.5C1477.8 1197.7 1476.9 1197.7 1476 1197.7ZM1510.7 1011.9C1508.7 1011.9 1506.7 1012.2 1504.8 1012.7C1498.9 1014.4 1494.1 1018.6 1491.6 1024.1L1439.1 1139C1435.9 1146.1 1436.8 1154.4 1441.6 1160.6L1459.4 1183.6C1463.8 1189.3 1470.8 1192.4 1478 1191.7C1485.2 1191 1491.5 1186.7 1494.7 1180.2L1500.6 1168.3C1504.1 1161.3 1510.4 1156.2 1518 1154.2C1525.6 1152.2 1533.6 1153.7 1540 1158.1C1545.2 1161.7 1551.6 1162.7 1557.7 1161C1563.7 1159.3 1568.6 1155 1571.2 1149.2L1598.8 1085.8C1602.9 1076.3 1599.6 1065.4 1591 1059.8L1522.1 1015.3C1518.7 1013 1514.7 1011.9 1510.7 1011.9Z" fill="white"/>
<path d="M1652.4 1317.6L1575.2 1230.1C1559 1211.7 1529.6 1214.5 1517 1235.5C1510.8 1246 1510.2 1258.8 1515.5 1269.8L1532.4 1304.7C1537.4 1314.9 1537.2 1326.9 1532 1337.1L1466.1 1464.8C1459.7 1477.2 1461 1492.1 1469.4 1503.2L1503.6 1548.4C1503.6 1548.4 1555.6 1471.7 1588.3 1423.7C1621.1 1375.6 1652.4 1317.6 1652.4 1317.6Z" fill="#1A1A1A"/>
<path d="M1348.3 1191.5L1345.9 1196.4C1340.5 1207.4 1341.8 1220.4 1349.3 1230.1L1387.2 1279.5C1398.6 1294.4 1403.1 1313.5 1399.6 1331.9L1392.5 1368.7C1390.4 1379.6 1394.1 1390.8 1402.2 1398.3C1419.1 1414 1446.6 1407.4 1454.4 1385.7L1479.5 1316.2C1485.9 1298.5 1482.3 1278.7 1470 1264.4L1401.6 1184.6C1386.5 1167.2 1358.4 1170.8 1348.3 1191.5Z" fill="#1A1A1A"/>
<path d="M1243.4 837.4L1335.7 911.5C1357.7 929.2 1390.4 921.3 1402.1 895.6L1444.6 801.9C1451.4 787 1445.8 769.3 1431.6 761L1423.2 756.1C1407.8 747 1387.9 752.4 1379.1 767.9C1369.8 784.2 1348.5 789.1 1333 778.5L1301.2 756.7C1286.5 746.6 1266.3 750.4 1256.4 765.3L1236.8 794.5C1227.5 808.4 1230.4 827 1243.4 837.4Z" fill="#1A1A1A"/>
<path d="M1124.4 823.3L1122.6 825.9C1113.8 838.2 1115.8 855.2 1127.2 865.2L1250.5 973.3C1263.7 984.8 1283.9 982.5 1294 968.2C1302.6 956 1300.8 939.4 1289.8 929.3L1168.3 818.6C1155.3 806.8 1134.7 809 1124.4 823.3Z" fill="#1A1A1A"/>
<path d="M1177 779.7C1169.1 779.7 1161.7 776.9 1155.7 771.6L1094.8 717.4C1082.2 706.2 1080.5 687 1090.9 673.7L1094.7 668.8C1102.7 658.6 1102 644.3 1093.2 634.9L1051.9 591C1042.1 580.6 1040.4 564.8 1047.7 552.6C1055.4 539.7 1062.3 528.4 1068 519.1C1072.9 511.2 1080.9 505.8 1090.1 504.3C1099.3 502.8 1108.6 505.4 1115.8 511.3L1162 549.8C1174.8 560.4 1177.3 578.8 1168 592.5C1160.8 603 1162.3 617 1171.4 625.9L1233 685.8C1245.1 697.6 1246 716.9 1234.9 729.7L1201.4 768.6C1195.7 775.2 1187.9 779.1 1179.2 779.7C1178.4 779.7 1177.7 779.7 1177 779.7ZM1073.1 522.2C1067.4 531.4 1060.6 542.7 1052.9 555.6C1047 565.5 1048.3 578.4 1056.3 586.8L1097.6 630.7C1108.5 642.3 1109.3 659.9 1099.5 672.4L1095.7 677.3C1087.2 688.1 1088.6 703.7 1098.9 712.8L1159.8 767C1165.1 771.7 1171.8 774 1178.8 773.5C1185.8 773 1192.2 769.8 1196.8 764.5L1230.3 725.6C1239.3 715.2 1238.6 699.5 1228.7 689.9L1167.1 630C1155.9 619.1 1154.2 601.8 1163 588.9C1170.6 577.7 1168.5 562.8 1158.1 554.2L1111.9 515.7C1106.1 510.9 1098.5 508.8 1091 510C1083.7 511.4 1077.1 515.8 1073.1 522.2Z" fill="white"/>
<path d="M980.3 590.7L957.3 624.3C951.5 632.9 951.1 644 956.3 653L1038.9 794C1047.1 808 1065.7 811.5 1078.4 801.6C1088.7 793.6 1091.7 779.2 1085.5 767.7L1041.5 686.3C1037 678 1037.2 668 1042 659.9L1048.3 649.3C1053.9 639.9 1053.2 628 1046.5 619.3L1023.5 589.5C1012.5 575.1 990.6 575.7 980.3 590.7Z" fill="#1A1A1A"/>
<path d="M906.9 517.9L927.3 489.6C934.9 479.1 950.7 479.5 957.7 490.4L968.3 506.9C972.4 513.3 972.1 521.7 967.5 527.8L945.5 557.2C937.3 568.1 920.6 566.7 914.4 554.5L905.5 536.9C902.4 530.8 902.9 523.5 906.9 517.9Z" fill="white"/>
<path d="M874 337.9L889.2 367.6C894.6 378.3 909.1 380.2 917.1 371.3C925.3 362.3 940.1 364.5 945.3 375.6L985.8 462.8C990.5 473 1003.6 475.9 1012.2 468.8L1038.3 447.2C1044.6 442 1046.3 433 1042.4 425.9L952.3 259.5C946.4 248.6 931.2 247.4 923.7 257.2L875.7 319.7C871.7 325 871 332.1 874 337.9Z" fill="#1A1A1A"/>
<path d="M1364.4 1339.5C1347.2 1292.3 1330.7 1256.9 1297.1 1215.7C1263.9 1175 1213.8 1128.6 1138.5 1062.2C1108.6 1035.8 1073.5 1002.3 1036.2 961.6L1085 904.9C1093.8 894.7 1093.4 879.5 1084 869.8L1060.2 845.1C1051.5 836.1 1037.6 834.5 1027.1 841.4C1016.4 848.4 1002.1 846.6 993.5 837.1L970.1 811.4C961.2 801.7 946.4 800.1 935.6 807.8L920.9 818.3C898.1 785.8 875.5 750.8 853.9 713.3C814.2 644.5 780.8 573.2 754 499.8L833.9 405.4C837.9 400.7 838.8 394.2 836.2 388.6L829.2 373.3C825 364.2 813.5 361.2 805.5 367.2C796.8 373.6 784.4 369.6 781.1 359.3L756.8 283C753.8 273.6 743.1 269.2 734.4 273.8L696.8 293.7C685.4 234.9 677.8 174.9 674 113.9C690.2 108.1 770 82.9 811.6 69.7C827 64.8 837.9 51.1 839.1 35L741.1 38.3L671.4 46.9C671.2 45.4 669.9 44.3 668.4 44.3C666.7 44.3 665.4 45.6 665.4 47.3C669.4 287.3 731 512.4 848.7 716.1C944.3 881.7 1056.9 998.1 1134.5 1066.5C1209.6 1132.7 1259.5 1178.9 1292.4 1219.3C1325.5 1259.7 1341.7 1294.7 1358.7 1341.3C1394 1438.3 1311.4 1756.4 1310.6 1759.6C1310.1 1761.2 1311.1 1762.9 1312.7 1763.3C1313 1763.4 1313.2 1763.4 1313.5 1763.4C1314.8 1763.4 1316.1 1762.6 1316.4 1761.3C1316.7 1760.5 1337.7 1679.9 1354 1588.2C1376 1464.7 1379.5 1381.1 1364.4 1339.5Z" fill="#1A1A1A"/>
<path d="M707.5 160.3L716 215.8C717.9 228.4 731 236 742.9 231.4L763.4 223.5C774.3 219.3 786.5 225.4 789.7 236.6L805.5 291.9C809.2 304.9 824.6 310.5 835.8 302.9L851.4 292.4C858 287.9 861.3 279.9 859.8 272L830.2 122.1C827.8 110 815.2 103 803.6 107.3L720.1 138.7C711.4 141.9 706.1 151 707.5 160.3Z" fill="white"/>
<path d="M1864.6 850.2C1720.4 820 1590.9 775.4 1478.1 717.3L1513.6 659.9C1514.4 658.5 1514 656.7 1512.6 655.8C1511.2 655 1509.4 655.4 1508.5 656.8L1472.8 714.5C1436.1 695.4 1401.2 674.9 1368.2 652.9C1353 642.8 1338.1 632.3 1323.7 621.6L1358.6 581C1359.7 579.8 1359.5 577.9 1358.3 576.8C1357.1 575.7 1355.2 575.8 1354.1 577.1L1318.9 618C1280.6 589.2 1245 558.3 1212.4 525.3L1247.9 491.8C1249.1 490.7 1249.1 488.8 1248 487.6C1246.9 486.4 1245 486.4 1243.8 487.5L1208.3 521.1C1168.2 480.2 1132.6 436.2 1101.6 389.5C1086.8 367.2 1073.7 345.2 1062.1 323.7L1093.1 308.2C1094.5 307.5 1095.1 305.7 1094.4 304.2C1093.7 302.8 1091.9 302.2 1090.4 302.9L1059.3 318.5C981.5 172.1 972.5 51.7001 971.7 36.6001C971.6 35.0001 970.1 33.7001 968.5 33.8001C967 33.9001 965.8 35.2001 965.7 36.7001L863.2 34.3001L904.5 204.4C908.5 220.9 925.7 230.4 941.7 225.1L1003 204.9C1022.4 260.4 1051.9 325.3 1096.5 392.7C1154.2 479.8 1228 557.3 1316.4 623.6C1316.6 624 1316.8 624.3 1317.2 624.6C1317.7 625 1318.2 625.2 1318.7 625.3C1333.7 636.5 1349.1 647.3 1364.9 657.8C1405 684.5 1447.8 709.1 1493.2 731.6L1471.9 809.7C1466.1 831.1 1476 853.6 1495.7 863.7L1499.1 865.4C1508.2 870 1519.2 865.3 1522 855.5L1550.4 758.1C1558.5 761.6 1566.6 765.1 1574.8 768.5L1525 937.6C1521.1 950.9 1526.6 965.1 1538.4 972.3L1586 1001.4C1601.5 1010.8 1621.7 1004.9 1629.6 988.6L1657.2 931.4C1663.2 918.8 1660.1 903.8 1649.4 894.8L1628.7 877.2C1619.9 869.8 1616.1 858 1618.7 846.9L1631.9 790.7C1650.2 797.4 1668.8 803.7 1687.7 809.8L1682.2 835.6C1678.8 851.3 1687.1 867.1 1701.9 873.3L1710.3 876.9C1723.2 882.3 1729.5 897 1724.6 910.1L1706 959.8C1697.3 983.1 1704 1009.4 1722.9 1025.6L1776.4 1071.6C1776.4 1071.6 1820.9 982.1 1842.4 917.6L1863 855.9C1863.1 855.9 1863.2 855.9 1863.3 856C1863.5 856.1 1863.7 856.1 1863.9 856.1C1865.3 856.1 1866.6 855.2 1866.9 853.8C1867.3 852.1 1866.2 850.5 1864.6 850.2Z" fill="#1A1A1A"/>
<path d="M1885.7 781.8C1885.3 781.7 1839.9 773.4 1764.9 748.4C1763.7 748.1 1762.4 748.4 1761.6 749.4L1742.6 772.7L1743.1 743.2C1743.1 741.9 1742.3 740.7 1741.1 740.3C1687.3 721.3 1632.9 698.8 1579.2 673.3C1578 672.7 1576.5 673 1575.6 674.1L1550.3 704.5L1557 665C1557.3 663.7 1556.6 662.4 1555.4 661.8C1501.2 635 1447.6 605.1 1396.2 572.8C1374.6 559.3 1353.6 544.6 1333.6 529.1C1332.5 528.3 1331.1 528.2 1330 529L1293.1 554.7L1314.9 517.5C1315.6 516.3 1315.3 514.6 1314.2 513.7C1270 477.2 1229.8 435.3 1194.5 389.3C1193.8 388.3 1192.5 387.9 1191.3 388.2L1142.4 402.2L1174.7 366.3C1175.6 365.3 1175.7 363.7 1174.9 362.6C1131.3 300.7 1096.3 232.2 1070.6 159.2C1050.2 100.9 1041.8 56.7001 1039.2 40.4001C1039 38.7001 1037.4 37.6001 1035.8 37.9001C1034.1 38.1001 1033 39.7001 1033.3 41.3001C1034.5 48.7001 1036.8 61.6001 1040.9 78.9001L1017.2 84.7001C1015.6 85.1001 1014.6 86.7001 1015 88.3001C1015.3 89.7001 1016.6 90.6001 1017.9 90.6001C1018.2 90.6001 1018.4 90.6001 1018.6 90.5001L1042.3 84.7001C1047.3 105.4 1054.6 131.5 1065 161.2C1067.4 168 1069.9 174.7 1072.4 181.4L1028.6 199.5C1027.1 200.1 1026.4 201.9 1027 203.4C1027.5 204.6 1028.6 205.3 1029.8 205.3C1030.1 205.3 1030.5 205.2 1030.9 205L1074.5 187C1098.9 250.1 1130.5 309.6 1168.6 364.1L1130.9 406C1130 407 1129.9 408.5 1130.6 409.6C1131.3 410.7 1132.7 411.3 1134 410.9L1191 394.6C1199.4 405.4 1208 416 1216.9 426.4L1159.3 469.9C1158 470.9 1157.7 472.8 1158.7 474.1C1159.3 474.9 1160.2 475.3 1161.1 475.3C1161.7 475.3 1162.4 475.1 1162.9 474.7L1220.8 431C1247.8 461.9 1277.1 490.7 1308.4 516.7L1280.9 563.6C1280.2 564.8 1280.5 566.3 1281.5 567.3C1282.6 568.3 1284.1 568.4 1285.3 567.6L1331.5 535.2C1351.1 550.3 1371.7 564.7 1392.8 577.9C1408.6 587.8 1424.6 597.5 1440.8 607L1419.9 637.3C1419 638.7 1419.3 640.6 1420.7 641.5C1421.2 641.8 1421.8 642 1422.4 642C1423.4 642 1424.3 641.5 1424.9 640.7L1446 610C1480.3 629.9 1515.3 648.7 1550.6 666.2L1542.4 714.5C1542.2 715.8 1542.9 717.1 1544.1 717.7C1545.4 718.3 1546.8 717.9 1547.7 716.9L1578.7 679.7C1613 696 1647.6 711 1682.2 724.7L1665.6 772C1665 773.5 1665.8 775.3 1667.4 775.8C1667.7 775.9 1668.1 776 1668.4 776C1669.7 776 1670.8 775.2 1671.2 774L1687.7 726.9C1704.2 733.3 1720.6 739.5 1737 745.2L1736.4 781.2C1736.4 782.5 1737.2 783.7 1738.4 784.1C1739.6 784.6 1741 784.2 1741.8 783.2L1764.9 754.8C1839.2 779.5 1884.2 787.7 1884.6 787.8C1884.7 787.8 1884.9 787.8 1885.1 787.8C1886.5 787.8 1887.8 786.8 1888.1 785.3C1888.4 783.7 1887.3 782.1 1885.7 781.8Z" fill="#1A1A1A"/>
<path d="M758.5 671.3C757.4 671.3 756.3 670.7 755.8 669.6C712.3 579.5 686.8 505.8 673.1 459.9C658.2 410 653.6 381 653.5 380.8C653.2 379.2 654.4 377.6 656 377.4C657.6 377.1 659.2 378.3 659.4 379.9C659.4 380.2 664.1 408.9 678.9 458.4C692.6 504.1 717.9 577.4 761.2 667.1C761.9 668.6 761.3 670.4 759.8 671.1C759.3 671.2 758.9 671.3 758.5 671.3Z" fill="#1A1A1A"/>
<path d="M1181.5 1847.5C1181.1 1847.5 1180.8 1847.4 1180.4 1847.3C1153.5 1836.7 1135.1 1815.9 1125.5 1785.6C1118 1761.7 1116 1731.8 1119.7 1696.8C1125.9 1637.5 1146.4 1583 1146.6 1582.4C1147.2 1580.9 1148.9 1580.1 1150.5 1580.7C1152 1581.3 1152.8 1583 1152.2 1584.6C1152 1585.1 1131.7 1639 1125.6 1697.6C1122 1731.8 1123.9 1760.8 1131.2 1783.9C1140.1 1812.4 1157.4 1831.8 1182.5 1841.7C1184 1842.3 1184.8 1844.1 1184.2 1845.6C1183.8 1846.7 1182.7 1847.5 1181.5 1847.5Z" fill="#1A1A1A"/>
<path d="M1451.5 1688.4C1450.8 1688.4 1450.1 1688.2 1449.6 1687.7C1448.3 1686.6 1448.2 1684.7 1449.2 1683.5C1583.8 1522.6 1674.4 1373.9 1726.7 1277.6C1783.4 1173.2 1808.5 1106 1808.7 1105.3C1809.3 1103.7 1811 1103 1812.6 1103.5C1814.2 1104.1 1814.9 1105.8 1814.4 1107.4C1814.2 1108.1 1788.9 1175.6 1732.1 1280.3C1679.7 1376.9 1588.9 1526 1453.9 1687.3C1453.2 1688.1 1452.4 1688.4 1451.5 1688.4Z" fill="#1A1A1A"/>
<path d="M143.4 1787.6C143.4 1787.6 180.4 1902.4 184.4 1898.3C188.4 1894.1 182.9 1849.6 182.9 1849.6C182.9 1849.6 219.9 1912.6 224.4 1907.6C228.9 1902.6 209.4 1851.1 213.9 1848.6C218.4 1846.1 252.9 1912.4 260.4 1906.3C267.9 1900.1 235.9 1839.1 235.9 1839.1C235.9 1839.1 276.4 1882.6 280.9 1876.1C285.4 1869.6 256.2 1822.8 256.2 1822.8C256.2 1822.8 285.9 1839.6 293.9 1824.1L233.9 1783.6L216.4 1762.6C216.4 1762.6 184.9 1795.1 143.4 1787.6Z" fill="#009B72"/>
<path d="M395.8 674.9C395.8 674.9 417.5 640.6 421.6 643.9C425.8 647.2 417.8 686.7 417.8 686.7C417.8 686.7 413.2 681.3 395.8 674.9Z" fill="#009B72"/>
<path d="M535.4 964.6C535.4 964.6 513.4 1042.6 449.4 1051.1C385.4 1059.6 358.9 1035.1 346.4 1006.1L377.4 990.6L359.9 875.6L326.9 845.1C326.9 845.1 253.9 821.6 255.9 817.1C257.9 812.6 261.4 752.1 261.4 752.1L279.4 709.1C279.4 709.1 336.9 671.1 375.4 673.1C413.9 675.1 435.9 700.6 444.9 720.1C453.9 739.6 463.4 763.1 459.9 798.6C456.4 834.1 444.9 840.1 444.9 840.1L481.4 963.6C481.4 963.6 523.9 962.1 535.4 964.6Z" fill="#009B72"/>
<path d="M629.3 756.7C629.3 756.7 589.8 737 571.5 728.3C553.2 719.6 525.8 710.3 525.5 714.3C525.2 718.3 562.8 740.3 562.2 743C561.5 745.7 562 748.1 557.8 747C553.6 746 516.9 734.6 504.6 733.3C492.3 732 489.3 736.6 493.3 741.3C497.3 746 508 751.3 508 751.3C508 751.3 476.8 744.1 476.4 750.4C476 756.6 492 767 500.3 770.6C508.6 774.2 531.3 785.6 531.3 785.6C531.3 785.6 505.6 781.9 504.6 781.6C503.6 781.3 478.8 778.3 479.4 783.1C480 787.9 507.3 798.3 510.3 798.9C513.3 799.6 539 807.2 539 807.2C539 807.2 512.7 811.5 509 813.9C505.3 816.2 497.4 824.1 501 832.6L576.8 823.8L597.4 826.8L629.3 756.7Z" fill="#009B72"/>
<path d="M1116.8 1337.5C1107.3 1309.7 1032.3 1315.3 971.1 1324.9C886 1338.2 776.7 1367 663.4 1406C550.1 1445 446.3 1489.5 371 1531.4C272.9 1586 258.6 1615.8 263.9 1631.1C269.1 1646.4 294.1 1651.6 325.7 1651.6C351.6 1651.6 382 1648.1 409.6 1643.7C494.7 1630.4 604 1601.6 717.3 1562.6C830.6 1523.6 934.4 1479.1 1009.7 1437.2C1107.8 1382.6 1122.1 1352.8 1116.8 1337.5Z" fill="#1A1A1A"/>
<path d="M986.9 987.5C960.2 945.5 946.9 916.2 836.2 858.2C725.5 800.2 629.3 756.7 629.3 756.7L597.3 826.9C597.3 826.9 657.9 851.7 723.2 887.7C788.5 923.7 825.9 970.4 814.5 1000.4C803.2 1030.4 731.2 1037.7 683.2 1013.1C635.1 988.3 568.4 967 535.4 964.6C535.4 964.6 523.4 1032.9 454.1 1048.9C384.8 1064.9 362.4 1032.6 346.4 1006.1C346.4 1006.1 262.4 1060.3 201.7 1161.6C141 1262.9 114.4 1364.9 111.7 1496.3C109 1627.6 140.4 1770.3 143.4 1787.6C143.4 1787.6 181.7 1791.6 215.7 1760.9C215.7 1760.9 197.7 1642.9 226.4 1571.6C255.1 1500.3 277.7 1476.3 309.7 1451.6L319 1443.9C319 1443.9 347 1574.7 359.5 1644C374.3 1642.7 390.8 1640.7 408.6 1638C493.4 1624.7 602.3 1596 715.3 1557.1C734.1 1550.7 752.8 1544 771.2 1537.1C776.3 1518.1 776.5 1416.7 772.3 1367.5L765.8 1319.6C765.8 1319.6 820.3 1313.5 883.6 1281.5C946.9 1249.5 986.3 1201.5 1001.6 1152.2C1016.9 1102.9 1013.6 1029.5 986.9 987.5Z" fill="white"/>
<path d="M382.591 740.313C391.474 723.582 392.743 706.87 385.427 702.986C378.11 699.101 364.978 709.515 356.095 726.246C347.213 742.977 345.944 759.689 353.26 763.573C360.577 767.458 373.709 757.044 382.591 740.313Z" fill="white"/>
<path d="M386.9 700.3C377.8 695.5 363.5 706 353.5 724.8C349.1 733.3 346.3 742 345.7 749.5C345 757.8 347.2 763.7 351.9 766.2C353.4 767 355 767.4 356.7 767.4C365.5 767.4 377 757.5 385.3 741.7C395.3 722.9 396 705.1 386.9 700.3ZM354.8 761C352.4 759.7 351.3 755.6 351.7 750C352.2 743.4 354.8 735.4 358.9 727.7C359.7 726.2 360.5 724.8 361.3 723.5C360.7 730.4 362.2 735.7 366 737.6C370.6 740 377.4 736.9 384.1 730.1C383 733 381.7 736 380.1 739C371.7 754.8 359.8 763.7 354.8 761Z" fill="#1A1A1A"/>
<path d="M552.9 803.1C552.6 803.1 552.2 803 551.9 802.9C550.3 802.3 549.5 800.6 550.1 799.1L568.6 747.1C569.2 745.5 570.9 744.7 572.4 745.3C574 745.9 574.8 747.6 574.2 749.1L555.7 801.1C555.3 802.4 554.2 803.1 552.9 803.1Z" fill="#1A1A1A"/>
<path d="M440.61 769.964C441.518 753.144 435.324 739.135 426.777 738.674C418.229 738.213 410.564 751.474 409.656 768.293C408.749 785.113 414.942 799.121 423.49 799.583C432.038 800.044 439.702 786.783 440.61 769.964Z" fill="#1A1A1A"/>
<path d="M424.1 802.6C423.9 802.6 423.7 802.6 423.5 802.6C418.2 802.3 413.5 798.3 410.5 791.3C407.7 785 406.4 776.7 406.9 768.1C407.9 749.3 416.9 735.1 427.2 735.6C432.5 735.9 437.2 739.9 440.2 746.9C443 753.2 444.3 761.5 443.8 770.1C443.3 778.7 441.2 786.7 437.7 792.7C434 799.1 429.2 802.6 424.1 802.6ZM426.5 741.7C420.6 741.7 413.7 752.5 412.8 768.5C412.4 776.2 413.5 783.4 415.9 788.9C418 793.7 420.9 796.5 423.8 796.6C423.9 796.6 424 796.6 424.1 796.6C426.9 796.6 430 794.1 432.5 789.8C435.5 784.6 437.4 777.5 437.8 769.8C438.2 762.1 437.1 754.9 434.7 749.4C432.6 744.6 429.7 741.8 426.8 741.7C426.7 741.7 426.6 741.7 426.5 741.7Z" fill="#1A1A1A"/>
<path d="M498.4 1584.6C497.7 1584.6 496.9 1584.3 496.3 1583.8C495.1 1582.7 495.1 1580.8 496.2 1579.6C586.3 1485.8 632.7 1415.9 655.8 1373.9C684.9 1320.8 686.7 1294.2 683 1289.6C682.2 1288.5 681.1 1288.1 679.7 1288H679.6C664.8 1288 628.2 1330.5 601.5 1361.6C569.2 1399.2 558.2 1411 551.9 1407C547.7 1404.3 546.1 1397.8 569.6 1344.5C608.7 1256.1 619.6 1190.5 621.8 1151C624.2 1108.5 617.5 1086.8 617.4 1086.6C616.9 1085 617.8 1083.3 619.3 1082.8C620.9 1082.3 622.6 1083.2 623.1 1084.7C623.4 1085.6 630.2 1107.7 627.7 1151.3C625.4 1191.2 614.4 1257.6 574.9 1346.8C557.3 1386.6 554.9 1398.1 555.1 1401.4C561.3 1398.7 580.8 1376 596.7 1357.6C627.2 1322.1 661.8 1281.9 679.4 1281.9C679.5 1281.9 679.5 1281.9 679.6 1281.9C682.8 1282 685.5 1283.3 687.5 1285.7C695.7 1296 685 1332.5 660.8 1376.7C637.6 1419.1 590.9 1489.4 500.3 1583.7C500 1584.3 499.2 1584.6 498.4 1584.6Z" fill="#009B72"/>
<path d="M273.5 1385.3C271.3 1385.3 269.2 1384.7 267.2 1383.2C264.1 1381.1 261.6 1376.1 271.2 1343.9C276.4 1326.4 284.7 1302.7 295.8 1273.5C314.6 1223.8 335.4 1174.7 335.6 1174.2C336.2 1172.7 338 1172 339.5 1172.6C341 1173.2 341.7 1175 341.1 1176.5C340.9 1177 320.9 1224.3 302.4 1272.9C291.5 1301.4 283.3 1324.8 277.9 1342.3C268.9 1371.6 270.2 1377.3 270.7 1378.3C279 1383.6 295.3 1360.5 309.7 1340.1C327.4 1315.1 345.7 1289.2 361.9 1292.6C363.5 1292.9 364.6 1294.5 364.2 1296.1C363.9 1297.7 362.3 1298.8 360.7 1298.4C348.3 1295.8 330.4 1321.2 314.6 1343.5C299.1 1365.7 285.3 1385.3 273.5 1385.3Z" fill="#009B72"/>
<path d="M143.3 1619.9C138.5 1619.9 136.2 1613.4 134.5 1607C130 1589.8 132.7 1552.7 142.5 1496.8C149.7 1455.4 158.4 1418.4 158.5 1418.1C158.9 1416.5 160.5 1415.5 162.1 1415.9C163.7 1416.3 164.7 1417.9 164.3 1419.5C164 1421 130.1 1566.2 140.3 1605.6C141.7 1610.9 142.8 1612.9 143.4 1613.7C144.6 1612.4 147.9 1607.1 152.3 1585.3C155.1 1571.5 156.9 1558.2 156.9 1558C157.1 1556.4 158.6 1555.2 160.3 1555.4C161.9 1555.6 163.1 1557.1 162.9 1558.8C162.9 1558.9 160.9 1573.6 157.9 1588.1C152.1 1615.7 147.7 1619.7 143.7 1620C143.6 1619.9 143.5 1619.9 143.3 1619.9Z" fill="#009B72"/>
<path d="M1000.5 1008.5C983.7 964.3 952.2 924.9 911.6 897.3C824.1 837.9 645.5 760.4 631.3 754.3C631.1 754.2 630.9 754 630.7 753.9C630.4 753.7 607 742 582.6 730.9C532.2 707.9 527.4 709.8 525.1 710.7C524 711.2 523.1 712 522.7 713.1C520.7 718.3 528.4 723.3 544.5 733.1C549.9 736.4 555.4 739.8 559.2 742.6L559.3 742.7C559.5 742.8 559.8 743.1 559.5 743.6C559.2 744.2 558.8 744 558.6 744C550.7 741.5 535.4 736.9 521.4 733.6C497.4 727.9 491.4 729.1 489.5 732.9C488.5 735 488.4 737.2 489.4 739.4C490.4 741.6 492.6 743.9 495.5 746.1C487 744.5 479.9 744 476.4 745.8C474.4 746.9 473.6 748.4 473.3 749.5C471.1 757.6 486 766.5 518.4 781.8C492.2 775.6 478.4 774.3 476.3 782.3C476 783.1 476 784.4 476.9 785.9C480.8 792.2 506 801.3 527.9 807.1C520.2 808.4 511.6 810.3 505.5 813.1C500.6 815.4 497.6 818.6 496.4 822.6C494.7 828.7 498.2 834.1 498.3 834.3C498.8 835.2 499.8 835.7 500.8 835.7C500.9 835.7 501 835.7 501.1 835.5L575.8 826.8C575.9 826.8 576 826.9 576.1 826.9C588.5 829 596.1 829.8 596.8 829.9C602.7 832.3 643.9 848.7 688.4 872.1C732.4 895.2 788.6 929.9 806.8 964.1C816.6 982.6 816.3 998 805.8 1008.8C794.9 1020 773.4 1025.6 746.7 1024.2C717.8 1022.7 684.6 1013.2 653.2 997.5C601.7 971.7 557.7 963 529.8 960.3C505.8 957.9 489.6 959.4 483.5 960.2L447.9 839.7C456.4 827 461.5 814.5 463.1 802.4C466.2 779 462.7 751.7 453.8 729.4C448.1 715.4 438.3 698.2 421.8 685.8C422.5 682.4 424 675.4 425.1 667.9C428 648.6 425.9 643.9 423.6 641.8C422.5 640.8 421 640.3 419.4 640.6C416.7 641 412.3 643.4 402.6 658C398.5 664.1 395.1 670 393.7 672.3C373.1 667.4 347.4 671.2 319 683.6C295.4 693.8 278.5 706.1 277.8 706.6C277.7 706.7 277.6 706.8 277.4 706.9C274.6 707.1 271.7 707.6 268.8 708.3C247.3 713.3 223.4 737.3 211.1 751.2C192.7 771.8 177.4 795.2 172.1 810.7C167.1 825.1 167 836.7 171.7 845.2C175.6 852.2 182.5 856.8 192.3 859.1C199.2 860.7 213.7 864 217.3 870.5C218.3 872.3 218.4 874.3 217.6 876.7C216.8 879 215.4 882 213.9 885.2C209.1 895.5 203.2 908.4 208 918.5C210.6 924.1 216.3 927.9 224.7 930C227.2 930.6 229.7 930.9 232.1 930.9C248.3 930.9 262.8 918.4 273.7 908.9C279.7 903.6 287.3 897.1 289.1 899.1C291.9 902.2 292.4 906.6 292.8 910.9C293.6 918.4 294.6 927.7 310.1 926.6C327.6 925.3 352.1 905.2 361 897.4L374 988.5C366.9 991 345.8 999.6 316.2 1023.1C256.5 1070.4 209.6 1140.5 180.8 1191.1C135.7 1271.1 111.2 1369.8 107.9 1484.4C105.9 1556.5 112.1 1634.6 126.4 1717.4C126.4 1717.5 126.4 1717.6 126.4 1717.7C126.4 1718.2 126.5 1718.6 126.7 1719C130.6 1741.6 135.2 1764.5 140.3 1787.7C140.3 1788 140.3 1788.3 140.4 1788.7C140.5 1789 149 1816.3 158.2 1843.4C177.4 1899.7 181.1 1900.7 183.5 1901.4C184.9 1901.8 186.4 1901.4 187.5 1900.4C189 1899 191.7 1896.5 188 1869.9C187.7 1867.3 187.3 1864.8 186.9 1862.3C189.6 1867 192.8 1872.3 196.1 1877.7C215.5 1909.3 220.3 1910.4 222.4 1910.9C222.7 1911 223.1 1911 223.5 1911C224.5 1911 225.3 1910.7 226.3 1910.1C231.2 1906.7 228.4 1896.1 220.4 1870.9C218.4 1864.7 215.9 1856.9 214.7 1851.8C218 1856.3 222.8 1863.9 226.8 1870.4C243.4 1897.1 254 1913.3 262 1909C266.9 1906.4 266.2 1898.9 259.5 1883.2C254.8 1872 248 1858.9 242.5 1848.4C260.4 1868.6 271.8 1879.6 279.3 1879.6C280.4 1879.6 281.5 1879.3 282.5 1878.8C283.3 1878.4 284.4 1877.5 284.8 1875.7C285.7 1871.9 283.7 1862.9 263.3 1829.2C266.9 1830.5 271.5 1831.9 277.2 1833.1C279.4 1833.6 281.3 1833.8 283.1 1833.8C292.2 1833.8 296 1828.3 296.8 1824.7C297.1 1823.5 296.6 1822.3 295.6 1821.6L230.1 1777.1C230 1777 229.9 1777 229.8 1777C224.5 1769.1 220.6 1763.4 219.4 1761.6C218.2 1753.9 204.5 1659.1 222.4 1592.7C237.7 1536.1 268.7 1488.9 317 1449C321.4 1471 341.6 1570.7 357.4 1646.3C357.7 1647.7 358.9 1648.7 360.3 1648.7C360.5 1648.7 360.7 1648.7 360.9 1648.6C362.5 1648.2 363.5 1646.6 363.2 1645C355.1 1606.4 345.9 1561.6 338.2 1524C347.5 1521.4 375.9 1510.3 384.3 1470.7C388.2 1452.1 380.3 1429.7 412.3 1408.7C439.3 1391 427.2 1356.3 422.7 1345.8C443.4 1314.4 452.6 1285.6 459.4 1259.3C459.8 1257.7 458.8 1256 457.2 1255.6C455.5 1255.2 453.9 1256.2 453.5 1257.8C440.8 1306.7 419.7 1364.5 328.6 1432.1C270.4 1475.4 233.7 1527.4 216.5 1591.1C207.2 1625.5 206.3 1667.3 207.8 1701.1C181.1 1713.2 142.6 1714.5 132.1 1714.7C118 1632.9 111.9 1555.8 114 1484.6C117.2 1374.6 140.1 1279.5 181.8 1201.8C207.3 1208.2 242 1187 264 1149.9C281.7 1120 286.4 1087.9 278.2 1066.4C291.2 1052.7 305 1039.7 319.6 1028.1C328.9 1020.7 337.4 1014.8 344.8 1010.2C347 1015.2 352.6 1025.9 363.5 1035.8C374.8 1046.1 393.6 1057.1 422.7 1057.1C428.5 1057.1 434.7 1056.7 441.5 1055.7C481.3 1049.9 505.4 1026.6 518.6 1008.1C530.4 991.4 535.8 975.9 537.4 970.8C539.7 971.3 542 971.8 544.4 972.3C577.9 980 627.1 999.1 670.7 1045.8C692.6 1069.3 733.1 1131.3 758.1 1283.9C760 1295.4 761.7 1307 763.2 1318.6C762.9 1319.1 762.8 1319.7 762.9 1320.3C763 1320.9 763.3 1321.5 763.7 1321.9C774.5 1405 776.1 1488.5 767.5 1538.3C767.2 1540 768.3 1541.5 769.9 1541.8C770.1 1541.8 770.2 1541.8 770.4 1541.8C771.9 1541.8 773.1 1540.8 773.4 1539.3C782 1489.2 780.5 1405.7 769.8 1322.4C781.2 1320.6 819.3 1313.6 861.2 1296.1C890.6 1283.8 916.3 1268.8 937.4 1251.4C963.9 1229.6 983.4 1204.1 995.2 1175.6C1018.7 1118.9 1020.5 1061.1 1000.5 1008.5ZM290.1 1825C288.8 1826.7 285.7 1828.6 278.6 1827.1C266.5 1824.5 259.2 1820.8 258 1820.2C256.4 1817.7 254.8 1815 253 1812.2C248.1 1804.5 243.2 1797 238.7 1790.1L290.1 1825ZM215.9 1766.9C220.7 1773.9 234.5 1794.3 247.9 1815.5C275.6 1859.2 278.8 1870.7 279 1873.5C277.7 1873.4 274 1872.1 265.8 1864.4C258.6 1857.6 250.8 1848.8 244.6 1841.7C241.7 1838.5 239.3 1835.7 237.4 1833.7C235 1831.2 232.7 1828.8 230.2 1830.5C227.6 1832.2 229.1 1835.4 231 1839.3C232.5 1842.3 234.6 1846.4 237.1 1851.1C242.1 1860.8 248.5 1872.9 253.1 1883.5C259.5 1898.3 259.3 1902.5 259 1903.5C258.1 1903.3 255.2 1901.8 248.3 1892.4C243.1 1885.2 237.1 1875.6 231.8 1867.1C218.9 1846.4 215.4 1841.6 211.5 1842C210.3 1842.1 209.3 1842.7 208.7 1843.7C206.7 1846.9 208.6 1853.8 214.6 1872.7C217.6 1882.1 222.8 1898.7 222.7 1904.2C216.2 1899 198.1 1870.2 183.8 1844.2C183 1842.9 181.5 1842.3 180.1 1842.8C178.7 1843.3 177.9 1844.7 178.2 1846.2C182.2 1866.6 184.5 1885.6 184 1893.1C178.5 1883.3 165.2 1847.5 147.7 1791.3C149.2 1791.4 151 1791.5 153 1791.5C165.6 1791.5 188.6 1787.9 215.9 1766.9ZM157.7 1719.2C177.9 1717 194.9 1713.1 208.2 1707.5C209.6 1734.5 212.5 1755.3 213.3 1761.2C180 1787.4 153 1785.9 146 1784.9C141.2 1763.2 136.9 1741.7 133.2 1720.6C138 1720.5 146.9 1720.2 157.7 1719.2ZM419.9 646.6C421.6 650.2 420.1 665.4 416.4 682.1C411.5 679 406.1 676.3 400.1 674.2C400 674.2 399.8 674.1 399.7 674.1C407.7 660.1 416.5 648.2 419.9 646.6ZM513.6 1004.5C495.4 1030.1 470.8 1045.3 440.5 1049.7C410.5 1054.1 386 1048 367.8 1031.5C357 1021.7 351.7 1011 350 1006.9C365.3 997.8 375.2 994.4 377.7 993.6C378 993.5 378.1 993.5 378.2 993.4C378.6 993.3 378.9 993.1 379.2 992.9L379.3 992.8L379.4 992.7C380.2 992 380.6 990.8 380.3 989.7C380.3 989.6 380.2 989.6 380.2 989.5L366 890C367.2 884.2 368.8 870.3 363.8 848.5C360 831.8 353.3 824 348.4 820.4C344 817.2 338.1 816.9 333.2 819.6C312.7 831 304.9 826.2 303 824.5C298.7 820.5 296.8 815.9 297.3 810.7C297.9 804.3 302.3 799 306 796.8C310 794.5 315.4 795.5 319.2 796.8C321.9 797.7 324.8 797.5 327.4 796.2C329.9 794.9 331.8 792.7 332.7 790C336.4 778.7 335.3 760 330.2 746.6C327.7 739.9 321.7 727.1 310.7 717.8C303.8 711.9 296.1 708.4 287.7 707.2C305.7 695.7 357.9 665.9 398 679.9C426.2 689.8 440.8 713.5 448.1 731.7C456.6 753.1 459.9 779.2 457 801.7C452 839.8 409 873.3 404.1 876.9C403.1 877.4 402.5 878.3 402.4 879.4C402.4 879.5 402.4 879.6 402.4 879.7C402.4 879.7 402.4 879.7 402.4 879.8C402.4 880.7 402.9 881.6 403.7 882.1L466.4 923.4L478.5 964.4C478.9 965.8 480.1 966.6 481.4 966.6C481.7 966.6 482 966.6 482.3 966.5C482.4 966.5 482.4 966.5 482.5 966.4C486.4 966.1 505.2 964.9 531.4 969.5C529.7 974.9 524.4 989.3 513.6 1004.5ZM601.3 825.2L630.8 760.5C636.7 763.1 652 769.8 673 779.2L642.1 842.7C622.6 833.9 607.5 827.7 601.3 825.2ZM502.1 824.2C502.8 822 504.8 820.1 508 818.6C520.3 812.9 545.3 811 545.6 811C547.3 810.9 548.5 809.5 548.4 807.8C548.3 806.1 546.9 804.9 545.2 805C545.1 805 545 805 544.9 805C544.6 804.7 544.2 804.6 543.7 804.5C530.6 801.8 515.9 797.6 503.3 793C490.4 788.3 484.6 784.9 482.8 783.3C484 782.8 487.5 782 496.8 783.3C506.1 784.6 517.1 787.4 526 789.6C538.8 792.8 540.5 793.1 542.2 792C542.9 791.5 543.5 790.8 543.6 789.9C544 787.2 541.5 785.9 537.7 784C534.9 782.6 531 780.8 526.5 778.7C516.8 774.2 504.9 768.6 495.1 763.1C480.8 755 479.3 751.6 479.2 751C480 750.5 485.6 748.4 514.4 756.9C516.8 757.6 519.2 758.4 521.5 759.1C533.3 763.8 544.4 767.1 546.8 767.8C548.4 768.3 550 767.4 550.5 765.9C551 764.3 550.2 762.7 548.7 762.1C544.7 760.7 534.5 756.9 522.8 753.2C509.3 747.8 497.2 741.7 495.1 736.9C494.9 736.5 494.9 736.1 494.9 735.9C498.8 734.5 519.6 738.1 556.9 749.7C560.1 750.7 563.4 749.3 564.9 746.4C566.4 743.5 565.7 740 563.1 738L562.9 737.8C558.9 734.8 553.2 731.4 547.7 728C542.3 724.7 534.2 719.7 530.4 716.5C543.1 719.1 585.9 738.2 625.4 757.9L595.4 823.6C592.3 823.2 586 822.4 577.6 821C577.2 820.8 576.7 820.8 576.2 820.8L502.5 829.4C502 828.1 501.5 826.1 502.1 824.2ZM989.6 1173.1C981.5 1192.5 969.8 1210.5 954.6 1226.9C944.5 1212.6 910.4 1236.1 903.8 1223C897.2 1209.6 883.8 1199 842.5 1208.3C801.1 1217.7 823.1 1190.3 795.8 1167C773.3 1147.8 744.3 1154.8 734.9 1157.9C713.4 1091.2 690 1057.6 675.1 1041.6C640.4 1004.4 602.2 984.3 570.9 973.5C594.3 979.1 621.3 988.2 650.6 1002.9C687.1 1021.1 724.6 1030.5 755.2 1030.5C757.6 1030.5 759.9 1030.4 762.1 1030.3L810.3 1051.7C816 1054.2 822.5 1051.8 824.9 1046C827.2 1040.6 833.1 1037.7 838.6 1039.4L869.8 1049C879.9 1052.1 892.6 1046.2 899.7 1034.7C908.8 1020.3 905.8 1002.7 892.2 998.2L817.4 973.7C816.1 969.7 814.4 965.5 812.1 961.3C796.8 932.8 756.2 901 691.2 866.8C675.9 858.7 660.9 851.5 647.6 845.3L678.4 781.8C741 810.3 847 860.8 908.1 902.3C947.7 929.2 978.5 967.6 994.8 1010.6C1014.3 1061.7 1012.5 1117.9 989.6 1173.1Z" fill="#1A1A1A"/>
<path d="M939.1 1161.3C938.5 1161.3 937.9 1161.1 937.4 1160.8C936 1159.9 935.7 1158 936.6 1156.6C977.4 1097 960.3 1021.1 960.2 1020.3C959.8 1018.7 960.8 1017.1 962.4 1016.7C964 1016.3 965.6 1017.3 966 1018.9C966.2 1019.7 970.6 1038.9 969.8 1066C969.1 1091 963.6 1127.7 941.5 1159.9C941 1160.8 940.1 1161.3 939.1 1161.3Z" fill="#009B72"/>
<path d="M251.4 740.1C250.6 740.1 249.8 739.8 249.2 739.1C248.1 737.9 248.2 736 249.4 734.9C262.6 722.8 276.2 720.8 285.3 721.1C295.2 721.5 302 724.8 302.3 724.9C303.8 725.6 304.4 727.4 303.7 728.9C303 730.4 301.2 731 299.7 730.3C298.7 729.8 275.7 719 253.5 739.3C252.9 739.9 252.2 740.1 251.4 740.1Z" fill="#009B72"/>
</svg>
